%TF.GenerationSoftware,KiCad,Pcbnew,(6.0.2)*%
%TF.CreationDate,2022-05-16T22:42:21-04:00*%
%TF.ProjectId,Running MicroBug,52756e6e-696e-4672-904d-6963726f4275,0*%
%TF.SameCoordinates,Original*%
%TF.FileFunction,Copper,L2,Bot*%
%TF.FilePolarity,Positive*%
%FSLAX46Y46*%
G04 Gerber Fmt 4.6, Leading zero omitted, Abs format (unit mm)*
G04 Created by KiCad (PCBNEW (6.0.2)) date 2022-05-16 22:42:21*
%MOMM*%
%LPD*%
G01*
G04 APERTURE LIST*
G04 Aperture macros list*
%AMHorizOval*
0 Thick line with rounded ends*
0 $1 width*
0 $2 $3 position (X,Y) of the first rounded end (center of the circle)*
0 $4 $5 position (X,Y) of the second rounded end (center of the circle)*
0 Add line between two ends*
20,1,$1,$2,$3,$4,$5,0*
0 Add two circle primitives to create the rounded ends*
1,1,$1,$2,$3*
1,1,$1,$4,$5*%
%AMRotRect*
0 Rectangle, with rotation*
0 The origin of the aperture is its center*
0 $1 length*
0 $2 width*
0 $3 Rotation angle, in degrees counterclockwise*
0 Add horizontal line*
21,1,$1,$2,0,0,$3*%
G04 Aperture macros list end*
%TA.AperFunction,EtchedComponent*%
%ADD10C,0.200000*%
%TD*%
%TA.AperFunction,ComponentPad*%
%ADD11C,2.000000*%
%TD*%
%TA.AperFunction,ComponentPad*%
%ADD12R,2.000000X2.000000*%
%TD*%
%TA.AperFunction,WasherPad*%
%ADD13C,4.500000*%
%TD*%
%TA.AperFunction,ComponentPad*%
%ADD14C,1.524000*%
%TD*%
%TA.AperFunction,ComponentPad*%
%ADD15C,2.540000*%
%TD*%
%TA.AperFunction,ComponentPad*%
%ADD16R,5.080000X5.080000*%
%TD*%
%TA.AperFunction,ComponentPad*%
%ADD17C,1.440000*%
%TD*%
%TA.AperFunction,ComponentPad*%
%ADD18C,1.800000*%
%TD*%
%TA.AperFunction,ComponentPad*%
%ADD19RotRect,1.800000X1.800000X225.000000*%
%TD*%
%TA.AperFunction,ComponentPad*%
%ADD20R,1.050000X1.500000*%
%TD*%
%TA.AperFunction,ComponentPad*%
%ADD21O,1.050000X1.500000*%
%TD*%
%TA.AperFunction,ComponentPad*%
%ADD22C,1.600000*%
%TD*%
%TA.AperFunction,ComponentPad*%
%ADD23HorizOval,1.600000X0.000000X0.000000X0.000000X0.000000X0*%
%TD*%
%TA.AperFunction,ComponentPad*%
%ADD24C,1.500000*%
%TD*%
%TA.AperFunction,ComponentPad*%
%ADD25R,1.500000X1.050000*%
%TD*%
%TA.AperFunction,ComponentPad*%
%ADD26O,1.500000X1.050000*%
%TD*%
%TA.AperFunction,ComponentPad*%
%ADD27O,1.600000X1.600000*%
%TD*%
%TA.AperFunction,ComponentPad*%
%ADD28R,1.524000X1.524000*%
%TD*%
%TA.AperFunction,ComponentPad*%
%ADD29HorizOval,1.600000X0.000000X0.000000X0.000000X0.000000X0*%
%TD*%
%TA.AperFunction,ComponentPad*%
%ADD30RotRect,1.800000X1.800000X135.000000*%
%TD*%
%TA.AperFunction,Conductor*%
%ADD31C,0.508000*%
%TD*%
G04 APERTURE END LIST*
D10*
%TO.C,M2*%
X202370000Y-107322000D02*
X201070000Y-107322000D01*
X201070000Y-107322000D02*
X201070000Y-92322000D01*
X201070000Y-92322000D02*
X202370000Y-92322000D01*
X202370000Y-92322000D02*
X202370000Y-107322000D01*
G36*
X202370000Y-107322000D02*
G01*
X201070000Y-107322000D01*
X201070000Y-92322000D01*
X202370000Y-92322000D01*
X202370000Y-107322000D01*
G37*
X182470000Y-107322000D02*
X181170000Y-107322000D01*
X181170000Y-107322000D02*
X181170000Y-92322000D01*
X181170000Y-92322000D02*
X182470000Y-92322000D01*
X182470000Y-92322000D02*
X182470000Y-107322000D01*
G36*
X182470000Y-107322000D02*
G01*
X181170000Y-107322000D01*
X181170000Y-92322000D01*
X182470000Y-92322000D01*
X182470000Y-107322000D01*
G37*
%TO.C,M1*%
X201070000Y-67503000D02*
X202370000Y-67503000D01*
X202370000Y-67503000D02*
X202370000Y-82503000D01*
X202370000Y-82503000D02*
X201070000Y-82503000D01*
X201070000Y-82503000D02*
X201070000Y-67503000D01*
G36*
X201070000Y-67503000D02*
G01*
X202370000Y-67503000D01*
X202370000Y-82503000D01*
X201070000Y-82503000D01*
X201070000Y-67503000D01*
G37*
X181170000Y-67503000D02*
X182470000Y-67503000D01*
X182470000Y-67503000D02*
X182470000Y-82503000D01*
X182470000Y-82503000D02*
X181170000Y-82503000D01*
X181170000Y-82503000D02*
X181170000Y-67503000D01*
G36*
X181170000Y-67503000D02*
G01*
X182470000Y-67503000D01*
X182470000Y-82503000D01*
X181170000Y-82503000D01*
X181170000Y-67503000D01*
G37*
%TD*%
D11*
%TO.P,BT1,2,-*%
%TO.N,GND*%
X126512500Y-93472000D03*
D12*
%TO.P,BT1,1,+*%
%TO.N,Net-(BT1-Pad1)*%
X126512500Y-80772000D03*
D13*
%TO.P,BT1,*%
%TO.N,*%
X154812500Y-87272000D03*
%TD*%
D14*
%TO.P,SW1,3,C*%
%TO.N,+BATT*%
X132548000Y-72494000D03*
%TO.P,SW1,2,B*%
%TO.N,Net-(BT1-Pad1)*%
X129500000Y-72494000D03*
%TO.P,SW1,1,A*%
%TO.N,unconnected-(SW1-Pad1)*%
X126452000Y-72494000D03*
D15*
%TO.P,SW1,*%
%TO.N,*%
X135469000Y-69700000D03*
X123531000Y-69700000D03*
%TD*%
D16*
%TO.P,REF\u002A\u002A,1*%
%TO.N,N/C*%
X121700000Y-96800000D03*
%TO.P,REF\u002A\u002A,2*%
X121700000Y-77800000D03*
%TD*%
D17*
%TO.P,RV2,1,1*%
%TO.N,Net-(LDR2-Pad2)*%
X208000000Y-77145000D03*
%TO.P,RV2,2,2*%
%TO.N,GND*%
X205460000Y-79685000D03*
%TO.P,RV2,3,3*%
X208000000Y-82225000D03*
%TD*%
%TO.P,RV1,1,1*%
%TO.N,Net-(LDR1-Pad2)*%
X208265000Y-92710000D03*
%TO.P,RV1,2,2*%
%TO.N,GND*%
X205725000Y-95250000D03*
%TO.P,RV1,3,3*%
X208265000Y-97790000D03*
%TD*%
D18*
%TO.P,D1,2,A*%
%TO.N,Net-(D1-Pad2)*%
X204959949Y-106952051D03*
D19*
%TO.P,D1,1,K*%
%TO.N,GND*%
X206756000Y-105156000D03*
%TD*%
D20*
%TO.P,T3,1,C*%
%TO.N,Net-(R5-Pad2)*%
X156972000Y-71226000D03*
D21*
%TO.P,T3,2,B*%
%TO.N,Net-(LDR2-Pad2)*%
X158242000Y-71226000D03*
%TO.P,T3,3,E*%
%TO.N,GND*%
X159512000Y-71226000D03*
%TD*%
D22*
%TO.P,R5,1*%
%TO.N,Net-(R5-Pad1)*%
X165000000Y-71900000D03*
D23*
%TO.P,R5,2*%
%TO.N,Net-(R5-Pad2)*%
X172184205Y-64715795D03*
%TD*%
D24*
%TO.P,LDR1,1*%
%TO.N,Net-(LDR1-Pad1)*%
X211000000Y-110000000D03*
%TO.P,LDR1,2*%
%TO.N,Net-(LDR1-Pad2)*%
X208595837Y-112404163D03*
%TD*%
D20*
%TO.P,T1,1,C*%
%TO.N,Net-(R2-Pad2)*%
X159258000Y-103780000D03*
D21*
%TO.P,T1,2,B*%
%TO.N,Net-(LDR1-Pad2)*%
X157988000Y-103780000D03*
%TO.P,T1,3,E*%
%TO.N,GND*%
X156718000Y-103780000D03*
%TD*%
D24*
%TO.P,LDR2,2*%
%TO.N,Net-(LDR2-Pad2)*%
X212404163Y-64404163D03*
%TO.P,LDR2,1*%
%TO.N,Net-(LDR2-Pad1)*%
X210000000Y-62000000D03*
%TD*%
D25*
%TO.P,T2,1,C*%
%TO.N,Net-(R3-Pad1)*%
X176170000Y-103886000D03*
D26*
%TO.P,T2,2,B*%
%TO.N,Net-(R2-Pad1)*%
X176170000Y-105156000D03*
%TO.P,T2,3,E*%
%TO.N,+BATT*%
X176170000Y-106426000D03*
%TD*%
D22*
%TO.P,R3,1*%
%TO.N,Net-(R3-Pad1)*%
X192024000Y-111252000D03*
D27*
%TO.P,R3,2*%
%TO.N,Net-(D1-Pad2)*%
X202184000Y-111252000D03*
%TD*%
D14*
%TO.P,M2,2,-*%
%TO.N,GND*%
X182770000Y-89822000D03*
D28*
%TO.P,M2,1,+*%
%TO.N,Net-(R6-Pad1)*%
X200770000Y-89822000D03*
%TD*%
D27*
%TO.P,R6,2*%
%TO.N,Net-(D2-Pad2)*%
X202980000Y-63600000D03*
D22*
%TO.P,R6,1*%
%TO.N,Net-(R6-Pad1)*%
X192820000Y-63600000D03*
%TD*%
%TO.P,R2,1*%
%TO.N,Net-(R2-Pad1)*%
X165407898Y-102407898D03*
D29*
%TO.P,R2,2*%
%TO.N,Net-(R2-Pad2)*%
X172592103Y-109592103D03*
%TD*%
D26*
%TO.P,T4,3,E*%
%TO.N,+BATT*%
X176170000Y-70866000D03*
%TO.P,T4,2,B*%
%TO.N,Net-(R5-Pad1)*%
X176170000Y-69596000D03*
D25*
%TO.P,T4,1,C*%
%TO.N,Net-(R6-Pad1)*%
X176170000Y-68326000D03*
%TD*%
D30*
%TO.P,D2,1,K*%
%TO.N,GND*%
X207010000Y-69596000D03*
D18*
%TO.P,D2,2,A*%
%TO.N,Net-(D2-Pad2)*%
X205213949Y-67799949D03*
%TD*%
D22*
%TO.P,R4,1*%
%TO.N,+BATT*%
X189738000Y-63500000D03*
D27*
%TO.P,R4,2*%
%TO.N,Net-(LDR2-Pad1)*%
X179578000Y-63500000D03*
%TD*%
D28*
%TO.P,M1,1,+*%
%TO.N,GND*%
X182770000Y-85003000D03*
D14*
%TO.P,M1,2,-*%
%TO.N,Net-(R3-Pad1)*%
X200770000Y-85003000D03*
%TD*%
D22*
%TO.P,R1,1*%
%TO.N,+BATT*%
X178816000Y-111252000D03*
D27*
%TO.P,R1,2*%
%TO.N,Net-(LDR1-Pad1)*%
X188976000Y-111252000D03*
%TD*%
D31*
%TO.N,+BATT*%
X158800000Y-82200000D02*
X142254000Y-82200000D01*
X163800000Y-87200000D02*
X158800000Y-82200000D01*
X142254000Y-82200000D02*
X132548000Y-72494000D01*
X176170000Y-73666000D02*
X176170000Y-70866000D01*
X163700000Y-103500000D02*
X163700000Y-86136000D01*
X163700000Y-86136000D02*
X176170000Y-73666000D01*
X166626000Y-106426000D02*
X163700000Y-103500000D01*
X176170000Y-106426000D02*
X166626000Y-106426000D01*
X183700000Y-63500000D02*
X189738000Y-63500000D01*
X177900000Y-69300000D02*
X183700000Y-63500000D01*
X177035316Y-70866000D02*
X177900000Y-70001316D01*
X177900000Y-70001316D02*
X177900000Y-69300000D01*
X176170000Y-70866000D02*
X177035316Y-70866000D01*
%TO.N,Net-(D2-Pad2)*%
X205213949Y-66413949D02*
X205213949Y-67799949D01*
X202980000Y-64180000D02*
X205213949Y-66413949D01*
X202980000Y-63600000D02*
X202980000Y-64180000D01*
%TO.N,Net-(R6-Pad1)*%
X200013416Y-63600000D02*
X192820000Y-63600000D01*
X200770000Y-87795404D02*
X203700000Y-84865404D01*
X203700000Y-67286584D02*
X200013416Y-63600000D01*
X200770000Y-89822000D02*
X200770000Y-87795404D01*
X203700000Y-84865404D02*
X203700000Y-67286584D01*
%TO.N,Net-(R3-Pad1)*%
X179600000Y-87400000D02*
X176170000Y-90830000D01*
X186500000Y-87400000D02*
X179600000Y-87400000D01*
X176170000Y-90830000D02*
X176170000Y-103886000D01*
X200770000Y-85003000D02*
X188897000Y-85003000D01*
X188897000Y-85003000D02*
X186500000Y-87400000D01*
%TO.N,Net-(LDR2-Pad1)*%
X209250000Y-61250000D02*
X210000000Y-62000000D01*
X181828000Y-61250000D02*
X209250000Y-61250000D01*
X179578000Y-63500000D02*
X181828000Y-61250000D01*
%TO.N,Net-(BT1-Pad1)*%
X126512500Y-75481500D02*
X129500000Y-72494000D01*
X126512500Y-80772000D02*
X126512500Y-75481500D01*
%TO.N,Net-(R3-Pad1)*%
X192024000Y-110424000D02*
X192024000Y-111252000D01*
X181300000Y-109300000D02*
X190900000Y-109300000D01*
X179700000Y-106634795D02*
X179700000Y-107700000D01*
X176170000Y-103886000D02*
X176951205Y-103886000D01*
X176951205Y-103886000D02*
X179700000Y-106634795D01*
X179700000Y-107700000D02*
X181300000Y-109300000D01*
X190900000Y-109300000D02*
X192024000Y-110424000D01*
%TO.N,Net-(R5-Pad1)*%
X167304000Y-69596000D02*
X165000000Y-71900000D01*
X176170000Y-69596000D02*
X167304000Y-69596000D01*
%TO.N,Net-(LDR1-Pad2)*%
X210297860Y-112404163D02*
X208595837Y-112404163D01*
X210600000Y-103100000D02*
X212203511Y-104703511D01*
X212203511Y-110498512D02*
X210297860Y-112404163D01*
X210700000Y-103000000D02*
X210600000Y-103100000D01*
X210700000Y-94800000D02*
X210700000Y-103000000D01*
X209783511Y-93883511D02*
X210700000Y-94800000D01*
X212203511Y-104703511D02*
X212203511Y-110498512D01*
X209438511Y-93883511D02*
X209783511Y-93883511D01*
X208265000Y-92710000D02*
X209438511Y-93883511D01*
%TO.N,Net-(D1-Pad2)*%
X202184000Y-109728000D02*
X204959949Y-106952051D01*
X202184000Y-111252000D02*
X202184000Y-109728000D01*
%TO.N,Net-(LDR1-Pad1)*%
X204607520Y-112992480D02*
X207600000Y-110000000D01*
X207600000Y-110000000D02*
X211000000Y-110000000D01*
X190716480Y-112992480D02*
X204607520Y-112992480D01*
X188976000Y-111252000D02*
X190716480Y-112992480D01*
%TO.N,+BATT*%
X178816000Y-109072000D02*
X176170000Y-106426000D01*
X178816000Y-111252000D02*
X178816000Y-109072000D01*
%TO.N,Net-(R2-Pad2)*%
X165070103Y-109592103D02*
X159258000Y-103780000D01*
X172592103Y-109592103D02*
X165070103Y-109592103D01*
%TO.N,Net-(R2-Pad1)*%
X168156000Y-105156000D02*
X176170000Y-105156000D01*
X165407898Y-102407898D02*
X168156000Y-105156000D01*
%TO.N,Net-(LDR1-Pad2)*%
X198400000Y-114800000D02*
X206200000Y-114800000D01*
X197300000Y-113700000D02*
X198400000Y-114800000D01*
X166995978Y-113700000D02*
X197300000Y-113700000D01*
X157988000Y-104692022D02*
X166995978Y-113700000D01*
X206200000Y-114800000D02*
X208595837Y-112404163D01*
X157988000Y-103780000D02*
X157988000Y-104692022D01*
%TD*%
%TA.AperFunction,Conductor*%
%TO.N,GND*%
G36*
X209024936Y-57834137D02*
G01*
X209389076Y-57876480D01*
X210267979Y-57978680D01*
X210287215Y-57982453D01*
X210987071Y-58177322D01*
X211618358Y-58353098D01*
X211644111Y-58363441D01*
X213062411Y-59124079D01*
X213086007Y-59140447D01*
X214619688Y-60487461D01*
X214619878Y-60487628D01*
X214635057Y-60503509D01*
X215058716Y-61032251D01*
X215367529Y-61417662D01*
X215378076Y-61433030D01*
X215942106Y-62401341D01*
X215949982Y-62417384D01*
X216349492Y-63402297D01*
X216356384Y-63419287D01*
X216361640Y-63435214D01*
X216610021Y-64399405D01*
X216619982Y-64438074D01*
X216623633Y-64460364D01*
X216769905Y-66471793D01*
X216772457Y-66506891D01*
X216771529Y-66533803D01*
X216705812Y-66995000D01*
X216502274Y-68423410D01*
X216497491Y-68444188D01*
X216368147Y-68846643D01*
X216204425Y-69356067D01*
X216184666Y-69417546D01*
X216178558Y-69432979D01*
X215779040Y-70275430D01*
X215774571Y-70284854D01*
X215762865Y-70304642D01*
X215512456Y-70651294D01*
X214739942Y-71720716D01*
X214720833Y-71741708D01*
X213637193Y-72691081D01*
X213613899Y-72707248D01*
X213596323Y-72716712D01*
X212713419Y-73192119D01*
X212670717Y-73215112D01*
X212658177Y-73220210D01*
X212658254Y-73220382D01*
X212650055Y-73224050D01*
X212641427Y-73226516D01*
X212633837Y-73231305D01*
X212633833Y-73231307D01*
X212597892Y-73253985D01*
X212590398Y-73258361D01*
X212578041Y-73265014D01*
X212567841Y-73272548D01*
X212560246Y-73277738D01*
X212518362Y-73304166D01*
X212512419Y-73310896D01*
X212505583Y-73316714D01*
X212505563Y-73316690D01*
X212504225Y-73317916D01*
X212504247Y-73317939D01*
X212497857Y-73324240D01*
X212490634Y-73329575D01*
X212485201Y-73336720D01*
X212485200Y-73336721D01*
X212460666Y-73368986D01*
X212454812Y-73376124D01*
X212427985Y-73406502D01*
X212422039Y-73413235D01*
X212418223Y-73421363D01*
X212413296Y-73428863D01*
X212413269Y-73428846D01*
X212412328Y-73430401D01*
X212412355Y-73430416D01*
X212407989Y-73438261D01*
X212402556Y-73445406D01*
X212391557Y-73474136D01*
X212384854Y-73491644D01*
X212381242Y-73500132D01*
X212360198Y-73544956D01*
X212358816Y-73553830D01*
X212356193Y-73562411D01*
X212356163Y-73562402D01*
X212355696Y-73564156D01*
X212355727Y-73564163D01*
X212353740Y-73572912D01*
X212350528Y-73581301D01*
X212346513Y-73630679D01*
X212345433Y-73639796D01*
X212342999Y-73655432D01*
X212342999Y-73668764D01*
X212342585Y-73678976D01*
X212341375Y-73693863D01*
X212338734Y-73726337D01*
X212340547Y-73735131D01*
X212340654Y-73736873D01*
X212343001Y-73759886D01*
X212343201Y-85439196D01*
X212343445Y-99708642D01*
X212343466Y-100965907D01*
X212342010Y-100979364D01*
X212342199Y-100979378D01*
X212341542Y-100988330D01*
X212339622Y-100997098D01*
X212340240Y-101006051D01*
X212340240Y-101006053D01*
X212343169Y-101048472D01*
X212343468Y-101057151D01*
X212343468Y-101071176D01*
X212345263Y-101083713D01*
X212346233Y-101092862D01*
X212347331Y-101108766D01*
X212349025Y-101133308D01*
X212349026Y-101133312D01*
X212349644Y-101142266D01*
X212352752Y-101150690D01*
X212354633Y-101159464D01*
X212354602Y-101159471D01*
X212355052Y-101161249D01*
X212355081Y-101161240D01*
X212357602Y-101169861D01*
X212358874Y-101178743D01*
X212362588Y-101186912D01*
X212362589Y-101186914D01*
X212379368Y-101223815D01*
X212382872Y-101232338D01*
X212400008Y-101278787D01*
X212405353Y-101285997D01*
X212409623Y-101293895D01*
X212409596Y-101293909D01*
X212410528Y-101295490D01*
X212410553Y-101295474D01*
X212415390Y-101303036D01*
X212419105Y-101311207D01*
X212443107Y-101339062D01*
X212451416Y-101348705D01*
X212457184Y-101355918D01*
X212486664Y-101395686D01*
X212493824Y-101401111D01*
X212500134Y-101407487D01*
X212500112Y-101407509D01*
X212501449Y-101408765D01*
X212501470Y-101408741D01*
X212508229Y-101414637D01*
X212514093Y-101421443D01*
X212547283Y-101442955D01*
X212555626Y-101448362D01*
X212563190Y-101453669D01*
X212571888Y-101460260D01*
X212571899Y-101460267D01*
X212575779Y-101463207D01*
X212587534Y-101469536D01*
X212596324Y-101474740D01*
X212636202Y-101500587D01*
X212644801Y-101503158D01*
X212646430Y-101503911D01*
X212667755Y-101512732D01*
X213495905Y-101958655D01*
X213614371Y-102022444D01*
X213637665Y-102038611D01*
X214721304Y-102987981D01*
X214740410Y-103008970D01*
X215763331Y-104425040D01*
X215775039Y-104444831D01*
X215878336Y-104662650D01*
X216119900Y-105172027D01*
X216179021Y-105296694D01*
X216185130Y-105312127D01*
X216291957Y-105644520D01*
X216497958Y-106285492D01*
X216502741Y-106306270D01*
X216611682Y-107070807D01*
X216771464Y-108192138D01*
X216771996Y-108195875D01*
X216772924Y-108222786D01*
X216625849Y-110245263D01*
X216624100Y-110269315D01*
X216620449Y-110291605D01*
X216369272Y-111266658D01*
X216362108Y-111294468D01*
X216356851Y-111310396D01*
X215972394Y-112258198D01*
X215950453Y-112312288D01*
X215942570Y-112328345D01*
X215850572Y-112486284D01*
X215378540Y-113296655D01*
X215367993Y-113312023D01*
X215281757Y-113419649D01*
X214663282Y-114191528D01*
X214635526Y-114226168D01*
X214620347Y-114242049D01*
X213116867Y-115562539D01*
X213086474Y-115589233D01*
X213062877Y-115605602D01*
X211644576Y-116366242D01*
X211618823Y-116376585D01*
X210287682Y-116747231D01*
X210268438Y-116751006D01*
X209025407Y-116895553D01*
X209007621Y-116896355D01*
X198037827Y-116614914D01*
X198034908Y-116614805D01*
X192129617Y-116326161D01*
X185256251Y-115990199D01*
X185253996Y-115990067D01*
X176456422Y-115398362D01*
X158350392Y-114180590D01*
X158348729Y-114180467D01*
X147478267Y-113304731D01*
X136299996Y-112404197D01*
X136299431Y-112404150D01*
X131249107Y-111962479D01*
X127067170Y-111596751D01*
X127065786Y-111596622D01*
X126184949Y-111509788D01*
X125862471Y-111477997D01*
X125846978Y-111475488D01*
X125131494Y-111313264D01*
X124508564Y-111172025D01*
X124490460Y-111166461D01*
X123616564Y-110824064D01*
X123158117Y-110644442D01*
X123135031Y-110632519D01*
X123082806Y-110598301D01*
X121944681Y-109852608D01*
X121928243Y-109839774D01*
X121912795Y-109825505D01*
X121698595Y-109627661D01*
X121103862Y-109078338D01*
X121092621Y-109066518D01*
X120424181Y-108265667D01*
X120292967Y-108108461D01*
X120277828Y-108085693D01*
X120249532Y-108031087D01*
X119784011Y-107132703D01*
X148090743Y-107132703D01*
X148091302Y-107136947D01*
X148091302Y-107136951D01*
X148098346Y-107190454D01*
X148128268Y-107417734D01*
X148129401Y-107421874D01*
X148129401Y-107421876D01*
X148135326Y-107443534D01*
X148204129Y-107695036D01*
X148205813Y-107698984D01*
X148311883Y-107947659D01*
X148316923Y-107959476D01*
X148390721Y-108082783D01*
X148447261Y-108177254D01*
X148464561Y-108206161D01*
X148644313Y-108430528D01*
X148759177Y-108539530D01*
X148837481Y-108613837D01*
X148852851Y-108628423D01*
X148990128Y-108727067D01*
X149052232Y-108771693D01*
X149086317Y-108796186D01*
X149090112Y-108798195D01*
X149090113Y-108798196D01*
X149109521Y-108808472D01*
X149340392Y-108930712D01*
X149368609Y-108941038D01*
X149527307Y-108999113D01*
X149610373Y-109029511D01*
X149891264Y-109090755D01*
X149919841Y-109093004D01*
X150114282Y-109108307D01*
X150114291Y-109108307D01*
X150116739Y-109108500D01*
X150272271Y-109108500D01*
X150274407Y-109108354D01*
X150274418Y-109108354D01*
X150482548Y-109094165D01*
X150482554Y-109094164D01*
X150486825Y-109093873D01*
X150491020Y-109093004D01*
X150491022Y-109093004D01*
X150718880Y-109045817D01*
X150768342Y-109035574D01*
X151039343Y-108939607D01*
X151127362Y-108894177D01*
X151291005Y-108809715D01*
X151291006Y-108809715D01*
X151294812Y-108807750D01*
X151298313Y-108805289D01*
X151298317Y-108805287D01*
X151482289Y-108675989D01*
X151530023Y-108642441D01*
X151643002Y-108537454D01*
X151737479Y-108449661D01*
X151737481Y-108449658D01*
X151740622Y-108446740D01*
X151922713Y-108224268D01*
X152072927Y-107979142D01*
X152100896Y-107915428D01*
X152186757Y-107719830D01*
X152188483Y-107715898D01*
X152193129Y-107699590D01*
X152232243Y-107562277D01*
X152267244Y-107439406D01*
X152302646Y-107190652D01*
X152307146Y-107159036D01*
X152307146Y-107159034D01*
X152307751Y-107154784D01*
X152307780Y-107149419D01*
X152309235Y-106871583D01*
X152309235Y-106871576D01*
X152309257Y-106867297D01*
X152307798Y-106856210D01*
X152282175Y-106661587D01*
X152271732Y-106582266D01*
X152269582Y-106574405D01*
X152229286Y-106427110D01*
X152195871Y-106304964D01*
X152163966Y-106230165D01*
X152084763Y-106044476D01*
X152084761Y-106044472D01*
X152083077Y-106040524D01*
X151976720Y-105862815D01*
X151937643Y-105797521D01*
X151937640Y-105797517D01*
X151935439Y-105793839D01*
X151755687Y-105569472D01*
X151613763Y-105434791D01*
X151550258Y-105374527D01*
X151550255Y-105374525D01*
X151547149Y-105371577D01*
X151313683Y-105203814D01*
X151291843Y-105192250D01*
X151241472Y-105165580D01*
X151059608Y-105069288D01*
X150858992Y-104995873D01*
X150793658Y-104971964D01*
X150793656Y-104971963D01*
X150789627Y-104970489D01*
X150508736Y-104909245D01*
X150477685Y-104906801D01*
X150285718Y-104891693D01*
X150285709Y-104891693D01*
X150283261Y-104891500D01*
X150127729Y-104891500D01*
X150125593Y-104891646D01*
X150125582Y-104891646D01*
X149917452Y-104905835D01*
X149917446Y-104905836D01*
X149913175Y-104906127D01*
X149908980Y-104906996D01*
X149908978Y-104906996D01*
X149813913Y-104926683D01*
X149631658Y-104964426D01*
X149360657Y-105060393D01*
X149105188Y-105192250D01*
X149101687Y-105194711D01*
X149101683Y-105194713D01*
X148987583Y-105274904D01*
X148869977Y-105357559D01*
X148854892Y-105371577D01*
X148671248Y-105542230D01*
X148659378Y-105553260D01*
X148477287Y-105775732D01*
X148327073Y-106020858D01*
X148211517Y-106284102D01*
X148132756Y-106560594D01*
X148109896Y-106721218D01*
X148095248Y-106824147D01*
X148092249Y-106845216D01*
X148092227Y-106849505D01*
X148092226Y-106849512D01*
X148090765Y-107128417D01*
X148090743Y-107132703D01*
X119784011Y-107132703D01*
X119680466Y-106932878D01*
X119668509Y-106898191D01*
X119667583Y-106893263D01*
X119434631Y-105654269D01*
X119397513Y-105456850D01*
X119395349Y-105434791D01*
X119390782Y-104964426D01*
X119381932Y-104052890D01*
X155685000Y-104052890D01*
X155685300Y-104059035D01*
X155699170Y-104200481D01*
X155701553Y-104212519D01*
X155756542Y-104394651D01*
X155761217Y-104405993D01*
X155850535Y-104573977D01*
X155857322Y-104584193D01*
X155977572Y-104731634D01*
X155986216Y-104740338D01*
X156132809Y-104861610D01*
X156142980Y-104868470D01*
X156310342Y-104958962D01*
X156321647Y-104963714D01*
X156446692Y-105002422D01*
X156460795Y-105002628D01*
X156464000Y-104995873D01*
X156464000Y-104052115D01*
X156459525Y-104036876D01*
X156458135Y-104035671D01*
X156450452Y-104034000D01*
X155703115Y-104034000D01*
X155687876Y-104038475D01*
X155686671Y-104039865D01*
X155685000Y-104047548D01*
X155685000Y-104052890D01*
X119381932Y-104052890D01*
X119376641Y-103507885D01*
X155685000Y-103507885D01*
X155689475Y-103523124D01*
X155690865Y-103524329D01*
X155698548Y-103526000D01*
X156445885Y-103526000D01*
X156461124Y-103521525D01*
X156462329Y-103520135D01*
X156464000Y-103512452D01*
X156464000Y-102571014D01*
X156460027Y-102557483D01*
X156452232Y-102556363D01*
X156335068Y-102590846D01*
X156323700Y-102595439D01*
X156155089Y-102683586D01*
X156144827Y-102690302D01*
X155996557Y-102809515D01*
X155987787Y-102818103D01*
X155865501Y-102963838D01*
X155858563Y-102973969D01*
X155766906Y-103140692D01*
X155762076Y-103151962D01*
X155704548Y-103333315D01*
X155701998Y-103345309D01*
X155685393Y-103493350D01*
X155685000Y-103500374D01*
X155685000Y-103507885D01*
X119376641Y-103507885D01*
X119342349Y-99975722D01*
X119361689Y-99907412D01*
X119414890Y-99860400D01*
X119468343Y-99848500D01*
X124288134Y-99848500D01*
X124350316Y-99841745D01*
X124486705Y-99790615D01*
X124603261Y-99703261D01*
X124690615Y-99586705D01*
X124741745Y-99450316D01*
X124748500Y-99388134D01*
X124748500Y-94704670D01*
X125644660Y-94704670D01*
X125650387Y-94712320D01*
X125821542Y-94817205D01*
X125830337Y-94821687D01*
X126040488Y-94908734D01*
X126049873Y-94911783D01*
X126271054Y-94964885D01*
X126280801Y-94966428D01*
X126507570Y-94984275D01*
X126517430Y-94984275D01*
X126744199Y-94966428D01*
X126753946Y-94964885D01*
X126975127Y-94911783D01*
X126984512Y-94908734D01*
X127194663Y-94821687D01*
X127203458Y-94817205D01*
X127370945Y-94714568D01*
X127380407Y-94704110D01*
X127376624Y-94695334D01*
X126525312Y-93844022D01*
X126511368Y-93836408D01*
X126509535Y-93836539D01*
X126502920Y-93840790D01*
X125651420Y-94692290D01*
X125644660Y-94704670D01*
X124748500Y-94704670D01*
X124748500Y-94468046D01*
X124768502Y-94399925D01*
X124822158Y-94353432D01*
X124849613Y-94345469D01*
X124850270Y-94345473D01*
X124880002Y-94336975D01*
X124896211Y-94333478D01*
X124897979Y-94333217D01*
X124926792Y-94328962D01*
X124939112Y-94323296D01*
X124948835Y-94318824D01*
X124966856Y-94312148D01*
X124981555Y-94307946D01*
X124990182Y-94305480D01*
X125016328Y-94288982D01*
X125030907Y-94281075D01*
X125050838Y-94271908D01*
X125050839Y-94271908D01*
X125058993Y-94268157D01*
X125065767Y-94262269D01*
X125073310Y-94257398D01*
X125075310Y-94260495D01*
X125124034Y-94238204D01*
X125194315Y-94248260D01*
X125249482Y-94297074D01*
X125269932Y-94330445D01*
X125280390Y-94339907D01*
X125289166Y-94336124D01*
X126140478Y-93484812D01*
X126146856Y-93473132D01*
X126876908Y-93473132D01*
X126877039Y-93474965D01*
X126881290Y-93481580D01*
X127732790Y-94333080D01*
X127745170Y-94339840D01*
X127752820Y-94334113D01*
X127857705Y-94162958D01*
X127862187Y-94154163D01*
X127949234Y-93944012D01*
X127952283Y-93934627D01*
X128005385Y-93713446D01*
X128006928Y-93703699D01*
X128024775Y-93476930D01*
X128024775Y-93467070D01*
X128006928Y-93240301D01*
X128005385Y-93230554D01*
X127952283Y-93009373D01*
X127949234Y-92999988D01*
X127862187Y-92789837D01*
X127857705Y-92781042D01*
X127755068Y-92613555D01*
X127744610Y-92604093D01*
X127735834Y-92607876D01*
X126884522Y-93459188D01*
X126876908Y-93473132D01*
X126146856Y-93473132D01*
X126148092Y-93470868D01*
X126147961Y-93469035D01*
X126143710Y-93462420D01*
X125325458Y-92644168D01*
X125291432Y-92581856D01*
X125288553Y-92555078D01*
X125288552Y-92501338D01*
X125288543Y-92239890D01*
X125644593Y-92239890D01*
X125648376Y-92248666D01*
X126499688Y-93099978D01*
X126513632Y-93107592D01*
X126515465Y-93107461D01*
X126522080Y-93103210D01*
X127373580Y-92251710D01*
X127380340Y-92239330D01*
X127374613Y-92231680D01*
X127203458Y-92126795D01*
X127194663Y-92122313D01*
X126984512Y-92035266D01*
X126975127Y-92032217D01*
X126753946Y-91979115D01*
X126744199Y-91977572D01*
X126517430Y-91959725D01*
X126507570Y-91959725D01*
X126280801Y-91977572D01*
X126271054Y-91979115D01*
X126049873Y-92032217D01*
X126040488Y-92035266D01*
X125830337Y-92122313D01*
X125821542Y-92126795D01*
X125654055Y-92229432D01*
X125644593Y-92239890D01*
X125288543Y-92239890D01*
X125288363Y-87243061D01*
X152049110Y-87243061D01*
X152053320Y-87327635D01*
X152064958Y-87561406D01*
X152065647Y-87575255D01*
X152066288Y-87578986D01*
X152066289Y-87578994D01*
X152110778Y-87837898D01*
X152121974Y-87903057D01*
X152123062Y-87906696D01*
X152123063Y-87906699D01*
X152199993Y-88163933D01*
X152217274Y-88221718D01*
X152218787Y-88225189D01*
X152218789Y-88225195D01*
X152262062Y-88324479D01*
X152350166Y-88526622D01*
X152352089Y-88529893D01*
X152352091Y-88529897D01*
X152364791Y-88551500D01*
X152518726Y-88813352D01*
X152521027Y-88816367D01*
X152718212Y-89074742D01*
X152718217Y-89074748D01*
X152720512Y-89077755D01*
X152777481Y-89136235D01*
X152869310Y-89230500D01*
X152952602Y-89316002D01*
X153211632Y-89524640D01*
X153493852Y-89700648D01*
X153795172Y-89841476D01*
X154111229Y-89945085D01*
X154437444Y-90009973D01*
X154441216Y-90010260D01*
X154441224Y-90010261D01*
X154765315Y-90034914D01*
X154765320Y-90034914D01*
X154769092Y-90035201D01*
X155101369Y-90020403D01*
X155105901Y-90019649D01*
X155425720Y-89966417D01*
X155425725Y-89966416D01*
X155429461Y-89965794D01*
X155748616Y-89872164D01*
X155752083Y-89870674D01*
X155752087Y-89870673D01*
X156050728Y-89742366D01*
X156050730Y-89742365D01*
X156054212Y-89740869D01*
X156341821Y-89573813D01*
X156344843Y-89571532D01*
X156344847Y-89571529D01*
X156604253Y-89375697D01*
X156604254Y-89375696D01*
X156607277Y-89373414D01*
X156831176Y-89157574D01*
X156844008Y-89145204D01*
X156844009Y-89145203D01*
X156846735Y-89142575D01*
X157056727Y-88884641D01*
X157227002Y-88614771D01*
X157232183Y-88606560D01*
X157232185Y-88606557D01*
X157234210Y-88603347D01*
X157303065Y-88458012D01*
X157357736Y-88342614D01*
X157376614Y-88302767D01*
X157411099Y-88199405D01*
X157474729Y-88008681D01*
X157481877Y-87987257D01*
X157548472Y-87661386D01*
X157575436Y-87329875D01*
X157575938Y-87281975D01*
X157576019Y-87274221D01*
X157576019Y-87274214D01*
X157576042Y-87272000D01*
X157575909Y-87269789D01*
X157556255Y-86943772D01*
X157556254Y-86943765D01*
X157556027Y-86939997D01*
X157508303Y-86678687D01*
X157496951Y-86616530D01*
X157496950Y-86616525D01*
X157496270Y-86612803D01*
X157492480Y-86600595D01*
X157398761Y-86298771D01*
X157397639Y-86295157D01*
X157261561Y-85991662D01*
X157159886Y-85822781D01*
X157091966Y-85709966D01*
X157091962Y-85709960D01*
X157090007Y-85706713D01*
X157087680Y-85703729D01*
X157087675Y-85703722D01*
X156887794Y-85447425D01*
X156887788Y-85447418D01*
X156885463Y-85444437D01*
X156650892Y-85208634D01*
X156389691Y-85002720D01*
X156105644Y-84829677D01*
X155915306Y-84743135D01*
X155806317Y-84693580D01*
X155806309Y-84693577D01*
X155802865Y-84692011D01*
X155485740Y-84591718D01*
X155261587Y-84549566D01*
X155162587Y-84530949D01*
X155162585Y-84530949D01*
X155158864Y-84530249D01*
X154826970Y-84508496D01*
X154823190Y-84508704D01*
X154823189Y-84508704D01*
X154725418Y-84514085D01*
X154494866Y-84526773D01*
X154491139Y-84527434D01*
X154491135Y-84527434D01*
X154366256Y-84549566D01*
X154167364Y-84584815D01*
X154163739Y-84585920D01*
X154163734Y-84585921D01*
X153956183Y-84649178D01*
X153849207Y-84681782D01*
X153845743Y-84683313D01*
X153845736Y-84683316D01*
X153658551Y-84766070D01*
X153545003Y-84816269D01*
X153541749Y-84818205D01*
X153541743Y-84818208D01*
X153293754Y-84965746D01*
X153259159Y-84986328D01*
X153256158Y-84988643D01*
X153256154Y-84988646D01*
X153240472Y-85000745D01*
X152995816Y-85189496D01*
X152982794Y-85202315D01*
X152806679Y-85375685D01*
X152758788Y-85422829D01*
X152551509Y-85682949D01*
X152376981Y-85966086D01*
X152237732Y-86268140D01*
X152236573Y-86271740D01*
X152236570Y-86271747D01*
X152178576Y-86451838D01*
X152135780Y-86584735D01*
X152135061Y-86588451D01*
X152135059Y-86588459D01*
X152077223Y-86887391D01*
X152072600Y-86911285D01*
X152072333Y-86915061D01*
X152072332Y-86915066D01*
X152049378Y-87239272D01*
X152049110Y-87243061D01*
X125288363Y-87243061D01*
X125288188Y-82401795D01*
X125308188Y-82333673D01*
X125361842Y-82287178D01*
X125427795Y-82276527D01*
X125464366Y-82280500D01*
X127560634Y-82280500D01*
X127622816Y-82273745D01*
X127759205Y-82222615D01*
X127875761Y-82135261D01*
X127963115Y-82018705D01*
X128014245Y-81882316D01*
X128021000Y-81820134D01*
X128021000Y-79723866D01*
X128014245Y-79661684D01*
X127963115Y-79525295D01*
X127875761Y-79408739D01*
X127759205Y-79321385D01*
X127622816Y-79270255D01*
X127560634Y-79263500D01*
X127401000Y-79263500D01*
X127332879Y-79243498D01*
X127286386Y-79189842D01*
X127275000Y-79137500D01*
X127275000Y-75849528D01*
X127295002Y-75781407D01*
X127311905Y-75760433D01*
X129277288Y-73795050D01*
X129339600Y-73761024D01*
X129377364Y-73758624D01*
X129494524Y-73768874D01*
X129494525Y-73768874D01*
X129500000Y-73769353D01*
X129721463Y-73749978D01*
X129865051Y-73711503D01*
X129930886Y-73693863D01*
X129930888Y-73693862D01*
X129936196Y-73692440D01*
X129941178Y-73690117D01*
X130132690Y-73600814D01*
X130132695Y-73600811D01*
X130137677Y-73598488D01*
X130278132Y-73500140D01*
X130315270Y-73474136D01*
X130315273Y-73474134D01*
X130319781Y-73470977D01*
X130476977Y-73313781D01*
X130483710Y-73304166D01*
X130601331Y-73136185D01*
X130601332Y-73136183D01*
X130604488Y-73131676D01*
X130606811Y-73126694D01*
X130606814Y-73126689D01*
X130696117Y-72935178D01*
X130696118Y-72935177D01*
X130698440Y-72930196D01*
X130755978Y-72715463D01*
X130775353Y-72494000D01*
X131272647Y-72494000D01*
X131292022Y-72715463D01*
X131349560Y-72930196D01*
X131351882Y-72935177D01*
X131351883Y-72935178D01*
X131441186Y-73126689D01*
X131441189Y-73126694D01*
X131443512Y-73131676D01*
X131446668Y-73136183D01*
X131446669Y-73136185D01*
X131564291Y-73304166D01*
X131571023Y-73313781D01*
X131728219Y-73470977D01*
X131732727Y-73474134D01*
X131732730Y-73474136D01*
X131769868Y-73500140D01*
X131910323Y-73598488D01*
X131915305Y-73600811D01*
X131915310Y-73600814D01*
X132106822Y-73690117D01*
X132111804Y-73692440D01*
X132117112Y-73693862D01*
X132117114Y-73693863D01*
X132182949Y-73711503D01*
X132326537Y-73749978D01*
X132548000Y-73769353D01*
X132553475Y-73768874D01*
X132553476Y-73768874D01*
X132670636Y-73758624D01*
X132740240Y-73772613D01*
X132770712Y-73795050D01*
X141667190Y-82691528D01*
X141679577Y-82705941D01*
X141692546Y-82723564D01*
X141698129Y-82728307D01*
X141733055Y-82757979D01*
X141740571Y-82764909D01*
X141746315Y-82770653D01*
X141749189Y-82772927D01*
X141749196Y-82772933D01*
X141768711Y-82788372D01*
X141772115Y-82791163D01*
X141822472Y-82833945D01*
X141822476Y-82833948D01*
X141828051Y-82838684D01*
X141834568Y-82842012D01*
X141839632Y-82845389D01*
X141844856Y-82848616D01*
X141850600Y-82853160D01*
X141917104Y-82884242D01*
X141921001Y-82886147D01*
X141986404Y-82919543D01*
X141993518Y-82921284D01*
X141999252Y-82923416D01*
X142005048Y-82925344D01*
X142011680Y-82928444D01*
X142075199Y-82941656D01*
X142083555Y-82943394D01*
X142087839Y-82944364D01*
X142159112Y-82961804D01*
X142164714Y-82962152D01*
X142164717Y-82962152D01*
X142170330Y-82962500D01*
X142170328Y-82962537D01*
X142174227Y-82962773D01*
X142178598Y-82963163D01*
X142185757Y-82964652D01*
X142263577Y-82962546D01*
X142266986Y-82962500D01*
X158431972Y-82962500D01*
X158500093Y-82982502D01*
X158521067Y-82999405D01*
X162900595Y-87378933D01*
X162934621Y-87441245D01*
X162937500Y-87468028D01*
X162937500Y-103432624D01*
X162936067Y-103451574D01*
X162933876Y-103465973D01*
X162933876Y-103465979D01*
X162932776Y-103473208D01*
X162933369Y-103480500D01*
X162933369Y-103480503D01*
X162937085Y-103526183D01*
X162937500Y-103536398D01*
X162937500Y-103544525D01*
X162940811Y-103572924D01*
X162941238Y-103577244D01*
X162947191Y-103650426D01*
X162949447Y-103657388D01*
X162950643Y-103663376D01*
X162952051Y-103669333D01*
X162952899Y-103676607D01*
X162955397Y-103683489D01*
X162955398Y-103683493D01*
X162977945Y-103745607D01*
X162979355Y-103749711D01*
X163001987Y-103819575D01*
X163005787Y-103825838D01*
X163008325Y-103831380D01*
X163011067Y-103836856D01*
X163013566Y-103843741D01*
X163017581Y-103849865D01*
X163053815Y-103905132D01*
X163056130Y-103908800D01*
X163094227Y-103971581D01*
X163097941Y-103975786D01*
X163097943Y-103975789D01*
X163101667Y-103980005D01*
X163101638Y-103980031D01*
X163104238Y-103982962D01*
X163107042Y-103986316D01*
X163111054Y-103992435D01*
X163116366Y-103997467D01*
X163167586Y-104045988D01*
X163170028Y-104048366D01*
X166039190Y-106917528D01*
X166051577Y-106931941D01*
X166064546Y-106949564D01*
X166070129Y-106954307D01*
X166105055Y-106983979D01*
X166112571Y-106990909D01*
X166118315Y-106996653D01*
X166121189Y-106998927D01*
X166121196Y-106998933D01*
X166140711Y-107014372D01*
X166144115Y-107017163D01*
X166194472Y-107059945D01*
X166194476Y-107059948D01*
X166200051Y-107064684D01*
X166206568Y-107068012D01*
X166211632Y-107071389D01*
X166216856Y-107074616D01*
X166222600Y-107079160D01*
X166289104Y-107110242D01*
X166293001Y-107112147D01*
X166358404Y-107145543D01*
X166365518Y-107147283D01*
X166371260Y-107149419D01*
X166377051Y-107151346D01*
X166383680Y-107154444D01*
X166455569Y-107169397D01*
X166459835Y-107170363D01*
X166531112Y-107187804D01*
X166536714Y-107188152D01*
X166536717Y-107188152D01*
X166542330Y-107188500D01*
X166542328Y-107188539D01*
X166546229Y-107188772D01*
X166550588Y-107189161D01*
X166557756Y-107190652D01*
X166565073Y-107190454D01*
X166635577Y-107188546D01*
X166638986Y-107188500D01*
X175199942Y-107188500D01*
X175268063Y-107208502D01*
X175280933Y-107217979D01*
X175353557Y-107278918D01*
X175353563Y-107278922D01*
X175358281Y-107282881D01*
X175363673Y-107285845D01*
X175363677Y-107285848D01*
X175530494Y-107377556D01*
X175535891Y-107380523D01*
X175729084Y-107441807D01*
X175735201Y-107442493D01*
X175735205Y-107442494D01*
X175809348Y-107450810D01*
X175886817Y-107459500D01*
X176072972Y-107459500D01*
X176141093Y-107479502D01*
X176162067Y-107496405D01*
X178016595Y-109350933D01*
X178050621Y-109413245D01*
X178053500Y-109440028D01*
X178053500Y-110122933D01*
X178033498Y-110191054D01*
X177999772Y-110226145D01*
X177976214Y-110242641D01*
X177971700Y-110245802D01*
X177809802Y-110407700D01*
X177806645Y-110412208D01*
X177806643Y-110412211D01*
X177773379Y-110459717D01*
X177678477Y-110595251D01*
X177676154Y-110600233D01*
X177676151Y-110600238D01*
X177595765Y-110772629D01*
X177581716Y-110802757D01*
X177580294Y-110808065D01*
X177580293Y-110808067D01*
X177523881Y-111018598D01*
X177522457Y-111023913D01*
X177502502Y-111252000D01*
X177522457Y-111480087D01*
X177523881Y-111485400D01*
X177523881Y-111485402D01*
X177551434Y-111588228D01*
X177581716Y-111701243D01*
X177584039Y-111706224D01*
X177584039Y-111706225D01*
X177676151Y-111903762D01*
X177676154Y-111903767D01*
X177678477Y-111908749D01*
X177809802Y-112096300D01*
X177971700Y-112258198D01*
X177976208Y-112261355D01*
X177976211Y-112261357D01*
X178048948Y-112312288D01*
X178159251Y-112389523D01*
X178164233Y-112391846D01*
X178164238Y-112391849D01*
X178360047Y-112483155D01*
X178366757Y-112486284D01*
X178372065Y-112487706D01*
X178372067Y-112487707D01*
X178582598Y-112544119D01*
X178582600Y-112544119D01*
X178587913Y-112545543D01*
X178816000Y-112565498D01*
X179044087Y-112545543D01*
X179049400Y-112544119D01*
X179049402Y-112544119D01*
X179259933Y-112487707D01*
X179259935Y-112487706D01*
X179265243Y-112486284D01*
X179271953Y-112483155D01*
X179467762Y-112391849D01*
X179467767Y-112391846D01*
X179472749Y-112389523D01*
X179583052Y-112312288D01*
X179655789Y-112261357D01*
X179655792Y-112261355D01*
X179660300Y-112258198D01*
X179822198Y-112096300D01*
X179953523Y-111908749D01*
X179955846Y-111903767D01*
X179955849Y-111903762D01*
X180047961Y-111706225D01*
X180047961Y-111706224D01*
X180050284Y-111701243D01*
X180080567Y-111588228D01*
X180108119Y-111485402D01*
X180108119Y-111485400D01*
X180109543Y-111480087D01*
X180129498Y-111252000D01*
X180109543Y-111023913D01*
X180108119Y-111018598D01*
X180051707Y-110808067D01*
X180051706Y-110808065D01*
X180050284Y-110802757D01*
X180036235Y-110772629D01*
X179955849Y-110600238D01*
X179955846Y-110600233D01*
X179953523Y-110595251D01*
X179858621Y-110459717D01*
X179825357Y-110412211D01*
X179825355Y-110412208D01*
X179822198Y-110407700D01*
X179660300Y-110245802D01*
X179655786Y-110242641D01*
X179632228Y-110226145D01*
X179587900Y-110170688D01*
X179578500Y-110122933D01*
X179578500Y-109139376D01*
X179579933Y-109120426D01*
X179582124Y-109106027D01*
X179582124Y-109106021D01*
X179583224Y-109098792D01*
X179582571Y-109090755D01*
X179578915Y-109045817D01*
X179578500Y-109035602D01*
X179578500Y-109027475D01*
X179575189Y-108999076D01*
X179574760Y-108994736D01*
X179572312Y-108964640D01*
X179586725Y-108895122D01*
X179636435Y-108844432D01*
X179705659Y-108828664D01*
X179772418Y-108852825D01*
X179786992Y-108865330D01*
X180713190Y-109791528D01*
X180725577Y-109805941D01*
X180738546Y-109823564D01*
X180744129Y-109828307D01*
X180779055Y-109857979D01*
X180786571Y-109864909D01*
X180792315Y-109870653D01*
X180795189Y-109872927D01*
X180795196Y-109872933D01*
X180814711Y-109888372D01*
X180818115Y-109891163D01*
X180868472Y-109933945D01*
X180868476Y-109933948D01*
X180874051Y-109938684D01*
X180880568Y-109942012D01*
X180885632Y-109945389D01*
X180890856Y-109948616D01*
X180896600Y-109953160D01*
X180963104Y-109984242D01*
X180967001Y-109986147D01*
X181032404Y-110019543D01*
X181039518Y-110021284D01*
X181045252Y-110023416D01*
X181051048Y-110025344D01*
X181057680Y-110028444D01*
X181129555Y-110043394D01*
X181133839Y-110044364D01*
X181205112Y-110061804D01*
X181210714Y-110062152D01*
X181210717Y-110062152D01*
X181216330Y-110062500D01*
X181216328Y-110062537D01*
X181220227Y-110062773D01*
X181224598Y-110063163D01*
X181231757Y-110064652D01*
X181309577Y-110062546D01*
X181312986Y-110062500D01*
X188010812Y-110062500D01*
X188078933Y-110082502D01*
X188125426Y-110136158D01*
X188135530Y-110206432D01*
X188106036Y-110271012D01*
X188099907Y-110277595D01*
X187969802Y-110407700D01*
X187966645Y-110412208D01*
X187966643Y-110412211D01*
X187933379Y-110459717D01*
X187838477Y-110595251D01*
X187836154Y-110600233D01*
X187836151Y-110600238D01*
X187755765Y-110772629D01*
X187741716Y-110802757D01*
X187740294Y-110808065D01*
X187740293Y-110808067D01*
X187683881Y-111018598D01*
X187682457Y-111023913D01*
X187662502Y-111252000D01*
X187682457Y-111480087D01*
X187683881Y-111485400D01*
X187683881Y-111485402D01*
X187711434Y-111588228D01*
X187741716Y-111701243D01*
X187744039Y-111706224D01*
X187744039Y-111706225D01*
X187836151Y-111903762D01*
X187836154Y-111903767D01*
X187838477Y-111908749D01*
X187969802Y-112096300D01*
X188131700Y-112258198D01*
X188136208Y-112261355D01*
X188136211Y-112261357D01*
X188208948Y-112312288D01*
X188319251Y-112389523D01*
X188324233Y-112391846D01*
X188324238Y-112391849D01*
X188520047Y-112483155D01*
X188526757Y-112486284D01*
X188532065Y-112487706D01*
X188532067Y-112487707D01*
X188742598Y-112544119D01*
X188742600Y-112544119D01*
X188747913Y-112545543D01*
X188976000Y-112565498D01*
X188981475Y-112565019D01*
X189133711Y-112551700D01*
X189203316Y-112565689D01*
X189233788Y-112588126D01*
X189368067Y-112722405D01*
X189402093Y-112784717D01*
X189397028Y-112855532D01*
X189354481Y-112912368D01*
X189287961Y-112937179D01*
X189278972Y-112937500D01*
X167364006Y-112937500D01*
X167295885Y-112917498D01*
X167274911Y-112900595D01*
X164945331Y-110571015D01*
X164911305Y-110508703D01*
X164916370Y-110437888D01*
X164958917Y-110381052D01*
X165031017Y-110355966D01*
X165079680Y-110354649D01*
X165083089Y-110354603D01*
X171463036Y-110354603D01*
X171531157Y-110374605D01*
X171566248Y-110408331D01*
X171582744Y-110431889D01*
X171585905Y-110436403D01*
X171747803Y-110598301D01*
X171752311Y-110601458D01*
X171752314Y-110601460D01*
X171787748Y-110626271D01*
X171935354Y-110729626D01*
X171940336Y-110731949D01*
X171940341Y-110731952D01*
X172137878Y-110824064D01*
X172142860Y-110826387D01*
X172148168Y-110827809D01*
X172148170Y-110827810D01*
X172358701Y-110884222D01*
X172358703Y-110884222D01*
X172364016Y-110885646D01*
X172592103Y-110905601D01*
X172820190Y-110885646D01*
X172825503Y-110884222D01*
X172825505Y-110884222D01*
X173036036Y-110827810D01*
X173036038Y-110827809D01*
X173041346Y-110826387D01*
X173046328Y-110824064D01*
X173243865Y-110731952D01*
X173243870Y-110731949D01*
X173248852Y-110729626D01*
X173396458Y-110626271D01*
X173431892Y-110601460D01*
X173431895Y-110601458D01*
X173436403Y-110598301D01*
X173598301Y-110436403D01*
X173615241Y-110412211D01*
X173661274Y-110346468D01*
X173729626Y-110248852D01*
X173731949Y-110243870D01*
X173731952Y-110243865D01*
X173824064Y-110046328D01*
X173824064Y-110046327D01*
X173826387Y-110041346D01*
X173831192Y-110023416D01*
X173884222Y-109825505D01*
X173884222Y-109825503D01*
X173885646Y-109820190D01*
X173905601Y-109592103D01*
X173885646Y-109364016D01*
X173882913Y-109353815D01*
X173827810Y-109148170D01*
X173827809Y-109148168D01*
X173826387Y-109142860D01*
X173805838Y-109098792D01*
X173731952Y-108940341D01*
X173731949Y-108940336D01*
X173729626Y-108935354D01*
X173640782Y-108808472D01*
X173601460Y-108752314D01*
X173601458Y-108752311D01*
X173598301Y-108747803D01*
X173436403Y-108585905D01*
X173431895Y-108582748D01*
X173431892Y-108582746D01*
X173314568Y-108500595D01*
X173248852Y-108454580D01*
X173243870Y-108452257D01*
X173243865Y-108452254D01*
X173046328Y-108360142D01*
X173046327Y-108360142D01*
X173041346Y-108357819D01*
X173036038Y-108356397D01*
X173036036Y-108356396D01*
X172825505Y-108299984D01*
X172825503Y-108299984D01*
X172820190Y-108298560D01*
X172592103Y-108278605D01*
X172364016Y-108298560D01*
X172358703Y-108299984D01*
X172358701Y-108299984D01*
X172148170Y-108356396D01*
X172148168Y-108356397D01*
X172142860Y-108357819D01*
X172137879Y-108360142D01*
X172137878Y-108360142D01*
X171940341Y-108452254D01*
X171940336Y-108452257D01*
X171935354Y-108454580D01*
X171869638Y-108500595D01*
X171752314Y-108582746D01*
X171752311Y-108582748D01*
X171747803Y-108585905D01*
X171585905Y-108747803D01*
X171582746Y-108752315D01*
X171582744Y-108752317D01*
X171566248Y-108775875D01*
X171510791Y-108820203D01*
X171463036Y-108829603D01*
X165438131Y-108829603D01*
X165370010Y-108809601D01*
X165349036Y-108792698D01*
X160328405Y-103772067D01*
X160294379Y-103709755D01*
X160291500Y-103682972D01*
X160291500Y-102981866D01*
X160284745Y-102919684D01*
X160233615Y-102783295D01*
X160146261Y-102666739D01*
X160029705Y-102579385D01*
X159893316Y-102528255D01*
X159831134Y-102521500D01*
X158684866Y-102521500D01*
X158622684Y-102528255D01*
X158606466Y-102534335D01*
X158494704Y-102576232D01*
X158494701Y-102576234D01*
X158486295Y-102579385D01*
X158479106Y-102584773D01*
X158478863Y-102584906D01*
X158409506Y-102600076D01*
X158381092Y-102594752D01*
X158372587Y-102592119D01*
X158196820Y-102537710D01*
X158190695Y-102537066D01*
X158190694Y-102537066D01*
X158001378Y-102517168D01*
X158001377Y-102517168D01*
X157995250Y-102516524D01*
X157911986Y-102524102D01*
X157799543Y-102534335D01*
X157799540Y-102534336D01*
X157793404Y-102534894D01*
X157787498Y-102536632D01*
X157787494Y-102536633D01*
X157694079Y-102564127D01*
X157598971Y-102592119D01*
X157593514Y-102594972D01*
X157593511Y-102594973D01*
X157424819Y-102683162D01*
X157424815Y-102683165D01*
X157419355Y-102686019D01*
X157419103Y-102686221D01*
X157353088Y-102706201D01*
X157292115Y-102691041D01*
X157125658Y-102601038D01*
X157114353Y-102596286D01*
X156989308Y-102557578D01*
X156975205Y-102557372D01*
X156972000Y-102564127D01*
X156972000Y-103333758D01*
X156971215Y-103347803D01*
X156954500Y-103496817D01*
X156954500Y-104056004D01*
X156969277Y-104206713D01*
X156969968Y-104209002D01*
X156972000Y-104229724D01*
X156972000Y-104988986D01*
X156975973Y-105002517D01*
X156983768Y-105003637D01*
X157100932Y-104969154D01*
X157112304Y-104964559D01*
X157121381Y-104959814D01*
X157191016Y-104945979D01*
X157257077Y-104971988D01*
X157288916Y-105012202D01*
X157289967Y-105011564D01*
X157290485Y-105012417D01*
X157292628Y-105016890D01*
X157294325Y-105019033D01*
X157296326Y-105023404D01*
X157299067Y-105028878D01*
X157301566Y-105035763D01*
X157305581Y-105041887D01*
X157341815Y-105097154D01*
X157344130Y-105100822D01*
X157382227Y-105163603D01*
X157385941Y-105167808D01*
X157385943Y-105167811D01*
X157389667Y-105172027D01*
X157389638Y-105172053D01*
X157392238Y-105174984D01*
X157395042Y-105178338D01*
X157399054Y-105184457D01*
X157409881Y-105194713D01*
X157455586Y-105238010D01*
X157458028Y-105240388D01*
X166409168Y-114191528D01*
X166421555Y-114205941D01*
X166434524Y-114223564D01*
X166440107Y-114228307D01*
X166475033Y-114257979D01*
X166482549Y-114264909D01*
X166488293Y-114270653D01*
X166491167Y-114272927D01*
X166491174Y-114272933D01*
X166510689Y-114288372D01*
X166514093Y-114291163D01*
X166564450Y-114333945D01*
X166564454Y-114333948D01*
X166570029Y-114338684D01*
X166576546Y-114342012D01*
X166581610Y-114345389D01*
X166586834Y-114348616D01*
X166592578Y-114353160D01*
X166659082Y-114384242D01*
X166662979Y-114386147D01*
X166728382Y-114419543D01*
X166735496Y-114421284D01*
X166741230Y-114423416D01*
X166747026Y-114425344D01*
X166753658Y-114428444D01*
X166825533Y-114443394D01*
X166829817Y-114444364D01*
X166901090Y-114461804D01*
X166906692Y-114462152D01*
X166906695Y-114462152D01*
X166912308Y-114462500D01*
X166912306Y-114462537D01*
X166916205Y-114462773D01*
X166920576Y-114463163D01*
X166927735Y-114464652D01*
X167005555Y-114462546D01*
X167008964Y-114462500D01*
X196931972Y-114462500D01*
X197000093Y-114482502D01*
X197021067Y-114499405D01*
X197813190Y-115291528D01*
X197825577Y-115305941D01*
X197838546Y-115323564D01*
X197844129Y-115328307D01*
X197879055Y-115357979D01*
X197886571Y-115364909D01*
X197892315Y-115370653D01*
X197895189Y-115372927D01*
X197895196Y-115372933D01*
X197914711Y-115388372D01*
X197918115Y-115391163D01*
X197968472Y-115433945D01*
X197968476Y-115433948D01*
X197974051Y-115438684D01*
X197980568Y-115442012D01*
X197985632Y-115445389D01*
X197990856Y-115448616D01*
X197996600Y-115453160D01*
X198063104Y-115484242D01*
X198067001Y-115486147D01*
X198132404Y-115519543D01*
X198139518Y-115521283D01*
X198145260Y-115523419D01*
X198151051Y-115525346D01*
X198157680Y-115528444D01*
X198229569Y-115543397D01*
X198233835Y-115544363D01*
X198305112Y-115561804D01*
X198310714Y-115562152D01*
X198310717Y-115562152D01*
X198316330Y-115562500D01*
X198316328Y-115562539D01*
X198320229Y-115562772D01*
X198324588Y-115563161D01*
X198331756Y-115564652D01*
X198339073Y-115564454D01*
X198409577Y-115562546D01*
X198412986Y-115562500D01*
X206132624Y-115562500D01*
X206151574Y-115563933D01*
X206165973Y-115566124D01*
X206165979Y-115566124D01*
X206173208Y-115567224D01*
X206180500Y-115566631D01*
X206180503Y-115566631D01*
X206226183Y-115562915D01*
X206236398Y-115562500D01*
X206244525Y-115562500D01*
X206248161Y-115562076D01*
X206248163Y-115562076D01*
X206251615Y-115561673D01*
X206272924Y-115559189D01*
X206277244Y-115558762D01*
X206350426Y-115552809D01*
X206357388Y-115550553D01*
X206363376Y-115549357D01*
X206369333Y-115547949D01*
X206376607Y-115547101D01*
X206383489Y-115544603D01*
X206383493Y-115544602D01*
X206445607Y-115522055D01*
X206449711Y-115520645D01*
X206519575Y-115498013D01*
X206525838Y-115494213D01*
X206531380Y-115491675D01*
X206536856Y-115488933D01*
X206543741Y-115486434D01*
X206605132Y-115446185D01*
X206608800Y-115443870D01*
X206671581Y-115405773D01*
X206675786Y-115402059D01*
X206675789Y-115402057D01*
X206680005Y-115398333D01*
X206680031Y-115398362D01*
X206682962Y-115395762D01*
X206686316Y-115392958D01*
X206692435Y-115388946D01*
X206745989Y-115332413D01*
X206748366Y-115329972D01*
X208384202Y-113694136D01*
X208446514Y-113660110D01*
X208484275Y-113657710D01*
X208595837Y-113667470D01*
X208815208Y-113648278D01*
X209027913Y-113591283D01*
X209227491Y-113498219D01*
X209339700Y-113419649D01*
X209403364Y-113375071D01*
X209403366Y-113375069D01*
X209407875Y-113371912D01*
X209563586Y-113216201D01*
X209566741Y-113211695D01*
X209566763Y-113211669D01*
X209625874Y-113172344D01*
X209663282Y-113166663D01*
X210230484Y-113166663D01*
X210249434Y-113168096D01*
X210263833Y-113170287D01*
X210263839Y-113170287D01*
X210271068Y-113171387D01*
X210278360Y-113170794D01*
X210278363Y-113170794D01*
X210324043Y-113167078D01*
X210334258Y-113166663D01*
X210342385Y-113166663D01*
X210346021Y-113166239D01*
X210346023Y-113166239D01*
X210349475Y-113165836D01*
X210370784Y-113163352D01*
X210375104Y-113162925D01*
X210448286Y-113156972D01*
X210455248Y-113154716D01*
X210461236Y-113153520D01*
X210467193Y-113152112D01*
X210474467Y-113151264D01*
X210481349Y-113148766D01*
X210481353Y-113148765D01*
X210543467Y-113126218D01*
X210547571Y-113124808D01*
X210617435Y-113102176D01*
X210623698Y-113098376D01*
X210629240Y-113095838D01*
X210634716Y-113093096D01*
X210641601Y-113090597D01*
X210702992Y-113050348D01*
X210706660Y-113048033D01*
X210769441Y-113009936D01*
X210773646Y-113006222D01*
X210773649Y-113006220D01*
X210777865Y-113002496D01*
X210777891Y-113002525D01*
X210780822Y-112999925D01*
X210784176Y-112997121D01*
X210790295Y-112993109D01*
X210843849Y-112936576D01*
X210846226Y-112934135D01*
X212695039Y-111085322D01*
X212709452Y-111072935D01*
X212721176Y-111064307D01*
X212727075Y-111059966D01*
X212761490Y-111019457D01*
X212768420Y-111011941D01*
X212774164Y-111006197D01*
X212776435Y-111003327D01*
X212776440Y-111003321D01*
X212791908Y-110983771D01*
X212794696Y-110980371D01*
X212837454Y-110930042D01*
X212837456Y-110930040D01*
X212842195Y-110924461D01*
X212845525Y-110917940D01*
X212848916Y-110912855D01*
X212852127Y-110907656D01*
X212856671Y-110901913D01*
X212887746Y-110835423D01*
X212889678Y-110831471D01*
X212919724Y-110772629D01*
X212923054Y-110766108D01*
X212924795Y-110758995D01*
X212926923Y-110753272D01*
X212928855Y-110747463D01*
X212931954Y-110740833D01*
X212933802Y-110731952D01*
X212946900Y-110668978D01*
X212947871Y-110664689D01*
X212963980Y-110598855D01*
X212965315Y-110593400D01*
X212966011Y-110582182D01*
X212966049Y-110582184D01*
X212966284Y-110578269D01*
X212966672Y-110573918D01*
X212968162Y-110566756D01*
X212966057Y-110488956D01*
X212966011Y-110485548D01*
X212966011Y-104770887D01*
X212967444Y-104751937D01*
X212969635Y-104737538D01*
X212969635Y-104737532D01*
X212970735Y-104730303D01*
X212966426Y-104677328D01*
X212966011Y-104667113D01*
X212966011Y-104658986D01*
X212962700Y-104630587D01*
X212962271Y-104626247D01*
X212956913Y-104560378D01*
X212956320Y-104553085D01*
X212954064Y-104546123D01*
X212952868Y-104540135D01*
X212951460Y-104534178D01*
X212950612Y-104526904D01*
X212948114Y-104520022D01*
X212948113Y-104520018D01*
X212925566Y-104457904D01*
X212924156Y-104453800D01*
X212901524Y-104383936D01*
X212897724Y-104377673D01*
X212895186Y-104372131D01*
X212892444Y-104366655D01*
X212889945Y-104359770D01*
X212849696Y-104298379D01*
X212847381Y-104294711D01*
X212809284Y-104231930D01*
X212801844Y-104223506D01*
X212801873Y-104223480D01*
X212799273Y-104220549D01*
X212796469Y-104217195D01*
X212792457Y-104211076D01*
X212735924Y-104157522D01*
X212733483Y-104155145D01*
X211499405Y-102921067D01*
X211465379Y-102858755D01*
X211462500Y-102831972D01*
X211462500Y-94867368D01*
X211463933Y-94848417D01*
X211466123Y-94834024D01*
X211466123Y-94834022D01*
X211467223Y-94826792D01*
X211466444Y-94817205D01*
X211462915Y-94773825D01*
X211462500Y-94763611D01*
X211462500Y-94755475D01*
X211459186Y-94727056D01*
X211458757Y-94722711D01*
X211453403Y-94656874D01*
X211453403Y-94656872D01*
X211452809Y-94649574D01*
X211450552Y-94642607D01*
X211449353Y-94636607D01*
X211447949Y-94630667D01*
X211447101Y-94623393D01*
X211444603Y-94616511D01*
X211444602Y-94616507D01*
X211422055Y-94554393D01*
X211420645Y-94550289D01*
X211398013Y-94480425D01*
X211394213Y-94474162D01*
X211391675Y-94468620D01*
X211388933Y-94463144D01*
X211386434Y-94456259D01*
X211346185Y-94394868D01*
X211343870Y-94391200D01*
X211305773Y-94328419D01*
X211302057Y-94324212D01*
X211302054Y-94324208D01*
X211298332Y-94319995D01*
X211298360Y-94319970D01*
X211295768Y-94317045D01*
X211292958Y-94313685D01*
X211288946Y-94307565D01*
X211232416Y-94254013D01*
X211229974Y-94251636D01*
X210370321Y-93391983D01*
X210357934Y-93377570D01*
X210349306Y-93365846D01*
X210344965Y-93359947D01*
X210304456Y-93325532D01*
X210296940Y-93318602D01*
X210291196Y-93312858D01*
X210288322Y-93310584D01*
X210288315Y-93310578D01*
X210268800Y-93295139D01*
X210265396Y-93292348D01*
X210215039Y-93249566D01*
X210215035Y-93249563D01*
X210209460Y-93244827D01*
X210202943Y-93241499D01*
X210197879Y-93238122D01*
X210192655Y-93234895D01*
X210186911Y-93230351D01*
X210160620Y-93218063D01*
X210120429Y-93199279D01*
X210116478Y-93197348D01*
X210057628Y-93167298D01*
X210051107Y-93163968D01*
X210043992Y-93162227D01*
X210038246Y-93160090D01*
X210032463Y-93158166D01*
X210025832Y-93155067D01*
X209953954Y-93140117D01*
X209949682Y-93139150D01*
X209878399Y-93121707D01*
X209872800Y-93121360D01*
X209872796Y-93121359D01*
X209867181Y-93121011D01*
X209867183Y-93120972D01*
X209863282Y-93120739D01*
X209858923Y-93120350D01*
X209851755Y-93118859D01*
X209844437Y-93119057D01*
X209808998Y-93120016D01*
X209740361Y-93101864D01*
X209716494Y-93083157D01*
X209527281Y-92893943D01*
X209493256Y-92831631D01*
X209490856Y-92793867D01*
X209497714Y-92715476D01*
X209497714Y-92715475D01*
X209498193Y-92710000D01*
X209479458Y-92495858D01*
X209478034Y-92490543D01*
X209425245Y-92293533D01*
X209425244Y-92293531D01*
X209423822Y-92288223D01*
X209401023Y-92239330D01*
X209335299Y-92098385D01*
X209335297Y-92098382D01*
X209332976Y-92093404D01*
X209209681Y-91917319D01*
X209057681Y-91765319D01*
X208881597Y-91642024D01*
X208876619Y-91639703D01*
X208876616Y-91639701D01*
X208691759Y-91553501D01*
X208691758Y-91553500D01*
X208686777Y-91551178D01*
X208681469Y-91549756D01*
X208681467Y-91549755D01*
X208484457Y-91496966D01*
X208484455Y-91496966D01*
X208479142Y-91495542D01*
X208265000Y-91476807D01*
X208050858Y-91495542D01*
X208045545Y-91496966D01*
X208045543Y-91496966D01*
X207848533Y-91549755D01*
X207848531Y-91549756D01*
X207843223Y-91551178D01*
X207838243Y-91553500D01*
X207838241Y-91553501D01*
X207653385Y-91639701D01*
X207653382Y-91639703D01*
X207648404Y-91642024D01*
X207472319Y-91765319D01*
X207320319Y-91917319D01*
X207197024Y-92093404D01*
X207194703Y-92098382D01*
X207194701Y-92098385D01*
X207128977Y-92239330D01*
X207106178Y-92288223D01*
X207104756Y-92293531D01*
X207104755Y-92293533D01*
X207051966Y-92490543D01*
X207050542Y-92495858D01*
X207031807Y-92710000D01*
X207050542Y-92924142D01*
X207051966Y-92929455D01*
X207051966Y-92929457D01*
X207103027Y-93120016D01*
X207106178Y-93131777D01*
X207108500Y-93136757D01*
X207108501Y-93136759D01*
X207189555Y-93310578D01*
X207197024Y-93326596D01*
X207320319Y-93502681D01*
X207472319Y-93654681D01*
X207648403Y-93777976D01*
X207653381Y-93780297D01*
X207653384Y-93780299D01*
X207783108Y-93840790D01*
X207843223Y-93868822D01*
X207848531Y-93870244D01*
X207848533Y-93870245D01*
X208045543Y-93923034D01*
X208045545Y-93923034D01*
X208050858Y-93924458D01*
X208265000Y-93943193D01*
X208270475Y-93942714D01*
X208270476Y-93942714D01*
X208348868Y-93935856D01*
X208418473Y-93949846D01*
X208448944Y-93972282D01*
X208851701Y-94375039D01*
X208864088Y-94389452D01*
X208877057Y-94407075D01*
X208882640Y-94411818D01*
X208917566Y-94441490D01*
X208925082Y-94448420D01*
X208930826Y-94454164D01*
X208933700Y-94456438D01*
X208933707Y-94456444D01*
X208953222Y-94471883D01*
X208956626Y-94474674D01*
X209006983Y-94517456D01*
X209006987Y-94517459D01*
X209012562Y-94522195D01*
X209019079Y-94525523D01*
X209024143Y-94528900D01*
X209029367Y-94532127D01*
X209035111Y-94536671D01*
X209041742Y-94539770D01*
X209101593Y-94567743D01*
X209105544Y-94569674D01*
X209170915Y-94603054D01*
X209178030Y-94604795D01*
X209183776Y-94606932D01*
X209189559Y-94608856D01*
X209196190Y-94611955D01*
X209268068Y-94626905D01*
X209272340Y-94627872D01*
X209343623Y-94645315D01*
X209349222Y-94645662D01*
X209349226Y-94645663D01*
X209354841Y-94646011D01*
X209354839Y-94646050D01*
X209358740Y-94646283D01*
X209363099Y-94646672D01*
X209370267Y-94648163D01*
X209377585Y-94647965D01*
X209413024Y-94647006D01*
X209481661Y-94665158D01*
X209505527Y-94683865D01*
X209900595Y-95078933D01*
X209934621Y-95141245D01*
X209937500Y-95168028D01*
X209937500Y-102681038D01*
X209924528Y-102731928D01*
X209925980Y-102732513D01*
X209908410Y-102776109D01*
X209901738Y-102792664D01*
X209899021Y-102798914D01*
X209871556Y-102857679D01*
X209870066Y-102864841D01*
X209870064Y-102864848D01*
X209869600Y-102867081D01*
X209863105Y-102888526D01*
X209862252Y-102890641D01*
X209862250Y-102890647D01*
X209859518Y-102897427D01*
X209858418Y-102904656D01*
X209858418Y-102904657D01*
X209849764Y-102961543D01*
X209848557Y-102968251D01*
X209844454Y-102987978D01*
X209835348Y-103031756D01*
X209835546Y-103039068D01*
X209835608Y-103041348D01*
X209834220Y-103063716D01*
X209833876Y-103065974D01*
X209833876Y-103065979D01*
X209832776Y-103073208D01*
X209833369Y-103080500D01*
X209833369Y-103080503D01*
X209838034Y-103137856D01*
X209838403Y-103144661D01*
X209840158Y-103209495D01*
X209842033Y-103216566D01*
X209842618Y-103218771D01*
X209846412Y-103240848D01*
X209847191Y-103250426D01*
X209849449Y-103257396D01*
X209867177Y-103312123D01*
X209869101Y-103318660D01*
X209883849Y-103374280D01*
X209883851Y-103374286D01*
X209885727Y-103381360D01*
X209890257Y-103389827D01*
X209899027Y-103410438D01*
X209901987Y-103419575D01*
X209905783Y-103425830D01*
X209905784Y-103425833D01*
X209935638Y-103475030D01*
X209938994Y-103480912D01*
X209969611Y-103538132D01*
X209974456Y-103543618D01*
X209975968Y-103545330D01*
X209989243Y-103563368D01*
X209994227Y-103571581D01*
X210001667Y-103580005D01*
X210041054Y-103619392D01*
X210046400Y-103625078D01*
X210087311Y-103671402D01*
X210093290Y-103675628D01*
X210093295Y-103675632D01*
X210098158Y-103679069D01*
X210114532Y-103692870D01*
X211404106Y-104982444D01*
X211438132Y-105044756D01*
X211441011Y-105071539D01*
X211441011Y-108651067D01*
X211421009Y-108719188D01*
X211367353Y-108765681D01*
X211297079Y-108775785D01*
X211282399Y-108772773D01*
X211224691Y-108757310D01*
X211224685Y-108757309D01*
X211219371Y-108755885D01*
X211000000Y-108736693D01*
X210780629Y-108755885D01*
X210567924Y-108812880D01*
X210482261Y-108852825D01*
X210373334Y-108903618D01*
X210373329Y-108903621D01*
X210368347Y-108905944D01*
X210363840Y-108909100D01*
X210363838Y-108909101D01*
X210192473Y-109029092D01*
X210192470Y-109029094D01*
X210187962Y-109032251D01*
X210032251Y-109187962D01*
X210029096Y-109192468D01*
X210029074Y-109192494D01*
X209969963Y-109231819D01*
X209932555Y-109237500D01*
X207667376Y-109237500D01*
X207648426Y-109236067D01*
X207634027Y-109233876D01*
X207634021Y-109233876D01*
X207626792Y-109232776D01*
X207619500Y-109233369D01*
X207619497Y-109233369D01*
X207573817Y-109237085D01*
X207563602Y-109237500D01*
X207555475Y-109237500D01*
X207551839Y-109237924D01*
X207551837Y-109237924D01*
X207548385Y-109238327D01*
X207527076Y-109240811D01*
X207522756Y-109241238D01*
X207449574Y-109247191D01*
X207442612Y-109249447D01*
X207436624Y-109250643D01*
X207430667Y-109252051D01*
X207423393Y-109252899D01*
X207416511Y-109255397D01*
X207416507Y-109255398D01*
X207354393Y-109277945D01*
X207350289Y-109279355D01*
X207280425Y-109301987D01*
X207274162Y-109305787D01*
X207268620Y-109308325D01*
X207263144Y-109311067D01*
X207256259Y-109313566D01*
X207250135Y-109317581D01*
X207194868Y-109353815D01*
X207191200Y-109356130D01*
X207128419Y-109394227D01*
X207124214Y-109397941D01*
X207124211Y-109397943D01*
X207119995Y-109401667D01*
X207119969Y-109401638D01*
X207117038Y-109404238D01*
X207113684Y-109407042D01*
X207107565Y-109411054D01*
X207102533Y-109416366D01*
X207054012Y-109467586D01*
X207051634Y-109470028D01*
X204328587Y-112193075D01*
X204266275Y-112227101D01*
X204239492Y-112229980D01*
X203338638Y-112229980D01*
X203270517Y-112209978D01*
X203224024Y-112156322D01*
X203213920Y-112086048D01*
X203235425Y-112031709D01*
X203277173Y-111972087D01*
X203321523Y-111908749D01*
X203323846Y-111903767D01*
X203323849Y-111903762D01*
X203415961Y-111706225D01*
X203415961Y-111706224D01*
X203418284Y-111701243D01*
X203448567Y-111588228D01*
X203476119Y-111485402D01*
X203476119Y-111485400D01*
X203477543Y-111480087D01*
X203497498Y-111252000D01*
X203477543Y-111023913D01*
X203476119Y-111018598D01*
X203419707Y-110808067D01*
X203419706Y-110808065D01*
X203418284Y-110802757D01*
X203404235Y-110772629D01*
X203323849Y-110600238D01*
X203323846Y-110600233D01*
X203321523Y-110595251D01*
X203226621Y-110459717D01*
X203193357Y-110412211D01*
X203193355Y-110412208D01*
X203190198Y-110407700D01*
X203028300Y-110245802D01*
X203023786Y-110242641D01*
X203000228Y-110226145D01*
X202955900Y-110170688D01*
X202946500Y-110122933D01*
X202946500Y-110096028D01*
X202966502Y-110027907D01*
X202983405Y-110006933D01*
X204613690Y-108376648D01*
X204676002Y-108342622D01*
X204727902Y-108342272D01*
X204792605Y-108355436D01*
X204797780Y-108355626D01*
X204797782Y-108355626D01*
X205018898Y-108363734D01*
X205018902Y-108363734D01*
X205024062Y-108363923D01*
X205029182Y-108363267D01*
X205029184Y-108363267D01*
X205102219Y-108353911D01*
X205253796Y-108334493D01*
X205258744Y-108333008D01*
X205258751Y-108333007D01*
X205470696Y-108269420D01*
X205475639Y-108267937D01*
X205567798Y-108222789D01*
X205678998Y-108168313D01*
X205679001Y-108168311D01*
X205683633Y-108166042D01*
X205872192Y-108031545D01*
X206036252Y-107868056D01*
X206048921Y-107850426D01*
X206079866Y-107807361D01*
X206171407Y-107679968D01*
X206266111Y-107488349D01*
X206271733Y-107476973D01*
X206271734Y-107476971D01*
X206274027Y-107472331D01*
X206341357Y-107250722D01*
X206371589Y-107021092D01*
X206371985Y-107004886D01*
X206393645Y-106937274D01*
X206448420Y-106892106D01*
X206518920Y-106883722D01*
X206550097Y-106893263D01*
X206603782Y-106917672D01*
X206620841Y-106922660D01*
X206747111Y-106940743D01*
X206764889Y-106940743D01*
X206891159Y-106922660D01*
X206908214Y-106917673D01*
X207025323Y-106864427D01*
X207038667Y-106856210D01*
X207078544Y-106824147D01*
X207083622Y-106819591D01*
X207559189Y-106344024D01*
X207566803Y-106330080D01*
X207566672Y-106328247D01*
X207562421Y-106321632D01*
X206397922Y-105157132D01*
X207120408Y-105157132D01*
X207120539Y-105158966D01*
X207124790Y-105165580D01*
X207918403Y-105959192D01*
X207932341Y-105966803D01*
X207934177Y-105966671D01*
X207940789Y-105962422D01*
X208419585Y-105483626D01*
X208424147Y-105478542D01*
X208456207Y-105438669D01*
X208464429Y-105425319D01*
X208517673Y-105308214D01*
X208522660Y-105291159D01*
X208540743Y-105164889D01*
X208540743Y-105147111D01*
X208522660Y-105020841D01*
X208517673Y-105003786D01*
X208464427Y-104886677D01*
X208456210Y-104873333D01*
X208424147Y-104833456D01*
X208419591Y-104828378D01*
X207944024Y-104352811D01*
X207930080Y-104345197D01*
X207928245Y-104345328D01*
X207921635Y-104349576D01*
X207128021Y-105143189D01*
X207120408Y-105157132D01*
X206397922Y-105157132D01*
X206396790Y-105156000D01*
X205593599Y-104352810D01*
X205579658Y-104345198D01*
X205577823Y-104345329D01*
X205571209Y-104349580D01*
X205092415Y-104828374D01*
X205087853Y-104833458D01*
X205055793Y-104873331D01*
X205047571Y-104886681D01*
X204994327Y-105003786D01*
X204989340Y-105020841D01*
X204971257Y-105147111D01*
X204971257Y-105164889D01*
X204989340Y-105291159D01*
X204994327Y-105308214D01*
X205019938Y-105364542D01*
X205029924Y-105434832D01*
X205000324Y-105499364D01*
X204940534Y-105537648D01*
X204903698Y-105542684D01*
X204866530Y-105542230D01*
X204866528Y-105542230D01*
X204861360Y-105542167D01*
X204632413Y-105577201D01*
X204412263Y-105649157D01*
X204407675Y-105651545D01*
X204407671Y-105651547D01*
X204211410Y-105753714D01*
X204206821Y-105756103D01*
X204202688Y-105759206D01*
X204202685Y-105759208D01*
X204159598Y-105791559D01*
X204021604Y-105895168D01*
X204018032Y-105898906D01*
X203889074Y-106033853D01*
X203861588Y-106062615D01*
X203858674Y-106066887D01*
X203858673Y-106066888D01*
X203792964Y-106163214D01*
X203731068Y-106253950D01*
X203633551Y-106464032D01*
X203571656Y-106687220D01*
X203547044Y-106917520D01*
X203547341Y-106922673D01*
X203547341Y-106922676D01*
X203548953Y-106950633D01*
X203560376Y-107148748D01*
X203565130Y-107169840D01*
X203568021Y-107182670D01*
X203563483Y-107253521D01*
X203534198Y-107299464D01*
X203134072Y-107699590D01*
X203071760Y-107733616D01*
X203000945Y-107728551D01*
X202944109Y-107686004D01*
X202919298Y-107619484D01*
X202928568Y-107562277D01*
X202959190Y-107488349D01*
X202962350Y-107480720D01*
X202983246Y-107322000D01*
X202979078Y-107290341D01*
X202978000Y-107273895D01*
X202978000Y-103981920D01*
X205945197Y-103981920D01*
X205945328Y-103983755D01*
X205949576Y-103990365D01*
X206743189Y-104783979D01*
X206757132Y-104791592D01*
X206758966Y-104791461D01*
X206765580Y-104787210D01*
X207559192Y-103993597D01*
X207566803Y-103979659D01*
X207566671Y-103977823D01*
X207562422Y-103971211D01*
X207083626Y-103492415D01*
X207078542Y-103487853D01*
X207038669Y-103455793D01*
X207025319Y-103447571D01*
X206908214Y-103394327D01*
X206891159Y-103389340D01*
X206764889Y-103371257D01*
X206747111Y-103371257D01*
X206620841Y-103389340D01*
X206603786Y-103394327D01*
X206486677Y-103447573D01*
X206473333Y-103455790D01*
X206433456Y-103487853D01*
X206428378Y-103492409D01*
X205952811Y-103967976D01*
X205945197Y-103981920D01*
X202978000Y-103981920D01*
X202978000Y-98818621D01*
X207600933Y-98818621D01*
X207610227Y-98830635D01*
X207644146Y-98854385D01*
X207653641Y-98859868D01*
X207838413Y-98946028D01*
X207848705Y-98949774D01*
X208045632Y-99002540D01*
X208056425Y-99004443D01*
X208259525Y-99022212D01*
X208270475Y-99022212D01*
X208473575Y-99004443D01*
X208484368Y-99002540D01*
X208681295Y-98949774D01*
X208691587Y-98946028D01*
X208876359Y-98859868D01*
X208885854Y-98854385D01*
X208920607Y-98830051D01*
X208928983Y-98819572D01*
X208921916Y-98806127D01*
X208277811Y-98162021D01*
X208263868Y-98154408D01*
X208262034Y-98154539D01*
X208255420Y-98158790D01*
X207607360Y-98806851D01*
X207600933Y-98818621D01*
X202978000Y-98818621D01*
X202978000Y-97795475D01*
X207032788Y-97795475D01*
X207050557Y-97998575D01*
X207052460Y-98009368D01*
X207105226Y-98206295D01*
X207108972Y-98216587D01*
X207195135Y-98401364D01*
X207200613Y-98410850D01*
X207224949Y-98445607D01*
X207235428Y-98453983D01*
X207248872Y-98446917D01*
X207892979Y-97802811D01*
X207899356Y-97791132D01*
X208629408Y-97791132D01*
X208629539Y-97792966D01*
X208633790Y-97799580D01*
X209281851Y-98447640D01*
X209293621Y-98454067D01*
X209305635Y-98444772D01*
X209329387Y-98410850D01*
X209334865Y-98401364D01*
X209421028Y-98216587D01*
X209424774Y-98206295D01*
X209477540Y-98009368D01*
X209479443Y-97998575D01*
X209497212Y-97795475D01*
X209497212Y-97784525D01*
X209479443Y-97581425D01*
X209477540Y-97570632D01*
X209424774Y-97373705D01*
X209421028Y-97363413D01*
X209334865Y-97178636D01*
X209329387Y-97169150D01*
X209305051Y-97134393D01*
X209294572Y-97126017D01*
X209281128Y-97133083D01*
X208637021Y-97777189D01*
X208629408Y-97791132D01*
X207899356Y-97791132D01*
X207900592Y-97788868D01*
X207900461Y-97787034D01*
X207896210Y-97780420D01*
X207248149Y-97132360D01*
X207236379Y-97125933D01*
X207224365Y-97135228D01*
X207200613Y-97169150D01*
X207195135Y-97178636D01*
X207108972Y-97363413D01*
X207105226Y-97373705D01*
X207052460Y-97570632D01*
X207050557Y-97581425D01*
X207032788Y-97784525D01*
X207032788Y-97795475D01*
X202978000Y-97795475D01*
X202978000Y-96760428D01*
X207601017Y-96760428D01*
X207608083Y-96773872D01*
X208252189Y-97417979D01*
X208266132Y-97425592D01*
X208267966Y-97425461D01*
X208274580Y-97421210D01*
X208922640Y-96773149D01*
X208929067Y-96761379D01*
X208919773Y-96749365D01*
X208885854Y-96725615D01*
X208876359Y-96720132D01*
X208691587Y-96633972D01*
X208681295Y-96630226D01*
X208484368Y-96577460D01*
X208473575Y-96575557D01*
X208270475Y-96557788D01*
X208259525Y-96557788D01*
X208056425Y-96575557D01*
X208045632Y-96577460D01*
X207848705Y-96630226D01*
X207838413Y-96633972D01*
X207653636Y-96720135D01*
X207644150Y-96725613D01*
X207609393Y-96749949D01*
X207601017Y-96760428D01*
X202978000Y-96760428D01*
X202978000Y-96278621D01*
X205060933Y-96278621D01*
X205070227Y-96290635D01*
X205104146Y-96314385D01*
X205113641Y-96319868D01*
X205298413Y-96406028D01*
X205308705Y-96409774D01*
X205505632Y-96462540D01*
X205516425Y-96464443D01*
X205719525Y-96482212D01*
X205730475Y-96482212D01*
X205933575Y-96464443D01*
X205944368Y-96462540D01*
X206141295Y-96409774D01*
X206151587Y-96406028D01*
X206336359Y-96319868D01*
X206345854Y-96314385D01*
X206380607Y-96290051D01*
X206388983Y-96279572D01*
X206381916Y-96266127D01*
X205737811Y-95622021D01*
X205723868Y-95614408D01*
X205722034Y-95614539D01*
X205715420Y-95618790D01*
X205067360Y-96266851D01*
X205060933Y-96278621D01*
X202978000Y-96278621D01*
X202978000Y-95255475D01*
X204492788Y-95255475D01*
X204510557Y-95458575D01*
X204512460Y-95469368D01*
X204565226Y-95666295D01*
X204568972Y-95676587D01*
X204655135Y-95861364D01*
X204660613Y-95870850D01*
X204684949Y-95905607D01*
X204695428Y-95913983D01*
X204708872Y-95906917D01*
X205352979Y-95262811D01*
X205359356Y-95251132D01*
X206089408Y-95251132D01*
X206089539Y-95252966D01*
X206093790Y-95259580D01*
X206741851Y-95907640D01*
X206753621Y-95914067D01*
X206765635Y-95904772D01*
X206789387Y-95870850D01*
X206794865Y-95861364D01*
X206881028Y-95676587D01*
X206884774Y-95666295D01*
X206937540Y-95469368D01*
X206939443Y-95458575D01*
X206957212Y-95255475D01*
X206957212Y-95244525D01*
X206939443Y-95041425D01*
X206937540Y-95030632D01*
X206884774Y-94833705D01*
X206881028Y-94823413D01*
X206794865Y-94638636D01*
X206789387Y-94629150D01*
X206765051Y-94594393D01*
X206754572Y-94586017D01*
X206741128Y-94593083D01*
X206097021Y-95237189D01*
X206089408Y-95251132D01*
X205359356Y-95251132D01*
X205360592Y-95248868D01*
X205360461Y-95247034D01*
X205356210Y-95240420D01*
X204708149Y-94592360D01*
X204696379Y-94585933D01*
X204684365Y-94595228D01*
X204660613Y-94629150D01*
X204655135Y-94638636D01*
X204568972Y-94823413D01*
X204565226Y-94833705D01*
X204512460Y-95030632D01*
X204510557Y-95041425D01*
X204492788Y-95244525D01*
X204492788Y-95255475D01*
X202978000Y-95255475D01*
X202978000Y-94220428D01*
X205061017Y-94220428D01*
X205068083Y-94233872D01*
X205712189Y-94877979D01*
X205726132Y-94885592D01*
X205727966Y-94885461D01*
X205734580Y-94881210D01*
X206382640Y-94233149D01*
X206389067Y-94221379D01*
X206379773Y-94209365D01*
X206345854Y-94185615D01*
X206336359Y-94180132D01*
X206151587Y-94093972D01*
X206141295Y-94090226D01*
X205944368Y-94037460D01*
X205933575Y-94035557D01*
X205730475Y-94017788D01*
X205719525Y-94017788D01*
X205516425Y-94035557D01*
X205505632Y-94037460D01*
X205308705Y-94090226D01*
X205298413Y-94093972D01*
X205113636Y-94180135D01*
X205104150Y-94185613D01*
X205069393Y-94209949D01*
X205061017Y-94220428D01*
X202978000Y-94220428D01*
X202978000Y-92370105D01*
X202979078Y-92353659D01*
X202982168Y-92330188D01*
X202983246Y-92322000D01*
X202962350Y-92163280D01*
X202901087Y-92015377D01*
X202803630Y-91888370D01*
X202783221Y-91872709D01*
X202683176Y-91795941D01*
X202683174Y-91795940D01*
X202676623Y-91790913D01*
X202602671Y-91760281D01*
X202536350Y-91732810D01*
X202536347Y-91732809D01*
X202528720Y-91729650D01*
X202409847Y-91714000D01*
X202370000Y-91708754D01*
X202361812Y-91709832D01*
X202338341Y-91712922D01*
X202321895Y-91714000D01*
X201118105Y-91714000D01*
X201101659Y-91712922D01*
X201078188Y-91709832D01*
X201070000Y-91708754D01*
X201030153Y-91714000D01*
X200911280Y-91729650D01*
X200903653Y-91732809D01*
X200903650Y-91732810D01*
X200848415Y-91755689D01*
X200763377Y-91790913D01*
X200756827Y-91795939D01*
X200754783Y-91797119D01*
X200691783Y-91814000D01*
X182848217Y-91814000D01*
X182785217Y-91797119D01*
X182783173Y-91795939D01*
X182776623Y-91790913D01*
X182691585Y-91755689D01*
X182636350Y-91732810D01*
X182636347Y-91732809D01*
X182628720Y-91729650D01*
X182509847Y-91714000D01*
X182470000Y-91708754D01*
X182461812Y-91709832D01*
X182438341Y-91712922D01*
X182421895Y-91714000D01*
X181218105Y-91714000D01*
X181201659Y-91712922D01*
X181178188Y-91709832D01*
X181170000Y-91708754D01*
X181130153Y-91714000D01*
X181011280Y-91729650D01*
X181003653Y-91732809D01*
X181003650Y-91732810D01*
X180937329Y-91760281D01*
X180863377Y-91790913D01*
X180856826Y-91795940D01*
X180856824Y-91795941D01*
X180756779Y-91872709D01*
X180736370Y-91888370D01*
X180638913Y-92015377D01*
X180577650Y-92163280D01*
X180556754Y-92322000D01*
X180557832Y-92330188D01*
X180560922Y-92353659D01*
X180562000Y-92370105D01*
X180562000Y-106134941D01*
X180541998Y-106203062D01*
X180488342Y-106249555D01*
X180418068Y-106259659D01*
X180353488Y-106230165D01*
X180328282Y-106200307D01*
X180308689Y-106168020D01*
X180305773Y-106163214D01*
X180302057Y-106159007D01*
X180302054Y-106159003D01*
X180298332Y-106154790D01*
X180298362Y-106154764D01*
X180295764Y-106151836D01*
X180292960Y-106148482D01*
X180288946Y-106142360D01*
X180232395Y-106088789D01*
X180229954Y-106086412D01*
X177538015Y-103394472D01*
X177525628Y-103380059D01*
X177521375Y-103374280D01*
X177512659Y-103362436D01*
X177472150Y-103328021D01*
X177464634Y-103321091D01*
X177458890Y-103315347D01*
X177459020Y-103315217D01*
X177422027Y-103253277D01*
X177421745Y-103250684D01*
X177418975Y-103243295D01*
X177418974Y-103243291D01*
X177373767Y-103122703D01*
X177370615Y-103114295D01*
X177283261Y-102997739D01*
X177166705Y-102910385D01*
X177114038Y-102890641D01*
X177037714Y-102862028D01*
X177037711Y-102862027D01*
X177030316Y-102859255D01*
X177027430Y-102858942D01*
X176967709Y-102824825D01*
X176934887Y-102761870D01*
X176932500Y-102737458D01*
X176932500Y-91198028D01*
X176952502Y-91129907D01*
X176969405Y-91108933D01*
X177197561Y-90880777D01*
X182075777Y-90880777D01*
X182085074Y-90892793D01*
X182128069Y-90922898D01*
X182137555Y-90928376D01*
X182328993Y-91017645D01*
X182339285Y-91021391D01*
X182543309Y-91076059D01*
X182554104Y-91077962D01*
X182764525Y-91096372D01*
X182775475Y-91096372D01*
X182985896Y-91077962D01*
X182996691Y-91076059D01*
X183200715Y-91021391D01*
X183211007Y-91017645D01*
X183402445Y-90928376D01*
X183411931Y-90922898D01*
X183455764Y-90892207D01*
X183464139Y-90881729D01*
X183457071Y-90868281D01*
X182782812Y-90194022D01*
X182768868Y-90186408D01*
X182767035Y-90186539D01*
X182760420Y-90190790D01*
X182082207Y-90869003D01*
X182075777Y-90880777D01*
X177197561Y-90880777D01*
X178250863Y-89827475D01*
X181495628Y-89827475D01*
X181514038Y-90037896D01*
X181515941Y-90048691D01*
X181570609Y-90252715D01*
X181574355Y-90263007D01*
X181663623Y-90454441D01*
X181669103Y-90463932D01*
X181699794Y-90507765D01*
X181710271Y-90516140D01*
X181723718Y-90509072D01*
X182397978Y-89834812D01*
X182404356Y-89823132D01*
X183134408Y-89823132D01*
X183134539Y-89824965D01*
X183138790Y-89831580D01*
X183817003Y-90509793D01*
X183828777Y-90516223D01*
X183840793Y-90506926D01*
X183870897Y-90463932D01*
X183876377Y-90454441D01*
X183965645Y-90263007D01*
X183969391Y-90252715D01*
X184024059Y-90048691D01*
X184025962Y-90037896D01*
X184044372Y-89827475D01*
X184044372Y-89816525D01*
X184025962Y-89606104D01*
X184024059Y-89595309D01*
X183969391Y-89391285D01*
X183965645Y-89380993D01*
X183876377Y-89189559D01*
X183870897Y-89180068D01*
X183840206Y-89136235D01*
X183829729Y-89127860D01*
X183816282Y-89134928D01*
X183142022Y-89809188D01*
X183134408Y-89823132D01*
X182404356Y-89823132D01*
X182405592Y-89820868D01*
X182405461Y-89819035D01*
X182401210Y-89812420D01*
X181722997Y-89134207D01*
X181711223Y-89127777D01*
X181699207Y-89137074D01*
X181669103Y-89180068D01*
X181663623Y-89189559D01*
X181574355Y-89380993D01*
X181570609Y-89391285D01*
X181515941Y-89595309D01*
X181514038Y-89606104D01*
X181495628Y-89816525D01*
X181495628Y-89827475D01*
X178250863Y-89827475D01*
X179316067Y-88762271D01*
X182075860Y-88762271D01*
X182082928Y-88775718D01*
X182757188Y-89449978D01*
X182771132Y-89457592D01*
X182772965Y-89457461D01*
X182779580Y-89453210D01*
X183457793Y-88774997D01*
X183464223Y-88763223D01*
X183454926Y-88751207D01*
X183411931Y-88721102D01*
X183402445Y-88715624D01*
X183211007Y-88626355D01*
X183200715Y-88622609D01*
X182996691Y-88567941D01*
X182985896Y-88566038D01*
X182775475Y-88547628D01*
X182764525Y-88547628D01*
X182554104Y-88566038D01*
X182543309Y-88567941D01*
X182339285Y-88622609D01*
X182328993Y-88626355D01*
X182137559Y-88715623D01*
X182128068Y-88721103D01*
X182084235Y-88751794D01*
X182075860Y-88762271D01*
X179316067Y-88762271D01*
X179878933Y-88199405D01*
X179941245Y-88165379D01*
X179968028Y-88162500D01*
X186432624Y-88162500D01*
X186451574Y-88163933D01*
X186465973Y-88166124D01*
X186465979Y-88166124D01*
X186473208Y-88167224D01*
X186480500Y-88166631D01*
X186480503Y-88166631D01*
X186526183Y-88162915D01*
X186536398Y-88162500D01*
X186544525Y-88162500D01*
X186548161Y-88162076D01*
X186548163Y-88162076D01*
X186551615Y-88161673D01*
X186572924Y-88159189D01*
X186577244Y-88158762D01*
X186650426Y-88152809D01*
X186657388Y-88150553D01*
X186663376Y-88149357D01*
X186669333Y-88147949D01*
X186676607Y-88147101D01*
X186683489Y-88144603D01*
X186683493Y-88144602D01*
X186745607Y-88122055D01*
X186749711Y-88120645D01*
X186819575Y-88098013D01*
X186825838Y-88094213D01*
X186831380Y-88091675D01*
X186836856Y-88088933D01*
X186843741Y-88086434D01*
X186905132Y-88046185D01*
X186908800Y-88043870D01*
X186971581Y-88005773D01*
X186975786Y-88002059D01*
X186975789Y-88002057D01*
X186980005Y-87998333D01*
X186980031Y-87998362D01*
X186982962Y-87995762D01*
X186986316Y-87992958D01*
X186992435Y-87988946D01*
X187045989Y-87932413D01*
X187048366Y-87929972D01*
X189175933Y-85802405D01*
X189238245Y-85768379D01*
X189265028Y-85765500D01*
X199687323Y-85765500D01*
X199755444Y-85785502D01*
X199785699Y-85814583D01*
X199786327Y-85814056D01*
X199789870Y-85818278D01*
X199793023Y-85822781D01*
X199950219Y-85979977D01*
X199954727Y-85983134D01*
X199954730Y-85983136D01*
X199971861Y-85995131D01*
X200132323Y-86107488D01*
X200137305Y-86109811D01*
X200137310Y-86109814D01*
X200242441Y-86158837D01*
X200333804Y-86201440D01*
X200339112Y-86202862D01*
X200339114Y-86202863D01*
X200364951Y-86209786D01*
X200548537Y-86258978D01*
X200770000Y-86278353D01*
X200775475Y-86277874D01*
X200905911Y-86266463D01*
X200975516Y-86280453D01*
X201026508Y-86329852D01*
X201042698Y-86398978D01*
X201018945Y-86465884D01*
X201005987Y-86481079D01*
X200278472Y-87208594D01*
X200264059Y-87220981D01*
X200246436Y-87233950D01*
X200241692Y-87239533D01*
X200241693Y-87239533D01*
X200212021Y-87274459D01*
X200205091Y-87281975D01*
X200199347Y-87287719D01*
X200197073Y-87290593D01*
X200197067Y-87290600D01*
X200181628Y-87310115D01*
X200178837Y-87313519D01*
X200136055Y-87363876D01*
X200136052Y-87363880D01*
X200131316Y-87369455D01*
X200127988Y-87375972D01*
X200124611Y-87381036D01*
X200121384Y-87386260D01*
X200116840Y-87392004D01*
X200113741Y-87398635D01*
X200085768Y-87458486D01*
X200083837Y-87462437D01*
X200050457Y-87527808D01*
X200048716Y-87534923D01*
X200046579Y-87540669D01*
X200044655Y-87546452D01*
X200041556Y-87553083D01*
X200027854Y-87618962D01*
X200026608Y-87624951D01*
X200025639Y-87629233D01*
X200008196Y-87700516D01*
X200007500Y-87711734D01*
X200007461Y-87711732D01*
X200007228Y-87715633D01*
X200006839Y-87719992D01*
X200005348Y-87727160D01*
X200005546Y-87734477D01*
X200007454Y-87804981D01*
X200007500Y-87808390D01*
X200007500Y-88433604D01*
X199987498Y-88501725D01*
X199933842Y-88548218D01*
X199910649Y-88556186D01*
X199905535Y-88557402D01*
X199897684Y-88558255D01*
X199761295Y-88609385D01*
X199644739Y-88696739D01*
X199557385Y-88813295D01*
X199506255Y-88949684D01*
X199499500Y-89011866D01*
X199499500Y-90632134D01*
X199506255Y-90694316D01*
X199557385Y-90830705D01*
X199644739Y-90947261D01*
X199761295Y-91034615D01*
X199897684Y-91085745D01*
X199959866Y-91092500D01*
X201580134Y-91092500D01*
X201642316Y-91085745D01*
X201778705Y-91034615D01*
X201895261Y-90947261D01*
X201982615Y-90830705D01*
X202033745Y-90694316D01*
X202040500Y-90632134D01*
X202040500Y-89011866D01*
X202033745Y-88949684D01*
X201982615Y-88813295D01*
X201895261Y-88696739D01*
X201778705Y-88609385D01*
X201642316Y-88558255D01*
X201634465Y-88557402D01*
X201629351Y-88556186D01*
X201567706Y-88520968D01*
X201534887Y-88458012D01*
X201532500Y-88433604D01*
X201532500Y-88163432D01*
X201552502Y-88095311D01*
X201569405Y-88074337D01*
X202389039Y-87254703D01*
X206890743Y-87254703D01*
X206891302Y-87258947D01*
X206891302Y-87258951D01*
X206900934Y-87332110D01*
X206928268Y-87539734D01*
X207004129Y-87817036D01*
X207005813Y-87820984D01*
X207101361Y-88044991D01*
X207116923Y-88081476D01*
X207128693Y-88101142D01*
X207251421Y-88306205D01*
X207264561Y-88328161D01*
X207444313Y-88552528D01*
X207652851Y-88750423D01*
X207886317Y-88918186D01*
X207890112Y-88920195D01*
X207890113Y-88920196D01*
X207911869Y-88931715D01*
X208140392Y-89052712D01*
X208164699Y-89061607D01*
X208363088Y-89134207D01*
X208410373Y-89151511D01*
X208691264Y-89212755D01*
X208719841Y-89215004D01*
X208914282Y-89230307D01*
X208914291Y-89230307D01*
X208916739Y-89230500D01*
X209072271Y-89230500D01*
X209074407Y-89230354D01*
X209074418Y-89230354D01*
X209282548Y-89216165D01*
X209282554Y-89216164D01*
X209286825Y-89215873D01*
X209291020Y-89215004D01*
X209291022Y-89215004D01*
X209459722Y-89180068D01*
X209568342Y-89157574D01*
X209839343Y-89061607D01*
X210040970Y-88957540D01*
X210091005Y-88931715D01*
X210091006Y-88931715D01*
X210094812Y-88929750D01*
X210098313Y-88927289D01*
X210098317Y-88927287D01*
X210256140Y-88816367D01*
X210330023Y-88764441D01*
X210500275Y-88606233D01*
X210537479Y-88571661D01*
X210537481Y-88571658D01*
X210540622Y-88568740D01*
X210722713Y-88346268D01*
X210872927Y-88101142D01*
X210897052Y-88046185D01*
X210986757Y-87841830D01*
X210988483Y-87837898D01*
X210997376Y-87806681D01*
X211066068Y-87565534D01*
X211067244Y-87561406D01*
X211107751Y-87276784D01*
X211107777Y-87272000D01*
X211109235Y-86993583D01*
X211109235Y-86993576D01*
X211109257Y-86989297D01*
X211071732Y-86704266D01*
X210995871Y-86426964D01*
X210932278Y-86277874D01*
X210884763Y-86166476D01*
X210884761Y-86166472D01*
X210883077Y-86162524D01*
X210778868Y-85988404D01*
X210737643Y-85919521D01*
X210737640Y-85919517D01*
X210735439Y-85915839D01*
X210555687Y-85691472D01*
X210432289Y-85574372D01*
X210350258Y-85496527D01*
X210350255Y-85496525D01*
X210347149Y-85493577D01*
X210113683Y-85325814D01*
X210091843Y-85314250D01*
X210059134Y-85296932D01*
X209859608Y-85191288D01*
X209665220Y-85120152D01*
X209593658Y-85093964D01*
X209593656Y-85093963D01*
X209589627Y-85092489D01*
X209308736Y-85031245D01*
X209277685Y-85028801D01*
X209085718Y-85013693D01*
X209085709Y-85013693D01*
X209083261Y-85013500D01*
X208927729Y-85013500D01*
X208925593Y-85013646D01*
X208925582Y-85013646D01*
X208717452Y-85027835D01*
X208717446Y-85027836D01*
X208713175Y-85028127D01*
X208708980Y-85028996D01*
X208708978Y-85028996D01*
X208572416Y-85057277D01*
X208431658Y-85086426D01*
X208160657Y-85182393D01*
X207905188Y-85314250D01*
X207901687Y-85316711D01*
X207901683Y-85316713D01*
X207817775Y-85375685D01*
X207669977Y-85479559D01*
X207459378Y-85675260D01*
X207277287Y-85897732D01*
X207127073Y-86142858D01*
X207125347Y-86146791D01*
X207125346Y-86146792D01*
X207070107Y-86272631D01*
X207011517Y-86406102D01*
X206932756Y-86682594D01*
X206915298Y-86805261D01*
X206895586Y-86943772D01*
X206892249Y-86967216D01*
X206892227Y-86971505D01*
X206892226Y-86971512D01*
X206890822Y-87239533D01*
X206890743Y-87254703D01*
X202389039Y-87254703D01*
X204191528Y-85452214D01*
X204205941Y-85439827D01*
X204223564Y-85426858D01*
X204257979Y-85386349D01*
X204264909Y-85378833D01*
X204270653Y-85373089D01*
X204272927Y-85370215D01*
X204272933Y-85370208D01*
X204288372Y-85350693D01*
X204291163Y-85347289D01*
X204333945Y-85296932D01*
X204333948Y-85296928D01*
X204338684Y-85291353D01*
X204342012Y-85284836D01*
X204345389Y-85279772D01*
X204348616Y-85274548D01*
X204353160Y-85268804D01*
X204384242Y-85202300D01*
X204386147Y-85198403D01*
X204419543Y-85133000D01*
X204421284Y-85125886D01*
X204423416Y-85120152D01*
X204425344Y-85114356D01*
X204428444Y-85107724D01*
X204443395Y-85035844D01*
X204444365Y-85031560D01*
X204445205Y-85028127D01*
X204461804Y-84960292D01*
X204462500Y-84949074D01*
X204462537Y-84949076D01*
X204462773Y-84945177D01*
X204463163Y-84940806D01*
X204464652Y-84933647D01*
X204462546Y-84855827D01*
X204462500Y-84852418D01*
X204462500Y-83253621D01*
X207335933Y-83253621D01*
X207345227Y-83265635D01*
X207379146Y-83289385D01*
X207388641Y-83294868D01*
X207573413Y-83381028D01*
X207583705Y-83384774D01*
X207780632Y-83437540D01*
X207791425Y-83439443D01*
X207994525Y-83457212D01*
X208005475Y-83457212D01*
X208208575Y-83439443D01*
X208219368Y-83437540D01*
X208416295Y-83384774D01*
X208426587Y-83381028D01*
X208611359Y-83294868D01*
X208620854Y-83289385D01*
X208655607Y-83265051D01*
X208663983Y-83254572D01*
X208656916Y-83241127D01*
X208012811Y-82597021D01*
X207998868Y-82589408D01*
X207997034Y-82589539D01*
X207990420Y-82593790D01*
X207342360Y-83241851D01*
X207335933Y-83253621D01*
X204462500Y-83253621D01*
X204462500Y-82230475D01*
X206767788Y-82230475D01*
X206785557Y-82433575D01*
X206787460Y-82444368D01*
X206840226Y-82641295D01*
X206843972Y-82651587D01*
X206930135Y-82836364D01*
X206935613Y-82845850D01*
X206959949Y-82880607D01*
X206970428Y-82888983D01*
X206983872Y-82881917D01*
X207627979Y-82237811D01*
X207634356Y-82226132D01*
X208364408Y-82226132D01*
X208364539Y-82227966D01*
X208368790Y-82234580D01*
X209016851Y-82882640D01*
X209028621Y-82889067D01*
X209040635Y-82879772D01*
X209064387Y-82845850D01*
X209069865Y-82836364D01*
X209156028Y-82651587D01*
X209159774Y-82641295D01*
X209212540Y-82444368D01*
X209214443Y-82433575D01*
X209232212Y-82230475D01*
X209232212Y-82219525D01*
X209214443Y-82016425D01*
X209212540Y-82005632D01*
X209159774Y-81808705D01*
X209156028Y-81798413D01*
X209069865Y-81613636D01*
X209064387Y-81604150D01*
X209040051Y-81569393D01*
X209029572Y-81561017D01*
X209016128Y-81568083D01*
X208372021Y-82212189D01*
X208364408Y-82226132D01*
X207634356Y-82226132D01*
X207635592Y-82223868D01*
X207635461Y-82222034D01*
X207631210Y-82215420D01*
X206983149Y-81567360D01*
X206971379Y-81560933D01*
X206959365Y-81570228D01*
X206935613Y-81604150D01*
X206930135Y-81613636D01*
X206843972Y-81798413D01*
X206840226Y-81808705D01*
X206787460Y-82005632D01*
X206785557Y-82016425D01*
X206767788Y-82219525D01*
X206767788Y-82230475D01*
X204462500Y-82230475D01*
X204462500Y-81195428D01*
X207336017Y-81195428D01*
X207343083Y-81208872D01*
X207987189Y-81852979D01*
X208001132Y-81860592D01*
X208002966Y-81860461D01*
X208009580Y-81856210D01*
X208657640Y-81208149D01*
X208664067Y-81196379D01*
X208654773Y-81184365D01*
X208620854Y-81160615D01*
X208611359Y-81155132D01*
X208426587Y-81068972D01*
X208416295Y-81065226D01*
X208219368Y-81012460D01*
X208208575Y-81010557D01*
X208005475Y-80992788D01*
X207994525Y-80992788D01*
X207791425Y-81010557D01*
X207780632Y-81012460D01*
X207583705Y-81065226D01*
X207573413Y-81068972D01*
X207388636Y-81155135D01*
X207379150Y-81160613D01*
X207344393Y-81184949D01*
X207336017Y-81195428D01*
X204462500Y-81195428D01*
X204462500Y-80726744D01*
X204482502Y-80658623D01*
X204536158Y-80612130D01*
X204606432Y-80602026D01*
X204667587Y-80629372D01*
X204667641Y-80629296D01*
X204668038Y-80629574D01*
X204669494Y-80630225D01*
X204672146Y-80632450D01*
X204839146Y-80749385D01*
X204848641Y-80754868D01*
X205033413Y-80841028D01*
X205043705Y-80844774D01*
X205240632Y-80897540D01*
X205251425Y-80899443D01*
X205454525Y-80917212D01*
X205465475Y-80917212D01*
X205668575Y-80899443D01*
X205679368Y-80897540D01*
X205876295Y-80844774D01*
X205886587Y-80841028D01*
X206071359Y-80754868D01*
X206080854Y-80749385D01*
X206115607Y-80725051D01*
X206123983Y-80714572D01*
X206116916Y-80701128D01*
X205189884Y-79774095D01*
X205155859Y-79711783D01*
X205157694Y-79686132D01*
X205824408Y-79686132D01*
X205824539Y-79687966D01*
X205828790Y-79694580D01*
X206476851Y-80342640D01*
X206488621Y-80349067D01*
X206500635Y-80339772D01*
X206524387Y-80305850D01*
X206529865Y-80296364D01*
X206616028Y-80111587D01*
X206619774Y-80101295D01*
X206672540Y-79904368D01*
X206674443Y-79893575D01*
X206692212Y-79690475D01*
X206692212Y-79679525D01*
X206674443Y-79476425D01*
X206672540Y-79465632D01*
X206619774Y-79268705D01*
X206616028Y-79258413D01*
X206529865Y-79073636D01*
X206524387Y-79064150D01*
X206500051Y-79029393D01*
X206489572Y-79021017D01*
X206476128Y-79028083D01*
X205832021Y-79672189D01*
X205824408Y-79686132D01*
X205157694Y-79686132D01*
X205160924Y-79640967D01*
X205189885Y-79595905D01*
X205460000Y-79325790D01*
X206117636Y-78668153D01*
X206124066Y-78656378D01*
X206114770Y-78644363D01*
X206080854Y-78620615D01*
X206071359Y-78615132D01*
X205886587Y-78528972D01*
X205876295Y-78525226D01*
X205679368Y-78472460D01*
X205668575Y-78470557D01*
X205465475Y-78452788D01*
X205454525Y-78452788D01*
X205251425Y-78470557D01*
X205240632Y-78472460D01*
X205043705Y-78525226D01*
X205033413Y-78528972D01*
X204848642Y-78615132D01*
X204839146Y-78620615D01*
X204672146Y-78737550D01*
X204669494Y-78739775D01*
X204668090Y-78740389D01*
X204667641Y-78740704D01*
X204667578Y-78740614D01*
X204604455Y-78768242D01*
X204534350Y-78757027D01*
X204481437Y-78709690D01*
X204462500Y-78643256D01*
X204462500Y-77145000D01*
X206766807Y-77145000D01*
X206785542Y-77359142D01*
X206841178Y-77566777D01*
X206932024Y-77761596D01*
X207055319Y-77937681D01*
X207207319Y-78089681D01*
X207383403Y-78212976D01*
X207388381Y-78215297D01*
X207388384Y-78215299D01*
X207573241Y-78301499D01*
X207578223Y-78303822D01*
X207583531Y-78305244D01*
X207583533Y-78305245D01*
X207780543Y-78358034D01*
X207780545Y-78358034D01*
X207785858Y-78359458D01*
X208000000Y-78378193D01*
X208214142Y-78359458D01*
X208219455Y-78358034D01*
X208219457Y-78358034D01*
X208416467Y-78305245D01*
X208416469Y-78305244D01*
X208421777Y-78303822D01*
X208426759Y-78301499D01*
X208611616Y-78215299D01*
X208611619Y-78215297D01*
X208616597Y-78212976D01*
X208792681Y-78089681D01*
X208944681Y-77937681D01*
X209067976Y-77761596D01*
X209158822Y-77566777D01*
X209214458Y-77359142D01*
X209233193Y-77145000D01*
X209214458Y-76930858D01*
X209158822Y-76723223D01*
X209067976Y-76528404D01*
X208944681Y-76352319D01*
X208792681Y-76200319D01*
X208616597Y-76077024D01*
X208611619Y-76074703D01*
X208611616Y-76074701D01*
X208426759Y-75988501D01*
X208426758Y-75988500D01*
X208421777Y-75986178D01*
X208416469Y-75984756D01*
X208416467Y-75984755D01*
X208219457Y-75931966D01*
X208219455Y-75931966D01*
X208214142Y-75930542D01*
X208000000Y-75911807D01*
X207785858Y-75930542D01*
X207780545Y-75931966D01*
X207780543Y-75931966D01*
X207583533Y-75984755D01*
X207583531Y-75984756D01*
X207578223Y-75986178D01*
X207573243Y-75988500D01*
X207573241Y-75988501D01*
X207388385Y-76074701D01*
X207388382Y-76074703D01*
X207383404Y-76077024D01*
X207207319Y-76200319D01*
X207055319Y-76352319D01*
X206932024Y-76528404D01*
X206841178Y-76723223D01*
X206785542Y-76930858D01*
X206766807Y-77145000D01*
X204462500Y-77145000D01*
X204462500Y-70772341D01*
X206199197Y-70772341D01*
X206199329Y-70774177D01*
X206203578Y-70780789D01*
X206682374Y-71259585D01*
X206687458Y-71264147D01*
X206727331Y-71296207D01*
X206740681Y-71304429D01*
X206857786Y-71357673D01*
X206874841Y-71362660D01*
X207001111Y-71380743D01*
X207018889Y-71380743D01*
X207145159Y-71362660D01*
X207162214Y-71357673D01*
X207279323Y-71304427D01*
X207292667Y-71296210D01*
X207332544Y-71264147D01*
X207337622Y-71259591D01*
X207813189Y-70784024D01*
X207820803Y-70770080D01*
X207820672Y-70768245D01*
X207816424Y-70761635D01*
X207022811Y-69968021D01*
X207008868Y-69960408D01*
X207007034Y-69960539D01*
X207000420Y-69964790D01*
X206206808Y-70758403D01*
X206199197Y-70772341D01*
X204462500Y-70772341D01*
X204462500Y-69203767D01*
X204482502Y-69135646D01*
X204536158Y-69089153D01*
X204606432Y-69079049D01*
X204633450Y-69086057D01*
X204819643Y-69157158D01*
X204824709Y-69158189D01*
X204824710Y-69158189D01*
X204877795Y-69168989D01*
X205046605Y-69203334D01*
X205164640Y-69207662D01*
X205231982Y-69230146D01*
X205276478Y-69285470D01*
X205284000Y-69356067D01*
X205274724Y-69385727D01*
X205248328Y-69443783D01*
X205243340Y-69460841D01*
X205225257Y-69587111D01*
X205225257Y-69604889D01*
X205243340Y-69731159D01*
X205248327Y-69748214D01*
X205301573Y-69865323D01*
X205309790Y-69878667D01*
X205341853Y-69918544D01*
X205346409Y-69923622D01*
X205821976Y-70399189D01*
X205835920Y-70406803D01*
X205837753Y-70406672D01*
X205844368Y-70402421D01*
X206649658Y-69597132D01*
X207374408Y-69597132D01*
X207374539Y-69598966D01*
X207378790Y-69605580D01*
X208172403Y-70399192D01*
X208186341Y-70406803D01*
X208188177Y-70406671D01*
X208194789Y-70402422D01*
X208673585Y-69923626D01*
X208678147Y-69918542D01*
X208710207Y-69878669D01*
X208718429Y-69865319D01*
X208771673Y-69748214D01*
X208776660Y-69731159D01*
X208794743Y-69604889D01*
X208794743Y-69587111D01*
X208776660Y-69460841D01*
X208771673Y-69443786D01*
X208718427Y-69326677D01*
X208710210Y-69313333D01*
X208678147Y-69273456D01*
X208673591Y-69268378D01*
X208198024Y-68792811D01*
X208184080Y-68785197D01*
X208182245Y-68785328D01*
X208175635Y-68789576D01*
X207382021Y-69583189D01*
X207374408Y-69597132D01*
X206649658Y-69597132D01*
X207010000Y-69236790D01*
X207813190Y-68433599D01*
X207820802Y-68419658D01*
X207820671Y-68417823D01*
X207816420Y-68411209D01*
X207337626Y-67932415D01*
X207332542Y-67927853D01*
X207292669Y-67895793D01*
X207279319Y-67887571D01*
X207162214Y-67834327D01*
X207145159Y-67829340D01*
X207018889Y-67811257D01*
X207001111Y-67811257D01*
X206874841Y-67829340D01*
X206857782Y-67834328D01*
X206801356Y-67859983D01*
X206731065Y-67869969D01*
X206666534Y-67840368D01*
X206628250Y-67780577D01*
X206623630Y-67755606D01*
X206623405Y-67752866D01*
X206608298Y-67569116D01*
X206576726Y-67443421D01*
X206553133Y-67349493D01*
X206553132Y-67349489D01*
X206551874Y-67344482D01*
X206501046Y-67227586D01*
X206461579Y-67136817D01*
X206461577Y-67136814D01*
X206459519Y-67132080D01*
X206333713Y-66937614D01*
X206177836Y-66766307D01*
X206173785Y-66763108D01*
X206173781Y-66763104D01*
X206024357Y-66645097D01*
X205983294Y-66587180D01*
X205976449Y-66546215D01*
X205976449Y-66481325D01*
X205977882Y-66462375D01*
X205980073Y-66447976D01*
X205980073Y-66447970D01*
X205981173Y-66440741D01*
X205978956Y-66413478D01*
X205976864Y-66387766D01*
X205976449Y-66377551D01*
X205976449Y-66369424D01*
X205973138Y-66341025D01*
X205972709Y-66336685D01*
X205967351Y-66270816D01*
X205966758Y-66263523D01*
X205964502Y-66256561D01*
X205963306Y-66250573D01*
X205961898Y-66244616D01*
X205961050Y-66237342D01*
X205958552Y-66230460D01*
X205958551Y-66230456D01*
X205936004Y-66168342D01*
X205934594Y-66164238D01*
X205911962Y-66094374D01*
X205908162Y-66088111D01*
X205905624Y-66082569D01*
X205902882Y-66077093D01*
X205900383Y-66070208D01*
X205860790Y-66009817D01*
X205860134Y-66008817D01*
X205857819Y-66005149D01*
X205819722Y-65942368D01*
X205812282Y-65933944D01*
X205812311Y-65933918D01*
X205809711Y-65930987D01*
X205806907Y-65927633D01*
X205802895Y-65921514D01*
X205746362Y-65867960D01*
X205743921Y-65865583D01*
X204282501Y-64404163D01*
X211140856Y-64404163D01*
X211160048Y-64623534D01*
X211217043Y-64836239D01*
X211243100Y-64892119D01*
X211307781Y-65030829D01*
X211307784Y-65030834D01*
X211310107Y-65035816D01*
X211313263Y-65040323D01*
X211313264Y-65040325D01*
X211404078Y-65170020D01*
X211436414Y-65216201D01*
X211592125Y-65371912D01*
X211596634Y-65375069D01*
X211596636Y-65375071D01*
X211671404Y-65427424D01*
X211772509Y-65498219D01*
X211972087Y-65591283D01*
X212184792Y-65648278D01*
X212404163Y-65667470D01*
X212623534Y-65648278D01*
X212836239Y-65591283D01*
X213035817Y-65498219D01*
X213136922Y-65427424D01*
X213211690Y-65375071D01*
X213211692Y-65375069D01*
X213216201Y-65371912D01*
X213371912Y-65216201D01*
X213404249Y-65170020D01*
X213495062Y-65040325D01*
X213495063Y-65040323D01*
X213498219Y-65035816D01*
X213500542Y-65030834D01*
X213500545Y-65030829D01*
X213565226Y-64892119D01*
X213591283Y-64836239D01*
X213648278Y-64623534D01*
X213667470Y-64404163D01*
X213648278Y-64184792D01*
X213591283Y-63972087D01*
X213526617Y-63833409D01*
X213500545Y-63777497D01*
X213500542Y-63777492D01*
X213498219Y-63772510D01*
X213495062Y-63768001D01*
X213375071Y-63596636D01*
X213375069Y-63596633D01*
X213371912Y-63592125D01*
X213216201Y-63436414D01*
X213198010Y-63423676D01*
X213131911Y-63377393D01*
X213035817Y-63310107D01*
X212836239Y-63217043D01*
X212623534Y-63160048D01*
X212404163Y-63140856D01*
X212184792Y-63160048D01*
X211972087Y-63217043D01*
X211914031Y-63244115D01*
X211777497Y-63307781D01*
X211777492Y-63307784D01*
X211772510Y-63310107D01*
X211768003Y-63313263D01*
X211768001Y-63313264D01*
X211596636Y-63433255D01*
X211596633Y-63433257D01*
X211592125Y-63436414D01*
X211436414Y-63592125D01*
X211433257Y-63596633D01*
X211433255Y-63596636D01*
X211313264Y-63768001D01*
X211310107Y-63772510D01*
X211307784Y-63777492D01*
X211307781Y-63777497D01*
X211281709Y-63833409D01*
X211217043Y-63972087D01*
X211160048Y-64184792D01*
X211140856Y-64404163D01*
X204282501Y-64404163D01*
X204185494Y-64307156D01*
X204151468Y-64244844D01*
X204156533Y-64174029D01*
X204160394Y-64164812D01*
X204211958Y-64054232D01*
X204211961Y-64054225D01*
X204214284Y-64049243D01*
X204273543Y-63828087D01*
X204293498Y-63600000D01*
X204273543Y-63371913D01*
X204248216Y-63277393D01*
X204215707Y-63156067D01*
X204215706Y-63156065D01*
X204214284Y-63150757D01*
X204209991Y-63141551D01*
X204119849Y-62948238D01*
X204119846Y-62948233D01*
X204117523Y-62943251D01*
X204026716Y-62813566D01*
X203989357Y-62760211D01*
X203989355Y-62760208D01*
X203986198Y-62755700D01*
X203824300Y-62593802D01*
X203819792Y-62590645D01*
X203819789Y-62590643D01*
X203687051Y-62497699D01*
X203636749Y-62462477D01*
X203631767Y-62460154D01*
X203631762Y-62460151D01*
X203434225Y-62368039D01*
X203434224Y-62368039D01*
X203429243Y-62365716D01*
X203423935Y-62364294D01*
X203423933Y-62364293D01*
X203213402Y-62307881D01*
X203213400Y-62307881D01*
X203208087Y-62306457D01*
X202980000Y-62286502D01*
X202751913Y-62306457D01*
X202746600Y-62307881D01*
X202746598Y-62307881D01*
X202536067Y-62364293D01*
X202536065Y-62364294D01*
X202530757Y-62365716D01*
X202525776Y-62368039D01*
X202525775Y-62368039D01*
X202328238Y-62460151D01*
X202328233Y-62460154D01*
X202323251Y-62462477D01*
X202272949Y-62497699D01*
X202140211Y-62590643D01*
X202140208Y-62590645D01*
X202135700Y-62593802D01*
X201973802Y-62755700D01*
X201970645Y-62760208D01*
X201970643Y-62760211D01*
X201933284Y-62813566D01*
X201842477Y-62943251D01*
X201840154Y-62948233D01*
X201840151Y-62948238D01*
X201750009Y-63141551D01*
X201745716Y-63150757D01*
X201744294Y-63156065D01*
X201744293Y-63156067D01*
X201711784Y-63277393D01*
X201686457Y-63371913D01*
X201666502Y-63600000D01*
X201686457Y-63828087D01*
X201687880Y-63833398D01*
X201687882Y-63833409D01*
X201698941Y-63874679D01*
X201697252Y-63945655D01*
X201657459Y-64004451D01*
X201592195Y-64032400D01*
X201522181Y-64020627D01*
X201488140Y-63996386D01*
X200600226Y-63108472D01*
X200587839Y-63094059D01*
X200587837Y-63094056D01*
X200574870Y-63076436D01*
X200534361Y-63042021D01*
X200526845Y-63035091D01*
X200521101Y-63029347D01*
X200518227Y-63027073D01*
X200518220Y-63027067D01*
X200498705Y-63011628D01*
X200495301Y-63008837D01*
X200444944Y-62966055D01*
X200444940Y-62966052D01*
X200439365Y-62961316D01*
X200432848Y-62957988D01*
X200427784Y-62954611D01*
X200422560Y-62951384D01*
X200416816Y-62946840D01*
X200351613Y-62916366D01*
X200350334Y-62915768D01*
X200346383Y-62913837D01*
X200287533Y-62883787D01*
X200281012Y-62880457D01*
X200273897Y-62878716D01*
X200268151Y-62876579D01*
X200262368Y-62874655D01*
X200255737Y-62871556D01*
X200183859Y-62856606D01*
X200179587Y-62855639D01*
X200108304Y-62838196D01*
X200102705Y-62837849D01*
X200102701Y-62837848D01*
X200097086Y-62837500D01*
X200097088Y-62837461D01*
X200093187Y-62837228D01*
X200088828Y-62836839D01*
X200081660Y-62835348D01*
X200074343Y-62835546D01*
X200003839Y-62837454D01*
X200000430Y-62837500D01*
X193949067Y-62837500D01*
X193880946Y-62817498D01*
X193845855Y-62783772D01*
X193829359Y-62760214D01*
X193829357Y-62760212D01*
X193826198Y-62755700D01*
X193664300Y-62593802D01*
X193659792Y-62590645D01*
X193659789Y-62590643D01*
X193527051Y-62497699D01*
X193476749Y-62462477D01*
X193471767Y-62460154D01*
X193471762Y-62460151D01*
X193274225Y-62368039D01*
X193274224Y-62368039D01*
X193269243Y-62365716D01*
X193263935Y-62364294D01*
X193263933Y-62364293D01*
X193053402Y-62307881D01*
X193053400Y-62307881D01*
X193048087Y-62306457D01*
X192820000Y-62286502D01*
X192591913Y-62306457D01*
X192586600Y-62307881D01*
X192586598Y-62307881D01*
X192376067Y-62364293D01*
X192376065Y-62364294D01*
X192370757Y-62365716D01*
X192365776Y-62368039D01*
X192365775Y-62368039D01*
X192168238Y-62460151D01*
X192168233Y-62460154D01*
X192163251Y-62462477D01*
X192112949Y-62497699D01*
X191980211Y-62590643D01*
X191980208Y-62590645D01*
X191975700Y-62593802D01*
X191813802Y-62755700D01*
X191810645Y-62760208D01*
X191810643Y-62760211D01*
X191773284Y-62813566D01*
X191682477Y-62943251D01*
X191680154Y-62948233D01*
X191680151Y-62948238D01*
X191590009Y-63141551D01*
X191585716Y-63150757D01*
X191584294Y-63156065D01*
X191584293Y-63156067D01*
X191551784Y-63277393D01*
X191526457Y-63371913D01*
X191506502Y-63600000D01*
X191526457Y-63828087D01*
X191527881Y-63833400D01*
X191527881Y-63833402D01*
X191547290Y-63905835D01*
X191585716Y-64049243D01*
X191588039Y-64054224D01*
X191588039Y-64054225D01*
X191680151Y-64251762D01*
X191680154Y-64251767D01*
X191682477Y-64256749D01*
X191724125Y-64316228D01*
X191794146Y-64416228D01*
X191813802Y-64444300D01*
X191975700Y-64606198D01*
X191980208Y-64609355D01*
X191980211Y-64609357D01*
X192023758Y-64639849D01*
X192163251Y-64737523D01*
X192168233Y-64739846D01*
X192168238Y-64739849D01*
X192326181Y-64813498D01*
X192370757Y-64834284D01*
X192376065Y-64835706D01*
X192376067Y-64835707D01*
X192586598Y-64892119D01*
X192586600Y-64892119D01*
X192591913Y-64893543D01*
X192820000Y-64913498D01*
X193048087Y-64893543D01*
X193053400Y-64892119D01*
X193053402Y-64892119D01*
X193263933Y-64835707D01*
X193263935Y-64835706D01*
X193269243Y-64834284D01*
X193313819Y-64813498D01*
X193471762Y-64739849D01*
X193471767Y-64739846D01*
X193476749Y-64737523D01*
X193616242Y-64639849D01*
X193659789Y-64609357D01*
X193659792Y-64609355D01*
X193664300Y-64606198D01*
X193826198Y-64444300D01*
X193829359Y-64439786D01*
X193845855Y-64416228D01*
X193901312Y-64371900D01*
X193949067Y-64362500D01*
X199645388Y-64362500D01*
X199713509Y-64382502D01*
X199734483Y-64399405D01*
X202014983Y-66679905D01*
X202049009Y-66742217D01*
X202043944Y-66813032D01*
X202001397Y-66869868D01*
X201934877Y-66894679D01*
X201925888Y-66895000D01*
X201118105Y-66895000D01*
X201101659Y-66893922D01*
X201078188Y-66890832D01*
X201070000Y-66889754D01*
X201030153Y-66895000D01*
X200911280Y-66910650D01*
X200903653Y-66913809D01*
X200903650Y-66913810D01*
X200855422Y-66933787D01*
X200763377Y-66971913D01*
X200756827Y-66976939D01*
X200754783Y-66978119D01*
X200691783Y-66995000D01*
X182848217Y-66995000D01*
X182785217Y-66978119D01*
X182783173Y-66976939D01*
X182776623Y-66971913D01*
X182684578Y-66933787D01*
X182636350Y-66913810D01*
X182636347Y-66913809D01*
X182628720Y-66910650D01*
X182509847Y-66895000D01*
X182470000Y-66889754D01*
X182461812Y-66890832D01*
X182438341Y-66893922D01*
X182421895Y-66895000D01*
X181687528Y-66895000D01*
X181619407Y-66874998D01*
X181572914Y-66821342D01*
X181562810Y-66751068D01*
X181592304Y-66686488D01*
X181598433Y-66679905D01*
X183978933Y-64299405D01*
X184041245Y-64265379D01*
X184068028Y-64262500D01*
X188608933Y-64262500D01*
X188677054Y-64282502D01*
X188712145Y-64316228D01*
X188728641Y-64339786D01*
X188731802Y-64344300D01*
X188893700Y-64506198D01*
X188898208Y-64509355D01*
X188898211Y-64509357D01*
X188956740Y-64550339D01*
X189081251Y-64637523D01*
X189086233Y-64639846D01*
X189086238Y-64639849D01*
X189249107Y-64715795D01*
X189288757Y-64734284D01*
X189294065Y-64735706D01*
X189294067Y-64735707D01*
X189504598Y-64792119D01*
X189504600Y-64792119D01*
X189509913Y-64793543D01*
X189738000Y-64813498D01*
X189966087Y-64793543D01*
X189971400Y-64792119D01*
X189971402Y-64792119D01*
X190181933Y-64735707D01*
X190181935Y-64735706D01*
X190187243Y-64734284D01*
X190226893Y-64715795D01*
X190389762Y-64639849D01*
X190389767Y-64639846D01*
X190394749Y-64637523D01*
X190519260Y-64550339D01*
X190577789Y-64509357D01*
X190577792Y-64509355D01*
X190582300Y-64506198D01*
X190744198Y-64344300D01*
X190763855Y-64316228D01*
X190802126Y-64261570D01*
X190875523Y-64156749D01*
X190877846Y-64151767D01*
X190877849Y-64151762D01*
X190969961Y-63954225D01*
X190969961Y-63954224D01*
X190972284Y-63949243D01*
X191031543Y-63728087D01*
X191051498Y-63500000D01*
X191031543Y-63271913D01*
X191024223Y-63244594D01*
X190973707Y-63056067D01*
X190973706Y-63056065D01*
X190972284Y-63050757D01*
X190969961Y-63045775D01*
X190877849Y-62848238D01*
X190877846Y-62848233D01*
X190875523Y-62843251D01*
X190794893Y-62728100D01*
X190747357Y-62660211D01*
X190747355Y-62660208D01*
X190744198Y-62655700D01*
X190582300Y-62493802D01*
X190577792Y-62490645D01*
X190577789Y-62490643D01*
X190494146Y-62432076D01*
X190394749Y-62362477D01*
X190389767Y-62360154D01*
X190389762Y-62360151D01*
X190192225Y-62268039D01*
X190192224Y-62268039D01*
X190187243Y-62265716D01*
X190181935Y-62264294D01*
X190181933Y-62264293D01*
X190166683Y-62260207D01*
X190106060Y-62223255D01*
X190075039Y-62159395D01*
X190083467Y-62088900D01*
X190128670Y-62034153D01*
X190199294Y-62012500D01*
X208622328Y-62012500D01*
X208690449Y-62032502D01*
X208736942Y-62086158D01*
X208747849Y-62127518D01*
X208755885Y-62219371D01*
X208812880Y-62432076D01*
X208856415Y-62525438D01*
X208903618Y-62626666D01*
X208903621Y-62626671D01*
X208905944Y-62631653D01*
X208909100Y-62636160D01*
X208909101Y-62636162D01*
X209008379Y-62777945D01*
X209032251Y-62812038D01*
X209187962Y-62967749D01*
X209368346Y-63094056D01*
X209567924Y-63187120D01*
X209780629Y-63244115D01*
X210000000Y-63263307D01*
X210219371Y-63244115D01*
X210432076Y-63187120D01*
X210631654Y-63094056D01*
X210812038Y-62967749D01*
X210967749Y-62812038D01*
X210991622Y-62777945D01*
X211090899Y-62636162D01*
X211090900Y-62636160D01*
X211094056Y-62631653D01*
X211096379Y-62626671D01*
X211096382Y-62626666D01*
X211143585Y-62525438D01*
X211187120Y-62432076D01*
X211244115Y-62219371D01*
X211263307Y-62000000D01*
X211244115Y-61780629D01*
X211187120Y-61567924D01*
X211117052Y-61417662D01*
X211096382Y-61373334D01*
X211096379Y-61373329D01*
X211094056Y-61368347D01*
X211090899Y-61363838D01*
X210970908Y-61192473D01*
X210970906Y-61192470D01*
X210967749Y-61187962D01*
X210812038Y-61032251D01*
X210631654Y-60905944D01*
X210432076Y-60812880D01*
X210219371Y-60755885D01*
X210000000Y-60736693D01*
X209892444Y-60746103D01*
X209822840Y-60732114D01*
X209799883Y-60716606D01*
X209770944Y-60692020D01*
X209763429Y-60685091D01*
X209757685Y-60679347D01*
X209754811Y-60677073D01*
X209754804Y-60677067D01*
X209735289Y-60661628D01*
X209731885Y-60658837D01*
X209681528Y-60616055D01*
X209681524Y-60616052D01*
X209675949Y-60611316D01*
X209669432Y-60607988D01*
X209664368Y-60604611D01*
X209659144Y-60601384D01*
X209653400Y-60596840D01*
X209590799Y-60567582D01*
X209586918Y-60565768D01*
X209582967Y-60563837D01*
X209524117Y-60533787D01*
X209517596Y-60530457D01*
X209510481Y-60528716D01*
X209504735Y-60526579D01*
X209498952Y-60524655D01*
X209492321Y-60521556D01*
X209420443Y-60506606D01*
X209416171Y-60505639D01*
X209344888Y-60488196D01*
X209339289Y-60487849D01*
X209339285Y-60487848D01*
X209333670Y-60487500D01*
X209333672Y-60487461D01*
X209329771Y-60487228D01*
X209325412Y-60486839D01*
X209318244Y-60485348D01*
X209310927Y-60485546D01*
X209240423Y-60487454D01*
X209237014Y-60487500D01*
X181895376Y-60487500D01*
X181876426Y-60486067D01*
X181862027Y-60483876D01*
X181862023Y-60483876D01*
X181854793Y-60482776D01*
X181847501Y-60483369D01*
X181847498Y-60483369D01*
X181801814Y-60487085D01*
X181791600Y-60487500D01*
X181783475Y-60487500D01*
X181779840Y-60487924D01*
X181779837Y-60487924D01*
X181766065Y-60489530D01*
X181755110Y-60490807D01*
X181750739Y-60491240D01*
X181677574Y-60497190D01*
X181670617Y-60499444D01*
X181664663Y-60500633D01*
X181658665Y-60502051D01*
X181651393Y-60502899D01*
X181582383Y-60527948D01*
X181578270Y-60529360D01*
X181543816Y-60540522D01*
X181515386Y-60549732D01*
X181515384Y-60549733D01*
X181508426Y-60551987D01*
X181502173Y-60555782D01*
X181496613Y-60558327D01*
X181491139Y-60561069D01*
X181484259Y-60563566D01*
X181478134Y-60567582D01*
X181422876Y-60603810D01*
X181419158Y-60606156D01*
X181356420Y-60644227D01*
X181347995Y-60651667D01*
X181347970Y-60651638D01*
X181345044Y-60654234D01*
X181341690Y-60657039D01*
X181335565Y-60661054D01*
X181330530Y-60666369D01*
X181330529Y-60666370D01*
X181282012Y-60717586D01*
X181279634Y-60720028D01*
X179835788Y-62163874D01*
X179773476Y-62197900D01*
X179735711Y-62200300D01*
X179583475Y-62186981D01*
X179578000Y-62186502D01*
X179349913Y-62206457D01*
X179344600Y-62207881D01*
X179344598Y-62207881D01*
X179134067Y-62264293D01*
X179134065Y-62264294D01*
X179128757Y-62265716D01*
X179123776Y-62268039D01*
X179123775Y-62268039D01*
X178926238Y-62360151D01*
X178926233Y-62360154D01*
X178921251Y-62362477D01*
X178821854Y-62432076D01*
X178738211Y-62490643D01*
X178738208Y-62490645D01*
X178733700Y-62493802D01*
X178571802Y-62655700D01*
X178568645Y-62660208D01*
X178568643Y-62660211D01*
X178521107Y-62728100D01*
X178440477Y-62843251D01*
X178438154Y-62848233D01*
X178438151Y-62848238D01*
X178346039Y-63045775D01*
X178343716Y-63050757D01*
X178342294Y-63056065D01*
X178342293Y-63056067D01*
X178291777Y-63244594D01*
X178284457Y-63271913D01*
X178264502Y-63500000D01*
X178284457Y-63728087D01*
X178343716Y-63949243D01*
X178346039Y-63954224D01*
X178346039Y-63954225D01*
X178438151Y-64151762D01*
X178438154Y-64151767D01*
X178440477Y-64156749D01*
X178513874Y-64261570D01*
X178552146Y-64316228D01*
X178571802Y-64344300D01*
X178733700Y-64506198D01*
X178738208Y-64509355D01*
X178738211Y-64509357D01*
X178796740Y-64550339D01*
X178921251Y-64637523D01*
X178926233Y-64639846D01*
X178926238Y-64639849D01*
X179089107Y-64715795D01*
X179128757Y-64734284D01*
X179134065Y-64735706D01*
X179134067Y-64735707D01*
X179344598Y-64792119D01*
X179344600Y-64792119D01*
X179349913Y-64793543D01*
X179578000Y-64813498D01*
X179806087Y-64793543D01*
X179811400Y-64792119D01*
X179811402Y-64792119D01*
X180021933Y-64735707D01*
X180021935Y-64735706D01*
X180027243Y-64734284D01*
X180066893Y-64715795D01*
X180229762Y-64639849D01*
X180229767Y-64639846D01*
X180234749Y-64637523D01*
X180359260Y-64550339D01*
X180417789Y-64509357D01*
X180417792Y-64509355D01*
X180422300Y-64506198D01*
X180584198Y-64344300D01*
X180603855Y-64316228D01*
X180642126Y-64261570D01*
X180715523Y-64156749D01*
X180717846Y-64151767D01*
X180717849Y-64151762D01*
X180809961Y-63954225D01*
X180809961Y-63954224D01*
X180812284Y-63949243D01*
X180871543Y-63728087D01*
X180891498Y-63500000D01*
X180885830Y-63435216D01*
X180877700Y-63342289D01*
X180891689Y-63272684D01*
X180914126Y-63242212D01*
X182106933Y-62049405D01*
X182169245Y-62015379D01*
X182196028Y-62012500D01*
X189276706Y-62012500D01*
X189344827Y-62032502D01*
X189391320Y-62086158D01*
X189401424Y-62156432D01*
X189371930Y-62221012D01*
X189309317Y-62260207D01*
X189294067Y-62264293D01*
X189294065Y-62264294D01*
X189288757Y-62265716D01*
X189283776Y-62268039D01*
X189283775Y-62268039D01*
X189086238Y-62360151D01*
X189086233Y-62360154D01*
X189081251Y-62362477D01*
X188981854Y-62432076D01*
X188898211Y-62490643D01*
X188898208Y-62490645D01*
X188893700Y-62493802D01*
X188731802Y-62655700D01*
X188728643Y-62660212D01*
X188728641Y-62660214D01*
X188712145Y-62683772D01*
X188656688Y-62728100D01*
X188608933Y-62737500D01*
X183767377Y-62737500D01*
X183748427Y-62736067D01*
X183734028Y-62733876D01*
X183734022Y-62733876D01*
X183726793Y-62732776D01*
X183719501Y-62733369D01*
X183719498Y-62733369D01*
X183673818Y-62737085D01*
X183663603Y-62737500D01*
X183655475Y-62737500D01*
X183651853Y-62737922D01*
X183651840Y-62737923D01*
X183627086Y-62740809D01*
X183622727Y-62741240D01*
X183549574Y-62747191D01*
X183542612Y-62749447D01*
X183536624Y-62750643D01*
X183530667Y-62752051D01*
X183523393Y-62752899D01*
X183516511Y-62755397D01*
X183516507Y-62755398D01*
X183454393Y-62777945D01*
X183450289Y-62779355D01*
X183380425Y-62801987D01*
X183374162Y-62805787D01*
X183368620Y-62808325D01*
X183363144Y-62811067D01*
X183356259Y-62813566D01*
X183350135Y-62817581D01*
X183294868Y-62853815D01*
X183291200Y-62856130D01*
X183228419Y-62894227D01*
X183224214Y-62897941D01*
X183224211Y-62897943D01*
X183219995Y-62901667D01*
X183219969Y-62901638D01*
X183217038Y-62904238D01*
X183213684Y-62907042D01*
X183207565Y-62911054D01*
X183173665Y-62946840D01*
X183154012Y-62967586D01*
X183151634Y-62970028D01*
X177643595Y-68478067D01*
X177581283Y-68512093D01*
X177510468Y-68507028D01*
X177453632Y-68464481D01*
X177428821Y-68397961D01*
X177428500Y-68388972D01*
X177428500Y-67752866D01*
X177421745Y-67690684D01*
X177370615Y-67554295D01*
X177283261Y-67437739D01*
X177166705Y-67350385D01*
X177030316Y-67299255D01*
X176968134Y-67292500D01*
X175371866Y-67292500D01*
X175309684Y-67299255D01*
X175173295Y-67350385D01*
X175056739Y-67437739D01*
X174969385Y-67554295D01*
X174918255Y-67690684D01*
X174911500Y-67752866D01*
X174911500Y-68707500D01*
X174891498Y-68775621D01*
X174837842Y-68822114D01*
X174785500Y-68833500D01*
X167371376Y-68833500D01*
X167352426Y-68832067D01*
X167338027Y-68829876D01*
X167338021Y-68829876D01*
X167330792Y-68828776D01*
X167323500Y-68829369D01*
X167323497Y-68829369D01*
X167277817Y-68833085D01*
X167267602Y-68833500D01*
X167259475Y-68833500D01*
X167255839Y-68833924D01*
X167255837Y-68833924D01*
X167252385Y-68834327D01*
X167231076Y-68836811D01*
X167226756Y-68837238D01*
X167153574Y-68843191D01*
X167146612Y-68845447D01*
X167140624Y-68846643D01*
X167134667Y-68848051D01*
X167127393Y-68848899D01*
X167120511Y-68851397D01*
X167120507Y-68851398D01*
X167058393Y-68873945D01*
X167054289Y-68875355D01*
X166984425Y-68897987D01*
X166978162Y-68901787D01*
X166972620Y-68904325D01*
X166967144Y-68907067D01*
X166960259Y-68909566D01*
X166954135Y-68913581D01*
X166898868Y-68949815D01*
X166895200Y-68952130D01*
X166832419Y-68990227D01*
X166828214Y-68993941D01*
X166828211Y-68993943D01*
X166823995Y-68997667D01*
X166823969Y-68997638D01*
X166821038Y-69000238D01*
X166817684Y-69003042D01*
X166811565Y-69007054D01*
X166806533Y-69012366D01*
X166758012Y-69063586D01*
X166755634Y-69066028D01*
X165257788Y-70563874D01*
X165195476Y-70597900D01*
X165157711Y-70600300D01*
X165005475Y-70586981D01*
X165000000Y-70586502D01*
X164771913Y-70606457D01*
X164766600Y-70607881D01*
X164766598Y-70607881D01*
X164556067Y-70664293D01*
X164556065Y-70664294D01*
X164550757Y-70665716D01*
X164545776Y-70668039D01*
X164545775Y-70668039D01*
X164348238Y-70760151D01*
X164348233Y-70760154D01*
X164343251Y-70762477D01*
X164281925Y-70805418D01*
X164160211Y-70890643D01*
X164160208Y-70890645D01*
X164155700Y-70893802D01*
X163993802Y-71055700D01*
X163990645Y-71060208D01*
X163990643Y-71060211D01*
X163935902Y-71138389D01*
X163862477Y-71243251D01*
X163860154Y-71248233D01*
X163860151Y-71248238D01*
X163778385Y-71423588D01*
X163765716Y-71450757D01*
X163764294Y-71456065D01*
X163764293Y-71456067D01*
X163737241Y-71557027D01*
X163706457Y-71671913D01*
X163686502Y-71900000D01*
X163706457Y-72128087D01*
X163707881Y-72133400D01*
X163707881Y-72133402D01*
X163756728Y-72315698D01*
X163765716Y-72349243D01*
X163768039Y-72354224D01*
X163768039Y-72354225D01*
X163860151Y-72551762D01*
X163860154Y-72551767D01*
X163862477Y-72556749D01*
X163930853Y-72654400D01*
X163974485Y-72716712D01*
X163993802Y-72744300D01*
X164155700Y-72906198D01*
X164160208Y-72909355D01*
X164160211Y-72909357D01*
X164238389Y-72964098D01*
X164343251Y-73037523D01*
X164348233Y-73039846D01*
X164348238Y-73039849D01*
X164534469Y-73126689D01*
X164550757Y-73134284D01*
X164556065Y-73135706D01*
X164556067Y-73135707D01*
X164766598Y-73192119D01*
X164766600Y-73192119D01*
X164771913Y-73193543D01*
X165000000Y-73213498D01*
X165228087Y-73193543D01*
X165233400Y-73192119D01*
X165233402Y-73192119D01*
X165443933Y-73135707D01*
X165443935Y-73135706D01*
X165449243Y-73134284D01*
X165465531Y-73126689D01*
X165651762Y-73039849D01*
X165651767Y-73039846D01*
X165656749Y-73037523D01*
X165761611Y-72964098D01*
X165839789Y-72909357D01*
X165839792Y-72909355D01*
X165844300Y-72906198D01*
X166006198Y-72744300D01*
X166025516Y-72716712D01*
X166069147Y-72654400D01*
X166137523Y-72556749D01*
X166139846Y-72551767D01*
X166139849Y-72551762D01*
X166231961Y-72354225D01*
X166231961Y-72354224D01*
X166234284Y-72349243D01*
X166243273Y-72315698D01*
X166292119Y-72133402D01*
X166292119Y-72133400D01*
X166293543Y-72128087D01*
X166313498Y-71900000D01*
X166299700Y-71742289D01*
X166313689Y-71672684D01*
X166336126Y-71642212D01*
X167582933Y-70395405D01*
X167645245Y-70361379D01*
X167672028Y-70358500D01*
X174849265Y-70358500D01*
X174917386Y-70378502D01*
X174963879Y-70432158D01*
X174973983Y-70502432D01*
X174969630Y-70521758D01*
X174927710Y-70657180D01*
X174927066Y-70663305D01*
X174927066Y-70663306D01*
X174907918Y-70845488D01*
X174906524Y-70858750D01*
X174909427Y-70890643D01*
X174924094Y-71051803D01*
X174924894Y-71060596D01*
X174982119Y-71255029D01*
X174984972Y-71260486D01*
X174984973Y-71260489D01*
X175004522Y-71297883D01*
X175076019Y-71434645D01*
X175203019Y-71592601D01*
X175305664Y-71678730D01*
X175358281Y-71722881D01*
X175357333Y-71724010D01*
X175397595Y-71773318D01*
X175407500Y-71822286D01*
X175407500Y-73297973D01*
X175387498Y-73366094D01*
X175370595Y-73387068D01*
X163307095Y-85450567D01*
X163244783Y-85484593D01*
X163173968Y-85479528D01*
X163128905Y-85450567D01*
X159386810Y-81708472D01*
X159374423Y-81694059D01*
X159365795Y-81682335D01*
X159361454Y-81676436D01*
X159320945Y-81642021D01*
X159313429Y-81635091D01*
X159307685Y-81629347D01*
X159304811Y-81627073D01*
X159304804Y-81627067D01*
X159285289Y-81611628D01*
X159281885Y-81608837D01*
X159231528Y-81566055D01*
X159231524Y-81566052D01*
X159225949Y-81561316D01*
X159219432Y-81557988D01*
X159214368Y-81554611D01*
X159209144Y-81551384D01*
X159203400Y-81546840D01*
X159177109Y-81534552D01*
X159136918Y-81515768D01*
X159132967Y-81513837D01*
X159074117Y-81483787D01*
X159067596Y-81480457D01*
X159060481Y-81478716D01*
X159054735Y-81476579D01*
X159048952Y-81474655D01*
X159042321Y-81471556D01*
X158970443Y-81456606D01*
X158966171Y-81455639D01*
X158894888Y-81438196D01*
X158889289Y-81437849D01*
X158889285Y-81437848D01*
X158883670Y-81437500D01*
X158883672Y-81437461D01*
X158879771Y-81437228D01*
X158875412Y-81436839D01*
X158868244Y-81435348D01*
X158860927Y-81435546D01*
X158790423Y-81437454D01*
X158787014Y-81437500D01*
X142622028Y-81437500D01*
X142553907Y-81417498D01*
X142532933Y-81400595D01*
X133849050Y-72716712D01*
X133815024Y-72654400D01*
X133812624Y-72616636D01*
X133822874Y-72499476D01*
X133822874Y-72499475D01*
X133823353Y-72494000D01*
X133803978Y-72272537D01*
X133746440Y-72057804D01*
X133734422Y-72032031D01*
X133730740Y-72024134D01*
X155938500Y-72024134D01*
X155945255Y-72086316D01*
X155996385Y-72222705D01*
X156083739Y-72339261D01*
X156200295Y-72426615D01*
X156336684Y-72477745D01*
X156398866Y-72484500D01*
X157545134Y-72484500D01*
X157607316Y-72477745D01*
X157648623Y-72462260D01*
X157735296Y-72429768D01*
X157735299Y-72429766D01*
X157743705Y-72426615D01*
X157750894Y-72421227D01*
X157751137Y-72421094D01*
X157820494Y-72405924D01*
X157848907Y-72411248D01*
X158033180Y-72468290D01*
X158039305Y-72468934D01*
X158039306Y-72468934D01*
X158228622Y-72488832D01*
X158228623Y-72488832D01*
X158234750Y-72489476D01*
X158318014Y-72481898D01*
X158430457Y-72471665D01*
X158430460Y-72471664D01*
X158436596Y-72471106D01*
X158442502Y-72469368D01*
X158442506Y-72469367D01*
X158606521Y-72421094D01*
X158631029Y-72413881D01*
X158636486Y-72411028D01*
X158636489Y-72411027D01*
X158805181Y-72322838D01*
X158805185Y-72322835D01*
X158810645Y-72319981D01*
X158810897Y-72319779D01*
X158876912Y-72299799D01*
X158937885Y-72314959D01*
X159104342Y-72404962D01*
X159115647Y-72409714D01*
X159240692Y-72448422D01*
X159254795Y-72448628D01*
X159258000Y-72441873D01*
X159258000Y-72434986D01*
X159766000Y-72434986D01*
X159769973Y-72448517D01*
X159777768Y-72449637D01*
X159894932Y-72415154D01*
X159906300Y-72410561D01*
X160074911Y-72322414D01*
X160085173Y-72315698D01*
X160233443Y-72196485D01*
X160242213Y-72187897D01*
X160364499Y-72042162D01*
X160371437Y-72032031D01*
X160463094Y-71865308D01*
X160467924Y-71854038D01*
X160525452Y-71672684D01*
X160528002Y-71660691D01*
X160544607Y-71512650D01*
X160545000Y-71505626D01*
X160545000Y-71498115D01*
X160540525Y-71482876D01*
X160539135Y-71481671D01*
X160531452Y-71480000D01*
X159784115Y-71480000D01*
X159768876Y-71484475D01*
X159767671Y-71485865D01*
X159766000Y-71493548D01*
X159766000Y-72434986D01*
X159258000Y-72434986D01*
X159258000Y-71672242D01*
X159258785Y-71658197D01*
X159263590Y-71615357D01*
X159275500Y-71509183D01*
X159275500Y-70953885D01*
X159766000Y-70953885D01*
X159770475Y-70969124D01*
X159771865Y-70970329D01*
X159779548Y-70972000D01*
X160526885Y-70972000D01*
X160542124Y-70967525D01*
X160543329Y-70966135D01*
X160545000Y-70958452D01*
X160545000Y-70953110D01*
X160544700Y-70946965D01*
X160530830Y-70805519D01*
X160528447Y-70793481D01*
X160473458Y-70611349D01*
X160468783Y-70600007D01*
X160379465Y-70432023D01*
X160372678Y-70421807D01*
X160252428Y-70274366D01*
X160243784Y-70265662D01*
X160097191Y-70144390D01*
X160087020Y-70137530D01*
X159919658Y-70047038D01*
X159908353Y-70042286D01*
X159783308Y-70003578D01*
X159769205Y-70003372D01*
X159766000Y-70010127D01*
X159766000Y-70953885D01*
X159275500Y-70953885D01*
X159275500Y-70949996D01*
X159260723Y-70799287D01*
X159260032Y-70796998D01*
X159258000Y-70776276D01*
X159258000Y-70017014D01*
X159254027Y-70003483D01*
X159246232Y-70002363D01*
X159129068Y-70036846D01*
X159117700Y-70041439D01*
X158949093Y-70129584D01*
X158946017Y-70131597D01*
X158944178Y-70132154D01*
X158943630Y-70132440D01*
X158943576Y-70132336D01*
X158878064Y-70152161D01*
X158817094Y-70137001D01*
X158785502Y-70119919D01*
X158644435Y-70043644D01*
X158511078Y-70002363D01*
X158456707Y-69985532D01*
X158456704Y-69985531D01*
X158450820Y-69983710D01*
X158444695Y-69983066D01*
X158444694Y-69983066D01*
X158255378Y-69963168D01*
X158255377Y-69963168D01*
X158249250Y-69962524D01*
X158165986Y-69970102D01*
X158053543Y-69980335D01*
X158053540Y-69980336D01*
X158047404Y-69980894D01*
X158041498Y-69982632D01*
X158041494Y-69982633D01*
X157858879Y-70036380D01*
X157858877Y-70036381D01*
X157857493Y-70036788D01*
X157852971Y-70038119D01*
X157852718Y-70037260D01*
X157787338Y-70043714D01*
X157750594Y-70030548D01*
X157743705Y-70025385D01*
X157735304Y-70022236D01*
X157735301Y-70022234D01*
X157623534Y-69980335D01*
X157607316Y-69974255D01*
X157545134Y-69967500D01*
X156398866Y-69967500D01*
X156336684Y-69974255D01*
X156200295Y-70025385D01*
X156083739Y-70112739D01*
X155996385Y-70229295D01*
X155945255Y-70365684D01*
X155938500Y-70427866D01*
X155938500Y-72024134D01*
X133730740Y-72024134D01*
X133654814Y-71861311D01*
X133654811Y-71861306D01*
X133652488Y-71856324D01*
X133649331Y-71851815D01*
X133528136Y-71678730D01*
X133528134Y-71678727D01*
X133524977Y-71674219D01*
X133367781Y-71517023D01*
X133363273Y-71513866D01*
X133363270Y-71513864D01*
X133271540Y-71449634D01*
X133185677Y-71389512D01*
X133180695Y-71387189D01*
X133180690Y-71387186D01*
X132989178Y-71297883D01*
X132989177Y-71297882D01*
X132984196Y-71295560D01*
X132978888Y-71294138D01*
X132978886Y-71294137D01*
X132853310Y-71260489D01*
X132769463Y-71238022D01*
X132548000Y-71218647D01*
X132326537Y-71238022D01*
X132242690Y-71260489D01*
X132117114Y-71294137D01*
X132117112Y-71294138D01*
X132111804Y-71295560D01*
X132106823Y-71297882D01*
X132106822Y-71297883D01*
X131915311Y-71387186D01*
X131915306Y-71387189D01*
X131910324Y-71389512D01*
X131905817Y-71392668D01*
X131905815Y-71392669D01*
X131732730Y-71513864D01*
X131732727Y-71513866D01*
X131728219Y-71517023D01*
X131571023Y-71674219D01*
X131567866Y-71678727D01*
X131567864Y-71678730D01*
X131446669Y-71851815D01*
X131443512Y-71856324D01*
X131441189Y-71861306D01*
X131441186Y-71861311D01*
X131361578Y-72032031D01*
X131349560Y-72057804D01*
X131292022Y-72272537D01*
X131272647Y-72494000D01*
X130775353Y-72494000D01*
X130755978Y-72272537D01*
X130698440Y-72057804D01*
X130686422Y-72032031D01*
X130606814Y-71861311D01*
X130606811Y-71861306D01*
X130604488Y-71856324D01*
X130601331Y-71851815D01*
X130480136Y-71678730D01*
X130480134Y-71678727D01*
X130476977Y-71674219D01*
X130319781Y-71517023D01*
X130315273Y-71513866D01*
X130315270Y-71513864D01*
X130223540Y-71449634D01*
X130137677Y-71389512D01*
X130132695Y-71387189D01*
X130132690Y-71387186D01*
X129941178Y-71297883D01*
X129941177Y-71297882D01*
X129936196Y-71295560D01*
X129930888Y-71294138D01*
X129930886Y-71294137D01*
X129805310Y-71260489D01*
X129721463Y-71238022D01*
X129500000Y-71218647D01*
X129278537Y-71238022D01*
X129194690Y-71260489D01*
X129069114Y-71294137D01*
X129069112Y-71294138D01*
X129063804Y-71295560D01*
X129058823Y-71297882D01*
X129058822Y-71297883D01*
X128867311Y-71387186D01*
X128867306Y-71387189D01*
X128862324Y-71389512D01*
X128857817Y-71392668D01*
X128857815Y-71392669D01*
X128684730Y-71513864D01*
X128684727Y-71513866D01*
X128680219Y-71517023D01*
X128523023Y-71674219D01*
X128519866Y-71678727D01*
X128519864Y-71678730D01*
X128398669Y-71851815D01*
X128395512Y-71856324D01*
X128393189Y-71861306D01*
X128393186Y-71861311D01*
X128313578Y-72032031D01*
X128301560Y-72057804D01*
X128244022Y-72272537D01*
X128224647Y-72494000D01*
X128225126Y-72499475D01*
X128225126Y-72499476D01*
X128235376Y-72616636D01*
X128221387Y-72686240D01*
X128198950Y-72716712D01*
X127859801Y-73055861D01*
X127797489Y-73089887D01*
X127726674Y-73084822D01*
X127669838Y-73042275D01*
X127645027Y-72975755D01*
X127651359Y-72930442D01*
X127650440Y-72930196D01*
X127656870Y-72906198D01*
X127707978Y-72715463D01*
X127727353Y-72494000D01*
X127707978Y-72272537D01*
X127650440Y-72057804D01*
X127638422Y-72032031D01*
X127558814Y-71861311D01*
X127558811Y-71861306D01*
X127556488Y-71856324D01*
X127553331Y-71851815D01*
X127432136Y-71678730D01*
X127432134Y-71678727D01*
X127428977Y-71674219D01*
X127271781Y-71517023D01*
X127267273Y-71513866D01*
X127267270Y-71513864D01*
X127175540Y-71449634D01*
X127089677Y-71389512D01*
X127084695Y-71387189D01*
X127084690Y-71387186D01*
X126893178Y-71297883D01*
X126893177Y-71297882D01*
X126888196Y-71295560D01*
X126882888Y-71294138D01*
X126882886Y-71294137D01*
X126757310Y-71260489D01*
X126673463Y-71238022D01*
X126452000Y-71218647D01*
X126230537Y-71238022D01*
X126146690Y-71260489D01*
X126021114Y-71294137D01*
X126021112Y-71294138D01*
X126015804Y-71295560D01*
X126010823Y-71297882D01*
X126010822Y-71297883D01*
X125819311Y-71387186D01*
X125819306Y-71387189D01*
X125814324Y-71389512D01*
X125809817Y-71392668D01*
X125809815Y-71392669D01*
X125636730Y-71513864D01*
X125636727Y-71513866D01*
X125632219Y-71517023D01*
X125475023Y-71674219D01*
X125471866Y-71678727D01*
X125471864Y-71678730D01*
X125350669Y-71851815D01*
X125347512Y-71856324D01*
X125345189Y-71861306D01*
X125345186Y-71861311D01*
X125265578Y-72032031D01*
X125253560Y-72057804D01*
X125196022Y-72272537D01*
X125176647Y-72494000D01*
X125196022Y-72715463D01*
X125253560Y-72930196D01*
X125255882Y-72935177D01*
X125255883Y-72935178D01*
X125345186Y-73126689D01*
X125345189Y-73126694D01*
X125347512Y-73131676D01*
X125350668Y-73136183D01*
X125350669Y-73136185D01*
X125468291Y-73304166D01*
X125475023Y-73313781D01*
X125632219Y-73470977D01*
X125636727Y-73474134D01*
X125636730Y-73474136D01*
X125673868Y-73500140D01*
X125814323Y-73598488D01*
X125819305Y-73600811D01*
X125819310Y-73600814D01*
X126010822Y-73690117D01*
X126015804Y-73692440D01*
X126021112Y-73693862D01*
X126021114Y-73693863D01*
X126086949Y-73711503D01*
X126230537Y-73749978D01*
X126452000Y-73769353D01*
X126673463Y-73749978D01*
X126888196Y-73692440D01*
X126888578Y-73693866D01*
X126952524Y-73689802D01*
X127014565Y-73724319D01*
X127048095Y-73786899D01*
X127042469Y-73857673D01*
X127013861Y-73901801D01*
X126020972Y-74894690D01*
X126006559Y-74907077D01*
X125988936Y-74920046D01*
X125984192Y-74925629D01*
X125984193Y-74925629D01*
X125954521Y-74960555D01*
X125947591Y-74968071D01*
X125941847Y-74973815D01*
X125939573Y-74976689D01*
X125939567Y-74976696D01*
X125924128Y-74996211D01*
X125921337Y-74999615D01*
X125878555Y-75049972D01*
X125878552Y-75049976D01*
X125873816Y-75055551D01*
X125870488Y-75062068D01*
X125867111Y-75067132D01*
X125863884Y-75072356D01*
X125859340Y-75078100D01*
X125856241Y-75084731D01*
X125828268Y-75144582D01*
X125826337Y-75148533D01*
X125821738Y-75157540D01*
X125792957Y-75213904D01*
X125791216Y-75221019D01*
X125789079Y-75226765D01*
X125787155Y-75232548D01*
X125784056Y-75239179D01*
X125782566Y-75246343D01*
X125769108Y-75311047D01*
X125768139Y-75315329D01*
X125750696Y-75386612D01*
X125750000Y-75397830D01*
X125749961Y-75397828D01*
X125749728Y-75401729D01*
X125749339Y-75406088D01*
X125747848Y-75413256D01*
X125748046Y-75420573D01*
X125749954Y-75491077D01*
X125750000Y-75494486D01*
X125750000Y-79137500D01*
X125729998Y-79205621D01*
X125676342Y-79252114D01*
X125624000Y-79263500D01*
X125464366Y-79263500D01*
X125402184Y-79270255D01*
X125265795Y-79321385D01*
X125149239Y-79408739D01*
X125061885Y-79525295D01*
X125010755Y-79661684D01*
X125004000Y-79723866D01*
X125004000Y-80262279D01*
X124983998Y-80330400D01*
X124930342Y-80376893D01*
X124861145Y-80386646D01*
X124855974Y-80385100D01*
X124853096Y-80385083D01*
X124791462Y-80356523D01*
X124753409Y-80296585D01*
X124748500Y-80261756D01*
X124748500Y-75211866D01*
X124741745Y-75149684D01*
X124690615Y-75013295D01*
X124603261Y-74896739D01*
X124486705Y-74809385D01*
X124350316Y-74758255D01*
X124288134Y-74751500D01*
X119469135Y-74751500D01*
X119401014Y-74731498D01*
X119354521Y-74677842D01*
X119343141Y-74624277D01*
X119346748Y-74252810D01*
X119391402Y-69653314D01*
X121748124Y-69653314D01*
X121748348Y-69657980D01*
X121748348Y-69657985D01*
X121750518Y-69703160D01*
X121760807Y-69917352D01*
X121779261Y-70010127D01*
X121810987Y-70169622D01*
X121812378Y-70176616D01*
X121813957Y-70181014D01*
X121813959Y-70181021D01*
X121880260Y-70365684D01*
X121901704Y-70425410D01*
X121903921Y-70429536D01*
X121998984Y-70606457D01*
X122026822Y-70658267D01*
X122029617Y-70662011D01*
X122029619Y-70662013D01*
X122182192Y-70866333D01*
X122184985Y-70870073D01*
X122188292Y-70873351D01*
X122188297Y-70873357D01*
X122369402Y-71052887D01*
X122372718Y-71056174D01*
X122585896Y-71212483D01*
X122590031Y-71214659D01*
X122590035Y-71214661D01*
X122675422Y-71259585D01*
X122819836Y-71335565D01*
X123069400Y-71422716D01*
X123073993Y-71423588D01*
X123324515Y-71471151D01*
X123324518Y-71471151D01*
X123329104Y-71472022D01*
X123461173Y-71477211D01*
X123588575Y-71482218D01*
X123588581Y-71482218D01*
X123593243Y-71482401D01*
X123856015Y-71453622D01*
X123860526Y-71452434D01*
X123860528Y-71452434D01*
X124107124Y-71387511D01*
X124107126Y-71387510D01*
X124111647Y-71386320D01*
X124226191Y-71337108D01*
X124350229Y-71283817D01*
X124350231Y-71283816D01*
X124354523Y-71281972D01*
X124579307Y-71142871D01*
X124676950Y-71060211D01*
X124777496Y-70975093D01*
X124777498Y-70975091D01*
X124781063Y-70972073D01*
X124955356Y-70773329D01*
X124958627Y-70768245D01*
X125075527Y-70586502D01*
X125098359Y-70551006D01*
X125206930Y-70309988D01*
X125214019Y-70284854D01*
X125243302Y-70181021D01*
X125278683Y-70055570D01*
X125290789Y-69960408D01*
X125311645Y-69796471D01*
X125311645Y-69796465D01*
X125312043Y-69793340D01*
X125314487Y-69700000D01*
X125311018Y-69653314D01*
X133686124Y-69653314D01*
X133686348Y-69657980D01*
X133686348Y-69657985D01*
X133688518Y-69703160D01*
X133698807Y-69917352D01*
X133717261Y-70010127D01*
X133748987Y-70169622D01*
X133750378Y-70176616D01*
X133751957Y-70181014D01*
X133751959Y-70181021D01*
X133818260Y-70365684D01*
X133839704Y-70425410D01*
X133841921Y-70429536D01*
X133936984Y-70606457D01*
X133964822Y-70658267D01*
X133967617Y-70662011D01*
X133967619Y-70662013D01*
X134120192Y-70866333D01*
X134122985Y-70870073D01*
X134126292Y-70873351D01*
X134126297Y-70873357D01*
X134307402Y-71052887D01*
X134310718Y-71056174D01*
X134523896Y-71212483D01*
X134528031Y-71214659D01*
X134528035Y-71214661D01*
X134613422Y-71259585D01*
X134757836Y-71335565D01*
X135007400Y-71422716D01*
X135011993Y-71423588D01*
X135262515Y-71471151D01*
X135262518Y-71471151D01*
X135267104Y-71472022D01*
X135399173Y-71477211D01*
X135526575Y-71482218D01*
X135526581Y-71482218D01*
X135531243Y-71482401D01*
X135794015Y-71453622D01*
X135798526Y-71452434D01*
X135798528Y-71452434D01*
X136045124Y-71387511D01*
X136045126Y-71387510D01*
X136049647Y-71386320D01*
X136164191Y-71337108D01*
X136288229Y-71283817D01*
X136288231Y-71283816D01*
X136292523Y-71281972D01*
X136517307Y-71142871D01*
X136614950Y-71060211D01*
X136715496Y-70975093D01*
X136715498Y-70975091D01*
X136719063Y-70972073D01*
X136893356Y-70773329D01*
X136896627Y-70768245D01*
X137013527Y-70586502D01*
X137036359Y-70551006D01*
X137144930Y-70309988D01*
X137152019Y-70284854D01*
X137181302Y-70181021D01*
X137216683Y-70055570D01*
X137228789Y-69960408D01*
X137249645Y-69796471D01*
X137249645Y-69796465D01*
X137250043Y-69793340D01*
X137252487Y-69700000D01*
X137246233Y-69615838D01*
X137233243Y-69441036D01*
X137233242Y-69441032D01*
X137232897Y-69436384D01*
X137174557Y-69178559D01*
X137157869Y-69135646D01*
X137080442Y-68936542D01*
X137080441Y-68936540D01*
X137078749Y-68932189D01*
X137062824Y-68904325D01*
X137024481Y-68837240D01*
X136947578Y-68702687D01*
X136783925Y-68495094D01*
X136623436Y-68344121D01*
X136594791Y-68317174D01*
X136591385Y-68313970D01*
X136554212Y-68288182D01*
X136378026Y-68165958D01*
X136378021Y-68165955D01*
X136374188Y-68163296D01*
X136369997Y-68161229D01*
X136141294Y-68048445D01*
X136141291Y-68048444D01*
X136137106Y-68046380D01*
X136103349Y-68035574D01*
X135889792Y-67967214D01*
X135889794Y-67967214D01*
X135885347Y-67965791D01*
X135652398Y-67927853D01*
X135629053Y-67924051D01*
X135629052Y-67924051D01*
X135624441Y-67923300D01*
X135492281Y-67921570D01*
X135364798Y-67919901D01*
X135364795Y-67919901D01*
X135360121Y-67919840D01*
X135098192Y-67955486D01*
X135093702Y-67956795D01*
X135093696Y-67956796D01*
X134985732Y-67988265D01*
X134844410Y-68029457D01*
X134840163Y-68031415D01*
X134840160Y-68031416D01*
X134749950Y-68073004D01*
X134604348Y-68140127D01*
X134600439Y-68142690D01*
X134387195Y-68282499D01*
X134387190Y-68282503D01*
X134383282Y-68285065D01*
X134379790Y-68288182D01*
X134205000Y-68444188D01*
X134186067Y-68461086D01*
X134017036Y-68664324D01*
X133879901Y-68890314D01*
X133878095Y-68894622D01*
X133878094Y-68894623D01*
X133802652Y-69074533D01*
X133777677Y-69134091D01*
X133776526Y-69138623D01*
X133776525Y-69138626D01*
X133758992Y-69207662D01*
X133712608Y-69390301D01*
X133686124Y-69653314D01*
X125311018Y-69653314D01*
X125308233Y-69615838D01*
X125295243Y-69441036D01*
X125295242Y-69441032D01*
X125294897Y-69436384D01*
X125236557Y-69178559D01*
X125219869Y-69135646D01*
X125142442Y-68936542D01*
X125142441Y-68936540D01*
X125140749Y-68932189D01*
X125124824Y-68904325D01*
X125086481Y-68837240D01*
X125009578Y-68702687D01*
X124845925Y-68495094D01*
X124685436Y-68344121D01*
X124656791Y-68317174D01*
X124653385Y-68313970D01*
X124616212Y-68288182D01*
X124440026Y-68165958D01*
X124440021Y-68165955D01*
X124436188Y-68163296D01*
X124431997Y-68161229D01*
X124203294Y-68048445D01*
X124203291Y-68048444D01*
X124199106Y-68046380D01*
X124165349Y-68035574D01*
X123951792Y-67967214D01*
X123951794Y-67967214D01*
X123947347Y-67965791D01*
X123714398Y-67927853D01*
X123691053Y-67924051D01*
X123691052Y-67924051D01*
X123686441Y-67923300D01*
X123554281Y-67921570D01*
X123426798Y-67919901D01*
X123426795Y-67919901D01*
X123422121Y-67919840D01*
X123160192Y-67955486D01*
X123155702Y-67956795D01*
X123155696Y-67956796D01*
X123047732Y-67988265D01*
X122906410Y-68029457D01*
X122902163Y-68031415D01*
X122902160Y-68031416D01*
X122811950Y-68073004D01*
X122666348Y-68140127D01*
X122662439Y-68142690D01*
X122449195Y-68282499D01*
X122449190Y-68282503D01*
X122445282Y-68285065D01*
X122441790Y-68288182D01*
X122267000Y-68444188D01*
X122248067Y-68461086D01*
X122079036Y-68664324D01*
X121941901Y-68890314D01*
X121940095Y-68894622D01*
X121940094Y-68894623D01*
X121864652Y-69074533D01*
X121839677Y-69134091D01*
X121838526Y-69138623D01*
X121838525Y-69138626D01*
X121820992Y-69207662D01*
X121774608Y-69390301D01*
X121748124Y-69653314D01*
X119391402Y-69653314D01*
X119394882Y-69294898D01*
X119397046Y-69272839D01*
X119510706Y-68668317D01*
X119668041Y-67831498D01*
X119679998Y-67796811D01*
X119702770Y-67752866D01*
X120277363Y-66643994D01*
X120292503Y-66621225D01*
X120332287Y-66573561D01*
X120584976Y-66270816D01*
X120700254Y-66132703D01*
X148090743Y-66132703D01*
X148091302Y-66136947D01*
X148091302Y-66136951D01*
X148093084Y-66150488D01*
X148128268Y-66417734D01*
X148204129Y-66695036D01*
X148205813Y-66698984D01*
X148305966Y-66933787D01*
X148316923Y-66959476D01*
X148464561Y-67206161D01*
X148644313Y-67430528D01*
X148767164Y-67547109D01*
X148783597Y-67562703D01*
X148852851Y-67628423D01*
X149086317Y-67796186D01*
X149090112Y-67798195D01*
X149090113Y-67798196D01*
X149111869Y-67809715D01*
X149340392Y-67930712D01*
X149475383Y-67980112D01*
X149585826Y-68020528D01*
X149610373Y-68029511D01*
X149891264Y-68090755D01*
X149919841Y-68093004D01*
X150114282Y-68108307D01*
X150114291Y-68108307D01*
X150116739Y-68108500D01*
X150272271Y-68108500D01*
X150274407Y-68108354D01*
X150274418Y-68108354D01*
X150482548Y-68094165D01*
X150482554Y-68094164D01*
X150486825Y-68093873D01*
X150491020Y-68093004D01*
X150491022Y-68093004D01*
X150627583Y-68064724D01*
X150768342Y-68035574D01*
X151039343Y-67939607D01*
X151294812Y-67807750D01*
X151298313Y-67805289D01*
X151298317Y-67805287D01*
X151471908Y-67683285D01*
X151530023Y-67642441D01*
X151740622Y-67446740D01*
X151922713Y-67224268D01*
X152072927Y-66979142D01*
X152092837Y-66933787D01*
X152186757Y-66719830D01*
X152188483Y-66715898D01*
X152267244Y-66439406D01*
X152297515Y-66226704D01*
X152307146Y-66159036D01*
X152307146Y-66159034D01*
X152307751Y-66154784D01*
X152307845Y-66136951D01*
X152309235Y-65871583D01*
X152309235Y-65871576D01*
X152309257Y-65867297D01*
X152271732Y-65582266D01*
X152195871Y-65304964D01*
X152083077Y-65040524D01*
X151965163Y-64843504D01*
X151937643Y-64797521D01*
X151937640Y-64797517D01*
X151935439Y-64793839D01*
X151872914Y-64715795D01*
X170870707Y-64715795D01*
X170890662Y-64943882D01*
X170892086Y-64949195D01*
X170892086Y-64949197D01*
X170913960Y-65030829D01*
X170949921Y-65165038D01*
X170952244Y-65170019D01*
X170952244Y-65170020D01*
X171044356Y-65367557D01*
X171044359Y-65367562D01*
X171046682Y-65372544D01*
X171178007Y-65560095D01*
X171339905Y-65721993D01*
X171344413Y-65725150D01*
X171344416Y-65725152D01*
X171422594Y-65779893D01*
X171527456Y-65853318D01*
X171532438Y-65855641D01*
X171532443Y-65855644D01*
X171728704Y-65947161D01*
X171734962Y-65950079D01*
X171740270Y-65951501D01*
X171740272Y-65951502D01*
X171950803Y-66007914D01*
X171950805Y-66007914D01*
X171956118Y-66009338D01*
X172184205Y-66029293D01*
X172412292Y-66009338D01*
X172417605Y-66007914D01*
X172417607Y-66007914D01*
X172628138Y-65951502D01*
X172628140Y-65951501D01*
X172633448Y-65950079D01*
X172639706Y-65947161D01*
X172835967Y-65855644D01*
X172835972Y-65855641D01*
X172840954Y-65853318D01*
X172945816Y-65779893D01*
X173023994Y-65725152D01*
X173023997Y-65725150D01*
X173028505Y-65721993D01*
X173190403Y-65560095D01*
X173321728Y-65372544D01*
X173324051Y-65367562D01*
X173324054Y-65367557D01*
X173416166Y-65170020D01*
X173416166Y-65170019D01*
X173418489Y-65165038D01*
X173454451Y-65030829D01*
X173476324Y-64949197D01*
X173476324Y-64949195D01*
X173477748Y-64943882D01*
X173497703Y-64715795D01*
X173477748Y-64487708D01*
X173470422Y-64460367D01*
X173419912Y-64271862D01*
X173419911Y-64271860D01*
X173418489Y-64266552D01*
X173413918Y-64256749D01*
X173324054Y-64064033D01*
X173324051Y-64064028D01*
X173321728Y-64059046D01*
X173190403Y-63871495D01*
X173028505Y-63709597D01*
X173023997Y-63706440D01*
X173023994Y-63706438D01*
X172945816Y-63651697D01*
X172840954Y-63578272D01*
X172835972Y-63575949D01*
X172835967Y-63575946D01*
X172638430Y-63483834D01*
X172638429Y-63483834D01*
X172633448Y-63481511D01*
X172628140Y-63480089D01*
X172628138Y-63480088D01*
X172417607Y-63423676D01*
X172417605Y-63423676D01*
X172412292Y-63422252D01*
X172184205Y-63402297D01*
X171956118Y-63422252D01*
X171950805Y-63423676D01*
X171950803Y-63423676D01*
X171740272Y-63480088D01*
X171740270Y-63480089D01*
X171734962Y-63481511D01*
X171729981Y-63483834D01*
X171729980Y-63483834D01*
X171532443Y-63575946D01*
X171532438Y-63575949D01*
X171527456Y-63578272D01*
X171422594Y-63651697D01*
X171344416Y-63706438D01*
X171344413Y-63706440D01*
X171339905Y-63709597D01*
X171178007Y-63871495D01*
X171046682Y-64059046D01*
X171044359Y-64064028D01*
X171044356Y-64064033D01*
X170954492Y-64256749D01*
X170949921Y-64266552D01*
X170948499Y-64271860D01*
X170948498Y-64271862D01*
X170897988Y-64460367D01*
X170890662Y-64487708D01*
X170870707Y-64715795D01*
X151872914Y-64715795D01*
X151755687Y-64569472D01*
X151617222Y-64438074D01*
X151550258Y-64374527D01*
X151550255Y-64374525D01*
X151547149Y-64371577D01*
X151313683Y-64203814D01*
X151291843Y-64192250D01*
X151224793Y-64156749D01*
X151059608Y-64069288D01*
X150789627Y-63970489D01*
X150508736Y-63909245D01*
X150477685Y-63906801D01*
X150285718Y-63891693D01*
X150285709Y-63891693D01*
X150283261Y-63891500D01*
X150127729Y-63891500D01*
X150125593Y-63891646D01*
X150125582Y-63891646D01*
X149917452Y-63905835D01*
X149917446Y-63905836D01*
X149913175Y-63906127D01*
X149908980Y-63906996D01*
X149908978Y-63906996D01*
X149772416Y-63935277D01*
X149631658Y-63964426D01*
X149360657Y-64060393D01*
X149105188Y-64192250D01*
X149101687Y-64194711D01*
X149101683Y-64194713D01*
X149005232Y-64262500D01*
X148869977Y-64357559D01*
X148819825Y-64404163D01*
X148710023Y-64506198D01*
X148659378Y-64553260D01*
X148477287Y-64775732D01*
X148327073Y-65020858D01*
X148325347Y-65024791D01*
X148325346Y-65024792D01*
X148318440Y-65040524D01*
X148211517Y-65284102D01*
X148132756Y-65560594D01*
X148092249Y-65845216D01*
X148092227Y-65849505D01*
X148092226Y-65849512D01*
X148090926Y-66097680D01*
X148090743Y-66132703D01*
X120700254Y-66132703D01*
X121092160Y-65663165D01*
X121103401Y-65651345D01*
X121781749Y-65024792D01*
X121927775Y-64889916D01*
X121944213Y-64877083D01*
X122070985Y-64794022D01*
X123134558Y-64097171D01*
X123157641Y-64085249D01*
X123695076Y-63874679D01*
X124489984Y-63563230D01*
X124508088Y-63557666D01*
X125846500Y-63254203D01*
X125861998Y-63251692D01*
X127065376Y-63133062D01*
X127066723Y-63132936D01*
X127345627Y-63108472D01*
X128003610Y-63050757D01*
X136271346Y-62325553D01*
X136272239Y-62325478D01*
X158323685Y-60549235D01*
X158325351Y-60549112D01*
X185244280Y-58739629D01*
X185246583Y-58739495D01*
X198031719Y-58114887D01*
X198034636Y-58114778D01*
X209007152Y-57833335D01*
X209024936Y-57834137D01*
G37*
%TD.AperFunction*%
%TA.AperFunction,Conductor*%
G36*
X180480032Y-67902472D02*
G01*
X180536868Y-67945019D01*
X180561679Y-68011539D01*
X180562000Y-68020528D01*
X180562000Y-82454895D01*
X180560922Y-82471341D01*
X180556754Y-82503000D01*
X180562000Y-82542847D01*
X180577650Y-82661720D01*
X180638913Y-82809623D01*
X180643940Y-82816174D01*
X180643941Y-82816176D01*
X180696165Y-82884235D01*
X180736370Y-82936630D01*
X180742920Y-82941656D01*
X180855072Y-83027714D01*
X180863377Y-83034087D01*
X180937328Y-83064718D01*
X181003650Y-83092190D01*
X181003653Y-83092191D01*
X181011280Y-83095350D01*
X181170000Y-83116246D01*
X181178188Y-83115168D01*
X181201659Y-83112078D01*
X181218105Y-83111000D01*
X182421895Y-83111000D01*
X182438341Y-83112078D01*
X182470000Y-83116246D01*
X182478188Y-83115168D01*
X182509847Y-83111000D01*
X182620532Y-83096428D01*
X182628720Y-83095350D01*
X182636347Y-83092191D01*
X182636350Y-83092190D01*
X182691585Y-83069311D01*
X182776623Y-83034087D01*
X182783173Y-83029061D01*
X182785217Y-83027881D01*
X182848217Y-83011000D01*
X200691783Y-83011000D01*
X200754783Y-83027881D01*
X200756827Y-83029061D01*
X200763377Y-83034087D01*
X200848415Y-83069311D01*
X200903650Y-83092190D01*
X200903653Y-83092191D01*
X200911280Y-83095350D01*
X201070000Y-83116246D01*
X201078188Y-83115168D01*
X201101659Y-83112078D01*
X201118105Y-83111000D01*
X202321895Y-83111000D01*
X202338341Y-83112078D01*
X202370000Y-83116246D01*
X202378188Y-83115168D01*
X202409847Y-83111000D01*
X202520532Y-83096428D01*
X202528720Y-83095350D01*
X202536347Y-83092191D01*
X202536350Y-83092190D01*
X202602672Y-83064718D01*
X202676623Y-83034087D01*
X202734795Y-82989449D01*
X202801016Y-82963848D01*
X202870565Y-82978113D01*
X202921361Y-83027714D01*
X202937500Y-83089411D01*
X202937500Y-84497376D01*
X202917498Y-84565497D01*
X202900595Y-84586471D01*
X202248079Y-85238987D01*
X202185767Y-85273013D01*
X202114952Y-85267948D01*
X202058116Y-85225401D01*
X202033305Y-85158881D01*
X202033463Y-85138911D01*
X202044874Y-85008475D01*
X202045353Y-85003000D01*
X202025978Y-84781537D01*
X201973710Y-84586471D01*
X201969863Y-84572114D01*
X201969862Y-84572112D01*
X201968440Y-84566804D01*
X201960402Y-84549566D01*
X201876814Y-84370311D01*
X201876811Y-84370306D01*
X201874488Y-84365324D01*
X201871331Y-84360815D01*
X201750136Y-84187730D01*
X201750134Y-84187727D01*
X201746977Y-84183219D01*
X201589781Y-84026023D01*
X201585273Y-84022866D01*
X201585270Y-84022864D01*
X201509505Y-83969813D01*
X201407677Y-83898512D01*
X201402695Y-83896189D01*
X201402690Y-83896186D01*
X201211178Y-83806883D01*
X201211177Y-83806882D01*
X201206196Y-83804560D01*
X201200888Y-83803138D01*
X201200886Y-83803137D01*
X201135051Y-83785497D01*
X200991463Y-83747022D01*
X200770000Y-83727647D01*
X200548537Y-83747022D01*
X200404949Y-83785497D01*
X200339114Y-83803137D01*
X200339112Y-83803138D01*
X200333804Y-83804560D01*
X200328823Y-83806882D01*
X200328822Y-83806883D01*
X200137311Y-83896186D01*
X200137306Y-83896189D01*
X200132324Y-83898512D01*
X200127817Y-83901668D01*
X200127815Y-83901669D01*
X199954730Y-84022864D01*
X199954727Y-84022866D01*
X199950219Y-84026023D01*
X199793023Y-84183219D01*
X199789870Y-84187722D01*
X199786327Y-84191944D01*
X199785221Y-84191016D01*
X199735089Y-84231095D01*
X199687323Y-84240500D01*
X188964376Y-84240500D01*
X188945426Y-84239067D01*
X188931027Y-84236876D01*
X188931021Y-84236876D01*
X188923792Y-84235776D01*
X188916500Y-84236369D01*
X188916497Y-84236369D01*
X188870817Y-84240085D01*
X188860602Y-84240500D01*
X188852475Y-84240500D01*
X188848839Y-84240924D01*
X188848837Y-84240924D01*
X188845385Y-84241327D01*
X188824076Y-84243811D01*
X188819756Y-84244238D01*
X188746574Y-84250191D01*
X188739612Y-84252447D01*
X188733624Y-84253643D01*
X188727667Y-84255051D01*
X188720393Y-84255899D01*
X188713511Y-84258397D01*
X188713507Y-84258398D01*
X188651393Y-84280945D01*
X188647289Y-84282355D01*
X188577425Y-84304987D01*
X188571162Y-84308787D01*
X188565620Y-84311325D01*
X188560144Y-84314067D01*
X188553259Y-84316566D01*
X188547135Y-84320581D01*
X188491868Y-84356815D01*
X188488200Y-84359130D01*
X188425419Y-84397227D01*
X188421214Y-84400941D01*
X188421211Y-84400943D01*
X188416995Y-84404667D01*
X188416969Y-84404638D01*
X188414038Y-84407238D01*
X188410684Y-84410042D01*
X188404565Y-84414054D01*
X188399533Y-84419366D01*
X188351012Y-84470586D01*
X188348634Y-84473028D01*
X186221067Y-86600595D01*
X186158755Y-86634621D01*
X186131972Y-86637500D01*
X179667376Y-86637500D01*
X179648426Y-86636067D01*
X179634027Y-86633876D01*
X179634023Y-86633876D01*
X179626793Y-86632776D01*
X179619501Y-86633369D01*
X179619498Y-86633369D01*
X179573814Y-86637085D01*
X179563600Y-86637500D01*
X179555475Y-86637500D01*
X179551840Y-86637924D01*
X179551837Y-86637924D01*
X179533911Y-86640014D01*
X179527110Y-86640807D01*
X179522739Y-86641240D01*
X179449574Y-86647190D01*
X179442617Y-86649444D01*
X179436663Y-86650633D01*
X179430665Y-86652051D01*
X179423393Y-86652899D01*
X179354383Y-86677948D01*
X179350270Y-86679360D01*
X179315816Y-86690522D01*
X179287386Y-86699732D01*
X179287384Y-86699733D01*
X179280426Y-86701987D01*
X179274173Y-86705782D01*
X179268613Y-86708327D01*
X179263139Y-86711069D01*
X179256259Y-86713566D01*
X179250134Y-86717582D01*
X179194876Y-86753810D01*
X179191158Y-86756156D01*
X179128420Y-86794227D01*
X179119995Y-86801667D01*
X179119970Y-86801638D01*
X179117044Y-86804234D01*
X179113690Y-86807039D01*
X179107565Y-86811054D01*
X179102530Y-86816369D01*
X179102529Y-86816370D01*
X179054012Y-86867586D01*
X179051634Y-86870028D01*
X175678472Y-90243190D01*
X175664059Y-90255577D01*
X175646436Y-90268546D01*
X175641692Y-90274129D01*
X175641693Y-90274129D01*
X175612021Y-90309055D01*
X175605091Y-90316571D01*
X175599347Y-90322315D01*
X175597073Y-90325189D01*
X175597067Y-90325196D01*
X175581628Y-90344711D01*
X175578837Y-90348115D01*
X175536055Y-90398472D01*
X175536052Y-90398476D01*
X175531316Y-90404051D01*
X175527988Y-90410568D01*
X175524611Y-90415632D01*
X175521384Y-90420856D01*
X175516840Y-90426600D01*
X175513741Y-90433231D01*
X175485768Y-90493082D01*
X175483837Y-90497033D01*
X175474081Y-90516140D01*
X175450457Y-90562404D01*
X175448716Y-90569519D01*
X175446579Y-90575265D01*
X175444655Y-90581048D01*
X175441556Y-90587679D01*
X175440066Y-90594843D01*
X175426608Y-90659547D01*
X175425639Y-90663829D01*
X175408196Y-90735112D01*
X175407500Y-90746330D01*
X175407461Y-90746328D01*
X175407228Y-90750229D01*
X175406839Y-90754588D01*
X175405348Y-90761756D01*
X175405546Y-90769073D01*
X175407454Y-90839577D01*
X175407500Y-90842986D01*
X175407500Y-102737458D01*
X175387498Y-102805579D01*
X175333842Y-102852072D01*
X175314435Y-102858739D01*
X175309684Y-102859255D01*
X175302289Y-102862027D01*
X175302286Y-102862028D01*
X175225962Y-102890641D01*
X175173295Y-102910385D01*
X175056739Y-102997739D01*
X174969385Y-103114295D01*
X174918255Y-103250684D01*
X174911500Y-103312866D01*
X174911500Y-104267500D01*
X174891498Y-104335621D01*
X174837842Y-104382114D01*
X174785500Y-104393500D01*
X168524027Y-104393500D01*
X168455906Y-104373498D01*
X168434932Y-104356595D01*
X166744024Y-102665687D01*
X166709998Y-102603375D01*
X166707598Y-102565610D01*
X166720917Y-102413373D01*
X166721396Y-102407898D01*
X166701441Y-102179811D01*
X166663606Y-102038611D01*
X166643605Y-101963965D01*
X166643604Y-101963963D01*
X166642182Y-101958655D01*
X166639859Y-101953673D01*
X166547747Y-101756136D01*
X166547744Y-101756131D01*
X166545421Y-101751149D01*
X166414096Y-101563598D01*
X166252198Y-101401700D01*
X166247690Y-101398543D01*
X166247687Y-101398541D01*
X166122961Y-101311207D01*
X166064647Y-101270375D01*
X166059665Y-101268052D01*
X166059660Y-101268049D01*
X165862123Y-101175937D01*
X165862122Y-101175937D01*
X165857141Y-101173614D01*
X165851833Y-101172192D01*
X165851831Y-101172191D01*
X165641300Y-101115779D01*
X165641298Y-101115779D01*
X165635985Y-101114355D01*
X165407898Y-101094400D01*
X165179811Y-101114355D01*
X165174498Y-101115779D01*
X165174496Y-101115779D01*
X164963965Y-101172191D01*
X164963963Y-101172192D01*
X164958655Y-101173614D01*
X164953674Y-101175937D01*
X164953673Y-101175937D01*
X164756136Y-101268049D01*
X164756131Y-101268052D01*
X164751149Y-101270375D01*
X164660770Y-101333659D01*
X164593497Y-101356347D01*
X164524637Y-101339062D01*
X164476052Y-101287293D01*
X164462500Y-101230446D01*
X164462500Y-87618962D01*
X164475472Y-87568073D01*
X164474020Y-87567488D01*
X164517143Y-87460485D01*
X164540482Y-87402573D01*
X164559619Y-87276784D01*
X164566124Y-87234025D01*
X164566124Y-87234022D01*
X164567224Y-87226792D01*
X164552809Y-87049574D01*
X164534671Y-86993583D01*
X164500270Y-86887391D01*
X164500269Y-86887388D01*
X164498013Y-86880425D01*
X164494216Y-86874169D01*
X164494213Y-86874161D01*
X164480782Y-86852028D01*
X164462500Y-86786662D01*
X164462500Y-86504028D01*
X164482502Y-86435907D01*
X164499405Y-86414933D01*
X165104669Y-85809669D01*
X181500001Y-85809669D01*
X181500371Y-85816490D01*
X181505895Y-85867352D01*
X181509521Y-85882604D01*
X181554676Y-86003054D01*
X181563214Y-86018649D01*
X181639715Y-86120724D01*
X181652276Y-86133285D01*
X181754351Y-86209786D01*
X181769946Y-86218324D01*
X181890394Y-86263478D01*
X181905649Y-86267105D01*
X181956514Y-86272631D01*
X181963328Y-86273000D01*
X182497885Y-86273000D01*
X182513124Y-86268525D01*
X182514329Y-86267135D01*
X182516000Y-86259452D01*
X182516000Y-86254884D01*
X183024000Y-86254884D01*
X183028475Y-86270123D01*
X183029865Y-86271328D01*
X183037548Y-86272999D01*
X183576669Y-86272999D01*
X183583490Y-86272629D01*
X183634352Y-86267105D01*
X183649604Y-86263479D01*
X183770054Y-86218324D01*
X183785649Y-86209786D01*
X183887724Y-86133285D01*
X183900285Y-86120724D01*
X183976786Y-86018649D01*
X183985324Y-86003054D01*
X184030478Y-85882606D01*
X184034105Y-85867351D01*
X184039631Y-85816486D01*
X184040000Y-85809672D01*
X184040000Y-85275115D01*
X184035525Y-85259876D01*
X184034135Y-85258671D01*
X184026452Y-85257000D01*
X183042115Y-85257000D01*
X183026876Y-85261475D01*
X183025671Y-85262865D01*
X183024000Y-85270548D01*
X183024000Y-86254884D01*
X182516000Y-86254884D01*
X182516000Y-85275115D01*
X182511525Y-85259876D01*
X182510135Y-85258671D01*
X182502452Y-85257000D01*
X181518116Y-85257000D01*
X181502877Y-85261475D01*
X181501672Y-85262865D01*
X181500001Y-85270548D01*
X181500001Y-85809669D01*
X165104669Y-85809669D01*
X166183453Y-84730885D01*
X181500000Y-84730885D01*
X181504475Y-84746124D01*
X181505865Y-84747329D01*
X181513548Y-84749000D01*
X182497885Y-84749000D01*
X182513124Y-84744525D01*
X182514329Y-84743135D01*
X182516000Y-84735452D01*
X182516000Y-84730885D01*
X183024000Y-84730885D01*
X183028475Y-84746124D01*
X183029865Y-84747329D01*
X183037548Y-84749000D01*
X184021884Y-84749000D01*
X184037123Y-84744525D01*
X184038328Y-84743135D01*
X184039999Y-84735452D01*
X184039999Y-84196331D01*
X184039629Y-84189510D01*
X184034105Y-84138648D01*
X184030479Y-84123396D01*
X183985324Y-84002946D01*
X183976786Y-83987351D01*
X183900285Y-83885276D01*
X183887724Y-83872715D01*
X183785649Y-83796214D01*
X183770054Y-83787676D01*
X183649606Y-83742522D01*
X183634351Y-83738895D01*
X183583486Y-83733369D01*
X183576672Y-83733000D01*
X183042115Y-83733000D01*
X183026876Y-83737475D01*
X183025671Y-83738865D01*
X183024000Y-83746548D01*
X183024000Y-84730885D01*
X182516000Y-84730885D01*
X182516000Y-83751116D01*
X182511525Y-83735877D01*
X182510135Y-83734672D01*
X182502452Y-83733001D01*
X181963331Y-83733001D01*
X181956510Y-83733371D01*
X181905648Y-83738895D01*
X181890396Y-83742521D01*
X181769946Y-83787676D01*
X181754351Y-83796214D01*
X181652276Y-83872715D01*
X181639715Y-83885276D01*
X181563214Y-83987351D01*
X181554676Y-84002946D01*
X181509522Y-84123394D01*
X181505895Y-84138649D01*
X181500369Y-84189514D01*
X181500000Y-84196328D01*
X181500000Y-84730885D01*
X166183453Y-84730885D01*
X176661528Y-74252810D01*
X176675941Y-74240423D01*
X176687665Y-74231795D01*
X176693564Y-74227454D01*
X176727979Y-74186945D01*
X176734909Y-74179429D01*
X176740653Y-74173685D01*
X176742927Y-74170811D01*
X176742933Y-74170804D01*
X176758372Y-74151289D01*
X176761163Y-74147885D01*
X176803945Y-74097528D01*
X176803948Y-74097524D01*
X176808684Y-74091949D01*
X176812012Y-74085432D01*
X176815389Y-74080368D01*
X176818616Y-74075144D01*
X176823160Y-74069400D01*
X176854232Y-74002918D01*
X176856163Y-73998967D01*
X176886213Y-73940117D01*
X176889543Y-73933596D01*
X176891284Y-73926481D01*
X176893421Y-73920735D01*
X176895345Y-73914952D01*
X176898444Y-73908321D01*
X176913394Y-73836443D01*
X176914363Y-73832162D01*
X176923445Y-73795050D01*
X176931804Y-73760888D01*
X176932500Y-73749670D01*
X176932539Y-73749672D01*
X176932772Y-73745771D01*
X176933161Y-73741412D01*
X176934652Y-73734244D01*
X176932546Y-73656423D01*
X176932500Y-73653014D01*
X176932500Y-71821157D01*
X176952502Y-71753036D01*
X176978865Y-71723514D01*
X177068185Y-71650667D01*
X177137604Y-71622725D01*
X177157178Y-71621133D01*
X177185742Y-71618809D01*
X177192704Y-71616553D01*
X177198692Y-71615357D01*
X177204649Y-71613949D01*
X177211923Y-71613101D01*
X177218805Y-71610603D01*
X177218809Y-71610602D01*
X177280923Y-71588055D01*
X177285027Y-71586645D01*
X177354891Y-71564013D01*
X177361154Y-71560213D01*
X177366696Y-71557675D01*
X177372172Y-71554933D01*
X177379057Y-71552434D01*
X177440448Y-71512185D01*
X177444116Y-71509870D01*
X177506897Y-71471773D01*
X177511102Y-71468059D01*
X177511105Y-71468057D01*
X177515321Y-71464333D01*
X177515347Y-71464362D01*
X177518278Y-71461762D01*
X177521632Y-71458958D01*
X177527751Y-71454946D01*
X177581305Y-71398413D01*
X177583682Y-71395972D01*
X178391528Y-70588126D01*
X178405941Y-70575739D01*
X178417665Y-70567111D01*
X178423564Y-70562770D01*
X178457979Y-70522261D01*
X178464909Y-70514745D01*
X178470653Y-70509001D01*
X178472927Y-70506127D01*
X178472933Y-70506120D01*
X178488372Y-70486605D01*
X178491163Y-70483201D01*
X178533945Y-70432844D01*
X178533948Y-70432840D01*
X178538684Y-70427265D01*
X178542012Y-70420748D01*
X178545389Y-70415684D01*
X178548616Y-70410460D01*
X178553160Y-70404716D01*
X178584242Y-70338212D01*
X178586147Y-70334315D01*
X178619543Y-70268912D01*
X178621284Y-70261798D01*
X178623416Y-70256064D01*
X178625344Y-70250268D01*
X178628444Y-70243636D01*
X178643395Y-70171756D01*
X178644365Y-70167472D01*
X178661804Y-70096204D01*
X178662500Y-70084986D01*
X178662537Y-70084988D01*
X178662773Y-70081089D01*
X178663163Y-70076718D01*
X178664652Y-70069559D01*
X178662546Y-69991739D01*
X178662500Y-69988330D01*
X178662500Y-69668028D01*
X178682502Y-69599907D01*
X178699405Y-69578933D01*
X180346905Y-67931433D01*
X180409217Y-67897407D01*
X180480032Y-67902472D01*
G37*
%TD.AperFunction*%
%TD*%
M02*
