M48
; DRILL file {KiCad (6.0.2)} date Mon May 16 22:42:30 2022
; FORMAT={-:-/ absolute / inch / decimal}
; #@! TF.CreationDate,2022-05-16T22:42:30-04:00
; #@! TF.GenerationSoftware,Kicad,Pcbnew,(6.0.2)
; #@! TF.FileFunction,Plated,1,2,PTH
FMAT,2
INCH
; #@! TA.AperFunction,Plated,PTH,ComponentDrill
T1C0.0295
; #@! TA.AperFunction,Plated,PTH,ComponentDrill
T2C0.0300
; #@! TA.AperFunction,Plated,PTH,ComponentDrill
T3C0.0315
; #@! TA.AperFunction,Plated,PTH,ComponentDrill
T4C0.0354
; #@! TA.AperFunction,Plated,PTH,ComponentDrill
T5C0.0402
; #@! TA.AperFunction,Plated,PTH,ComponentDrill
T6C0.0472
; #@! TA.AperFunction,Plated,PTH,ComponentDrill
T7C0.0600
%
G90
G05
T1
X6.17Y-4.0858
X6.18Y-2.8042
X6.22Y-4.0858
X6.23Y-2.8042
X6.27Y-4.0858
X6.28Y-2.8042
X6.9358Y-2.69
X6.9358Y-2.74
X6.9358Y-2.79
X6.9358Y-4.09
X6.9358Y-4.14
X6.9358Y-4.19
T2
X4.9784Y-2.8541
X5.0984Y-2.8541
X5.2184Y-2.8541
X7.1957Y-3.3466
X7.1957Y-3.5363
X7.9043Y-3.3466
X7.9043Y-3.5363
T3
X6.4961Y-2.8307
X6.5121Y-4.0318
X6.7789Y-2.5479
X6.795Y-4.3146
X7.04Y-4.38
X7.07Y-2.5
X7.44Y-4.38
X7.47Y-2.5
X7.56Y-4.38
X7.5913Y-2.5039
X7.96Y-4.38
X7.9913Y-2.5039
X8.089Y-3.1372
X8.0994Y-3.75
X8.189Y-3.0372
X8.189Y-3.2372
X8.1994Y-3.65
X8.1994Y-3.85
X8.2124Y-4.4254
X8.2677Y-2.4409
X8.3071Y-4.3307
X8.3624Y-2.5356
T4
X8.0693Y-4.2107
X8.0793Y-2.6693
X8.14Y-4.14
X8.15Y-2.74
T5
X4.9808Y-3.18
X4.9808Y-3.68
T6
X4.7913Y-3.063
X4.7913Y-3.811
T7
X4.8634Y-2.7441
X5.3334Y-2.7441
T0
M30
