%TF.GenerationSoftware,KiCad,Pcbnew,(6.0.2)*%
%TF.CreationDate,2022-05-16T22:42:20-04:00*%
%TF.ProjectId,Running MicroBug,52756e6e-696e-4672-904d-6963726f4275,0*%
%TF.SameCoordinates,Original*%
%TF.FileFunction,Copper,L1,Top*%
%TF.FilePolarity,Positive*%
%FSLAX46Y46*%
G04 Gerber Fmt 4.6, Leading zero omitted, Abs format (unit mm)*
G04 Created by KiCad (PCBNEW (6.0.2)) date 2022-05-16 22:42:20*
%MOMM*%
%LPD*%
G01*
G04 APERTURE LIST*
G04 Aperture macros list*
%AMHorizOval*
0 Thick line with rounded ends*
0 $1 width*
0 $2 $3 position (X,Y) of the first rounded end (center of the circle)*
0 $4 $5 position (X,Y) of the second rounded end (center of the circle)*
0 Add line between two ends*
20,1,$1,$2,$3,$4,$5,0*
0 Add two circle primitives to create the rounded ends*
1,1,$1,$2,$3*
1,1,$1,$4,$5*%
%AMRotRect*
0 Rectangle, with rotation*
0 The origin of the aperture is its center*
0 $1 length*
0 $2 width*
0 $3 Rotation angle, in degrees counterclockwise*
0 Add horizontal line*
21,1,$1,$2,0,0,$3*%
G04 Aperture macros list end*
%TA.AperFunction,ComponentPad*%
%ADD10C,2.000000*%
%TD*%
%TA.AperFunction,ComponentPad*%
%ADD11R,2.000000X2.000000*%
%TD*%
%TA.AperFunction,WasherPad*%
%ADD12C,4.500000*%
%TD*%
%TA.AperFunction,ComponentPad*%
%ADD13C,1.524000*%
%TD*%
%TA.AperFunction,ComponentPad*%
%ADD14C,2.540000*%
%TD*%
%TA.AperFunction,ComponentPad*%
%ADD15R,5.080000X5.080000*%
%TD*%
%TA.AperFunction,ComponentPad*%
%ADD16C,1.440000*%
%TD*%
%TA.AperFunction,ComponentPad*%
%ADD17C,1.800000*%
%TD*%
%TA.AperFunction,ComponentPad*%
%ADD18RotRect,1.800000X1.800000X225.000000*%
%TD*%
%TA.AperFunction,ComponentPad*%
%ADD19R,1.050000X1.500000*%
%TD*%
%TA.AperFunction,ComponentPad*%
%ADD20O,1.050000X1.500000*%
%TD*%
%TA.AperFunction,ComponentPad*%
%ADD21C,1.600000*%
%TD*%
%TA.AperFunction,ComponentPad*%
%ADD22HorizOval,1.600000X0.000000X0.000000X0.000000X0.000000X0*%
%TD*%
%TA.AperFunction,ComponentPad*%
%ADD23C,1.500000*%
%TD*%
%TA.AperFunction,ComponentPad*%
%ADD24R,1.500000X1.050000*%
%TD*%
%TA.AperFunction,ComponentPad*%
%ADD25O,1.500000X1.050000*%
%TD*%
%TA.AperFunction,ComponentPad*%
%ADD26O,1.600000X1.600000*%
%TD*%
%TA.AperFunction,ComponentPad*%
%ADD27R,1.524000X1.524000*%
%TD*%
%TA.AperFunction,ComponentPad*%
%ADD28HorizOval,1.600000X0.000000X0.000000X0.000000X0.000000X0*%
%TD*%
%TA.AperFunction,ComponentPad*%
%ADD29RotRect,1.800000X1.800000X135.000000*%
%TD*%
%TA.AperFunction,Conductor*%
%ADD30C,0.508000*%
%TD*%
G04 APERTURE END LIST*
D10*
%TO.P,BT1,2,-*%
%TO.N,GND*%
X126512500Y-93472000D03*
D11*
%TO.P,BT1,1,+*%
%TO.N,Net-(BT1-Pad1)*%
X126512500Y-80772000D03*
D12*
%TO.P,BT1,*%
%TO.N,*%
X154812500Y-87272000D03*
%TD*%
D13*
%TO.P,SW1,3,C*%
%TO.N,+BATT*%
X132548000Y-72494000D03*
%TO.P,SW1,2,B*%
%TO.N,Net-(BT1-Pad1)*%
X129500000Y-72494000D03*
%TO.P,SW1,1,A*%
%TO.N,unconnected-(SW1-Pad1)*%
X126452000Y-72494000D03*
D14*
%TO.P,SW1,*%
%TO.N,*%
X135469000Y-69700000D03*
X123531000Y-69700000D03*
%TD*%
D15*
%TO.P,REF\u002A\u002A,1*%
%TO.N,N/C*%
X121700000Y-96800000D03*
%TO.P,REF\u002A\u002A,2*%
X121700000Y-77800000D03*
%TD*%
D16*
%TO.P,RV2,1,1*%
%TO.N,Net-(LDR2-Pad2)*%
X208000000Y-77145000D03*
%TO.P,RV2,2,2*%
%TO.N,GND*%
X205460000Y-79685000D03*
%TO.P,RV2,3,3*%
X208000000Y-82225000D03*
%TD*%
%TO.P,RV1,1,1*%
%TO.N,Net-(LDR1-Pad2)*%
X208265000Y-92710000D03*
%TO.P,RV1,2,2*%
%TO.N,GND*%
X205725000Y-95250000D03*
%TO.P,RV1,3,3*%
X208265000Y-97790000D03*
%TD*%
D17*
%TO.P,D1,2,A*%
%TO.N,Net-(D1-Pad2)*%
X204959949Y-106952051D03*
D18*
%TO.P,D1,1,K*%
%TO.N,GND*%
X206756000Y-105156000D03*
%TD*%
D19*
%TO.P,T3,1,C*%
%TO.N,Net-(R5-Pad2)*%
X156972000Y-71226000D03*
D20*
%TO.P,T3,2,B*%
%TO.N,Net-(LDR2-Pad2)*%
X158242000Y-71226000D03*
%TO.P,T3,3,E*%
%TO.N,GND*%
X159512000Y-71226000D03*
%TD*%
D21*
%TO.P,R5,1*%
%TO.N,Net-(R5-Pad1)*%
X165000000Y-71900000D03*
D22*
%TO.P,R5,2*%
%TO.N,Net-(R5-Pad2)*%
X172184205Y-64715795D03*
%TD*%
D23*
%TO.P,LDR1,1*%
%TO.N,Net-(LDR1-Pad1)*%
X211000000Y-110000000D03*
%TO.P,LDR1,2*%
%TO.N,Net-(LDR1-Pad2)*%
X208595837Y-112404163D03*
%TD*%
D19*
%TO.P,T1,1,C*%
%TO.N,Net-(R2-Pad2)*%
X159258000Y-103780000D03*
D20*
%TO.P,T1,2,B*%
%TO.N,Net-(LDR1-Pad2)*%
X157988000Y-103780000D03*
%TO.P,T1,3,E*%
%TO.N,GND*%
X156718000Y-103780000D03*
%TD*%
D23*
%TO.P,LDR2,2*%
%TO.N,Net-(LDR2-Pad2)*%
X212404163Y-64404163D03*
%TO.P,LDR2,1*%
%TO.N,Net-(LDR2-Pad1)*%
X210000000Y-62000000D03*
%TD*%
D24*
%TO.P,T2,1,C*%
%TO.N,Net-(R3-Pad1)*%
X176170000Y-103886000D03*
D25*
%TO.P,T2,2,B*%
%TO.N,Net-(R2-Pad1)*%
X176170000Y-105156000D03*
%TO.P,T2,3,E*%
%TO.N,+BATT*%
X176170000Y-106426000D03*
%TD*%
D21*
%TO.P,R3,1*%
%TO.N,Net-(R3-Pad1)*%
X192024000Y-111252000D03*
D26*
%TO.P,R3,2*%
%TO.N,Net-(D1-Pad2)*%
X202184000Y-111252000D03*
%TD*%
D13*
%TO.P,M2,2,-*%
%TO.N,GND*%
X182770000Y-89822000D03*
D27*
%TO.P,M2,1,+*%
%TO.N,Net-(R6-Pad1)*%
X200770000Y-89822000D03*
%TD*%
D26*
%TO.P,R6,2*%
%TO.N,Net-(D2-Pad2)*%
X202980000Y-63600000D03*
D21*
%TO.P,R6,1*%
%TO.N,Net-(R6-Pad1)*%
X192820000Y-63600000D03*
%TD*%
%TO.P,R2,1*%
%TO.N,Net-(R2-Pad1)*%
X165407898Y-102407898D03*
D28*
%TO.P,R2,2*%
%TO.N,Net-(R2-Pad2)*%
X172592103Y-109592103D03*
%TD*%
D25*
%TO.P,T4,3,E*%
%TO.N,+BATT*%
X176170000Y-70866000D03*
%TO.P,T4,2,B*%
%TO.N,Net-(R5-Pad1)*%
X176170000Y-69596000D03*
D24*
%TO.P,T4,1,C*%
%TO.N,Net-(R6-Pad1)*%
X176170000Y-68326000D03*
%TD*%
D29*
%TO.P,D2,1,K*%
%TO.N,GND*%
X207010000Y-69596000D03*
D17*
%TO.P,D2,2,A*%
%TO.N,Net-(D2-Pad2)*%
X205213949Y-67799949D03*
%TD*%
D21*
%TO.P,R4,1*%
%TO.N,+BATT*%
X189738000Y-63500000D03*
D26*
%TO.P,R4,2*%
%TO.N,Net-(LDR2-Pad1)*%
X179578000Y-63500000D03*
%TD*%
D27*
%TO.P,M1,1,+*%
%TO.N,GND*%
X182770000Y-85003000D03*
D13*
%TO.P,M1,2,-*%
%TO.N,Net-(R3-Pad1)*%
X200770000Y-85003000D03*
%TD*%
D21*
%TO.P,R1,1*%
%TO.N,+BATT*%
X178816000Y-111252000D03*
D26*
%TO.P,R1,2*%
%TO.N,Net-(LDR1-Pad1)*%
X188976000Y-111252000D03*
%TD*%
D30*
%TO.N,Net-(R6-Pad1)*%
X190020000Y-60800000D02*
X192820000Y-63600000D01*
X184954000Y-60800000D02*
X190020000Y-60800000D01*
X177428000Y-68326000D02*
X184954000Y-60800000D01*
X176170000Y-68326000D02*
X177428000Y-68326000D01*
%TO.N,Net-(LDR2-Pad2)*%
X208000000Y-73500000D02*
X208000000Y-77145000D01*
%TO.N,Net-(R5-Pad2)*%
X164784205Y-64715795D02*
X172184205Y-64715795D01*
X163500000Y-66000000D02*
X164784205Y-64715795D01*
X163500000Y-68846836D02*
X163500000Y-66000000D01*
X157836684Y-72429520D02*
X159917316Y-72429520D01*
X156972000Y-71564836D02*
X157836684Y-72429520D01*
X159917316Y-72429520D02*
X163500000Y-68846836D01*
X156972000Y-71226000D02*
X156972000Y-71564836D01*
%TO.N,Net-(LDR2-Pad2)*%
X158242000Y-65958000D02*
X158242000Y-71226000D01*
X163400000Y-60800000D02*
X158242000Y-65958000D01*
X178900000Y-60800000D02*
X163400000Y-60800000D01*
X180100000Y-59600000D02*
X178900000Y-60800000D01*
X193000000Y-59600000D02*
X180100000Y-59600000D01*
X193700000Y-58900000D02*
X193000000Y-59600000D01*
X208602023Y-58900000D02*
X193700000Y-58900000D01*
X212404163Y-62702140D02*
X208602023Y-58900000D01*
X212404163Y-64404163D02*
X212404163Y-62702140D01*
X208000000Y-73500000D02*
X212404163Y-69095837D01*
X212404163Y-69095837D02*
X212404163Y-64404163D01*
%TD*%
%TA.AperFunction,Conductor*%
%TO.N,GND*%
G36*
X209024936Y-57834137D02*
G01*
X209389076Y-57876480D01*
X210267979Y-57978680D01*
X210287215Y-57982453D01*
X210912679Y-58156608D01*
X211618358Y-58353098D01*
X211644111Y-58363441D01*
X213062411Y-59124079D01*
X213086007Y-59140447D01*
X214521012Y-60400795D01*
X214619878Y-60487628D01*
X214635057Y-60503509D01*
X215058716Y-61032251D01*
X215367529Y-61417662D01*
X215378076Y-61433030D01*
X215444521Y-61547101D01*
X215942106Y-62401341D01*
X215949982Y-62417384D01*
X216341973Y-63383759D01*
X216356384Y-63419287D01*
X216361640Y-63435214D01*
X216609147Y-64396012D01*
X216619982Y-64438074D01*
X216623633Y-64460364D01*
X216771916Y-66499445D01*
X216772457Y-66506891D01*
X216771529Y-66533803D01*
X216647397Y-67404952D01*
X216502274Y-68423410D01*
X216497491Y-68444188D01*
X216364364Y-68858414D01*
X216186246Y-69412631D01*
X216184666Y-69417546D01*
X216178558Y-69432979D01*
X215774571Y-70284854D01*
X215762865Y-70304642D01*
X215521376Y-70638945D01*
X214739942Y-71720716D01*
X214720833Y-71741708D01*
X213637193Y-72691081D01*
X213613899Y-72707248D01*
X213588775Y-72720776D01*
X212705931Y-73196151D01*
X212670717Y-73215112D01*
X212658177Y-73220210D01*
X212658254Y-73220382D01*
X212650055Y-73224050D01*
X212641427Y-73226516D01*
X212633837Y-73231305D01*
X212633833Y-73231307D01*
X212597892Y-73253985D01*
X212590398Y-73258361D01*
X212578041Y-73265014D01*
X212567841Y-73272548D01*
X212560246Y-73277738D01*
X212518362Y-73304166D01*
X212512419Y-73310896D01*
X212505583Y-73316714D01*
X212505563Y-73316690D01*
X212504225Y-73317916D01*
X212504247Y-73317939D01*
X212497857Y-73324240D01*
X212490634Y-73329575D01*
X212485201Y-73336720D01*
X212485200Y-73336721D01*
X212460666Y-73368986D01*
X212454812Y-73376124D01*
X212429213Y-73405112D01*
X212422039Y-73413235D01*
X212418223Y-73421363D01*
X212413296Y-73428863D01*
X212413269Y-73428846D01*
X212412328Y-73430401D01*
X212412355Y-73430416D01*
X212407989Y-73438261D01*
X212402556Y-73445406D01*
X212391557Y-73474136D01*
X212384854Y-73491644D01*
X212381242Y-73500132D01*
X212360198Y-73544956D01*
X212358816Y-73553830D01*
X212356193Y-73562411D01*
X212356163Y-73562402D01*
X212355696Y-73564156D01*
X212355727Y-73564163D01*
X212353740Y-73572912D01*
X212350528Y-73581301D01*
X212346513Y-73630679D01*
X212345433Y-73639796D01*
X212342999Y-73655432D01*
X212342999Y-73668764D01*
X212342585Y-73678976D01*
X212341375Y-73693863D01*
X212338734Y-73726337D01*
X212340547Y-73735131D01*
X212340654Y-73736873D01*
X212343001Y-73759886D01*
X212343199Y-85316713D01*
X212343445Y-99708642D01*
X212343466Y-100965907D01*
X212342010Y-100979364D01*
X212342199Y-100979378D01*
X212341542Y-100988330D01*
X212339622Y-100997098D01*
X212340240Y-101006051D01*
X212340240Y-101006053D01*
X212343169Y-101048472D01*
X212343468Y-101057151D01*
X212343468Y-101071176D01*
X212345263Y-101083713D01*
X212346233Y-101092862D01*
X212347331Y-101108766D01*
X212349025Y-101133308D01*
X212349026Y-101133312D01*
X212349644Y-101142266D01*
X212352752Y-101150690D01*
X212354633Y-101159464D01*
X212354602Y-101159471D01*
X212355052Y-101161249D01*
X212355081Y-101161240D01*
X212357602Y-101169861D01*
X212358874Y-101178743D01*
X212362588Y-101186912D01*
X212362589Y-101186914D01*
X212379368Y-101223815D01*
X212382872Y-101232338D01*
X212400008Y-101278787D01*
X212405353Y-101285997D01*
X212409623Y-101293895D01*
X212409596Y-101293909D01*
X212410528Y-101295490D01*
X212410553Y-101295474D01*
X212415390Y-101303036D01*
X212419105Y-101311207D01*
X212424964Y-101318006D01*
X212451416Y-101348705D01*
X212457184Y-101355918D01*
X212486664Y-101395686D01*
X212493824Y-101401111D01*
X212500134Y-101407487D01*
X212500112Y-101407509D01*
X212501449Y-101408765D01*
X212501470Y-101408741D01*
X212508229Y-101414637D01*
X212514093Y-101421443D01*
X212547283Y-101442955D01*
X212555626Y-101448362D01*
X212563190Y-101453669D01*
X212571888Y-101460260D01*
X212571899Y-101460267D01*
X212575779Y-101463207D01*
X212587534Y-101469536D01*
X212596324Y-101474740D01*
X212636202Y-101500587D01*
X212644801Y-101503158D01*
X212646430Y-101503911D01*
X212667755Y-101512732D01*
X213495905Y-101958655D01*
X213614371Y-102022444D01*
X213637665Y-102038611D01*
X214721304Y-102987981D01*
X214740410Y-103008970D01*
X215763331Y-104425040D01*
X215775039Y-104444831D01*
X215896683Y-104701338D01*
X216116515Y-105164889D01*
X216179021Y-105296694D01*
X216185130Y-105312127D01*
X216270070Y-105576419D01*
X216497958Y-106285492D01*
X216502741Y-106306270D01*
X216601514Y-106999446D01*
X216771464Y-108192138D01*
X216771996Y-108195875D01*
X216772924Y-108222786D01*
X216625810Y-110245802D01*
X216624100Y-110269315D01*
X216620449Y-110291605D01*
X216370135Y-111263307D01*
X216362108Y-111294468D01*
X216356851Y-111310396D01*
X215972394Y-112258198D01*
X215950453Y-112312288D01*
X215942570Y-112328345D01*
X215850572Y-112486284D01*
X215378540Y-113296655D01*
X215367993Y-113312023D01*
X215281757Y-113419649D01*
X214672046Y-114180590D01*
X214635526Y-114226168D01*
X214620347Y-114242049D01*
X213533920Y-115196246D01*
X213086474Y-115589233D01*
X213062877Y-115605602D01*
X211644576Y-116366242D01*
X211618823Y-116376585D01*
X210287682Y-116747231D01*
X210268438Y-116751006D01*
X209025407Y-116895553D01*
X209007621Y-116896355D01*
X198037827Y-116614914D01*
X198034908Y-116614805D01*
X192129617Y-116326161D01*
X185256251Y-115990199D01*
X185253996Y-115990067D01*
X176869126Y-115426120D01*
X158350392Y-114180590D01*
X158348729Y-114180467D01*
X147478267Y-113304731D01*
X136299996Y-112404197D01*
X136299431Y-112404150D01*
X131249107Y-111962479D01*
X127067170Y-111596751D01*
X127065786Y-111596622D01*
X126257934Y-111516983D01*
X125862471Y-111477997D01*
X125846978Y-111475488D01*
X125131494Y-111313264D01*
X124861291Y-111252000D01*
X177502502Y-111252000D01*
X177522457Y-111480087D01*
X177523881Y-111485400D01*
X177523881Y-111485402D01*
X177551434Y-111588228D01*
X177581716Y-111701243D01*
X177584039Y-111706224D01*
X177584039Y-111706225D01*
X177676151Y-111903762D01*
X177676154Y-111903767D01*
X177678477Y-111908749D01*
X177809802Y-112096300D01*
X177971700Y-112258198D01*
X177976208Y-112261355D01*
X177976211Y-112261357D01*
X178048948Y-112312288D01*
X178159251Y-112389523D01*
X178164233Y-112391846D01*
X178164238Y-112391849D01*
X178360047Y-112483155D01*
X178366757Y-112486284D01*
X178372065Y-112487706D01*
X178372067Y-112487707D01*
X178582598Y-112544119D01*
X178582600Y-112544119D01*
X178587913Y-112545543D01*
X178816000Y-112565498D01*
X179044087Y-112545543D01*
X179049400Y-112544119D01*
X179049402Y-112544119D01*
X179259933Y-112487707D01*
X179259935Y-112487706D01*
X179265243Y-112486284D01*
X179271953Y-112483155D01*
X179467762Y-112391849D01*
X179467767Y-112391846D01*
X179472749Y-112389523D01*
X179583052Y-112312288D01*
X179655789Y-112261357D01*
X179655792Y-112261355D01*
X179660300Y-112258198D01*
X179822198Y-112096300D01*
X179953523Y-111908749D01*
X179955846Y-111903767D01*
X179955849Y-111903762D01*
X180047961Y-111706225D01*
X180047961Y-111706224D01*
X180050284Y-111701243D01*
X180080567Y-111588228D01*
X180108119Y-111485402D01*
X180108119Y-111485400D01*
X180109543Y-111480087D01*
X180129498Y-111252000D01*
X187662502Y-111252000D01*
X187682457Y-111480087D01*
X187683881Y-111485400D01*
X187683881Y-111485402D01*
X187711434Y-111588228D01*
X187741716Y-111701243D01*
X187744039Y-111706224D01*
X187744039Y-111706225D01*
X187836151Y-111903762D01*
X187836154Y-111903767D01*
X187838477Y-111908749D01*
X187969802Y-112096300D01*
X188131700Y-112258198D01*
X188136208Y-112261355D01*
X188136211Y-112261357D01*
X188208948Y-112312288D01*
X188319251Y-112389523D01*
X188324233Y-112391846D01*
X188324238Y-112391849D01*
X188520047Y-112483155D01*
X188526757Y-112486284D01*
X188532065Y-112487706D01*
X188532067Y-112487707D01*
X188742598Y-112544119D01*
X188742600Y-112544119D01*
X188747913Y-112545543D01*
X188976000Y-112565498D01*
X189204087Y-112545543D01*
X189209400Y-112544119D01*
X189209402Y-112544119D01*
X189419933Y-112487707D01*
X189419935Y-112487706D01*
X189425243Y-112486284D01*
X189431953Y-112483155D01*
X189627762Y-112391849D01*
X189627767Y-112391846D01*
X189632749Y-112389523D01*
X189743052Y-112312288D01*
X189815789Y-112261357D01*
X189815792Y-112261355D01*
X189820300Y-112258198D01*
X189982198Y-112096300D01*
X190113523Y-111908749D01*
X190115846Y-111903767D01*
X190115849Y-111903762D01*
X190207961Y-111706225D01*
X190207961Y-111706224D01*
X190210284Y-111701243D01*
X190240567Y-111588228D01*
X190268119Y-111485402D01*
X190268119Y-111485400D01*
X190269543Y-111480087D01*
X190289498Y-111252000D01*
X190710502Y-111252000D01*
X190730457Y-111480087D01*
X190731881Y-111485400D01*
X190731881Y-111485402D01*
X190759434Y-111588228D01*
X190789716Y-111701243D01*
X190792039Y-111706224D01*
X190792039Y-111706225D01*
X190884151Y-111903762D01*
X190884154Y-111903767D01*
X190886477Y-111908749D01*
X191017802Y-112096300D01*
X191179700Y-112258198D01*
X191184208Y-112261355D01*
X191184211Y-112261357D01*
X191256948Y-112312288D01*
X191367251Y-112389523D01*
X191372233Y-112391846D01*
X191372238Y-112391849D01*
X191568047Y-112483155D01*
X191574757Y-112486284D01*
X191580065Y-112487706D01*
X191580067Y-112487707D01*
X191790598Y-112544119D01*
X191790600Y-112544119D01*
X191795913Y-112545543D01*
X192024000Y-112565498D01*
X192252087Y-112545543D01*
X192257400Y-112544119D01*
X192257402Y-112544119D01*
X192467933Y-112487707D01*
X192467935Y-112487706D01*
X192473243Y-112486284D01*
X192479953Y-112483155D01*
X192675762Y-112391849D01*
X192675767Y-112391846D01*
X192680749Y-112389523D01*
X192791052Y-112312288D01*
X192863789Y-112261357D01*
X192863792Y-112261355D01*
X192868300Y-112258198D01*
X193030198Y-112096300D01*
X193161523Y-111908749D01*
X193163846Y-111903767D01*
X193163849Y-111903762D01*
X193255961Y-111706225D01*
X193255961Y-111706224D01*
X193258284Y-111701243D01*
X193288567Y-111588228D01*
X193316119Y-111485402D01*
X193316119Y-111485400D01*
X193317543Y-111480087D01*
X193337498Y-111252000D01*
X200870502Y-111252000D01*
X200890457Y-111480087D01*
X200891881Y-111485400D01*
X200891881Y-111485402D01*
X200919434Y-111588228D01*
X200949716Y-111701243D01*
X200952039Y-111706224D01*
X200952039Y-111706225D01*
X201044151Y-111903762D01*
X201044154Y-111903767D01*
X201046477Y-111908749D01*
X201177802Y-112096300D01*
X201339700Y-112258198D01*
X201344208Y-112261355D01*
X201344211Y-112261357D01*
X201416948Y-112312288D01*
X201527251Y-112389523D01*
X201532233Y-112391846D01*
X201532238Y-112391849D01*
X201728047Y-112483155D01*
X201734757Y-112486284D01*
X201740065Y-112487706D01*
X201740067Y-112487707D01*
X201950598Y-112544119D01*
X201950600Y-112544119D01*
X201955913Y-112545543D01*
X202184000Y-112565498D01*
X202412087Y-112545543D01*
X202417400Y-112544119D01*
X202417402Y-112544119D01*
X202627933Y-112487707D01*
X202627935Y-112487706D01*
X202633243Y-112486284D01*
X202639953Y-112483155D01*
X202809354Y-112404163D01*
X207332530Y-112404163D01*
X207351722Y-112623534D01*
X207408717Y-112836239D01*
X207411042Y-112841224D01*
X207499455Y-113030829D01*
X207499458Y-113030834D01*
X207501781Y-113035816D01*
X207628088Y-113216201D01*
X207783799Y-113371912D01*
X207788308Y-113375069D01*
X207788310Y-113375071D01*
X207851974Y-113419649D01*
X207964183Y-113498219D01*
X208163761Y-113591283D01*
X208376466Y-113648278D01*
X208595837Y-113667470D01*
X208815208Y-113648278D01*
X209027913Y-113591283D01*
X209227491Y-113498219D01*
X209339700Y-113419649D01*
X209403364Y-113375071D01*
X209403366Y-113375069D01*
X209407875Y-113371912D01*
X209563586Y-113216201D01*
X209689893Y-113035816D01*
X209692216Y-113030834D01*
X209692219Y-113030829D01*
X209780632Y-112841224D01*
X209782957Y-112836239D01*
X209839952Y-112623534D01*
X209859144Y-112404163D01*
X209839952Y-112184792D01*
X209782957Y-111972087D01*
X209739422Y-111878725D01*
X209692219Y-111777497D01*
X209692216Y-111777492D01*
X209689893Y-111772510D01*
X209643480Y-111706225D01*
X209566745Y-111596636D01*
X209566743Y-111596633D01*
X209563586Y-111592125D01*
X209407875Y-111436414D01*
X209227491Y-111310107D01*
X209027913Y-111217043D01*
X208815208Y-111160048D01*
X208595837Y-111140856D01*
X208376466Y-111160048D01*
X208163761Y-111217043D01*
X208088795Y-111252000D01*
X207969171Y-111307781D01*
X207969166Y-111307784D01*
X207964184Y-111310107D01*
X207959677Y-111313263D01*
X207959675Y-111313264D01*
X207788310Y-111433255D01*
X207788307Y-111433257D01*
X207783799Y-111436414D01*
X207628088Y-111592125D01*
X207624931Y-111596633D01*
X207624929Y-111596636D01*
X207548194Y-111706225D01*
X207501781Y-111772510D01*
X207499458Y-111777492D01*
X207499455Y-111777497D01*
X207452252Y-111878725D01*
X207408717Y-111972087D01*
X207351722Y-112184792D01*
X207332530Y-112404163D01*
X202809354Y-112404163D01*
X202835762Y-112391849D01*
X202835767Y-112391846D01*
X202840749Y-112389523D01*
X202951052Y-112312288D01*
X203023789Y-112261357D01*
X203023792Y-112261355D01*
X203028300Y-112258198D01*
X203190198Y-112096300D01*
X203321523Y-111908749D01*
X203323846Y-111903767D01*
X203323849Y-111903762D01*
X203415961Y-111706225D01*
X203415961Y-111706224D01*
X203418284Y-111701243D01*
X203448567Y-111588228D01*
X203476119Y-111485402D01*
X203476119Y-111485400D01*
X203477543Y-111480087D01*
X203497498Y-111252000D01*
X203477543Y-111023913D01*
X203418284Y-110802757D01*
X203415961Y-110797775D01*
X203323849Y-110600238D01*
X203323846Y-110600233D01*
X203321523Y-110595251D01*
X203242256Y-110482046D01*
X203193357Y-110412211D01*
X203193355Y-110412208D01*
X203190198Y-110407700D01*
X203028300Y-110245802D01*
X203023792Y-110242645D01*
X203023789Y-110242643D01*
X202945611Y-110187902D01*
X202840749Y-110114477D01*
X202835767Y-110112154D01*
X202835762Y-110112151D01*
X202638225Y-110020039D01*
X202638224Y-110020039D01*
X202633243Y-110017716D01*
X202627935Y-110016294D01*
X202627933Y-110016293D01*
X202567127Y-110000000D01*
X209736693Y-110000000D01*
X209755885Y-110219371D01*
X209812880Y-110432076D01*
X209856415Y-110525438D01*
X209903618Y-110626666D01*
X209903621Y-110626671D01*
X209905944Y-110631653D01*
X209909100Y-110636160D01*
X209909101Y-110636162D01*
X209932368Y-110669390D01*
X210032251Y-110812038D01*
X210187962Y-110967749D01*
X210368346Y-111094056D01*
X210567924Y-111187120D01*
X210780629Y-111244115D01*
X211000000Y-111263307D01*
X211219371Y-111244115D01*
X211432076Y-111187120D01*
X211631654Y-111094056D01*
X211812038Y-110967749D01*
X211967749Y-110812038D01*
X212067633Y-110669390D01*
X212090899Y-110636162D01*
X212090900Y-110636160D01*
X212094056Y-110631653D01*
X212096379Y-110626671D01*
X212096382Y-110626666D01*
X212143585Y-110525438D01*
X212187120Y-110432076D01*
X212244115Y-110219371D01*
X212263307Y-110000000D01*
X212244115Y-109780629D01*
X212187120Y-109567924D01*
X212143585Y-109474562D01*
X212096382Y-109373334D01*
X212096379Y-109373329D01*
X212094056Y-109368347D01*
X211967749Y-109187962D01*
X211812038Y-109032251D01*
X211806019Y-109028036D01*
X211681773Y-108941038D01*
X211631654Y-108905944D01*
X211432076Y-108812880D01*
X211219371Y-108755885D01*
X211000000Y-108736693D01*
X210780629Y-108755885D01*
X210567924Y-108812880D01*
X210474562Y-108856415D01*
X210373334Y-108903618D01*
X210373329Y-108903621D01*
X210368347Y-108905944D01*
X210363840Y-108909100D01*
X210363838Y-108909101D01*
X210192473Y-109029092D01*
X210192470Y-109029094D01*
X210187962Y-109032251D01*
X210032251Y-109187962D01*
X209905944Y-109368347D01*
X209903621Y-109373329D01*
X209903618Y-109373334D01*
X209856415Y-109474562D01*
X209812880Y-109567924D01*
X209755885Y-109780629D01*
X209736693Y-110000000D01*
X202567127Y-110000000D01*
X202417402Y-109959881D01*
X202417400Y-109959881D01*
X202412087Y-109958457D01*
X202184000Y-109938502D01*
X201955913Y-109958457D01*
X201950600Y-109959881D01*
X201950598Y-109959881D01*
X201740067Y-110016293D01*
X201740065Y-110016294D01*
X201734757Y-110017716D01*
X201729776Y-110020039D01*
X201729775Y-110020039D01*
X201532238Y-110112151D01*
X201532233Y-110112154D01*
X201527251Y-110114477D01*
X201422389Y-110187902D01*
X201344211Y-110242643D01*
X201344208Y-110242645D01*
X201339700Y-110245802D01*
X201177802Y-110407700D01*
X201174645Y-110412208D01*
X201174643Y-110412211D01*
X201125744Y-110482046D01*
X201046477Y-110595251D01*
X201044154Y-110600233D01*
X201044151Y-110600238D01*
X200952039Y-110797775D01*
X200949716Y-110802757D01*
X200890457Y-111023913D01*
X200870502Y-111252000D01*
X193337498Y-111252000D01*
X193317543Y-111023913D01*
X193258284Y-110802757D01*
X193255961Y-110797775D01*
X193163849Y-110600238D01*
X193163846Y-110600233D01*
X193161523Y-110595251D01*
X193082256Y-110482046D01*
X193033357Y-110412211D01*
X193033355Y-110412208D01*
X193030198Y-110407700D01*
X192868300Y-110245802D01*
X192863792Y-110242645D01*
X192863789Y-110242643D01*
X192785611Y-110187902D01*
X192680749Y-110114477D01*
X192675767Y-110112154D01*
X192675762Y-110112151D01*
X192478225Y-110020039D01*
X192478224Y-110020039D01*
X192473243Y-110017716D01*
X192467935Y-110016294D01*
X192467933Y-110016293D01*
X192257402Y-109959881D01*
X192257400Y-109959881D01*
X192252087Y-109958457D01*
X192024000Y-109938502D01*
X191795913Y-109958457D01*
X191790600Y-109959881D01*
X191790598Y-109959881D01*
X191580067Y-110016293D01*
X191580065Y-110016294D01*
X191574757Y-110017716D01*
X191569776Y-110020039D01*
X191569775Y-110020039D01*
X191372238Y-110112151D01*
X191372233Y-110112154D01*
X191367251Y-110114477D01*
X191262389Y-110187902D01*
X191184211Y-110242643D01*
X191184208Y-110242645D01*
X191179700Y-110245802D01*
X191017802Y-110407700D01*
X191014645Y-110412208D01*
X191014643Y-110412211D01*
X190965744Y-110482046D01*
X190886477Y-110595251D01*
X190884154Y-110600233D01*
X190884151Y-110600238D01*
X190792039Y-110797775D01*
X190789716Y-110802757D01*
X190730457Y-111023913D01*
X190710502Y-111252000D01*
X190289498Y-111252000D01*
X190269543Y-111023913D01*
X190210284Y-110802757D01*
X190207961Y-110797775D01*
X190115849Y-110600238D01*
X190115846Y-110600233D01*
X190113523Y-110595251D01*
X190034256Y-110482046D01*
X189985357Y-110412211D01*
X189985355Y-110412208D01*
X189982198Y-110407700D01*
X189820300Y-110245802D01*
X189815792Y-110242645D01*
X189815789Y-110242643D01*
X189737611Y-110187902D01*
X189632749Y-110114477D01*
X189627767Y-110112154D01*
X189627762Y-110112151D01*
X189430225Y-110020039D01*
X189430224Y-110020039D01*
X189425243Y-110017716D01*
X189419935Y-110016294D01*
X189419933Y-110016293D01*
X189209402Y-109959881D01*
X189209400Y-109959881D01*
X189204087Y-109958457D01*
X188976000Y-109938502D01*
X188747913Y-109958457D01*
X188742600Y-109959881D01*
X188742598Y-109959881D01*
X188532067Y-110016293D01*
X188532065Y-110016294D01*
X188526757Y-110017716D01*
X188521776Y-110020039D01*
X188521775Y-110020039D01*
X188324238Y-110112151D01*
X188324233Y-110112154D01*
X188319251Y-110114477D01*
X188214389Y-110187902D01*
X188136211Y-110242643D01*
X188136208Y-110242645D01*
X188131700Y-110245802D01*
X187969802Y-110407700D01*
X187966645Y-110412208D01*
X187966643Y-110412211D01*
X187917744Y-110482046D01*
X187838477Y-110595251D01*
X187836154Y-110600233D01*
X187836151Y-110600238D01*
X187744039Y-110797775D01*
X187741716Y-110802757D01*
X187682457Y-111023913D01*
X187662502Y-111252000D01*
X180129498Y-111252000D01*
X180109543Y-111023913D01*
X180050284Y-110802757D01*
X180047961Y-110797775D01*
X179955849Y-110600238D01*
X179955846Y-110600233D01*
X179953523Y-110595251D01*
X179874256Y-110482046D01*
X179825357Y-110412211D01*
X179825355Y-110412208D01*
X179822198Y-110407700D01*
X179660300Y-110245802D01*
X179655792Y-110242645D01*
X179655789Y-110242643D01*
X179577611Y-110187902D01*
X179472749Y-110114477D01*
X179467767Y-110112154D01*
X179467762Y-110112151D01*
X179270225Y-110020039D01*
X179270224Y-110020039D01*
X179265243Y-110017716D01*
X179259935Y-110016294D01*
X179259933Y-110016293D01*
X179049402Y-109959881D01*
X179049400Y-109959881D01*
X179044087Y-109958457D01*
X178816000Y-109938502D01*
X178587913Y-109958457D01*
X178582600Y-109959881D01*
X178582598Y-109959881D01*
X178372067Y-110016293D01*
X178372065Y-110016294D01*
X178366757Y-110017716D01*
X178361776Y-110020039D01*
X178361775Y-110020039D01*
X178164238Y-110112151D01*
X178164233Y-110112154D01*
X178159251Y-110114477D01*
X178054389Y-110187902D01*
X177976211Y-110242643D01*
X177976208Y-110242645D01*
X177971700Y-110245802D01*
X177809802Y-110407700D01*
X177806645Y-110412208D01*
X177806643Y-110412211D01*
X177757744Y-110482046D01*
X177678477Y-110595251D01*
X177676154Y-110600233D01*
X177676151Y-110600238D01*
X177584039Y-110797775D01*
X177581716Y-110802757D01*
X177522457Y-111023913D01*
X177502502Y-111252000D01*
X124861291Y-111252000D01*
X124508564Y-111172025D01*
X124490460Y-111166461D01*
X123549467Y-110797775D01*
X123158117Y-110644442D01*
X123135031Y-110632519D01*
X123133710Y-110631653D01*
X121944681Y-109852608D01*
X121928243Y-109839774D01*
X121912795Y-109825505D01*
X121769343Y-109693007D01*
X121660098Y-109592103D01*
X171278605Y-109592103D01*
X171298560Y-109820190D01*
X171299984Y-109825503D01*
X171299984Y-109825505D01*
X171303808Y-109839774D01*
X171357819Y-110041346D01*
X171360142Y-110046327D01*
X171360142Y-110046328D01*
X171452254Y-110243865D01*
X171452257Y-110243870D01*
X171454580Y-110248852D01*
X171522932Y-110346468D01*
X171568966Y-110412211D01*
X171585905Y-110436403D01*
X171747803Y-110598301D01*
X171752311Y-110601458D01*
X171752314Y-110601460D01*
X171787748Y-110626271D01*
X171935354Y-110729626D01*
X171940336Y-110731949D01*
X171940341Y-110731952D01*
X172102414Y-110807527D01*
X172142860Y-110826387D01*
X172148168Y-110827809D01*
X172148170Y-110827810D01*
X172358701Y-110884222D01*
X172358703Y-110884222D01*
X172364016Y-110885646D01*
X172592103Y-110905601D01*
X172820190Y-110885646D01*
X172825503Y-110884222D01*
X172825505Y-110884222D01*
X173036036Y-110827810D01*
X173036038Y-110827809D01*
X173041346Y-110826387D01*
X173081792Y-110807527D01*
X173243865Y-110731952D01*
X173243870Y-110731949D01*
X173248852Y-110729626D01*
X173396458Y-110626271D01*
X173431892Y-110601460D01*
X173431895Y-110601458D01*
X173436403Y-110598301D01*
X173598301Y-110436403D01*
X173615241Y-110412211D01*
X173661274Y-110346468D01*
X173729626Y-110248852D01*
X173731949Y-110243870D01*
X173731952Y-110243865D01*
X173824064Y-110046328D01*
X173824064Y-110046327D01*
X173826387Y-110041346D01*
X173880399Y-109839774D01*
X173884222Y-109825505D01*
X173884222Y-109825503D01*
X173885646Y-109820190D01*
X173905601Y-109592103D01*
X173885646Y-109364016D01*
X173826387Y-109142860D01*
X173810275Y-109108307D01*
X173731952Y-108940341D01*
X173731949Y-108940336D01*
X173729626Y-108935354D01*
X173641652Y-108809715D01*
X173601460Y-108752314D01*
X173601458Y-108752311D01*
X173598301Y-108747803D01*
X173436403Y-108585905D01*
X173431895Y-108582748D01*
X173431892Y-108582746D01*
X173353714Y-108528005D01*
X173248852Y-108454580D01*
X173243870Y-108452257D01*
X173243865Y-108452254D01*
X173046328Y-108360142D01*
X173046327Y-108360142D01*
X173041346Y-108357819D01*
X173036038Y-108356397D01*
X173036036Y-108356396D01*
X172825505Y-108299984D01*
X172825503Y-108299984D01*
X172820190Y-108298560D01*
X172592103Y-108278605D01*
X172364016Y-108298560D01*
X172358703Y-108299984D01*
X172358701Y-108299984D01*
X172148170Y-108356396D01*
X172148168Y-108356397D01*
X172142860Y-108357819D01*
X172137879Y-108360142D01*
X172137878Y-108360142D01*
X171940341Y-108452254D01*
X171940336Y-108452257D01*
X171935354Y-108454580D01*
X171830492Y-108528005D01*
X171752314Y-108582746D01*
X171752311Y-108582748D01*
X171747803Y-108585905D01*
X171585905Y-108747803D01*
X171582748Y-108752311D01*
X171582746Y-108752314D01*
X171542554Y-108809715D01*
X171454580Y-108935354D01*
X171452257Y-108940336D01*
X171452254Y-108940341D01*
X171373931Y-109108307D01*
X171357819Y-109142860D01*
X171298560Y-109364016D01*
X171278605Y-109592103D01*
X121660098Y-109592103D01*
X121103862Y-109078338D01*
X121092621Y-109066518D01*
X120461427Y-108310291D01*
X120292967Y-108108461D01*
X120277828Y-108085693D01*
X120249770Y-108031545D01*
X119784011Y-107132703D01*
X148090743Y-107132703D01*
X148091302Y-107136947D01*
X148091302Y-107136951D01*
X148101231Y-107212367D01*
X148128268Y-107417734D01*
X148129401Y-107421874D01*
X148129401Y-107421876D01*
X148139694Y-107459500D01*
X148204129Y-107695036D01*
X148205813Y-107698984D01*
X148276139Y-107863859D01*
X148316923Y-107959476D01*
X148391291Y-108083736D01*
X148447261Y-108177254D01*
X148464561Y-108206161D01*
X148644313Y-108430528D01*
X148852851Y-108628423D01*
X149086317Y-108796186D01*
X149090112Y-108798195D01*
X149090113Y-108798196D01*
X149111869Y-108809715D01*
X149340392Y-108930712D01*
X149610373Y-109029511D01*
X149891264Y-109090755D01*
X149919841Y-109093004D01*
X150114282Y-109108307D01*
X150114291Y-109108307D01*
X150116739Y-109108500D01*
X150272271Y-109108500D01*
X150274407Y-109108354D01*
X150274418Y-109108354D01*
X150482548Y-109094165D01*
X150482554Y-109094164D01*
X150486825Y-109093873D01*
X150491020Y-109093004D01*
X150491022Y-109093004D01*
X150627583Y-109064724D01*
X150768342Y-109035574D01*
X151039343Y-108939607D01*
X151294812Y-108807750D01*
X151298313Y-108805289D01*
X151298317Y-108805287D01*
X151505346Y-108659784D01*
X151530023Y-108642441D01*
X151728788Y-108457737D01*
X151737479Y-108449661D01*
X151737481Y-108449658D01*
X151740622Y-108446740D01*
X151922713Y-108224268D01*
X152072927Y-107979142D01*
X152145947Y-107812799D01*
X152186757Y-107719830D01*
X152188483Y-107715898D01*
X152192457Y-107701949D01*
X152241816Y-107528673D01*
X152267244Y-107439406D01*
X152299556Y-107212367D01*
X152307146Y-107159036D01*
X152307146Y-107159034D01*
X152307751Y-107154784D01*
X152307845Y-107136951D01*
X152309235Y-106871583D01*
X152309235Y-106871576D01*
X152309257Y-106867297D01*
X152307798Y-106856210D01*
X152272292Y-106586522D01*
X152271732Y-106582266D01*
X152226999Y-106418750D01*
X174906524Y-106418750D01*
X174910219Y-106459352D01*
X174921406Y-106582266D01*
X174924894Y-106620596D01*
X174926632Y-106626502D01*
X174926633Y-106626506D01*
X174946013Y-106692352D01*
X174982119Y-106815029D01*
X174984972Y-106820486D01*
X174984973Y-106820489D01*
X175007223Y-106863049D01*
X175076019Y-106994645D01*
X175079879Y-106999445D01*
X175079879Y-106999446D01*
X175084253Y-107004886D01*
X175203019Y-107152601D01*
X175358281Y-107282881D01*
X175363673Y-107285845D01*
X175363677Y-107285848D01*
X175516115Y-107369651D01*
X175535891Y-107380523D01*
X175729084Y-107441807D01*
X175735201Y-107442493D01*
X175735205Y-107442494D01*
X175809348Y-107450810D01*
X175886817Y-107459500D01*
X176446004Y-107459500D01*
X176596713Y-107444723D01*
X176772492Y-107391652D01*
X182061524Y-107391652D01*
X182063990Y-107400281D01*
X182063991Y-107400286D01*
X182069639Y-107420048D01*
X182073217Y-107436809D01*
X182076130Y-107457152D01*
X182076133Y-107457162D01*
X182077405Y-107466045D01*
X182088021Y-107489395D01*
X182094464Y-107506907D01*
X182101512Y-107531565D01*
X182117274Y-107556548D01*
X182125404Y-107571614D01*
X182137633Y-107598510D01*
X182154374Y-107617939D01*
X182165479Y-107632947D01*
X182179160Y-107654631D01*
X182185888Y-107660573D01*
X182201296Y-107674181D01*
X182213341Y-107686374D01*
X182224207Y-107698984D01*
X182232619Y-107708747D01*
X182240147Y-107713626D01*
X182240150Y-107713629D01*
X182254139Y-107722696D01*
X182269013Y-107733986D01*
X182288228Y-107750956D01*
X182296354Y-107754771D01*
X182296355Y-107754772D01*
X182302021Y-107757432D01*
X182314966Y-107763510D01*
X182329935Y-107771824D01*
X182354727Y-107787893D01*
X182371650Y-107792954D01*
X182379290Y-107795239D01*
X182396736Y-107801901D01*
X182419948Y-107812799D01*
X182449130Y-107817343D01*
X182465849Y-107821126D01*
X182485536Y-107827014D01*
X182485539Y-107827015D01*
X182494141Y-107829587D01*
X182503116Y-107829642D01*
X182503117Y-107829642D01*
X182509810Y-107829683D01*
X182528556Y-107829797D01*
X182529328Y-107829830D01*
X182530423Y-107830000D01*
X182561298Y-107830000D01*
X182562068Y-107830002D01*
X182635716Y-107830452D01*
X182635717Y-107830452D01*
X182639652Y-107830476D01*
X182640996Y-107830092D01*
X182642341Y-107830000D01*
X200961298Y-107830000D01*
X200962069Y-107830002D01*
X201039652Y-107830476D01*
X201048281Y-107828010D01*
X201048286Y-107828009D01*
X201068048Y-107822361D01*
X201084809Y-107818783D01*
X201105152Y-107815870D01*
X201105162Y-107815867D01*
X201114045Y-107814595D01*
X201137395Y-107803979D01*
X201154907Y-107797536D01*
X201170937Y-107792954D01*
X201179565Y-107790488D01*
X201204548Y-107774726D01*
X201219614Y-107766596D01*
X201246510Y-107754367D01*
X201265939Y-107737626D01*
X201280947Y-107726521D01*
X201295039Y-107717630D01*
X201302631Y-107712840D01*
X201322182Y-107690703D01*
X201334374Y-107678659D01*
X201349949Y-107665239D01*
X201349950Y-107665237D01*
X201356747Y-107659381D01*
X201361626Y-107651853D01*
X201361629Y-107651850D01*
X201370696Y-107637861D01*
X201381986Y-107622987D01*
X201393012Y-107610502D01*
X201398956Y-107603772D01*
X201411510Y-107577034D01*
X201419824Y-107562065D01*
X201435893Y-107537273D01*
X201443239Y-107512709D01*
X201449901Y-107495264D01*
X201456983Y-107480179D01*
X201460799Y-107472052D01*
X201465343Y-107442870D01*
X201469126Y-107426151D01*
X201475014Y-107406464D01*
X201475015Y-107406461D01*
X201477587Y-107397859D01*
X201477797Y-107363444D01*
X201477830Y-107362672D01*
X201478000Y-107361577D01*
X201478000Y-107330702D01*
X201478002Y-107329932D01*
X201478452Y-107256284D01*
X201478452Y-107256283D01*
X201478476Y-107252348D01*
X201478092Y-107251004D01*
X201478000Y-107249659D01*
X201478000Y-106917520D01*
X203547044Y-106917520D01*
X203547341Y-106922673D01*
X203547341Y-106922676D01*
X203553016Y-107021092D01*
X203560376Y-107148748D01*
X203561513Y-107153794D01*
X203561514Y-107153800D01*
X203584610Y-107256284D01*
X203611295Y-107374693D01*
X203613237Y-107379475D01*
X203613238Y-107379479D01*
X203693460Y-107577041D01*
X203698433Y-107589288D01*
X203819450Y-107786770D01*
X203971096Y-107961835D01*
X204149298Y-108109781D01*
X204349271Y-108226635D01*
X204565643Y-108309260D01*
X204570709Y-108310291D01*
X204570710Y-108310291D01*
X204623795Y-108321091D01*
X204792605Y-108355436D01*
X204920947Y-108360142D01*
X205018898Y-108363734D01*
X205018902Y-108363734D01*
X205024062Y-108363923D01*
X205029182Y-108363267D01*
X205029184Y-108363267D01*
X205102219Y-108353911D01*
X205253796Y-108334493D01*
X205258744Y-108333008D01*
X205258751Y-108333007D01*
X205470696Y-108269420D01*
X205475639Y-108267937D01*
X205558006Y-108227586D01*
X205678998Y-108168313D01*
X205679001Y-108168311D01*
X205683633Y-108166042D01*
X205872192Y-108031545D01*
X206036252Y-107868056D01*
X206171407Y-107679968D01*
X206178687Y-107665239D01*
X206271733Y-107476973D01*
X206271734Y-107476971D01*
X206274027Y-107472331D01*
X206341357Y-107250722D01*
X206371589Y-107021092D01*
X206371985Y-107004886D01*
X206393645Y-106937274D01*
X206448420Y-106892106D01*
X206518920Y-106883722D01*
X206550097Y-106893263D01*
X206603782Y-106917672D01*
X206620841Y-106922660D01*
X206747111Y-106940743D01*
X206764889Y-106940743D01*
X206891159Y-106922660D01*
X206908214Y-106917673D01*
X207025323Y-106864427D01*
X207038667Y-106856210D01*
X207078544Y-106824147D01*
X207083622Y-106819591D01*
X207559189Y-106344024D01*
X207566803Y-106330080D01*
X207566672Y-106328247D01*
X207562421Y-106321632D01*
X206397922Y-105157132D01*
X207120408Y-105157132D01*
X207120539Y-105158966D01*
X207124790Y-105165580D01*
X207918403Y-105959192D01*
X207932341Y-105966803D01*
X207934177Y-105966671D01*
X207940789Y-105962422D01*
X208419585Y-105483626D01*
X208424147Y-105478542D01*
X208456207Y-105438669D01*
X208464429Y-105425319D01*
X208517673Y-105308214D01*
X208522660Y-105291159D01*
X208540743Y-105164889D01*
X208540743Y-105147111D01*
X208522660Y-105020841D01*
X208517673Y-105003786D01*
X208464427Y-104886677D01*
X208456210Y-104873333D01*
X208424147Y-104833456D01*
X208419591Y-104828378D01*
X207944024Y-104352811D01*
X207930080Y-104345197D01*
X207928245Y-104345328D01*
X207921635Y-104349576D01*
X207128021Y-105143189D01*
X207120408Y-105157132D01*
X206397922Y-105157132D01*
X206396790Y-105156000D01*
X205593599Y-104352810D01*
X205579658Y-104345198D01*
X205577823Y-104345329D01*
X205571209Y-104349580D01*
X205092415Y-104828374D01*
X205087853Y-104833458D01*
X205055793Y-104873331D01*
X205047571Y-104886681D01*
X204994327Y-105003786D01*
X204989340Y-105020841D01*
X204971257Y-105147111D01*
X204971257Y-105164889D01*
X204989340Y-105291159D01*
X204994327Y-105308214D01*
X205019938Y-105364542D01*
X205029924Y-105434832D01*
X205000324Y-105499364D01*
X204940534Y-105537648D01*
X204903698Y-105542684D01*
X204866530Y-105542230D01*
X204866528Y-105542230D01*
X204861360Y-105542167D01*
X204632413Y-105577201D01*
X204412263Y-105649157D01*
X204407675Y-105651545D01*
X204407671Y-105651547D01*
X204211410Y-105753714D01*
X204206821Y-105756103D01*
X204202688Y-105759206D01*
X204202685Y-105759208D01*
X204159598Y-105791559D01*
X204021604Y-105895168D01*
X204018032Y-105898906D01*
X203889074Y-106033853D01*
X203861588Y-106062615D01*
X203858674Y-106066887D01*
X203858673Y-106066888D01*
X203854138Y-106073536D01*
X203731068Y-106253950D01*
X203633551Y-106464032D01*
X203571656Y-106687220D01*
X203547044Y-106917520D01*
X201478000Y-106917520D01*
X201478000Y-103981920D01*
X205945197Y-103981920D01*
X205945328Y-103983755D01*
X205949576Y-103990365D01*
X206743189Y-104783979D01*
X206757132Y-104791592D01*
X206758966Y-104791461D01*
X206765580Y-104787210D01*
X207559192Y-103993597D01*
X207566803Y-103979659D01*
X207566671Y-103977823D01*
X207562422Y-103971211D01*
X207083626Y-103492415D01*
X207078542Y-103487853D01*
X207038669Y-103455793D01*
X207025319Y-103447571D01*
X206908214Y-103394327D01*
X206891159Y-103389340D01*
X206764889Y-103371257D01*
X206747111Y-103371257D01*
X206620841Y-103389340D01*
X206603786Y-103394327D01*
X206486677Y-103447573D01*
X206473333Y-103455790D01*
X206433456Y-103487853D01*
X206428378Y-103492409D01*
X205952811Y-103967976D01*
X205945197Y-103981920D01*
X201478000Y-103981920D01*
X201478000Y-98818621D01*
X207600933Y-98818621D01*
X207610227Y-98830635D01*
X207644146Y-98854385D01*
X207653641Y-98859868D01*
X207838413Y-98946028D01*
X207848705Y-98949774D01*
X208045632Y-99002540D01*
X208056425Y-99004443D01*
X208259525Y-99022212D01*
X208270475Y-99022212D01*
X208473575Y-99004443D01*
X208484368Y-99002540D01*
X208681295Y-98949774D01*
X208691587Y-98946028D01*
X208876359Y-98859868D01*
X208885854Y-98854385D01*
X208920607Y-98830051D01*
X208928983Y-98819572D01*
X208921916Y-98806127D01*
X208277811Y-98162021D01*
X208263868Y-98154408D01*
X208262034Y-98154539D01*
X208255420Y-98158790D01*
X207607360Y-98806851D01*
X207600933Y-98818621D01*
X201478000Y-98818621D01*
X201478000Y-97795475D01*
X207032788Y-97795475D01*
X207050557Y-97998575D01*
X207052460Y-98009368D01*
X207105226Y-98206295D01*
X207108972Y-98216587D01*
X207195135Y-98401364D01*
X207200613Y-98410850D01*
X207224949Y-98445607D01*
X207235428Y-98453983D01*
X207248872Y-98446917D01*
X207892979Y-97802811D01*
X207899356Y-97791132D01*
X208629408Y-97791132D01*
X208629539Y-97792966D01*
X208633790Y-97799580D01*
X209281851Y-98447640D01*
X209293621Y-98454067D01*
X209305635Y-98444772D01*
X209329387Y-98410850D01*
X209334865Y-98401364D01*
X209421028Y-98216587D01*
X209424774Y-98206295D01*
X209477540Y-98009368D01*
X209479443Y-97998575D01*
X209497212Y-97795475D01*
X209497212Y-97784525D01*
X209479443Y-97581425D01*
X209477540Y-97570632D01*
X209424774Y-97373705D01*
X209421028Y-97363413D01*
X209334865Y-97178636D01*
X209329387Y-97169150D01*
X209305051Y-97134393D01*
X209294572Y-97126017D01*
X209281128Y-97133083D01*
X208637021Y-97777189D01*
X208629408Y-97791132D01*
X207899356Y-97791132D01*
X207900592Y-97788868D01*
X207900461Y-97787034D01*
X207896210Y-97780420D01*
X207248149Y-97132360D01*
X207236379Y-97125933D01*
X207224365Y-97135228D01*
X207200613Y-97169150D01*
X207195135Y-97178636D01*
X207108972Y-97363413D01*
X207105226Y-97373705D01*
X207052460Y-97570632D01*
X207050557Y-97581425D01*
X207032788Y-97784525D01*
X207032788Y-97795475D01*
X201478000Y-97795475D01*
X201478000Y-96760428D01*
X207601017Y-96760428D01*
X207608083Y-96773872D01*
X208252189Y-97417979D01*
X208266132Y-97425592D01*
X208267966Y-97425461D01*
X208274580Y-97421210D01*
X208922640Y-96773149D01*
X208929067Y-96761379D01*
X208919773Y-96749365D01*
X208885854Y-96725615D01*
X208876359Y-96720132D01*
X208691587Y-96633972D01*
X208681295Y-96630226D01*
X208484368Y-96577460D01*
X208473575Y-96575557D01*
X208270475Y-96557788D01*
X208259525Y-96557788D01*
X208056425Y-96575557D01*
X208045632Y-96577460D01*
X207848705Y-96630226D01*
X207838413Y-96633972D01*
X207653636Y-96720135D01*
X207644150Y-96725613D01*
X207609393Y-96749949D01*
X207601017Y-96760428D01*
X201478000Y-96760428D01*
X201478000Y-96278621D01*
X205060933Y-96278621D01*
X205070227Y-96290635D01*
X205104146Y-96314385D01*
X205113641Y-96319868D01*
X205298413Y-96406028D01*
X205308705Y-96409774D01*
X205505632Y-96462540D01*
X205516425Y-96464443D01*
X205719525Y-96482212D01*
X205730475Y-96482212D01*
X205933575Y-96464443D01*
X205944368Y-96462540D01*
X206141295Y-96409774D01*
X206151587Y-96406028D01*
X206336359Y-96319868D01*
X206345854Y-96314385D01*
X206380607Y-96290051D01*
X206388983Y-96279572D01*
X206381916Y-96266127D01*
X205737811Y-95622021D01*
X205723868Y-95614408D01*
X205722034Y-95614539D01*
X205715420Y-95618790D01*
X205067360Y-96266851D01*
X205060933Y-96278621D01*
X201478000Y-96278621D01*
X201478000Y-95255475D01*
X204492788Y-95255475D01*
X204510557Y-95458575D01*
X204512460Y-95469368D01*
X204565226Y-95666295D01*
X204568972Y-95676587D01*
X204655135Y-95861364D01*
X204660613Y-95870850D01*
X204684949Y-95905607D01*
X204695428Y-95913983D01*
X204708872Y-95906917D01*
X205352979Y-95262811D01*
X205359356Y-95251132D01*
X206089408Y-95251132D01*
X206089539Y-95252966D01*
X206093790Y-95259580D01*
X206741851Y-95907640D01*
X206753621Y-95914067D01*
X206765635Y-95904772D01*
X206789387Y-95870850D01*
X206794865Y-95861364D01*
X206881028Y-95676587D01*
X206884774Y-95666295D01*
X206937540Y-95469368D01*
X206939443Y-95458575D01*
X206957212Y-95255475D01*
X206957212Y-95244525D01*
X206939443Y-95041425D01*
X206937540Y-95030632D01*
X206884774Y-94833705D01*
X206881028Y-94823413D01*
X206794865Y-94638636D01*
X206789387Y-94629150D01*
X206765051Y-94594393D01*
X206754572Y-94586017D01*
X206741128Y-94593083D01*
X206097021Y-95237189D01*
X206089408Y-95251132D01*
X205359356Y-95251132D01*
X205360592Y-95248868D01*
X205360461Y-95247034D01*
X205356210Y-95240420D01*
X204708149Y-94592360D01*
X204696379Y-94585933D01*
X204684365Y-94595228D01*
X204660613Y-94629150D01*
X204655135Y-94638636D01*
X204568972Y-94823413D01*
X204565226Y-94833705D01*
X204512460Y-95030632D01*
X204510557Y-95041425D01*
X204492788Y-95244525D01*
X204492788Y-95255475D01*
X201478000Y-95255475D01*
X201478000Y-94220428D01*
X205061017Y-94220428D01*
X205068083Y-94233872D01*
X205712189Y-94877979D01*
X205726132Y-94885592D01*
X205727966Y-94885461D01*
X205734580Y-94881210D01*
X206382640Y-94233149D01*
X206389067Y-94221379D01*
X206379773Y-94209365D01*
X206345854Y-94185615D01*
X206336359Y-94180132D01*
X206151587Y-94093972D01*
X206141295Y-94090226D01*
X205944368Y-94037460D01*
X205933575Y-94035557D01*
X205730475Y-94017788D01*
X205719525Y-94017788D01*
X205516425Y-94035557D01*
X205505632Y-94037460D01*
X205308705Y-94090226D01*
X205298413Y-94093972D01*
X205113636Y-94180135D01*
X205104150Y-94185613D01*
X205069393Y-94209949D01*
X205061017Y-94220428D01*
X201478000Y-94220428D01*
X201478000Y-92710000D01*
X207031807Y-92710000D01*
X207050542Y-92924142D01*
X207051966Y-92929455D01*
X207051966Y-92929457D01*
X207099698Y-93107592D01*
X207106178Y-93131777D01*
X207108500Y-93136757D01*
X207108501Y-93136759D01*
X207152239Y-93230554D01*
X207197024Y-93326596D01*
X207320319Y-93502681D01*
X207472319Y-93654681D01*
X207648403Y-93777976D01*
X207653381Y-93780297D01*
X207653384Y-93780299D01*
X207783108Y-93840790D01*
X207843223Y-93868822D01*
X207848531Y-93870244D01*
X207848533Y-93870245D01*
X208045543Y-93923034D01*
X208045545Y-93923034D01*
X208050858Y-93924458D01*
X208265000Y-93943193D01*
X208479142Y-93924458D01*
X208484455Y-93923034D01*
X208484457Y-93923034D01*
X208681467Y-93870245D01*
X208681469Y-93870244D01*
X208686777Y-93868822D01*
X208746892Y-93840790D01*
X208876616Y-93780299D01*
X208876619Y-93780297D01*
X208881597Y-93777976D01*
X209057681Y-93654681D01*
X209209681Y-93502681D01*
X209332976Y-93326596D01*
X209377762Y-93230554D01*
X209421499Y-93136759D01*
X209421500Y-93136757D01*
X209423822Y-93131777D01*
X209430303Y-93107592D01*
X209478034Y-92929457D01*
X209478034Y-92929455D01*
X209479458Y-92924142D01*
X209498193Y-92710000D01*
X209479458Y-92495858D01*
X209478034Y-92490543D01*
X209425245Y-92293533D01*
X209425244Y-92293531D01*
X209423822Y-92288223D01*
X209421499Y-92283241D01*
X209335299Y-92098385D01*
X209335297Y-92098382D01*
X209332976Y-92093404D01*
X209209681Y-91917319D01*
X209057681Y-91765319D01*
X208881597Y-91642024D01*
X208876619Y-91639703D01*
X208876616Y-91639701D01*
X208691759Y-91553501D01*
X208691758Y-91553500D01*
X208686777Y-91551178D01*
X208681469Y-91549756D01*
X208681467Y-91549755D01*
X208484457Y-91496966D01*
X208484455Y-91496966D01*
X208479142Y-91495542D01*
X208265000Y-91476807D01*
X208050858Y-91495542D01*
X208045545Y-91496966D01*
X208045543Y-91496966D01*
X207848533Y-91549755D01*
X207848531Y-91549756D01*
X207843223Y-91551178D01*
X207838243Y-91553500D01*
X207838241Y-91553501D01*
X207653385Y-91639701D01*
X207653382Y-91639703D01*
X207648404Y-91642024D01*
X207472319Y-91765319D01*
X207320319Y-91917319D01*
X207197024Y-92093404D01*
X207194703Y-92098382D01*
X207194701Y-92098385D01*
X207108501Y-92283241D01*
X207106178Y-92288223D01*
X207104756Y-92293531D01*
X207104755Y-92293533D01*
X207051966Y-92490543D01*
X207050542Y-92495858D01*
X207031807Y-92710000D01*
X201478000Y-92710000D01*
X201478000Y-92330702D01*
X201478002Y-92329932D01*
X201478421Y-92261322D01*
X201478476Y-92252348D01*
X201476010Y-92243719D01*
X201476009Y-92243714D01*
X201470361Y-92223952D01*
X201466783Y-92207191D01*
X201463870Y-92186848D01*
X201463867Y-92186838D01*
X201462595Y-92177955D01*
X201451979Y-92154605D01*
X201445536Y-92137093D01*
X201440954Y-92121063D01*
X201438488Y-92112435D01*
X201422726Y-92087452D01*
X201414596Y-92072386D01*
X201402367Y-92045490D01*
X201385626Y-92026061D01*
X201374521Y-92011053D01*
X201365630Y-91996961D01*
X201360840Y-91989369D01*
X201338703Y-91969818D01*
X201326659Y-91957626D01*
X201313239Y-91942051D01*
X201313237Y-91942050D01*
X201307381Y-91935253D01*
X201299853Y-91930374D01*
X201299850Y-91930371D01*
X201285861Y-91921304D01*
X201270987Y-91910014D01*
X201258502Y-91898988D01*
X201251772Y-91893044D01*
X201243646Y-91889229D01*
X201243645Y-91889228D01*
X201237979Y-91886568D01*
X201225034Y-91880490D01*
X201210065Y-91872176D01*
X201185273Y-91856107D01*
X201160709Y-91848761D01*
X201143264Y-91842099D01*
X201138827Y-91840016D01*
X201120052Y-91831201D01*
X201090870Y-91826657D01*
X201074151Y-91822874D01*
X201054464Y-91816986D01*
X201054461Y-91816985D01*
X201045859Y-91814413D01*
X201036884Y-91814358D01*
X201036883Y-91814358D01*
X201030190Y-91814317D01*
X201011444Y-91814203D01*
X201010672Y-91814170D01*
X201009577Y-91814000D01*
X200978702Y-91814000D01*
X200977932Y-91813998D01*
X200904284Y-91813548D01*
X200904283Y-91813548D01*
X200900348Y-91813524D01*
X200899004Y-91813908D01*
X200897659Y-91814000D01*
X182578702Y-91814000D01*
X182577932Y-91813998D01*
X182577078Y-91813993D01*
X182500348Y-91813524D01*
X182491719Y-91815990D01*
X182491714Y-91815991D01*
X182471952Y-91821639D01*
X182455191Y-91825217D01*
X182434848Y-91828130D01*
X182434838Y-91828133D01*
X182425955Y-91829405D01*
X182402605Y-91840021D01*
X182385093Y-91846464D01*
X182377057Y-91848761D01*
X182360435Y-91853512D01*
X182335452Y-91869274D01*
X182320386Y-91877404D01*
X182293490Y-91889633D01*
X182274061Y-91906374D01*
X182259053Y-91917479D01*
X182237369Y-91931160D01*
X182231427Y-91937888D01*
X182217819Y-91953296D01*
X182205627Y-91965340D01*
X182183253Y-91984619D01*
X182178374Y-91992147D01*
X182178371Y-91992150D01*
X182169304Y-92006139D01*
X182158014Y-92021013D01*
X182141044Y-92040228D01*
X182128490Y-92066966D01*
X182120176Y-92081935D01*
X182104107Y-92106727D01*
X182101535Y-92115327D01*
X182096761Y-92131290D01*
X182090099Y-92148736D01*
X182079201Y-92171948D01*
X182074658Y-92201128D01*
X182070874Y-92217849D01*
X182064986Y-92237536D01*
X182064985Y-92237539D01*
X182062413Y-92246141D01*
X182062358Y-92255116D01*
X182062358Y-92255117D01*
X182062203Y-92280546D01*
X182062170Y-92281328D01*
X182062000Y-92282423D01*
X182062000Y-92313298D01*
X182061998Y-92314068D01*
X182061524Y-92391652D01*
X182061908Y-92392996D01*
X182062000Y-92394341D01*
X182062000Y-107313298D01*
X182061998Y-107314068D01*
X182061524Y-107391652D01*
X176772492Y-107391652D01*
X176790742Y-107386142D01*
X176969698Y-107290990D01*
X177012252Y-107256284D01*
X177121987Y-107166785D01*
X177126763Y-107162890D01*
X177137023Y-107150488D01*
X177252027Y-107011472D01*
X177252029Y-107011469D01*
X177255956Y-107006722D01*
X177352356Y-106828435D01*
X177394481Y-106692352D01*
X177410468Y-106640707D01*
X177410469Y-106640704D01*
X177412290Y-106634820D01*
X177420526Y-106556466D01*
X177432832Y-106439378D01*
X177432832Y-106439377D01*
X177433476Y-106433250D01*
X177421801Y-106304964D01*
X177415665Y-106237543D01*
X177415664Y-106237540D01*
X177415106Y-106231404D01*
X177357881Y-106036971D01*
X177353951Y-106029452D01*
X177283749Y-105895168D01*
X177263981Y-105857355D01*
X177264016Y-105857337D01*
X177244111Y-105791559D01*
X177259271Y-105730591D01*
X177302010Y-105651547D01*
X177352356Y-105558435D01*
X177391081Y-105433336D01*
X177410468Y-105370707D01*
X177410469Y-105370704D01*
X177412290Y-105364820D01*
X177418661Y-105304210D01*
X177432832Y-105169378D01*
X177432832Y-105169377D01*
X177433476Y-105163250D01*
X177422575Y-105043476D01*
X177415665Y-104967543D01*
X177415664Y-104967540D01*
X177415106Y-104961404D01*
X177409188Y-104941294D01*
X177359620Y-104772879D01*
X177359619Y-104772877D01*
X177357881Y-104766971D01*
X177358740Y-104766718D01*
X177352286Y-104701338D01*
X177365452Y-104664594D01*
X177370615Y-104657705D01*
X177373768Y-104649296D01*
X177418971Y-104528715D01*
X177421745Y-104521316D01*
X177428500Y-104459134D01*
X177428500Y-103312866D01*
X177421745Y-103250684D01*
X177370615Y-103114295D01*
X177283261Y-102997739D01*
X177166705Y-102910385D01*
X177030316Y-102859255D01*
X176968134Y-102852500D01*
X175371866Y-102852500D01*
X175309684Y-102859255D01*
X175173295Y-102910385D01*
X175056739Y-102997739D01*
X174969385Y-103114295D01*
X174918255Y-103250684D01*
X174911500Y-103312866D01*
X174911500Y-104459134D01*
X174918255Y-104521316D01*
X174921029Y-104528715D01*
X174966232Y-104649296D01*
X174966234Y-104649299D01*
X174969385Y-104657705D01*
X174974773Y-104664894D01*
X174974906Y-104665137D01*
X174990076Y-104734494D01*
X174984752Y-104762907D01*
X174962914Y-104833456D01*
X174930099Y-104939464D01*
X174927710Y-104947180D01*
X174927066Y-104953305D01*
X174927066Y-104953306D01*
X174917589Y-105043476D01*
X174906524Y-105148750D01*
X174911535Y-105203814D01*
X174919485Y-105291159D01*
X174924894Y-105350596D01*
X174926632Y-105356502D01*
X174926633Y-105356506D01*
X174952948Y-105445915D01*
X174982119Y-105545029D01*
X174984972Y-105550486D01*
X174984973Y-105550489D01*
X175029069Y-105634837D01*
X175075923Y-105724460D01*
X175075923Y-105724462D01*
X175076019Y-105724645D01*
X175075984Y-105724663D01*
X175095889Y-105790441D01*
X175080729Y-105851409D01*
X174987644Y-106023565D01*
X174967167Y-106089716D01*
X174939842Y-106177989D01*
X174927710Y-106217180D01*
X174927066Y-106223305D01*
X174927066Y-106223306D01*
X174916036Y-106328247D01*
X174906524Y-106418750D01*
X152226999Y-106418750D01*
X152195871Y-106304964D01*
X152109789Y-106103148D01*
X152084763Y-106044476D01*
X152084761Y-106044472D01*
X152083077Y-106040524D01*
X151976720Y-105862815D01*
X151937643Y-105797521D01*
X151937640Y-105797517D01*
X151935439Y-105793839D01*
X151755687Y-105569472D01*
X151613763Y-105434791D01*
X151550258Y-105374527D01*
X151550255Y-105374525D01*
X151547149Y-105371577D01*
X151313683Y-105203814D01*
X151291843Y-105192250D01*
X151241472Y-105165580D01*
X151059608Y-105069288D01*
X150858992Y-104995873D01*
X150793658Y-104971964D01*
X150793656Y-104971963D01*
X150789627Y-104970489D01*
X150508736Y-104909245D01*
X150477685Y-104906801D01*
X150285718Y-104891693D01*
X150285709Y-104891693D01*
X150283261Y-104891500D01*
X150127729Y-104891500D01*
X150125593Y-104891646D01*
X150125582Y-104891646D01*
X149917452Y-104905835D01*
X149917446Y-104905836D01*
X149913175Y-104906127D01*
X149908980Y-104906996D01*
X149908978Y-104906996D01*
X149813913Y-104926683D01*
X149631658Y-104964426D01*
X149360657Y-105060393D01*
X149105188Y-105192250D01*
X149101687Y-105194711D01*
X149101683Y-105194713D01*
X149091594Y-105201804D01*
X148869977Y-105357559D01*
X148855828Y-105370707D01*
X148668236Y-105545029D01*
X148659378Y-105553260D01*
X148477287Y-105775732D01*
X148327073Y-106020858D01*
X148211517Y-106284102D01*
X148132756Y-106560594D01*
X148109896Y-106721218D01*
X148095248Y-106824147D01*
X148092249Y-106845216D01*
X148092227Y-106849505D01*
X148092226Y-106849512D01*
X148091310Y-107024410D01*
X148090743Y-107132703D01*
X119784011Y-107132703D01*
X119680466Y-106932878D01*
X119668509Y-106898191D01*
X119667583Y-106893263D01*
X119436259Y-105662927D01*
X119397513Y-105456850D01*
X119395349Y-105434791D01*
X119391330Y-105020841D01*
X119381932Y-104052890D01*
X155685000Y-104052890D01*
X155685300Y-104059035D01*
X155699170Y-104200481D01*
X155701553Y-104212519D01*
X155756542Y-104394651D01*
X155761217Y-104405993D01*
X155850535Y-104573977D01*
X155857322Y-104584193D01*
X155977572Y-104731634D01*
X155986216Y-104740338D01*
X156132809Y-104861610D01*
X156142980Y-104868470D01*
X156310342Y-104958962D01*
X156321647Y-104963714D01*
X156446692Y-105002422D01*
X156460795Y-105002628D01*
X156464000Y-104995873D01*
X156464000Y-104056004D01*
X156954500Y-104056004D01*
X156969277Y-104206713D01*
X156969968Y-104209002D01*
X156972000Y-104229724D01*
X156972000Y-104988986D01*
X156975973Y-105002517D01*
X156983768Y-105003637D01*
X157100932Y-104969154D01*
X157112300Y-104964561D01*
X157280907Y-104876416D01*
X157283983Y-104874403D01*
X157285822Y-104873846D01*
X157286370Y-104873560D01*
X157286424Y-104873664D01*
X157351936Y-104853839D01*
X157412906Y-104868999D01*
X157585565Y-104962356D01*
X157682372Y-104992323D01*
X157773293Y-105020468D01*
X157773296Y-105020469D01*
X157779180Y-105022290D01*
X157785305Y-105022934D01*
X157785306Y-105022934D01*
X157974622Y-105042832D01*
X157974623Y-105042832D01*
X157980750Y-105043476D01*
X158064014Y-105035898D01*
X158176457Y-105025665D01*
X158176460Y-105025664D01*
X158182596Y-105025106D01*
X158188502Y-105023368D01*
X158188506Y-105023367D01*
X158371121Y-104969620D01*
X158371123Y-104969619D01*
X158374111Y-104968740D01*
X158377029Y-104967881D01*
X158377282Y-104968740D01*
X158442662Y-104962286D01*
X158479406Y-104975452D01*
X158486295Y-104980615D01*
X158494696Y-104983764D01*
X158494699Y-104983766D01*
X158575414Y-105014024D01*
X158622684Y-105031745D01*
X158684866Y-105038500D01*
X159831134Y-105038500D01*
X159893316Y-105031745D01*
X160029705Y-104980615D01*
X160146261Y-104893261D01*
X160233615Y-104776705D01*
X160284745Y-104640316D01*
X160291500Y-104578134D01*
X160291500Y-102981866D01*
X160284745Y-102919684D01*
X160233615Y-102783295D01*
X160146261Y-102666739D01*
X160029705Y-102579385D01*
X159893316Y-102528255D01*
X159831134Y-102521500D01*
X158684866Y-102521500D01*
X158622684Y-102528255D01*
X158606466Y-102534335D01*
X158494704Y-102576232D01*
X158494701Y-102576234D01*
X158486295Y-102579385D01*
X158479106Y-102584773D01*
X158478863Y-102584906D01*
X158409506Y-102600076D01*
X158381092Y-102594752D01*
X158372587Y-102592119D01*
X158196820Y-102537710D01*
X158190695Y-102537066D01*
X158190694Y-102537066D01*
X158001378Y-102517168D01*
X158001377Y-102517168D01*
X157995250Y-102516524D01*
X157911986Y-102524102D01*
X157799543Y-102534335D01*
X157799540Y-102534336D01*
X157793404Y-102534894D01*
X157787498Y-102536632D01*
X157787494Y-102536633D01*
X157694079Y-102564127D01*
X157598971Y-102592119D01*
X157593514Y-102594972D01*
X157593511Y-102594973D01*
X157424819Y-102683162D01*
X157424815Y-102683165D01*
X157419355Y-102686019D01*
X157419103Y-102686221D01*
X157353088Y-102706201D01*
X157292115Y-102691041D01*
X157125658Y-102601038D01*
X157114353Y-102596286D01*
X156989308Y-102557578D01*
X156975205Y-102557372D01*
X156972000Y-102564127D01*
X156972000Y-103333758D01*
X156971215Y-103347803D01*
X156954500Y-103496817D01*
X156954500Y-104056004D01*
X156464000Y-104056004D01*
X156464000Y-104052115D01*
X156459525Y-104036876D01*
X156458135Y-104035671D01*
X156450452Y-104034000D01*
X155703115Y-104034000D01*
X155687876Y-104038475D01*
X155686671Y-104039865D01*
X155685000Y-104047548D01*
X155685000Y-104052890D01*
X119381932Y-104052890D01*
X119376641Y-103507885D01*
X155685000Y-103507885D01*
X155689475Y-103523124D01*
X155690865Y-103524329D01*
X155698548Y-103526000D01*
X156445885Y-103526000D01*
X156461124Y-103521525D01*
X156462329Y-103520135D01*
X156464000Y-103512452D01*
X156464000Y-102571014D01*
X156460027Y-102557483D01*
X156452232Y-102556363D01*
X156335068Y-102590846D01*
X156323700Y-102595439D01*
X156155089Y-102683586D01*
X156144827Y-102690302D01*
X155996557Y-102809515D01*
X155987787Y-102818103D01*
X155865501Y-102963838D01*
X155858563Y-102973969D01*
X155766906Y-103140692D01*
X155762076Y-103151962D01*
X155704548Y-103333315D01*
X155701998Y-103345309D01*
X155685393Y-103493350D01*
X155685000Y-103500374D01*
X155685000Y-103507885D01*
X119376641Y-103507885D01*
X119365962Y-102407898D01*
X164094400Y-102407898D01*
X164114355Y-102635985D01*
X164115779Y-102641298D01*
X164115779Y-102641300D01*
X164160853Y-102809515D01*
X164173614Y-102857141D01*
X164175937Y-102862122D01*
X164175937Y-102862123D01*
X164268049Y-103059660D01*
X164268052Y-103059665D01*
X164270375Y-103064647D01*
X164401700Y-103252198D01*
X164563598Y-103414096D01*
X164568106Y-103417253D01*
X164568109Y-103417255D01*
X164611405Y-103447571D01*
X164751149Y-103545421D01*
X164756131Y-103547744D01*
X164756136Y-103547747D01*
X164953673Y-103639859D01*
X164958655Y-103642182D01*
X164963963Y-103643604D01*
X164963965Y-103643605D01*
X165174496Y-103700017D01*
X165174498Y-103700017D01*
X165179811Y-103701441D01*
X165407898Y-103721396D01*
X165635985Y-103701441D01*
X165641298Y-103700017D01*
X165641300Y-103700017D01*
X165851831Y-103643605D01*
X165851833Y-103643604D01*
X165857141Y-103642182D01*
X165862123Y-103639859D01*
X166059660Y-103547747D01*
X166059665Y-103547744D01*
X166064647Y-103545421D01*
X166204391Y-103447571D01*
X166247687Y-103417255D01*
X166247690Y-103417253D01*
X166252198Y-103414096D01*
X166414096Y-103252198D01*
X166545421Y-103064647D01*
X166547744Y-103059665D01*
X166547747Y-103059660D01*
X166639859Y-102862123D01*
X166639859Y-102862122D01*
X166642182Y-102857141D01*
X166654944Y-102809515D01*
X166700017Y-102641300D01*
X166700017Y-102641298D01*
X166701441Y-102635985D01*
X166721396Y-102407898D01*
X166701441Y-102179811D01*
X166663606Y-102038611D01*
X166643605Y-101963965D01*
X166643604Y-101963963D01*
X166642182Y-101958655D01*
X166639859Y-101953673D01*
X166547747Y-101756136D01*
X166547744Y-101756131D01*
X166545421Y-101751149D01*
X166414096Y-101563598D01*
X166252198Y-101401700D01*
X166247690Y-101398543D01*
X166247687Y-101398541D01*
X166122961Y-101311207D01*
X166064647Y-101270375D01*
X166059665Y-101268052D01*
X166059660Y-101268049D01*
X165862123Y-101175937D01*
X165862122Y-101175937D01*
X165857141Y-101173614D01*
X165851833Y-101172192D01*
X165851831Y-101172191D01*
X165641300Y-101115779D01*
X165641298Y-101115779D01*
X165635985Y-101114355D01*
X165407898Y-101094400D01*
X165179811Y-101114355D01*
X165174498Y-101115779D01*
X165174496Y-101115779D01*
X164963965Y-101172191D01*
X164963963Y-101172192D01*
X164958655Y-101173614D01*
X164953674Y-101175937D01*
X164953673Y-101175937D01*
X164756136Y-101268049D01*
X164756131Y-101268052D01*
X164751149Y-101270375D01*
X164692835Y-101311207D01*
X164568109Y-101398541D01*
X164568106Y-101398543D01*
X164563598Y-101401700D01*
X164401700Y-101563598D01*
X164270375Y-101751149D01*
X164268052Y-101756131D01*
X164268049Y-101756136D01*
X164175937Y-101953673D01*
X164173614Y-101958655D01*
X164172192Y-101963963D01*
X164172191Y-101963965D01*
X164152190Y-102038611D01*
X164114355Y-102179811D01*
X164094400Y-102407898D01*
X119365962Y-102407898D01*
X119342349Y-99975722D01*
X119361689Y-99907412D01*
X119414890Y-99860400D01*
X119468343Y-99848500D01*
X124288134Y-99848500D01*
X124350316Y-99841745D01*
X124486705Y-99790615D01*
X124603261Y-99703261D01*
X124690615Y-99586705D01*
X124741745Y-99450316D01*
X124748500Y-99388134D01*
X124748500Y-94704670D01*
X125644660Y-94704670D01*
X125650387Y-94712320D01*
X125821542Y-94817205D01*
X125830337Y-94821687D01*
X126040488Y-94908734D01*
X126049873Y-94911783D01*
X126271054Y-94964885D01*
X126280801Y-94966428D01*
X126507570Y-94984275D01*
X126517430Y-94984275D01*
X126744199Y-94966428D01*
X126753946Y-94964885D01*
X126975127Y-94911783D01*
X126984512Y-94908734D01*
X127194663Y-94821687D01*
X127203458Y-94817205D01*
X127370945Y-94714568D01*
X127380407Y-94704110D01*
X127376624Y-94695334D01*
X126525312Y-93844022D01*
X126511368Y-93836408D01*
X126509535Y-93836539D01*
X126502920Y-93840790D01*
X125651420Y-94692290D01*
X125644660Y-94704670D01*
X124748500Y-94704670D01*
X124748500Y-94468046D01*
X124768502Y-94399925D01*
X124822158Y-94353432D01*
X124849613Y-94345469D01*
X124850270Y-94345473D01*
X124880002Y-94336975D01*
X124896211Y-94333478D01*
X124898907Y-94333080D01*
X124926792Y-94328962D01*
X124939112Y-94323296D01*
X124948835Y-94318824D01*
X124966856Y-94312148D01*
X124981555Y-94307946D01*
X124990182Y-94305480D01*
X125016328Y-94288982D01*
X125030907Y-94281075D01*
X125050838Y-94271908D01*
X125050839Y-94271908D01*
X125058993Y-94268157D01*
X125065767Y-94262269D01*
X125073310Y-94257398D01*
X125075310Y-94260495D01*
X125124034Y-94238204D01*
X125194315Y-94248260D01*
X125249482Y-94297074D01*
X125269932Y-94330445D01*
X125280390Y-94339907D01*
X125289166Y-94336124D01*
X126140478Y-93484812D01*
X126146856Y-93473132D01*
X126876908Y-93473132D01*
X126877039Y-93474965D01*
X126881290Y-93481580D01*
X127732790Y-94333080D01*
X127745170Y-94339840D01*
X127752820Y-94334113D01*
X127857705Y-94162958D01*
X127862187Y-94154163D01*
X127949234Y-93944012D01*
X127952283Y-93934627D01*
X128005385Y-93713446D01*
X128006928Y-93703699D01*
X128024775Y-93476930D01*
X128024775Y-93467070D01*
X128006928Y-93240301D01*
X128005385Y-93230554D01*
X127952283Y-93009373D01*
X127949234Y-92999988D01*
X127862187Y-92789837D01*
X127857705Y-92781042D01*
X127755068Y-92613555D01*
X127744610Y-92604093D01*
X127735834Y-92607876D01*
X126884522Y-93459188D01*
X126876908Y-93473132D01*
X126146856Y-93473132D01*
X126148092Y-93470868D01*
X126147961Y-93469035D01*
X126143710Y-93462420D01*
X125325458Y-92644168D01*
X125291432Y-92581856D01*
X125288553Y-92555078D01*
X125288552Y-92501338D01*
X125288543Y-92239890D01*
X125644593Y-92239890D01*
X125648376Y-92248666D01*
X126499688Y-93099978D01*
X126513632Y-93107592D01*
X126515465Y-93107461D01*
X126522080Y-93103210D01*
X127373580Y-92251710D01*
X127380340Y-92239330D01*
X127374613Y-92231680D01*
X127203458Y-92126795D01*
X127194663Y-92122313D01*
X126984512Y-92035266D01*
X126975127Y-92032217D01*
X126753946Y-91979115D01*
X126744199Y-91977572D01*
X126517430Y-91959725D01*
X126507570Y-91959725D01*
X126280801Y-91977572D01*
X126271054Y-91979115D01*
X126049873Y-92032217D01*
X126040488Y-92035266D01*
X125830337Y-92122313D01*
X125821542Y-92126795D01*
X125654055Y-92229432D01*
X125644593Y-92239890D01*
X125288543Y-92239890D01*
X125288494Y-90880777D01*
X182075777Y-90880777D01*
X182085074Y-90892793D01*
X182128069Y-90922898D01*
X182137555Y-90928376D01*
X182328993Y-91017645D01*
X182339285Y-91021391D01*
X182543309Y-91076059D01*
X182554104Y-91077962D01*
X182764525Y-91096372D01*
X182775475Y-91096372D01*
X182985896Y-91077962D01*
X182996691Y-91076059D01*
X183200715Y-91021391D01*
X183211007Y-91017645D01*
X183402445Y-90928376D01*
X183411931Y-90922898D01*
X183455764Y-90892207D01*
X183464139Y-90881729D01*
X183457071Y-90868281D01*
X183220924Y-90632134D01*
X199499500Y-90632134D01*
X199506255Y-90694316D01*
X199557385Y-90830705D01*
X199644739Y-90947261D01*
X199761295Y-91034615D01*
X199897684Y-91085745D01*
X199959866Y-91092500D01*
X201580134Y-91092500D01*
X201642316Y-91085745D01*
X201778705Y-91034615D01*
X201895261Y-90947261D01*
X201982615Y-90830705D01*
X202033745Y-90694316D01*
X202040500Y-90632134D01*
X202040500Y-89011866D01*
X202033745Y-88949684D01*
X201982615Y-88813295D01*
X201895261Y-88696739D01*
X201778705Y-88609385D01*
X201642316Y-88558255D01*
X201580134Y-88551500D01*
X199959866Y-88551500D01*
X199897684Y-88558255D01*
X199761295Y-88609385D01*
X199644739Y-88696739D01*
X199557385Y-88813295D01*
X199506255Y-88949684D01*
X199499500Y-89011866D01*
X199499500Y-90632134D01*
X183220924Y-90632134D01*
X182782812Y-90194022D01*
X182768868Y-90186408D01*
X182767035Y-90186539D01*
X182760420Y-90190790D01*
X182082207Y-90869003D01*
X182075777Y-90880777D01*
X125288494Y-90880777D01*
X125288363Y-87243061D01*
X152049110Y-87243061D01*
X152053320Y-87327635D01*
X152064958Y-87561406D01*
X152065647Y-87575255D01*
X152066288Y-87578986D01*
X152066289Y-87578994D01*
X152110778Y-87837898D01*
X152121974Y-87903057D01*
X152123062Y-87906696D01*
X152123063Y-87906699D01*
X152182308Y-88104799D01*
X152217274Y-88221718D01*
X152218787Y-88225189D01*
X152218789Y-88225195D01*
X152262062Y-88324479D01*
X152350166Y-88526622D01*
X152352089Y-88529893D01*
X152352091Y-88529897D01*
X152368762Y-88558255D01*
X152518726Y-88813352D01*
X152521027Y-88816367D01*
X152718212Y-89074742D01*
X152718217Y-89074748D01*
X152720512Y-89077755D01*
X152777481Y-89136235D01*
X152869310Y-89230500D01*
X152952602Y-89316002D01*
X153211632Y-89524640D01*
X153493852Y-89700648D01*
X153795172Y-89841476D01*
X154111229Y-89945085D01*
X154437444Y-90009973D01*
X154441216Y-90010260D01*
X154441224Y-90010261D01*
X154765315Y-90034914D01*
X154765320Y-90034914D01*
X154769092Y-90035201D01*
X155101369Y-90020403D01*
X155105901Y-90019649D01*
X155425720Y-89966417D01*
X155425725Y-89966416D01*
X155429461Y-89965794D01*
X155748616Y-89872164D01*
X155752083Y-89870674D01*
X155752087Y-89870673D01*
X155852633Y-89827475D01*
X181495628Y-89827475D01*
X181514038Y-90037896D01*
X181515941Y-90048691D01*
X181570609Y-90252715D01*
X181574355Y-90263007D01*
X181663623Y-90454441D01*
X181669103Y-90463932D01*
X181699794Y-90507765D01*
X181710271Y-90516140D01*
X181723718Y-90509072D01*
X182397978Y-89834812D01*
X182404356Y-89823132D01*
X183134408Y-89823132D01*
X183134539Y-89824965D01*
X183138790Y-89831580D01*
X183817003Y-90509793D01*
X183828777Y-90516223D01*
X183840793Y-90506926D01*
X183870897Y-90463932D01*
X183876377Y-90454441D01*
X183965645Y-90263007D01*
X183969391Y-90252715D01*
X184024059Y-90048691D01*
X184025962Y-90037896D01*
X184044372Y-89827475D01*
X184044372Y-89816525D01*
X184025962Y-89606104D01*
X184024059Y-89595309D01*
X183969391Y-89391285D01*
X183965645Y-89380993D01*
X183876377Y-89189559D01*
X183870897Y-89180068D01*
X183840206Y-89136235D01*
X183829729Y-89127860D01*
X183816282Y-89134928D01*
X183142022Y-89809188D01*
X183134408Y-89823132D01*
X182404356Y-89823132D01*
X182405592Y-89820868D01*
X182405461Y-89819035D01*
X182401210Y-89812420D01*
X181722997Y-89134207D01*
X181711223Y-89127777D01*
X181699207Y-89137074D01*
X181669103Y-89180068D01*
X181663623Y-89189559D01*
X181574355Y-89380993D01*
X181570609Y-89391285D01*
X181515941Y-89595309D01*
X181514038Y-89606104D01*
X181495628Y-89816525D01*
X181495628Y-89827475D01*
X155852633Y-89827475D01*
X156050728Y-89742366D01*
X156050730Y-89742365D01*
X156054212Y-89740869D01*
X156341821Y-89573813D01*
X156344843Y-89571532D01*
X156344847Y-89571529D01*
X156604253Y-89375697D01*
X156604254Y-89375696D01*
X156607277Y-89373414D01*
X156831176Y-89157574D01*
X156844008Y-89145204D01*
X156844009Y-89145203D01*
X156846735Y-89142575D01*
X157056727Y-88884641D01*
X157133937Y-88762271D01*
X182075860Y-88762271D01*
X182082928Y-88775718D01*
X182757188Y-89449978D01*
X182771132Y-89457592D01*
X182772965Y-89457461D01*
X182779580Y-89453210D01*
X183457793Y-88774997D01*
X183464223Y-88763223D01*
X183454926Y-88751207D01*
X183411931Y-88721102D01*
X183402445Y-88715624D01*
X183211007Y-88626355D01*
X183200715Y-88622609D01*
X182996691Y-88567941D01*
X182985896Y-88566038D01*
X182775475Y-88547628D01*
X182764525Y-88547628D01*
X182554104Y-88566038D01*
X182543309Y-88567941D01*
X182339285Y-88622609D01*
X182328993Y-88626355D01*
X182137559Y-88715623D01*
X182128068Y-88721103D01*
X182084235Y-88751794D01*
X182075860Y-88762271D01*
X157133937Y-88762271D01*
X157227002Y-88614771D01*
X157232183Y-88606560D01*
X157232185Y-88606557D01*
X157234210Y-88603347D01*
X157258599Y-88551869D01*
X157357736Y-88342614D01*
X157376614Y-88302767D01*
X157481877Y-87987257D01*
X157548472Y-87661386D01*
X157575436Y-87329875D01*
X157575817Y-87293449D01*
X157576019Y-87274221D01*
X157576019Y-87274214D01*
X157576042Y-87272000D01*
X157575909Y-87269789D01*
X157575000Y-87254703D01*
X206890743Y-87254703D01*
X206891302Y-87258947D01*
X206891302Y-87258951D01*
X206900934Y-87332110D01*
X206928268Y-87539734D01*
X207004129Y-87817036D01*
X207116923Y-88081476D01*
X207128693Y-88101142D01*
X207251421Y-88306205D01*
X207264561Y-88328161D01*
X207444313Y-88552528D01*
X207652851Y-88750423D01*
X207886317Y-88918186D01*
X207890112Y-88920195D01*
X207890113Y-88920196D01*
X207911869Y-88931715D01*
X208140392Y-89052712D01*
X208164699Y-89061607D01*
X208363088Y-89134207D01*
X208410373Y-89151511D01*
X208691264Y-89212755D01*
X208719841Y-89215004D01*
X208914282Y-89230307D01*
X208914291Y-89230307D01*
X208916739Y-89230500D01*
X209072271Y-89230500D01*
X209074407Y-89230354D01*
X209074418Y-89230354D01*
X209282548Y-89216165D01*
X209282554Y-89216164D01*
X209286825Y-89215873D01*
X209291020Y-89215004D01*
X209291022Y-89215004D01*
X209459722Y-89180068D01*
X209568342Y-89157574D01*
X209839343Y-89061607D01*
X210040970Y-88957540D01*
X210091005Y-88931715D01*
X210091006Y-88931715D01*
X210094812Y-88929750D01*
X210098313Y-88927289D01*
X210098317Y-88927287D01*
X210256140Y-88816367D01*
X210330023Y-88764441D01*
X210500275Y-88606233D01*
X210537479Y-88571661D01*
X210537481Y-88571658D01*
X210540622Y-88568740D01*
X210722713Y-88346268D01*
X210872927Y-88101142D01*
X210958282Y-87906699D01*
X210986757Y-87841830D01*
X210988483Y-87837898D01*
X211067244Y-87561406D01*
X211107751Y-87276784D01*
X211107777Y-87272000D01*
X211109235Y-86993583D01*
X211109235Y-86993576D01*
X211109257Y-86989297D01*
X211071732Y-86704266D01*
X210995871Y-86426964D01*
X210932278Y-86277874D01*
X210884763Y-86166476D01*
X210884761Y-86166472D01*
X210883077Y-86162524D01*
X210778868Y-85988404D01*
X210737643Y-85919521D01*
X210737640Y-85919517D01*
X210735439Y-85915839D01*
X210555687Y-85691472D01*
X210347149Y-85493577D01*
X210113683Y-85325814D01*
X210091843Y-85314250D01*
X209983716Y-85257000D01*
X209859608Y-85191288D01*
X209589627Y-85092489D01*
X209308736Y-85031245D01*
X209277685Y-85028801D01*
X209085718Y-85013693D01*
X209085709Y-85013693D01*
X209083261Y-85013500D01*
X208927729Y-85013500D01*
X208925593Y-85013646D01*
X208925582Y-85013646D01*
X208717452Y-85027835D01*
X208717446Y-85027836D01*
X208713175Y-85028127D01*
X208708980Y-85028996D01*
X208708978Y-85028996D01*
X208572416Y-85057277D01*
X208431658Y-85086426D01*
X208160657Y-85182393D01*
X207905188Y-85314250D01*
X207901687Y-85316711D01*
X207901683Y-85316713D01*
X207891594Y-85323804D01*
X207669977Y-85479559D01*
X207654892Y-85493577D01*
X207496595Y-85640676D01*
X207459378Y-85675260D01*
X207277287Y-85897732D01*
X207127073Y-86142858D01*
X207125347Y-86146791D01*
X207125346Y-86146792D01*
X207070107Y-86272631D01*
X207011517Y-86406102D01*
X206932756Y-86682594D01*
X206929672Y-86704266D01*
X206895586Y-86943772D01*
X206892249Y-86967216D01*
X206892227Y-86971505D01*
X206892226Y-86971512D01*
X206890804Y-87243061D01*
X206890743Y-87254703D01*
X157575000Y-87254703D01*
X157556255Y-86943772D01*
X157556254Y-86943765D01*
X157556027Y-86939997D01*
X157509016Y-86682594D01*
X157496951Y-86616530D01*
X157496950Y-86616525D01*
X157496270Y-86612803D01*
X157397639Y-86295157D01*
X157261561Y-85991662D01*
X157157170Y-85818270D01*
X157151992Y-85809669D01*
X181500001Y-85809669D01*
X181500371Y-85816490D01*
X181505895Y-85867352D01*
X181509521Y-85882604D01*
X181554676Y-86003054D01*
X181563214Y-86018649D01*
X181639715Y-86120724D01*
X181652276Y-86133285D01*
X181754351Y-86209786D01*
X181769946Y-86218324D01*
X181890394Y-86263478D01*
X181905649Y-86267105D01*
X181956514Y-86272631D01*
X181963328Y-86273000D01*
X182497885Y-86273000D01*
X182513124Y-86268525D01*
X182514329Y-86267135D01*
X182516000Y-86259452D01*
X182516000Y-86254884D01*
X183024000Y-86254884D01*
X183028475Y-86270123D01*
X183029865Y-86271328D01*
X183037548Y-86272999D01*
X183576669Y-86272999D01*
X183583490Y-86272629D01*
X183634352Y-86267105D01*
X183649604Y-86263479D01*
X183770054Y-86218324D01*
X183785649Y-86209786D01*
X183887724Y-86133285D01*
X183900285Y-86120724D01*
X183976786Y-86018649D01*
X183985324Y-86003054D01*
X184030478Y-85882606D01*
X184034105Y-85867351D01*
X184039631Y-85816486D01*
X184040000Y-85809672D01*
X184040000Y-85275115D01*
X184035525Y-85259876D01*
X184034135Y-85258671D01*
X184026452Y-85257000D01*
X183042115Y-85257000D01*
X183026876Y-85261475D01*
X183025671Y-85262865D01*
X183024000Y-85270548D01*
X183024000Y-86254884D01*
X182516000Y-86254884D01*
X182516000Y-85275115D01*
X182511525Y-85259876D01*
X182510135Y-85258671D01*
X182502452Y-85257000D01*
X181518116Y-85257000D01*
X181502877Y-85261475D01*
X181501672Y-85262865D01*
X181500001Y-85270548D01*
X181500001Y-85809669D01*
X157151992Y-85809669D01*
X157091966Y-85709966D01*
X157091962Y-85709960D01*
X157090007Y-85706713D01*
X157087680Y-85703729D01*
X157087675Y-85703722D01*
X156887794Y-85447425D01*
X156887788Y-85447418D01*
X156885463Y-85444437D01*
X156650892Y-85208634D01*
X156390046Y-85003000D01*
X199494647Y-85003000D01*
X199514022Y-85224463D01*
X199571560Y-85439196D01*
X199573882Y-85444177D01*
X199573883Y-85444178D01*
X199663186Y-85635689D01*
X199663189Y-85635694D01*
X199665512Y-85640676D01*
X199668668Y-85645183D01*
X199668669Y-85645185D01*
X199703420Y-85694814D01*
X199793023Y-85822781D01*
X199950219Y-85979977D01*
X199954727Y-85983134D01*
X199954730Y-85983136D01*
X199971861Y-85995131D01*
X200132323Y-86107488D01*
X200137305Y-86109811D01*
X200137310Y-86109814D01*
X200242441Y-86158837D01*
X200333804Y-86201440D01*
X200339112Y-86202862D01*
X200339114Y-86202863D01*
X200364951Y-86209786D01*
X200548537Y-86258978D01*
X200770000Y-86278353D01*
X200991463Y-86258978D01*
X201175049Y-86209786D01*
X201200886Y-86202863D01*
X201200888Y-86202862D01*
X201206196Y-86201440D01*
X201297559Y-86158837D01*
X201402690Y-86109814D01*
X201402695Y-86109811D01*
X201407677Y-86107488D01*
X201568139Y-85995131D01*
X201585270Y-85983136D01*
X201585273Y-85983134D01*
X201589781Y-85979977D01*
X201746977Y-85822781D01*
X201836581Y-85694814D01*
X201871331Y-85645185D01*
X201871332Y-85645183D01*
X201874488Y-85640676D01*
X201876811Y-85635694D01*
X201876814Y-85635689D01*
X201966117Y-85444178D01*
X201966118Y-85444177D01*
X201968440Y-85439196D01*
X202025978Y-85224463D01*
X202045353Y-85003000D01*
X202025978Y-84781537D01*
X201974928Y-84591017D01*
X201969863Y-84572114D01*
X201969862Y-84572112D01*
X201968440Y-84566804D01*
X201966117Y-84561822D01*
X201876814Y-84370311D01*
X201876811Y-84370306D01*
X201874488Y-84365324D01*
X201746977Y-84183219D01*
X201589781Y-84026023D01*
X201585273Y-84022866D01*
X201585270Y-84022864D01*
X201509505Y-83969813D01*
X201407677Y-83898512D01*
X201402695Y-83896189D01*
X201402690Y-83896186D01*
X201211178Y-83806883D01*
X201211177Y-83806882D01*
X201206196Y-83804560D01*
X201200888Y-83803138D01*
X201200886Y-83803137D01*
X201135051Y-83785497D01*
X200991463Y-83747022D01*
X200770000Y-83727647D01*
X200548537Y-83747022D01*
X200404949Y-83785497D01*
X200339114Y-83803137D01*
X200339112Y-83803138D01*
X200333804Y-83804560D01*
X200328823Y-83806882D01*
X200328822Y-83806883D01*
X200137311Y-83896186D01*
X200137306Y-83896189D01*
X200132324Y-83898512D01*
X200127817Y-83901668D01*
X200127815Y-83901669D01*
X199954730Y-84022864D01*
X199954727Y-84022866D01*
X199950219Y-84026023D01*
X199793023Y-84183219D01*
X199665512Y-84365324D01*
X199663189Y-84370306D01*
X199663186Y-84370311D01*
X199573883Y-84561822D01*
X199571560Y-84566804D01*
X199570138Y-84572112D01*
X199570137Y-84572114D01*
X199565072Y-84591017D01*
X199514022Y-84781537D01*
X199494647Y-85003000D01*
X156390046Y-85003000D01*
X156389691Y-85002720D01*
X156105644Y-84829677D01*
X155915306Y-84743135D01*
X155888364Y-84730885D01*
X181500000Y-84730885D01*
X181504475Y-84746124D01*
X181505865Y-84747329D01*
X181513548Y-84749000D01*
X182497885Y-84749000D01*
X182513124Y-84744525D01*
X182514329Y-84743135D01*
X182516000Y-84735452D01*
X182516000Y-84730885D01*
X183024000Y-84730885D01*
X183028475Y-84746124D01*
X183029865Y-84747329D01*
X183037548Y-84749000D01*
X184021884Y-84749000D01*
X184037123Y-84744525D01*
X184038328Y-84743135D01*
X184039999Y-84735452D01*
X184039999Y-84196331D01*
X184039629Y-84189510D01*
X184034105Y-84138648D01*
X184030479Y-84123396D01*
X183985324Y-84002946D01*
X183976786Y-83987351D01*
X183900285Y-83885276D01*
X183887724Y-83872715D01*
X183785649Y-83796214D01*
X183770054Y-83787676D01*
X183649606Y-83742522D01*
X183634351Y-83738895D01*
X183583486Y-83733369D01*
X183576672Y-83733000D01*
X183042115Y-83733000D01*
X183026876Y-83737475D01*
X183025671Y-83738865D01*
X183024000Y-83746548D01*
X183024000Y-84730885D01*
X182516000Y-84730885D01*
X182516000Y-83751116D01*
X182511525Y-83735877D01*
X182510135Y-83734672D01*
X182502452Y-83733001D01*
X181963331Y-83733001D01*
X181956510Y-83733371D01*
X181905648Y-83738895D01*
X181890396Y-83742521D01*
X181769946Y-83787676D01*
X181754351Y-83796214D01*
X181652276Y-83872715D01*
X181639715Y-83885276D01*
X181563214Y-83987351D01*
X181554676Y-84002946D01*
X181509522Y-84123394D01*
X181505895Y-84138649D01*
X181500369Y-84189514D01*
X181500000Y-84196328D01*
X181500000Y-84730885D01*
X155888364Y-84730885D01*
X155806317Y-84693580D01*
X155806309Y-84693577D01*
X155802865Y-84692011D01*
X155485740Y-84591718D01*
X155263396Y-84549906D01*
X155162587Y-84530949D01*
X155162585Y-84530949D01*
X155158864Y-84530249D01*
X154826970Y-84508496D01*
X154823190Y-84508704D01*
X154823189Y-84508704D01*
X154725418Y-84514085D01*
X154494866Y-84526773D01*
X154491139Y-84527434D01*
X154491135Y-84527434D01*
X154297102Y-84561822D01*
X154167364Y-84584815D01*
X154163739Y-84585920D01*
X154163734Y-84585921D01*
X153956183Y-84649178D01*
X153849207Y-84681782D01*
X153845743Y-84683313D01*
X153845736Y-84683316D01*
X153658551Y-84766070D01*
X153545003Y-84816269D01*
X153541749Y-84818205D01*
X153541743Y-84818208D01*
X153262418Y-84984389D01*
X153259159Y-84986328D01*
X153256158Y-84988643D01*
X153256154Y-84988646D01*
X153240472Y-85000745D01*
X152995816Y-85189496D01*
X152993117Y-85192152D01*
X152993118Y-85192152D01*
X152871083Y-85312285D01*
X152758788Y-85422829D01*
X152551509Y-85682949D01*
X152376981Y-85966086D01*
X152237732Y-86268140D01*
X152236573Y-86271740D01*
X152236570Y-86271747D01*
X152136942Y-86581126D01*
X152135780Y-86584735D01*
X152135061Y-86588451D01*
X152135059Y-86588459D01*
X152112653Y-86704266D01*
X152072600Y-86911285D01*
X152072333Y-86915061D01*
X152072332Y-86915066D01*
X152066773Y-86993583D01*
X152049110Y-87243061D01*
X125288363Y-87243061D01*
X125288219Y-83253621D01*
X207335933Y-83253621D01*
X207345227Y-83265635D01*
X207379146Y-83289385D01*
X207388641Y-83294868D01*
X207573413Y-83381028D01*
X207583705Y-83384774D01*
X207780632Y-83437540D01*
X207791425Y-83439443D01*
X207994525Y-83457212D01*
X208005475Y-83457212D01*
X208208575Y-83439443D01*
X208219368Y-83437540D01*
X208416295Y-83384774D01*
X208426587Y-83381028D01*
X208611359Y-83294868D01*
X208620854Y-83289385D01*
X208655607Y-83265051D01*
X208663983Y-83254572D01*
X208656916Y-83241127D01*
X208012811Y-82597021D01*
X207998868Y-82589408D01*
X207997034Y-82589539D01*
X207990420Y-82593790D01*
X207342360Y-83241851D01*
X207335933Y-83253621D01*
X125288219Y-83253621D01*
X125288194Y-82572652D01*
X182061524Y-82572652D01*
X182063990Y-82581281D01*
X182063991Y-82581286D01*
X182069639Y-82601048D01*
X182073217Y-82617809D01*
X182076130Y-82638152D01*
X182076133Y-82638162D01*
X182077405Y-82647045D01*
X182088021Y-82670395D01*
X182094464Y-82687907D01*
X182101512Y-82712565D01*
X182117274Y-82737548D01*
X182125404Y-82752614D01*
X182137633Y-82779510D01*
X182154374Y-82798939D01*
X182165479Y-82813947D01*
X182179160Y-82835631D01*
X182185888Y-82841573D01*
X182201296Y-82855181D01*
X182213340Y-82867373D01*
X182232619Y-82889747D01*
X182240147Y-82894626D01*
X182240150Y-82894629D01*
X182254139Y-82903696D01*
X182269013Y-82914986D01*
X182288228Y-82931956D01*
X182296354Y-82935771D01*
X182296355Y-82935772D01*
X182302021Y-82938432D01*
X182314966Y-82944510D01*
X182329935Y-82952824D01*
X182354727Y-82968893D01*
X182371650Y-82973954D01*
X182379290Y-82976239D01*
X182396736Y-82982901D01*
X182419948Y-82993799D01*
X182449130Y-82998343D01*
X182465849Y-83002126D01*
X182485536Y-83008014D01*
X182485539Y-83008015D01*
X182494141Y-83010587D01*
X182503116Y-83010642D01*
X182503117Y-83010642D01*
X182509810Y-83010683D01*
X182528556Y-83010797D01*
X182529328Y-83010830D01*
X182530423Y-83011000D01*
X182561298Y-83011000D01*
X182562068Y-83011002D01*
X182635716Y-83011452D01*
X182635717Y-83011452D01*
X182639652Y-83011476D01*
X182640996Y-83011092D01*
X182642341Y-83011000D01*
X200961298Y-83011000D01*
X200962069Y-83011002D01*
X201039652Y-83011476D01*
X201048281Y-83009010D01*
X201048286Y-83009009D01*
X201068048Y-83003361D01*
X201084809Y-82999783D01*
X201105152Y-82996870D01*
X201105162Y-82996867D01*
X201114045Y-82995595D01*
X201137395Y-82984979D01*
X201154907Y-82978536D01*
X201170937Y-82973954D01*
X201179565Y-82971488D01*
X201204548Y-82955726D01*
X201219614Y-82947596D01*
X201246510Y-82935367D01*
X201265939Y-82918626D01*
X201280947Y-82907521D01*
X201295039Y-82898630D01*
X201302631Y-82893840D01*
X201322182Y-82871703D01*
X201334374Y-82859659D01*
X201349949Y-82846239D01*
X201349950Y-82846237D01*
X201356747Y-82840381D01*
X201361626Y-82832853D01*
X201361629Y-82832850D01*
X201370696Y-82818861D01*
X201381986Y-82803987D01*
X201393012Y-82791502D01*
X201398956Y-82784772D01*
X201411510Y-82758034D01*
X201419824Y-82743065D01*
X201435893Y-82718273D01*
X201443239Y-82693709D01*
X201449901Y-82676264D01*
X201456983Y-82661179D01*
X201460799Y-82653052D01*
X201465343Y-82623870D01*
X201469126Y-82607151D01*
X201475014Y-82587464D01*
X201475015Y-82587461D01*
X201477587Y-82578859D01*
X201477797Y-82544444D01*
X201477830Y-82543672D01*
X201478000Y-82542577D01*
X201478000Y-82511702D01*
X201478002Y-82510932D01*
X201478452Y-82437284D01*
X201478452Y-82437283D01*
X201478476Y-82433348D01*
X201478092Y-82432004D01*
X201478000Y-82430659D01*
X201478000Y-82230475D01*
X206767788Y-82230475D01*
X206785557Y-82433575D01*
X206787460Y-82444368D01*
X206840226Y-82641295D01*
X206843972Y-82651587D01*
X206930135Y-82836364D01*
X206935613Y-82845850D01*
X206959949Y-82880607D01*
X206970428Y-82888983D01*
X206983872Y-82881917D01*
X207627979Y-82237811D01*
X207634356Y-82226132D01*
X208364408Y-82226132D01*
X208364539Y-82227966D01*
X208368790Y-82234580D01*
X209016851Y-82882640D01*
X209028621Y-82889067D01*
X209040635Y-82879772D01*
X209064387Y-82845850D01*
X209069865Y-82836364D01*
X209156028Y-82651587D01*
X209159774Y-82641295D01*
X209212540Y-82444368D01*
X209214443Y-82433575D01*
X209232212Y-82230475D01*
X209232212Y-82219525D01*
X209214443Y-82016425D01*
X209212540Y-82005632D01*
X209159774Y-81808705D01*
X209156028Y-81798413D01*
X209069865Y-81613636D01*
X209064387Y-81604150D01*
X209040051Y-81569393D01*
X209029572Y-81561017D01*
X209016128Y-81568083D01*
X208372021Y-82212189D01*
X208364408Y-82226132D01*
X207634356Y-82226132D01*
X207635592Y-82223868D01*
X207635461Y-82222034D01*
X207631210Y-82215420D01*
X206983149Y-81567360D01*
X206971379Y-81560933D01*
X206959365Y-81570228D01*
X206935613Y-81604150D01*
X206930135Y-81613636D01*
X206843972Y-81798413D01*
X206840226Y-81808705D01*
X206787460Y-82005632D01*
X206785557Y-82016425D01*
X206767788Y-82219525D01*
X206767788Y-82230475D01*
X201478000Y-82230475D01*
X201478000Y-81195428D01*
X207336017Y-81195428D01*
X207343083Y-81208872D01*
X207987189Y-81852979D01*
X208001132Y-81860592D01*
X208002966Y-81860461D01*
X208009580Y-81856210D01*
X208657640Y-81208149D01*
X208664067Y-81196379D01*
X208654773Y-81184365D01*
X208620854Y-81160615D01*
X208611359Y-81155132D01*
X208426587Y-81068972D01*
X208416295Y-81065226D01*
X208219368Y-81012460D01*
X208208575Y-81010557D01*
X208005475Y-80992788D01*
X207994525Y-80992788D01*
X207791425Y-81010557D01*
X207780632Y-81012460D01*
X207583705Y-81065226D01*
X207573413Y-81068972D01*
X207388636Y-81155135D01*
X207379150Y-81160613D01*
X207344393Y-81184949D01*
X207336017Y-81195428D01*
X201478000Y-81195428D01*
X201478000Y-80713621D01*
X204795933Y-80713621D01*
X204805227Y-80725635D01*
X204839146Y-80749385D01*
X204848641Y-80754868D01*
X205033413Y-80841028D01*
X205043705Y-80844774D01*
X205240632Y-80897540D01*
X205251425Y-80899443D01*
X205454525Y-80917212D01*
X205465475Y-80917212D01*
X205668575Y-80899443D01*
X205679368Y-80897540D01*
X205876295Y-80844774D01*
X205886587Y-80841028D01*
X206071359Y-80754868D01*
X206080854Y-80749385D01*
X206115607Y-80725051D01*
X206123983Y-80714572D01*
X206116916Y-80701127D01*
X205472811Y-80057021D01*
X205458868Y-80049408D01*
X205457034Y-80049539D01*
X205450420Y-80053790D01*
X204802360Y-80701851D01*
X204795933Y-80713621D01*
X201478000Y-80713621D01*
X201478000Y-79690475D01*
X204227788Y-79690475D01*
X204245557Y-79893575D01*
X204247460Y-79904368D01*
X204300226Y-80101295D01*
X204303972Y-80111587D01*
X204390135Y-80296364D01*
X204395613Y-80305850D01*
X204419949Y-80340607D01*
X204430428Y-80348983D01*
X204443872Y-80341917D01*
X205087979Y-79697811D01*
X205094356Y-79686132D01*
X205824408Y-79686132D01*
X205824539Y-79687966D01*
X205828790Y-79694580D01*
X206476851Y-80342640D01*
X206488621Y-80349067D01*
X206500635Y-80339772D01*
X206524387Y-80305850D01*
X206529865Y-80296364D01*
X206616028Y-80111587D01*
X206619774Y-80101295D01*
X206672540Y-79904368D01*
X206674443Y-79893575D01*
X206692212Y-79690475D01*
X206692212Y-79679525D01*
X206674443Y-79476425D01*
X206672540Y-79465632D01*
X206619774Y-79268705D01*
X206616028Y-79258413D01*
X206529865Y-79073636D01*
X206524387Y-79064150D01*
X206500051Y-79029393D01*
X206489572Y-79021017D01*
X206476128Y-79028083D01*
X205832021Y-79672189D01*
X205824408Y-79686132D01*
X205094356Y-79686132D01*
X205095592Y-79683868D01*
X205095461Y-79682034D01*
X205091210Y-79675420D01*
X204443149Y-79027360D01*
X204431379Y-79020933D01*
X204419365Y-79030228D01*
X204395613Y-79064150D01*
X204390135Y-79073636D01*
X204303972Y-79258413D01*
X204300226Y-79268705D01*
X204247460Y-79465632D01*
X204245557Y-79476425D01*
X204227788Y-79679525D01*
X204227788Y-79690475D01*
X201478000Y-79690475D01*
X201478000Y-78655428D01*
X204796017Y-78655428D01*
X204803083Y-78668872D01*
X205447189Y-79312979D01*
X205461132Y-79320592D01*
X205462966Y-79320461D01*
X205469580Y-79316210D01*
X206117640Y-78668149D01*
X206124067Y-78656379D01*
X206114773Y-78644365D01*
X206080854Y-78620615D01*
X206071359Y-78615132D01*
X205886587Y-78528972D01*
X205876295Y-78525226D01*
X205679368Y-78472460D01*
X205668575Y-78470557D01*
X205465475Y-78452788D01*
X205454525Y-78452788D01*
X205251425Y-78470557D01*
X205240632Y-78472460D01*
X205043705Y-78525226D01*
X205033413Y-78528972D01*
X204848636Y-78615135D01*
X204839150Y-78620613D01*
X204804393Y-78644949D01*
X204796017Y-78655428D01*
X201478000Y-78655428D01*
X201478000Y-70772341D01*
X206199197Y-70772341D01*
X206199329Y-70774177D01*
X206203578Y-70780789D01*
X206682374Y-71259585D01*
X206687458Y-71264147D01*
X206727331Y-71296207D01*
X206740681Y-71304429D01*
X206857786Y-71357673D01*
X206874841Y-71362660D01*
X207001111Y-71380743D01*
X207018889Y-71380743D01*
X207145159Y-71362660D01*
X207162214Y-71357673D01*
X207279323Y-71304427D01*
X207292667Y-71296210D01*
X207332544Y-71264147D01*
X207337622Y-71259591D01*
X207813189Y-70784024D01*
X207820803Y-70770080D01*
X207820672Y-70768245D01*
X207816424Y-70761635D01*
X207022811Y-69968021D01*
X207008868Y-69960408D01*
X207007034Y-69960539D01*
X207000420Y-69964790D01*
X206206808Y-70758403D01*
X206199197Y-70772341D01*
X201478000Y-70772341D01*
X201478000Y-67765418D01*
X203801044Y-67765418D01*
X203801341Y-67770571D01*
X203801341Y-67770574D01*
X203810458Y-67928701D01*
X203814376Y-67996646D01*
X203815513Y-68001692D01*
X203815514Y-68001698D01*
X203839583Y-68108500D01*
X203865295Y-68222591D01*
X203867237Y-68227373D01*
X203867238Y-68227377D01*
X203946839Y-68423410D01*
X203952433Y-68437186D01*
X204073450Y-68634668D01*
X204225096Y-68809733D01*
X204403298Y-68957679D01*
X204603271Y-69074533D01*
X204608096Y-69076375D01*
X204608097Y-69076376D01*
X204663952Y-69097705D01*
X204819643Y-69157158D01*
X204824709Y-69158189D01*
X204824710Y-69158189D01*
X204877795Y-69168989D01*
X205046605Y-69203334D01*
X205164640Y-69207662D01*
X205231982Y-69230146D01*
X205276478Y-69285470D01*
X205284000Y-69356067D01*
X205274724Y-69385727D01*
X205248328Y-69443783D01*
X205243340Y-69460841D01*
X205225257Y-69587111D01*
X205225257Y-69604889D01*
X205243340Y-69731159D01*
X205248327Y-69748214D01*
X205301573Y-69865323D01*
X205309790Y-69878667D01*
X205341853Y-69918544D01*
X205346409Y-69923622D01*
X205821976Y-70399189D01*
X205835920Y-70406803D01*
X205837753Y-70406672D01*
X205844368Y-70402421D01*
X206649658Y-69597132D01*
X207374408Y-69597132D01*
X207374539Y-69598966D01*
X207378790Y-69605580D01*
X208172403Y-70399192D01*
X208186341Y-70406803D01*
X208188177Y-70406671D01*
X208194789Y-70402422D01*
X208673585Y-69923626D01*
X208678147Y-69918542D01*
X208710207Y-69878669D01*
X208718429Y-69865319D01*
X208771673Y-69748214D01*
X208776660Y-69731159D01*
X208794743Y-69604889D01*
X208794743Y-69587111D01*
X208776660Y-69460841D01*
X208771673Y-69443786D01*
X208718427Y-69326677D01*
X208710210Y-69313333D01*
X208678147Y-69273456D01*
X208673591Y-69268378D01*
X208198024Y-68792811D01*
X208184080Y-68785197D01*
X208182245Y-68785328D01*
X208175635Y-68789576D01*
X207382021Y-69583189D01*
X207374408Y-69597132D01*
X206649658Y-69597132D01*
X207010000Y-69236790D01*
X207813190Y-68433599D01*
X207820802Y-68419658D01*
X207820671Y-68417823D01*
X207816420Y-68411209D01*
X207337626Y-67932415D01*
X207332542Y-67927853D01*
X207292669Y-67895793D01*
X207279319Y-67887571D01*
X207162214Y-67834327D01*
X207145159Y-67829340D01*
X207018889Y-67811257D01*
X207001111Y-67811257D01*
X206874841Y-67829340D01*
X206857782Y-67834328D01*
X206801356Y-67859983D01*
X206731065Y-67869969D01*
X206666534Y-67840368D01*
X206628250Y-67780577D01*
X206623630Y-67755606D01*
X206623405Y-67752866D01*
X206608298Y-67569116D01*
X206576450Y-67442322D01*
X206553133Y-67349493D01*
X206553132Y-67349489D01*
X206551874Y-67344482D01*
X206549815Y-67339746D01*
X206461579Y-67136817D01*
X206461577Y-67136814D01*
X206459519Y-67132080D01*
X206333713Y-66937614D01*
X206177836Y-66766307D01*
X206173785Y-66763108D01*
X206173781Y-66763104D01*
X206000126Y-66625960D01*
X206000121Y-66625957D01*
X205996072Y-66622759D01*
X205991556Y-66620266D01*
X205991553Y-66620264D01*
X205797828Y-66513322D01*
X205797824Y-66513320D01*
X205793304Y-66510825D01*
X205788435Y-66509101D01*
X205788431Y-66509099D01*
X205579852Y-66435237D01*
X205579848Y-66435236D01*
X205574977Y-66433511D01*
X205569884Y-66432604D01*
X205569881Y-66432603D01*
X205352044Y-66393800D01*
X205352038Y-66393799D01*
X205346955Y-66392894D01*
X205274045Y-66392003D01*
X205120530Y-66390128D01*
X205120528Y-66390128D01*
X205115360Y-66390065D01*
X204886413Y-66425099D01*
X204666263Y-66497055D01*
X204661675Y-66499443D01*
X204661671Y-66499445D01*
X204480054Y-66593989D01*
X204460821Y-66604001D01*
X204456688Y-66607104D01*
X204456685Y-66607106D01*
X204317286Y-66711770D01*
X204275604Y-66743066D01*
X204115588Y-66910513D01*
X204112674Y-66914785D01*
X204112673Y-66914786D01*
X204058263Y-66994548D01*
X203985068Y-67101848D01*
X203887551Y-67311930D01*
X203825656Y-67535118D01*
X203801044Y-67765418D01*
X201478000Y-67765418D01*
X201478000Y-67511702D01*
X201478002Y-67510932D01*
X201478421Y-67442322D01*
X201478476Y-67433348D01*
X201476010Y-67424719D01*
X201476009Y-67424714D01*
X201470361Y-67404952D01*
X201466783Y-67388191D01*
X201463870Y-67367848D01*
X201463867Y-67367838D01*
X201462595Y-67358955D01*
X201451979Y-67335605D01*
X201445536Y-67318093D01*
X201440954Y-67302063D01*
X201438488Y-67293435D01*
X201422726Y-67268452D01*
X201414596Y-67253386D01*
X201402367Y-67226490D01*
X201385626Y-67207061D01*
X201374521Y-67192053D01*
X201365630Y-67177961D01*
X201360840Y-67170369D01*
X201338703Y-67150818D01*
X201326659Y-67138626D01*
X201313239Y-67123051D01*
X201313237Y-67123050D01*
X201307381Y-67116253D01*
X201299853Y-67111374D01*
X201299850Y-67111371D01*
X201285861Y-67102304D01*
X201270987Y-67091014D01*
X201258502Y-67079988D01*
X201251772Y-67074044D01*
X201243646Y-67070229D01*
X201243645Y-67070228D01*
X201237979Y-67067568D01*
X201225034Y-67061490D01*
X201210065Y-67053176D01*
X201185273Y-67037107D01*
X201160709Y-67029761D01*
X201143264Y-67023099D01*
X201138827Y-67021016D01*
X201120052Y-67012201D01*
X201090870Y-67007657D01*
X201074151Y-67003874D01*
X201054464Y-66997986D01*
X201054461Y-66997985D01*
X201045859Y-66995413D01*
X201036884Y-66995358D01*
X201036883Y-66995358D01*
X201030190Y-66995317D01*
X201011444Y-66995203D01*
X201010672Y-66995170D01*
X201009577Y-66995000D01*
X200978702Y-66995000D01*
X200977932Y-66994998D01*
X200904284Y-66994548D01*
X200904283Y-66994548D01*
X200900348Y-66994524D01*
X200899004Y-66994908D01*
X200897659Y-66995000D01*
X182578702Y-66995000D01*
X182577932Y-66994998D01*
X182577078Y-66994993D01*
X182500348Y-66994524D01*
X182491719Y-66996990D01*
X182491714Y-66996991D01*
X182471952Y-67002639D01*
X182455191Y-67006217D01*
X182434848Y-67009130D01*
X182434838Y-67009133D01*
X182425955Y-67010405D01*
X182402605Y-67021021D01*
X182385093Y-67027464D01*
X182377057Y-67029761D01*
X182360435Y-67034512D01*
X182335452Y-67050274D01*
X182320386Y-67058404D01*
X182293490Y-67070633D01*
X182274061Y-67087374D01*
X182259053Y-67098479D01*
X182237369Y-67112160D01*
X182231427Y-67118888D01*
X182217819Y-67134296D01*
X182205627Y-67146340D01*
X182183253Y-67165619D01*
X182178374Y-67173147D01*
X182178371Y-67173150D01*
X182169304Y-67187139D01*
X182158014Y-67202013D01*
X182154351Y-67206161D01*
X182141044Y-67221228D01*
X182128490Y-67247966D01*
X182120176Y-67262935D01*
X182104107Y-67287727D01*
X182101535Y-67296327D01*
X182096761Y-67312290D01*
X182090099Y-67329736D01*
X182079201Y-67352948D01*
X182076541Y-67370032D01*
X182074658Y-67382128D01*
X182070874Y-67398849D01*
X182064986Y-67418536D01*
X182064985Y-67418539D01*
X182062413Y-67427141D01*
X182062358Y-67436116D01*
X182062358Y-67436117D01*
X182062203Y-67461546D01*
X182062170Y-67462328D01*
X182062000Y-67463423D01*
X182062000Y-67494298D01*
X182061998Y-67495068D01*
X182061524Y-67572652D01*
X182061908Y-67573996D01*
X182062000Y-67575341D01*
X182062000Y-82494298D01*
X182061998Y-82495068D01*
X182061524Y-82572652D01*
X125288194Y-82572652D01*
X125288188Y-82401795D01*
X125308188Y-82333673D01*
X125361842Y-82287178D01*
X125427795Y-82276527D01*
X125464366Y-82280500D01*
X127560634Y-82280500D01*
X127622816Y-82273745D01*
X127759205Y-82222615D01*
X127875761Y-82135261D01*
X127963115Y-82018705D01*
X128014245Y-81882316D01*
X128021000Y-81820134D01*
X128021000Y-79723866D01*
X128014245Y-79661684D01*
X127963115Y-79525295D01*
X127875761Y-79408739D01*
X127759205Y-79321385D01*
X127622816Y-79270255D01*
X127560634Y-79263500D01*
X125464366Y-79263500D01*
X125402184Y-79270255D01*
X125265795Y-79321385D01*
X125149239Y-79408739D01*
X125061885Y-79525295D01*
X125010755Y-79661684D01*
X125004000Y-79723866D01*
X125004000Y-80262279D01*
X124983998Y-80330400D01*
X124930342Y-80376893D01*
X124861145Y-80386646D01*
X124855974Y-80385100D01*
X124853096Y-80385083D01*
X124791462Y-80356523D01*
X124753409Y-80296585D01*
X124748500Y-80261756D01*
X124748500Y-75211866D01*
X124741745Y-75149684D01*
X124690615Y-75013295D01*
X124603261Y-74896739D01*
X124486705Y-74809385D01*
X124350316Y-74758255D01*
X124288134Y-74751500D01*
X119469135Y-74751500D01*
X119401014Y-74731498D01*
X119354521Y-74677842D01*
X119343141Y-74624277D01*
X119351757Y-73736873D01*
X119363823Y-72494000D01*
X125176647Y-72494000D01*
X125196022Y-72715463D01*
X125253560Y-72930196D01*
X125255882Y-72935177D01*
X125255883Y-72935178D01*
X125345186Y-73126689D01*
X125345189Y-73126694D01*
X125347512Y-73131676D01*
X125350668Y-73136183D01*
X125350669Y-73136185D01*
X125468291Y-73304166D01*
X125475023Y-73313781D01*
X125632219Y-73470977D01*
X125636727Y-73474134D01*
X125636730Y-73474136D01*
X125673868Y-73500140D01*
X125814323Y-73598488D01*
X125819305Y-73600811D01*
X125819310Y-73600814D01*
X125986930Y-73678976D01*
X126015804Y-73692440D01*
X126021112Y-73693862D01*
X126021114Y-73693863D01*
X126086949Y-73711503D01*
X126230537Y-73749978D01*
X126452000Y-73769353D01*
X126673463Y-73749978D01*
X126817051Y-73711503D01*
X126882886Y-73693863D01*
X126882888Y-73693862D01*
X126888196Y-73692440D01*
X126917070Y-73678976D01*
X127084690Y-73600814D01*
X127084695Y-73600811D01*
X127089677Y-73598488D01*
X127230132Y-73500140D01*
X127267270Y-73474136D01*
X127267273Y-73474134D01*
X127271781Y-73470977D01*
X127428977Y-73313781D01*
X127435710Y-73304166D01*
X127553331Y-73136185D01*
X127553332Y-73136183D01*
X127556488Y-73131676D01*
X127558811Y-73126694D01*
X127558814Y-73126689D01*
X127648117Y-72935178D01*
X127648118Y-72935177D01*
X127650440Y-72930196D01*
X127707978Y-72715463D01*
X127727353Y-72494000D01*
X128224647Y-72494000D01*
X128244022Y-72715463D01*
X128301560Y-72930196D01*
X128303882Y-72935177D01*
X128303883Y-72935178D01*
X128393186Y-73126689D01*
X128393189Y-73126694D01*
X128395512Y-73131676D01*
X128398668Y-73136183D01*
X128398669Y-73136185D01*
X128516291Y-73304166D01*
X128523023Y-73313781D01*
X128680219Y-73470977D01*
X128684727Y-73474134D01*
X128684730Y-73474136D01*
X128721868Y-73500140D01*
X128862323Y-73598488D01*
X128867305Y-73600811D01*
X128867310Y-73600814D01*
X129034930Y-73678976D01*
X129063804Y-73692440D01*
X129069112Y-73693862D01*
X129069114Y-73693863D01*
X129134949Y-73711503D01*
X129278537Y-73749978D01*
X129500000Y-73769353D01*
X129721463Y-73749978D01*
X129865051Y-73711503D01*
X129930886Y-73693863D01*
X129930888Y-73693862D01*
X129936196Y-73692440D01*
X129965070Y-73678976D01*
X130132690Y-73600814D01*
X130132695Y-73600811D01*
X130137677Y-73598488D01*
X130278132Y-73500140D01*
X130315270Y-73474136D01*
X130315273Y-73474134D01*
X130319781Y-73470977D01*
X130476977Y-73313781D01*
X130483710Y-73304166D01*
X130601331Y-73136185D01*
X130601332Y-73136183D01*
X130604488Y-73131676D01*
X130606811Y-73126694D01*
X130606814Y-73126689D01*
X130696117Y-72935178D01*
X130696118Y-72935177D01*
X130698440Y-72930196D01*
X130755978Y-72715463D01*
X130775353Y-72494000D01*
X131272647Y-72494000D01*
X131292022Y-72715463D01*
X131349560Y-72930196D01*
X131351882Y-72935177D01*
X131351883Y-72935178D01*
X131441186Y-73126689D01*
X131441189Y-73126694D01*
X131443512Y-73131676D01*
X131446668Y-73136183D01*
X131446669Y-73136185D01*
X131564291Y-73304166D01*
X131571023Y-73313781D01*
X131728219Y-73470977D01*
X131732727Y-73474134D01*
X131732730Y-73474136D01*
X131769868Y-73500140D01*
X131910323Y-73598488D01*
X131915305Y-73600811D01*
X131915310Y-73600814D01*
X132082930Y-73678976D01*
X132111804Y-73692440D01*
X132117112Y-73693862D01*
X132117114Y-73693863D01*
X132182949Y-73711503D01*
X132326537Y-73749978D01*
X132548000Y-73769353D01*
X132769463Y-73749978D01*
X132913051Y-73711503D01*
X132978886Y-73693863D01*
X132978888Y-73693862D01*
X132984196Y-73692440D01*
X133013070Y-73678976D01*
X133180690Y-73600814D01*
X133180695Y-73600811D01*
X133185677Y-73598488D01*
X133326132Y-73500140D01*
X133363270Y-73474136D01*
X133363273Y-73474134D01*
X133367781Y-73470977D01*
X133524977Y-73313781D01*
X133531710Y-73304166D01*
X133649331Y-73136185D01*
X133649332Y-73136183D01*
X133652488Y-73131676D01*
X133654811Y-73126694D01*
X133654814Y-73126689D01*
X133744117Y-72935178D01*
X133744118Y-72935177D01*
X133746440Y-72930196D01*
X133803978Y-72715463D01*
X133823353Y-72494000D01*
X133803978Y-72272537D01*
X133746440Y-72057804D01*
X133744117Y-72052822D01*
X133654814Y-71861311D01*
X133654811Y-71861306D01*
X133652488Y-71856324D01*
X133649331Y-71851815D01*
X133528136Y-71678730D01*
X133528134Y-71678727D01*
X133524977Y-71674219D01*
X133367781Y-71517023D01*
X133363273Y-71513866D01*
X133363270Y-71513864D01*
X133267381Y-71446722D01*
X133185677Y-71389512D01*
X133180695Y-71387189D01*
X133180690Y-71387186D01*
X132989178Y-71297883D01*
X132989177Y-71297882D01*
X132984196Y-71295560D01*
X132978888Y-71294138D01*
X132978886Y-71294137D01*
X132866962Y-71264147D01*
X132769463Y-71238022D01*
X132548000Y-71218647D01*
X132326537Y-71238022D01*
X132229038Y-71264147D01*
X132117114Y-71294137D01*
X132117112Y-71294138D01*
X132111804Y-71295560D01*
X132106823Y-71297882D01*
X132106822Y-71297883D01*
X131915311Y-71387186D01*
X131915306Y-71387189D01*
X131910324Y-71389512D01*
X131905817Y-71392668D01*
X131905815Y-71392669D01*
X131732730Y-71513864D01*
X131732727Y-71513866D01*
X131728219Y-71517023D01*
X131571023Y-71674219D01*
X131567866Y-71678727D01*
X131567864Y-71678730D01*
X131446669Y-71851815D01*
X131443512Y-71856324D01*
X131441189Y-71861306D01*
X131441186Y-71861311D01*
X131351883Y-72052822D01*
X131349560Y-72057804D01*
X131292022Y-72272537D01*
X131272647Y-72494000D01*
X130775353Y-72494000D01*
X130755978Y-72272537D01*
X130698440Y-72057804D01*
X130696117Y-72052822D01*
X130606814Y-71861311D01*
X130606811Y-71861306D01*
X130604488Y-71856324D01*
X130601331Y-71851815D01*
X130480136Y-71678730D01*
X130480134Y-71678727D01*
X130476977Y-71674219D01*
X130319781Y-71517023D01*
X130315273Y-71513866D01*
X130315270Y-71513864D01*
X130219381Y-71446722D01*
X130137677Y-71389512D01*
X130132695Y-71387189D01*
X130132690Y-71387186D01*
X129941178Y-71297883D01*
X129941177Y-71297882D01*
X129936196Y-71295560D01*
X129930888Y-71294138D01*
X129930886Y-71294137D01*
X129818962Y-71264147D01*
X129721463Y-71238022D01*
X129500000Y-71218647D01*
X129278537Y-71238022D01*
X129181038Y-71264147D01*
X129069114Y-71294137D01*
X129069112Y-71294138D01*
X129063804Y-71295560D01*
X129058823Y-71297882D01*
X129058822Y-71297883D01*
X128867311Y-71387186D01*
X128867306Y-71387189D01*
X128862324Y-71389512D01*
X128857817Y-71392668D01*
X128857815Y-71392669D01*
X128684730Y-71513864D01*
X128684727Y-71513866D01*
X128680219Y-71517023D01*
X128523023Y-71674219D01*
X128519866Y-71678727D01*
X128519864Y-71678730D01*
X128398669Y-71851815D01*
X128395512Y-71856324D01*
X128393189Y-71861306D01*
X128393186Y-71861311D01*
X128303883Y-72052822D01*
X128301560Y-72057804D01*
X128244022Y-72272537D01*
X128224647Y-72494000D01*
X127727353Y-72494000D01*
X127707978Y-72272537D01*
X127650440Y-72057804D01*
X127648117Y-72052822D01*
X127558814Y-71861311D01*
X127558811Y-71861306D01*
X127556488Y-71856324D01*
X127553331Y-71851815D01*
X127432136Y-71678730D01*
X127432134Y-71678727D01*
X127428977Y-71674219D01*
X127271781Y-71517023D01*
X127267273Y-71513866D01*
X127267270Y-71513864D01*
X127171381Y-71446722D01*
X127089677Y-71389512D01*
X127084695Y-71387189D01*
X127084690Y-71387186D01*
X126893178Y-71297883D01*
X126893177Y-71297882D01*
X126888196Y-71295560D01*
X126882888Y-71294138D01*
X126882886Y-71294137D01*
X126770962Y-71264147D01*
X126673463Y-71238022D01*
X126452000Y-71218647D01*
X126230537Y-71238022D01*
X126133038Y-71264147D01*
X126021114Y-71294137D01*
X126021112Y-71294138D01*
X126015804Y-71295560D01*
X126010823Y-71297882D01*
X126010822Y-71297883D01*
X125819311Y-71387186D01*
X125819306Y-71387189D01*
X125814324Y-71389512D01*
X125809817Y-71392668D01*
X125809815Y-71392669D01*
X125636730Y-71513864D01*
X125636727Y-71513866D01*
X125632219Y-71517023D01*
X125475023Y-71674219D01*
X125471866Y-71678727D01*
X125471864Y-71678730D01*
X125350669Y-71851815D01*
X125347512Y-71856324D01*
X125345189Y-71861306D01*
X125345186Y-71861311D01*
X125255883Y-72052822D01*
X125253560Y-72057804D01*
X125196022Y-72272537D01*
X125176647Y-72494000D01*
X119363823Y-72494000D01*
X119391402Y-69653314D01*
X121748124Y-69653314D01*
X121748348Y-69657980D01*
X121748348Y-69657985D01*
X121750518Y-69703160D01*
X121760807Y-69917352D01*
X121778013Y-70003853D01*
X121811180Y-70170591D01*
X121812378Y-70176616D01*
X121813957Y-70181014D01*
X121813959Y-70181021D01*
X121877604Y-70358285D01*
X121901704Y-70425410D01*
X121903921Y-70429536D01*
X121998984Y-70606457D01*
X122026822Y-70658267D01*
X122029617Y-70662011D01*
X122029619Y-70662013D01*
X122182192Y-70866333D01*
X122184985Y-70870073D01*
X122188292Y-70873351D01*
X122188297Y-70873357D01*
X122369402Y-71052887D01*
X122372718Y-71056174D01*
X122376485Y-71058936D01*
X122376486Y-71058937D01*
X122486841Y-71139853D01*
X122585896Y-71212483D01*
X122590031Y-71214659D01*
X122590035Y-71214661D01*
X122675422Y-71259585D01*
X122819836Y-71335565D01*
X123069400Y-71422716D01*
X123073993Y-71423588D01*
X123324515Y-71471151D01*
X123324518Y-71471151D01*
X123329104Y-71472022D01*
X123461173Y-71477211D01*
X123588575Y-71482218D01*
X123588581Y-71482218D01*
X123593243Y-71482401D01*
X123856015Y-71453622D01*
X123860526Y-71452434D01*
X123860528Y-71452434D01*
X124107124Y-71387511D01*
X124107126Y-71387510D01*
X124111647Y-71386320D01*
X124226191Y-71337108D01*
X124350229Y-71283817D01*
X124350231Y-71283816D01*
X124354523Y-71281972D01*
X124579307Y-71142871D01*
X124676950Y-71060211D01*
X124777496Y-70975093D01*
X124777498Y-70975091D01*
X124781063Y-70972073D01*
X124955356Y-70773329D01*
X124958627Y-70768245D01*
X125095831Y-70554936D01*
X125098359Y-70551006D01*
X125206930Y-70309988D01*
X125214019Y-70284854D01*
X125244515Y-70176722D01*
X125278683Y-70055570D01*
X125291335Y-69956114D01*
X125311645Y-69796471D01*
X125311645Y-69796465D01*
X125312043Y-69793340D01*
X125314487Y-69700000D01*
X125311018Y-69653314D01*
X133686124Y-69653314D01*
X133686348Y-69657980D01*
X133686348Y-69657985D01*
X133688518Y-69703160D01*
X133698807Y-69917352D01*
X133716013Y-70003853D01*
X133749180Y-70170591D01*
X133750378Y-70176616D01*
X133751957Y-70181014D01*
X133751959Y-70181021D01*
X133815604Y-70358285D01*
X133839704Y-70425410D01*
X133841921Y-70429536D01*
X133936984Y-70606457D01*
X133964822Y-70658267D01*
X133967617Y-70662011D01*
X133967619Y-70662013D01*
X134120192Y-70866333D01*
X134122985Y-70870073D01*
X134126292Y-70873351D01*
X134126297Y-70873357D01*
X134307402Y-71052887D01*
X134310718Y-71056174D01*
X134314485Y-71058936D01*
X134314486Y-71058937D01*
X134424841Y-71139853D01*
X134523896Y-71212483D01*
X134528031Y-71214659D01*
X134528035Y-71214661D01*
X134613422Y-71259585D01*
X134757836Y-71335565D01*
X135007400Y-71422716D01*
X135011993Y-71423588D01*
X135262515Y-71471151D01*
X135262518Y-71471151D01*
X135267104Y-71472022D01*
X135399173Y-71477211D01*
X135526575Y-71482218D01*
X135526581Y-71482218D01*
X135531243Y-71482401D01*
X135794015Y-71453622D01*
X135798526Y-71452434D01*
X135798528Y-71452434D01*
X136045124Y-71387511D01*
X136045126Y-71387510D01*
X136049647Y-71386320D01*
X136164191Y-71337108D01*
X136288229Y-71283817D01*
X136288231Y-71283816D01*
X136292523Y-71281972D01*
X136517307Y-71142871D01*
X136614950Y-71060211D01*
X136715496Y-70975093D01*
X136715498Y-70975091D01*
X136719063Y-70972073D01*
X136893356Y-70773329D01*
X136896627Y-70768245D01*
X137033831Y-70554936D01*
X137036359Y-70551006D01*
X137144930Y-70309988D01*
X137152019Y-70284854D01*
X137182515Y-70176722D01*
X137216683Y-70055570D01*
X137229335Y-69956114D01*
X137249645Y-69796471D01*
X137249645Y-69796465D01*
X137250043Y-69793340D01*
X137252487Y-69700000D01*
X137246303Y-69616782D01*
X137233243Y-69441036D01*
X137233242Y-69441032D01*
X137232897Y-69436384D01*
X137174557Y-69178559D01*
X137166235Y-69157158D01*
X137080442Y-68936542D01*
X137080441Y-68936540D01*
X137078749Y-68932189D01*
X137076388Y-68928057D01*
X136961936Y-68727809D01*
X136947578Y-68702687D01*
X136783925Y-68495094D01*
X136623436Y-68344121D01*
X136594791Y-68317174D01*
X136591385Y-68313970D01*
X136554212Y-68288182D01*
X136378026Y-68165958D01*
X136378021Y-68165955D01*
X136374188Y-68163296D01*
X136369997Y-68161229D01*
X136141294Y-68048445D01*
X136141291Y-68048444D01*
X136137106Y-68046380D01*
X136103349Y-68035574D01*
X135889792Y-67967214D01*
X135889794Y-67967214D01*
X135885347Y-67965791D01*
X135652398Y-67927853D01*
X135629053Y-67924051D01*
X135629052Y-67924051D01*
X135624441Y-67923300D01*
X135492281Y-67921570D01*
X135364798Y-67919901D01*
X135364795Y-67919901D01*
X135360121Y-67919840D01*
X135098192Y-67955486D01*
X135093702Y-67956795D01*
X135093696Y-67956796D01*
X134985732Y-67988265D01*
X134844410Y-68029457D01*
X134840163Y-68031415D01*
X134840160Y-68031416D01*
X134749950Y-68073004D01*
X134604348Y-68140127D01*
X134600439Y-68142690D01*
X134387195Y-68282499D01*
X134387190Y-68282503D01*
X134383282Y-68285065D01*
X134379790Y-68288182D01*
X134205000Y-68444188D01*
X134186067Y-68461086D01*
X134157783Y-68495094D01*
X134038455Y-68638571D01*
X134017036Y-68664324D01*
X133879901Y-68890314D01*
X133878095Y-68894622D01*
X133878094Y-68894623D01*
X133784416Y-69118021D01*
X133777677Y-69134091D01*
X133776526Y-69138623D01*
X133776525Y-69138626D01*
X133748180Y-69250236D01*
X133712608Y-69390301D01*
X133686124Y-69653314D01*
X125311018Y-69653314D01*
X125308303Y-69616782D01*
X125295243Y-69441036D01*
X125295242Y-69441032D01*
X125294897Y-69436384D01*
X125236557Y-69178559D01*
X125228235Y-69157158D01*
X125142442Y-68936542D01*
X125142441Y-68936540D01*
X125140749Y-68932189D01*
X125138388Y-68928057D01*
X125023936Y-68727809D01*
X125009578Y-68702687D01*
X124845925Y-68495094D01*
X124685436Y-68344121D01*
X124656791Y-68317174D01*
X124653385Y-68313970D01*
X124616212Y-68288182D01*
X124440026Y-68165958D01*
X124440021Y-68165955D01*
X124436188Y-68163296D01*
X124431997Y-68161229D01*
X124203294Y-68048445D01*
X124203291Y-68048444D01*
X124199106Y-68046380D01*
X124165349Y-68035574D01*
X123951792Y-67967214D01*
X123951794Y-67967214D01*
X123947347Y-67965791D01*
X123714398Y-67927853D01*
X123691053Y-67924051D01*
X123691052Y-67924051D01*
X123686441Y-67923300D01*
X123554281Y-67921570D01*
X123426798Y-67919901D01*
X123426795Y-67919901D01*
X123422121Y-67919840D01*
X123160192Y-67955486D01*
X123155702Y-67956795D01*
X123155696Y-67956796D01*
X123047732Y-67988265D01*
X122906410Y-68029457D01*
X122902163Y-68031415D01*
X122902160Y-68031416D01*
X122811950Y-68073004D01*
X122666348Y-68140127D01*
X122662439Y-68142690D01*
X122449195Y-68282499D01*
X122449190Y-68282503D01*
X122445282Y-68285065D01*
X122441790Y-68288182D01*
X122267000Y-68444188D01*
X122248067Y-68461086D01*
X122219783Y-68495094D01*
X122100455Y-68638571D01*
X122079036Y-68664324D01*
X121941901Y-68890314D01*
X121940095Y-68894622D01*
X121940094Y-68894623D01*
X121846416Y-69118021D01*
X121839677Y-69134091D01*
X121838526Y-69138623D01*
X121838525Y-69138626D01*
X121810180Y-69250236D01*
X121774608Y-69390301D01*
X121748124Y-69653314D01*
X119391402Y-69653314D01*
X119394882Y-69294898D01*
X119397046Y-69272839D01*
X119510706Y-68668317D01*
X119668041Y-67831498D01*
X119679998Y-67796811D01*
X119693594Y-67770574D01*
X120277363Y-66643994D01*
X120292503Y-66621225D01*
X120332287Y-66573561D01*
X120681824Y-66154784D01*
X120700254Y-66132703D01*
X148090743Y-66132703D01*
X148091302Y-66136947D01*
X148091302Y-66136951D01*
X148093084Y-66150488D01*
X148128268Y-66417734D01*
X148204129Y-66695036D01*
X148205813Y-66698984D01*
X148305966Y-66933787D01*
X148316923Y-66959476D01*
X148371262Y-67050269D01*
X148460858Y-67199973D01*
X148464561Y-67206161D01*
X148644313Y-67430528D01*
X148749289Y-67530146D01*
X148794081Y-67572652D01*
X148852851Y-67628423D01*
X149086317Y-67796186D01*
X149090112Y-67798195D01*
X149090113Y-67798196D01*
X149111869Y-67809715D01*
X149340392Y-67930712D01*
X149610373Y-68029511D01*
X149891264Y-68090755D01*
X149919841Y-68093004D01*
X150114282Y-68108307D01*
X150114291Y-68108307D01*
X150116739Y-68108500D01*
X150272271Y-68108500D01*
X150274407Y-68108354D01*
X150274418Y-68108354D01*
X150482548Y-68094165D01*
X150482554Y-68094164D01*
X150486825Y-68093873D01*
X150491020Y-68093004D01*
X150491022Y-68093004D01*
X150627583Y-68064724D01*
X150768342Y-68035574D01*
X151039343Y-67939607D01*
X151294812Y-67807750D01*
X151298313Y-67805289D01*
X151298317Y-67805287D01*
X151471908Y-67683285D01*
X151530023Y-67642441D01*
X151632612Y-67547109D01*
X151737479Y-67449661D01*
X151737481Y-67449658D01*
X151740622Y-67446740D01*
X151922713Y-67224268D01*
X152072927Y-66979142D01*
X152092837Y-66933787D01*
X152186757Y-66719830D01*
X152188483Y-66715898D01*
X152267244Y-66439406D01*
X152307751Y-66154784D01*
X152307845Y-66136951D01*
X152309235Y-65871583D01*
X152309235Y-65871576D01*
X152309257Y-65867297D01*
X152307989Y-65857661D01*
X152291498Y-65732404D01*
X152271732Y-65582266D01*
X152267959Y-65568472D01*
X152241459Y-65471608D01*
X152195871Y-65304964D01*
X152083077Y-65040524D01*
X152006767Y-64913019D01*
X151937643Y-64797521D01*
X151937640Y-64797517D01*
X151935439Y-64793839D01*
X151755687Y-64569472D01*
X151547149Y-64371577D01*
X151313683Y-64203814D01*
X151291843Y-64192250D01*
X151224793Y-64156749D01*
X151059608Y-64069288D01*
X150855199Y-63994485D01*
X150793658Y-63971964D01*
X150793656Y-63971963D01*
X150789627Y-63970489D01*
X150508736Y-63909245D01*
X150477685Y-63906801D01*
X150285718Y-63891693D01*
X150285709Y-63891693D01*
X150283261Y-63891500D01*
X150127729Y-63891500D01*
X150125593Y-63891646D01*
X150125582Y-63891646D01*
X149917452Y-63905835D01*
X149917446Y-63905836D01*
X149913175Y-63906127D01*
X149908980Y-63906996D01*
X149908978Y-63906996D01*
X149772416Y-63935277D01*
X149631658Y-63964426D01*
X149360657Y-64060393D01*
X149356848Y-64062359D01*
X149119983Y-64184614D01*
X149105188Y-64192250D01*
X149101687Y-64194711D01*
X149101683Y-64194713D01*
X148999467Y-64266552D01*
X148869977Y-64357559D01*
X148854892Y-64371577D01*
X148710023Y-64506198D01*
X148659378Y-64553260D01*
X148477287Y-64775732D01*
X148327073Y-65020858D01*
X148325347Y-65024791D01*
X148325346Y-65024792D01*
X148318440Y-65040524D01*
X148211517Y-65284102D01*
X148132756Y-65560594D01*
X148118170Y-65663082D01*
X148094173Y-65831700D01*
X148092249Y-65845216D01*
X148092227Y-65849505D01*
X148092226Y-65849512D01*
X148091249Y-66036111D01*
X148090743Y-66132703D01*
X120700254Y-66132703D01*
X121092160Y-65663165D01*
X121103401Y-65651345D01*
X121781749Y-65024792D01*
X121927775Y-64889916D01*
X121944213Y-64877083D01*
X122041991Y-64813019D01*
X123134558Y-64097171D01*
X123157641Y-64085249D01*
X123691689Y-63876006D01*
X124489984Y-63563230D01*
X124508088Y-63557666D01*
X125846500Y-63254203D01*
X125861998Y-63251692D01*
X127065376Y-63133062D01*
X127066723Y-63132936D01*
X136271346Y-62325553D01*
X136272239Y-62325478D01*
X158323685Y-60549235D01*
X158325351Y-60549112D01*
X161714265Y-60321310D01*
X162543754Y-60265552D01*
X162613062Y-60280940D01*
X162663049Y-60331357D01*
X162677843Y-60400795D01*
X162652748Y-60467208D01*
X162641299Y-60480363D01*
X157750472Y-65371190D01*
X157736059Y-65383577D01*
X157718436Y-65396546D01*
X157713692Y-65402129D01*
X157713693Y-65402129D01*
X157684021Y-65437055D01*
X157677091Y-65444571D01*
X157671347Y-65450315D01*
X157669073Y-65453189D01*
X157669067Y-65453196D01*
X157653628Y-65472711D01*
X157650837Y-65476115D01*
X157608055Y-65526472D01*
X157608052Y-65526476D01*
X157603316Y-65532051D01*
X157599988Y-65538568D01*
X157596611Y-65543632D01*
X157593384Y-65548856D01*
X157588840Y-65554600D01*
X157584054Y-65564841D01*
X157557768Y-65621082D01*
X157555837Y-65625033D01*
X157522457Y-65690404D01*
X157520716Y-65697519D01*
X157518579Y-65703265D01*
X157516655Y-65709048D01*
X157513556Y-65715679D01*
X157512066Y-65722843D01*
X157498608Y-65787547D01*
X157497639Y-65791829D01*
X157480196Y-65863112D01*
X157479500Y-65874330D01*
X157479461Y-65874328D01*
X157479228Y-65878229D01*
X157478839Y-65882588D01*
X157477348Y-65889756D01*
X157477546Y-65897073D01*
X157479454Y-65967577D01*
X157479500Y-65970986D01*
X157479500Y-69841500D01*
X157459498Y-69909621D01*
X157405842Y-69956114D01*
X157353500Y-69967500D01*
X156398866Y-69967500D01*
X156336684Y-69974255D01*
X156200295Y-70025385D01*
X156083739Y-70112739D01*
X155996385Y-70229295D01*
X155945255Y-70365684D01*
X155938500Y-70427866D01*
X155938500Y-72024134D01*
X155945255Y-72086316D01*
X155996385Y-72222705D01*
X156083739Y-72339261D01*
X156200295Y-72426615D01*
X156336684Y-72477745D01*
X156398866Y-72484500D01*
X156761136Y-72484500D01*
X156829257Y-72504502D01*
X156850231Y-72521405D01*
X157249874Y-72921048D01*
X157262261Y-72935461D01*
X157275230Y-72953084D01*
X157280813Y-72957827D01*
X157315739Y-72987499D01*
X157323255Y-72994429D01*
X157328999Y-73000173D01*
X157331873Y-73002447D01*
X157331880Y-73002453D01*
X157351395Y-73017892D01*
X157354799Y-73020683D01*
X157405156Y-73063465D01*
X157405160Y-73063468D01*
X157410735Y-73068204D01*
X157417252Y-73071532D01*
X157422316Y-73074909D01*
X157427540Y-73078136D01*
X157433284Y-73082680D01*
X157499788Y-73113762D01*
X157503685Y-73115667D01*
X157569088Y-73149063D01*
X157576202Y-73150804D01*
X157581936Y-73152936D01*
X157587732Y-73154864D01*
X157594364Y-73157964D01*
X157666239Y-73172914D01*
X157670523Y-73173884D01*
X157741796Y-73191324D01*
X157747398Y-73191672D01*
X157747401Y-73191672D01*
X157753014Y-73192020D01*
X157753012Y-73192057D01*
X157756911Y-73192293D01*
X157761282Y-73192683D01*
X157768441Y-73194172D01*
X157846261Y-73192066D01*
X157849670Y-73192020D01*
X159849940Y-73192020D01*
X159868890Y-73193453D01*
X159883289Y-73195644D01*
X159883295Y-73195644D01*
X159890524Y-73196744D01*
X159897816Y-73196151D01*
X159897819Y-73196151D01*
X159943499Y-73192435D01*
X159953714Y-73192020D01*
X159961841Y-73192020D01*
X159965477Y-73191596D01*
X159965479Y-73191596D01*
X159968931Y-73191193D01*
X159990240Y-73188709D01*
X159994560Y-73188282D01*
X160067742Y-73182329D01*
X160074704Y-73180073D01*
X160080692Y-73178877D01*
X160086649Y-73177469D01*
X160093923Y-73176621D01*
X160100805Y-73174123D01*
X160100809Y-73174122D01*
X160162923Y-73151575D01*
X160167027Y-73150165D01*
X160236891Y-73127533D01*
X160243154Y-73123733D01*
X160248696Y-73121195D01*
X160254172Y-73118453D01*
X160261057Y-73115954D01*
X160307082Y-73085779D01*
X160322448Y-73075705D01*
X160326116Y-73073390D01*
X160388897Y-73035293D01*
X160393102Y-73031579D01*
X160393105Y-73031577D01*
X160397321Y-73027853D01*
X160397347Y-73027882D01*
X160400278Y-73025282D01*
X160403632Y-73022478D01*
X160409751Y-73018466D01*
X160463305Y-72961933D01*
X160465682Y-72959492D01*
X161525174Y-71900000D01*
X163686502Y-71900000D01*
X163706457Y-72128087D01*
X163707881Y-72133400D01*
X163707881Y-72133402D01*
X163746631Y-72278016D01*
X163765716Y-72349243D01*
X163768039Y-72354224D01*
X163768039Y-72354225D01*
X163860151Y-72551762D01*
X163860154Y-72551767D01*
X163862477Y-72556749D01*
X163865634Y-72561257D01*
X163969774Y-72709984D01*
X163993802Y-72744300D01*
X164155700Y-72906198D01*
X164160208Y-72909355D01*
X164160211Y-72909357D01*
X164233564Y-72960719D01*
X164343251Y-73037523D01*
X164348233Y-73039846D01*
X164348238Y-73039849D01*
X164522687Y-73121195D01*
X164550757Y-73134284D01*
X164556065Y-73135706D01*
X164556067Y-73135707D01*
X164766598Y-73192119D01*
X164766600Y-73192119D01*
X164771913Y-73193543D01*
X165000000Y-73213498D01*
X165228087Y-73193543D01*
X165233400Y-73192119D01*
X165233402Y-73192119D01*
X165443933Y-73135707D01*
X165443935Y-73135706D01*
X165449243Y-73134284D01*
X165477313Y-73121195D01*
X165651762Y-73039849D01*
X165651767Y-73039846D01*
X165656749Y-73037523D01*
X165766436Y-72960719D01*
X165839789Y-72909357D01*
X165839792Y-72909355D01*
X165844300Y-72906198D01*
X166006198Y-72744300D01*
X166030227Y-72709984D01*
X166134366Y-72561257D01*
X166137523Y-72556749D01*
X166139846Y-72551767D01*
X166139849Y-72551762D01*
X166231961Y-72354225D01*
X166231961Y-72354224D01*
X166234284Y-72349243D01*
X166253370Y-72278016D01*
X166292119Y-72133402D01*
X166292119Y-72133400D01*
X166293543Y-72128087D01*
X166313498Y-71900000D01*
X166293543Y-71671913D01*
X166234284Y-71450757D01*
X166221615Y-71423588D01*
X166139849Y-71248238D01*
X166139846Y-71248233D01*
X166137523Y-71243251D01*
X166015297Y-71068694D01*
X166009357Y-71060211D01*
X166009355Y-71060208D01*
X166006198Y-71055700D01*
X165844300Y-70893802D01*
X165839792Y-70890645D01*
X165839789Y-70890643D01*
X165718075Y-70805418D01*
X165656749Y-70762477D01*
X165651767Y-70760154D01*
X165651762Y-70760151D01*
X165454225Y-70668039D01*
X165454224Y-70668039D01*
X165449243Y-70665716D01*
X165443935Y-70664294D01*
X165443933Y-70664293D01*
X165233402Y-70607881D01*
X165233400Y-70607881D01*
X165228087Y-70606457D01*
X165000000Y-70586502D01*
X164771913Y-70606457D01*
X164766600Y-70607881D01*
X164766598Y-70607881D01*
X164556067Y-70664293D01*
X164556065Y-70664294D01*
X164550757Y-70665716D01*
X164545776Y-70668039D01*
X164545775Y-70668039D01*
X164348238Y-70760151D01*
X164348233Y-70760154D01*
X164343251Y-70762477D01*
X164281925Y-70805418D01*
X164160211Y-70890643D01*
X164160208Y-70890645D01*
X164155700Y-70893802D01*
X163993802Y-71055700D01*
X163990645Y-71060208D01*
X163990643Y-71060211D01*
X163984703Y-71068694D01*
X163862477Y-71243251D01*
X163860154Y-71248233D01*
X163860151Y-71248238D01*
X163778385Y-71423588D01*
X163765716Y-71450757D01*
X163706457Y-71671913D01*
X163686502Y-71900000D01*
X161525174Y-71900000D01*
X163991528Y-69433646D01*
X164005941Y-69421259D01*
X164017665Y-69412631D01*
X164023564Y-69408290D01*
X164057979Y-69367781D01*
X164064909Y-69360265D01*
X164070653Y-69354521D01*
X164072927Y-69351647D01*
X164072933Y-69351640D01*
X164088372Y-69332125D01*
X164091163Y-69328721D01*
X164133945Y-69278364D01*
X164133948Y-69278360D01*
X164138684Y-69272785D01*
X164142012Y-69266268D01*
X164145389Y-69261204D01*
X164148616Y-69255980D01*
X164153160Y-69250236D01*
X164178426Y-69196176D01*
X164184232Y-69183754D01*
X164186163Y-69179803D01*
X164207189Y-69138626D01*
X164219543Y-69114432D01*
X164221284Y-69107317D01*
X164223421Y-69101571D01*
X164225345Y-69095788D01*
X164228444Y-69089157D01*
X164243394Y-69017279D01*
X164244363Y-69012998D01*
X164245484Y-69008419D01*
X164261804Y-68941724D01*
X164262500Y-68930506D01*
X164262539Y-68930508D01*
X164262772Y-68926607D01*
X164263161Y-68922248D01*
X164264652Y-68915080D01*
X164262546Y-68837259D01*
X164262500Y-68833850D01*
X164262500Y-66368028D01*
X164282502Y-66299907D01*
X164299405Y-66278933D01*
X165063138Y-65515200D01*
X165125450Y-65481174D01*
X165152233Y-65478295D01*
X171055138Y-65478295D01*
X171123259Y-65498297D01*
X171158350Y-65532023D01*
X171174159Y-65554600D01*
X171178007Y-65560095D01*
X171339905Y-65721993D01*
X171344413Y-65725150D01*
X171344416Y-65725152D01*
X171373449Y-65745481D01*
X171527456Y-65853318D01*
X171532438Y-65855641D01*
X171532443Y-65855644D01*
X171695668Y-65931756D01*
X171734962Y-65950079D01*
X171740270Y-65951501D01*
X171740272Y-65951502D01*
X171950803Y-66007914D01*
X171950805Y-66007914D01*
X171956118Y-66009338D01*
X172184205Y-66029293D01*
X172412292Y-66009338D01*
X172417605Y-66007914D01*
X172417607Y-66007914D01*
X172628138Y-65951502D01*
X172628140Y-65951501D01*
X172633448Y-65950079D01*
X172672742Y-65931756D01*
X172835967Y-65855644D01*
X172835972Y-65855641D01*
X172840954Y-65853318D01*
X172994961Y-65745481D01*
X173023994Y-65725152D01*
X173023997Y-65725150D01*
X173028505Y-65721993D01*
X173190403Y-65560095D01*
X173201644Y-65544042D01*
X173301012Y-65402129D01*
X173321728Y-65372544D01*
X173324051Y-65367562D01*
X173324054Y-65367557D01*
X173416166Y-65170020D01*
X173416166Y-65170019D01*
X173418489Y-65165038D01*
X173454451Y-65030829D01*
X173476324Y-64949197D01*
X173476324Y-64949195D01*
X173477748Y-64943882D01*
X173497703Y-64715795D01*
X173477748Y-64487708D01*
X173470422Y-64460367D01*
X173419912Y-64271862D01*
X173419911Y-64271860D01*
X173418489Y-64266552D01*
X173413918Y-64256749D01*
X173324054Y-64064033D01*
X173324051Y-64064028D01*
X173321728Y-64059046D01*
X173214448Y-63905835D01*
X173193562Y-63876006D01*
X173193560Y-63876003D01*
X173190403Y-63871495D01*
X173028505Y-63709597D01*
X173023997Y-63706440D01*
X173023994Y-63706438D01*
X172945816Y-63651697D01*
X172840954Y-63578272D01*
X172835972Y-63575949D01*
X172835967Y-63575946D01*
X172638430Y-63483834D01*
X172638429Y-63483834D01*
X172633448Y-63481511D01*
X172628140Y-63480089D01*
X172628138Y-63480088D01*
X172417607Y-63423676D01*
X172417605Y-63423676D01*
X172412292Y-63422252D01*
X172184205Y-63402297D01*
X171956118Y-63422252D01*
X171950805Y-63423676D01*
X171950803Y-63423676D01*
X171740272Y-63480088D01*
X171740270Y-63480089D01*
X171734962Y-63481511D01*
X171729981Y-63483834D01*
X171729980Y-63483834D01*
X171532443Y-63575946D01*
X171532438Y-63575949D01*
X171527456Y-63578272D01*
X171422594Y-63651697D01*
X171344416Y-63706438D01*
X171344413Y-63706440D01*
X171339905Y-63709597D01*
X171178007Y-63871495D01*
X171174848Y-63876007D01*
X171174846Y-63876009D01*
X171158350Y-63899567D01*
X171102893Y-63943895D01*
X171055138Y-63953295D01*
X164851573Y-63953295D01*
X164832625Y-63951862D01*
X164825238Y-63950738D01*
X164818229Y-63949672D01*
X164818227Y-63949672D01*
X164810997Y-63948572D01*
X164803705Y-63949165D01*
X164803702Y-63949165D01*
X164758030Y-63952880D01*
X164747816Y-63953295D01*
X164739680Y-63953295D01*
X164711261Y-63956609D01*
X164706934Y-63957036D01*
X164672192Y-63959862D01*
X164641079Y-63962392D01*
X164641077Y-63962392D01*
X164633779Y-63962986D01*
X164626812Y-63965243D01*
X164620812Y-63966442D01*
X164614872Y-63967846D01*
X164607598Y-63968694D01*
X164600716Y-63971192D01*
X164600712Y-63971193D01*
X164538598Y-63993740D01*
X164534494Y-63995150D01*
X164464630Y-64017782D01*
X164458367Y-64021582D01*
X164452825Y-64024120D01*
X164447349Y-64026862D01*
X164440464Y-64029361D01*
X164434340Y-64033376D01*
X164379073Y-64069610D01*
X164375405Y-64071925D01*
X164312624Y-64110022D01*
X164308417Y-64113738D01*
X164308413Y-64113741D01*
X164304200Y-64117463D01*
X164304174Y-64117433D01*
X164301246Y-64120031D01*
X164297892Y-64122835D01*
X164291770Y-64126849D01*
X164286737Y-64132162D01*
X164238200Y-64183399D01*
X164235822Y-64185841D01*
X163008472Y-65413190D01*
X162994059Y-65425577D01*
X162976436Y-65438546D01*
X162963990Y-65453196D01*
X162942021Y-65479055D01*
X162935091Y-65486571D01*
X162929347Y-65492315D01*
X162927073Y-65495189D01*
X162927067Y-65495196D01*
X162911628Y-65514711D01*
X162908837Y-65518115D01*
X162866055Y-65568472D01*
X162866052Y-65568476D01*
X162861316Y-65574051D01*
X162857988Y-65580568D01*
X162854611Y-65585632D01*
X162851384Y-65590856D01*
X162846840Y-65596600D01*
X162843741Y-65603231D01*
X162815768Y-65663082D01*
X162813837Y-65667033D01*
X162780457Y-65732404D01*
X162778716Y-65739519D01*
X162776579Y-65745265D01*
X162774655Y-65751048D01*
X162771556Y-65757679D01*
X162770066Y-65764843D01*
X162756608Y-65829547D01*
X162755639Y-65833829D01*
X162738196Y-65905112D01*
X162737500Y-65916330D01*
X162737461Y-65916328D01*
X162737228Y-65920229D01*
X162736839Y-65924588D01*
X162735348Y-65931756D01*
X162735546Y-65939073D01*
X162737454Y-66009577D01*
X162737500Y-66012986D01*
X162737500Y-68478808D01*
X162717498Y-68546929D01*
X162700595Y-68567903D01*
X160658514Y-70609984D01*
X160596202Y-70644010D01*
X160525387Y-70638945D01*
X160468551Y-70596398D01*
X160458168Y-70580043D01*
X160379462Y-70432019D01*
X160372678Y-70421807D01*
X160252428Y-70274366D01*
X160243784Y-70265662D01*
X160097191Y-70144390D01*
X160087020Y-70137530D01*
X159919658Y-70047038D01*
X159908353Y-70042286D01*
X159783308Y-70003578D01*
X159769205Y-70003372D01*
X159766000Y-70010127D01*
X159766000Y-71354000D01*
X159745998Y-71422121D01*
X159692342Y-71468614D01*
X159640000Y-71480000D01*
X159401500Y-71480000D01*
X159333379Y-71459998D01*
X159286886Y-71406342D01*
X159275500Y-71354000D01*
X159275500Y-70949996D01*
X159260723Y-70799287D01*
X159260032Y-70796998D01*
X159258000Y-70776276D01*
X159258000Y-70017014D01*
X159254027Y-70003483D01*
X159246232Y-70002363D01*
X159166075Y-70025954D01*
X159095078Y-70025999D01*
X159035328Y-69987653D01*
X159005794Y-69923091D01*
X159004500Y-69905080D01*
X159004500Y-66326028D01*
X159024502Y-66257907D01*
X159041405Y-66236933D01*
X163678933Y-61599405D01*
X163741245Y-61565379D01*
X163768028Y-61562500D01*
X178832624Y-61562500D01*
X178851574Y-61563933D01*
X178865973Y-61566124D01*
X178865979Y-61566124D01*
X178873208Y-61567224D01*
X178880500Y-61566631D01*
X178880503Y-61566631D01*
X178926183Y-61562915D01*
X178936398Y-61562500D01*
X178944525Y-61562500D01*
X178948161Y-61562076D01*
X178948163Y-61562076D01*
X178951615Y-61561673D01*
X178972924Y-61559189D01*
X178977244Y-61558762D01*
X179050426Y-61552809D01*
X179057388Y-61550553D01*
X179063376Y-61549357D01*
X179069333Y-61547949D01*
X179076607Y-61547101D01*
X179083489Y-61544603D01*
X179083493Y-61544602D01*
X179145607Y-61522055D01*
X179149711Y-61520645D01*
X179219575Y-61498013D01*
X179225838Y-61494213D01*
X179231380Y-61491675D01*
X179236856Y-61488933D01*
X179243741Y-61486434D01*
X179305132Y-61446185D01*
X179308800Y-61443870D01*
X179371581Y-61405773D01*
X179375786Y-61402059D01*
X179375789Y-61402057D01*
X179380005Y-61398333D01*
X179380031Y-61398362D01*
X179382962Y-61395762D01*
X179386316Y-61392958D01*
X179392435Y-61388946D01*
X179445989Y-61332413D01*
X179448366Y-61329972D01*
X180378933Y-60399405D01*
X180441245Y-60365379D01*
X180468028Y-60362500D01*
X184008973Y-60362500D01*
X184077094Y-60382502D01*
X184123587Y-60436158D01*
X184133691Y-60506432D01*
X184104197Y-60571012D01*
X184098068Y-60577595D01*
X181105425Y-63570238D01*
X181043113Y-63604264D01*
X180972298Y-63599199D01*
X180915462Y-63556652D01*
X180890809Y-63492125D01*
X180885118Y-63427080D01*
X180871543Y-63271913D01*
X180864223Y-63244594D01*
X180813707Y-63056067D01*
X180813706Y-63056065D01*
X180812284Y-63050757D01*
X180809961Y-63045775D01*
X180717849Y-62848238D01*
X180717846Y-62848233D01*
X180715523Y-62843251D01*
X180591230Y-62665742D01*
X180587357Y-62660211D01*
X180587355Y-62660208D01*
X180584198Y-62655700D01*
X180422300Y-62493802D01*
X180417792Y-62490645D01*
X180417789Y-62490643D01*
X180334146Y-62432076D01*
X180234749Y-62362477D01*
X180229767Y-62360154D01*
X180229762Y-62360151D01*
X180032225Y-62268039D01*
X180032224Y-62268039D01*
X180027243Y-62265716D01*
X180021935Y-62264294D01*
X180021933Y-62264293D01*
X179811402Y-62207881D01*
X179811400Y-62207881D01*
X179806087Y-62206457D01*
X179578000Y-62186502D01*
X179349913Y-62206457D01*
X179344600Y-62207881D01*
X179344598Y-62207881D01*
X179134067Y-62264293D01*
X179134065Y-62264294D01*
X179128757Y-62265716D01*
X179123776Y-62268039D01*
X179123775Y-62268039D01*
X178926238Y-62360151D01*
X178926233Y-62360154D01*
X178921251Y-62362477D01*
X178821854Y-62432076D01*
X178738211Y-62490643D01*
X178738208Y-62490645D01*
X178733700Y-62493802D01*
X178571802Y-62655700D01*
X178568645Y-62660208D01*
X178568643Y-62660211D01*
X178564770Y-62665742D01*
X178440477Y-62843251D01*
X178438154Y-62848233D01*
X178438151Y-62848238D01*
X178346039Y-63045775D01*
X178343716Y-63050757D01*
X178342294Y-63056065D01*
X178342293Y-63056067D01*
X178291777Y-63244594D01*
X178284457Y-63271913D01*
X178264502Y-63500000D01*
X178284457Y-63728087D01*
X178343716Y-63949243D01*
X178346039Y-63954224D01*
X178346039Y-63954225D01*
X178438151Y-64151762D01*
X178438154Y-64151767D01*
X178440477Y-64156749D01*
X178571802Y-64344300D01*
X178733700Y-64506198D01*
X178738208Y-64509355D01*
X178738211Y-64509357D01*
X178796740Y-64550339D01*
X178921251Y-64637523D01*
X178926233Y-64639846D01*
X178926238Y-64639849D01*
X179089107Y-64715795D01*
X179128757Y-64734284D01*
X179134065Y-64735706D01*
X179134067Y-64735707D01*
X179344598Y-64792119D01*
X179344600Y-64792119D01*
X179349913Y-64793543D01*
X179544293Y-64810549D01*
X179570124Y-64812809D01*
X179636242Y-64838673D01*
X179677881Y-64896176D01*
X179681822Y-64967063D01*
X179648237Y-65027425D01*
X177334591Y-67341071D01*
X177272279Y-67375097D01*
X177201464Y-67370032D01*
X177182105Y-67359453D01*
X177181763Y-67360079D01*
X177173885Y-67355766D01*
X177166705Y-67350385D01*
X177030316Y-67299255D01*
X176968134Y-67292500D01*
X175371866Y-67292500D01*
X175309684Y-67299255D01*
X175173295Y-67350385D01*
X175056739Y-67437739D01*
X174969385Y-67554295D01*
X174918255Y-67690684D01*
X174911500Y-67752866D01*
X174911500Y-68899134D01*
X174918255Y-68961316D01*
X174921029Y-68968715D01*
X174966232Y-69089296D01*
X174966234Y-69089299D01*
X174969385Y-69097705D01*
X174974773Y-69104894D01*
X174974906Y-69105137D01*
X174990076Y-69174494D01*
X174984752Y-69202907D01*
X174927710Y-69387180D01*
X174927066Y-69393305D01*
X174927066Y-69393306D01*
X174914779Y-69510205D01*
X174906524Y-69588750D01*
X174908721Y-69612887D01*
X174919485Y-69731159D01*
X174924894Y-69790596D01*
X174926632Y-69796502D01*
X174926633Y-69796506D01*
X174930813Y-69810707D01*
X174982119Y-69985029D01*
X174984972Y-69990486D01*
X174984973Y-69990489D01*
X175021348Y-70060068D01*
X175075923Y-70164460D01*
X175075923Y-70164462D01*
X175076019Y-70164645D01*
X175075984Y-70164663D01*
X175095889Y-70230441D01*
X175080729Y-70291409D01*
X174987644Y-70463565D01*
X174983494Y-70476971D01*
X174931787Y-70644010D01*
X174927710Y-70657180D01*
X174927066Y-70663305D01*
X174927066Y-70663306D01*
X174907918Y-70845488D01*
X174906524Y-70858750D01*
X174909427Y-70890643D01*
X174924094Y-71051803D01*
X174924894Y-71060596D01*
X174982119Y-71255029D01*
X174984972Y-71260486D01*
X174984973Y-71260489D01*
X175004522Y-71297883D01*
X175076019Y-71434645D01*
X175079879Y-71439445D01*
X175079879Y-71439446D01*
X175084968Y-71445775D01*
X175203019Y-71592601D01*
X175358281Y-71722881D01*
X175363673Y-71725845D01*
X175363677Y-71725848D01*
X175530494Y-71817556D01*
X175535891Y-71820523D01*
X175729084Y-71881807D01*
X175735201Y-71882493D01*
X175735205Y-71882494D01*
X175809348Y-71890810D01*
X175886817Y-71899500D01*
X176446004Y-71899500D01*
X176596713Y-71884723D01*
X176790742Y-71826142D01*
X176969698Y-71730990D01*
X177126763Y-71602890D01*
X177139246Y-71587801D01*
X177252027Y-71451472D01*
X177252029Y-71451469D01*
X177255956Y-71446722D01*
X177352356Y-71268435D01*
X177412290Y-71074820D01*
X177413826Y-71060211D01*
X177432832Y-70879378D01*
X177432832Y-70879377D01*
X177433476Y-70873250D01*
X177424025Y-70769401D01*
X177415665Y-70677543D01*
X177415664Y-70677540D01*
X177415106Y-70671404D01*
X177413014Y-70664293D01*
X177359620Y-70482880D01*
X177357881Y-70476971D01*
X177353951Y-70469452D01*
X177295834Y-70358285D01*
X177263981Y-70297355D01*
X177264016Y-70297337D01*
X177244111Y-70231559D01*
X177259271Y-70170591D01*
X177286669Y-70119919D01*
X177352356Y-69998435D01*
X177389430Y-69878669D01*
X177410468Y-69810707D01*
X177410469Y-69810704D01*
X177412290Y-69804820D01*
X177413829Y-69790183D01*
X177432832Y-69609378D01*
X177432832Y-69609377D01*
X177433476Y-69603250D01*
X177423406Y-69492606D01*
X177415665Y-69407543D01*
X177415664Y-69407540D01*
X177415106Y-69401404D01*
X177403931Y-69363433D01*
X177370183Y-69248769D01*
X177370137Y-69177772D01*
X177408483Y-69118021D01*
X177476462Y-69088041D01*
X177500935Y-69085188D01*
X177505244Y-69084762D01*
X177578426Y-69078809D01*
X177585388Y-69076553D01*
X177591376Y-69075357D01*
X177597333Y-69073949D01*
X177604607Y-69073101D01*
X177611489Y-69070603D01*
X177611493Y-69070602D01*
X177673607Y-69048055D01*
X177677711Y-69046645D01*
X177747575Y-69024013D01*
X177753838Y-69020213D01*
X177759380Y-69017675D01*
X177764856Y-69014933D01*
X177771741Y-69012434D01*
X177833132Y-68972185D01*
X177836800Y-68969870D01*
X177899581Y-68931773D01*
X177903786Y-68928059D01*
X177903789Y-68928057D01*
X177908005Y-68924333D01*
X177908031Y-68924362D01*
X177910962Y-68921762D01*
X177914316Y-68918958D01*
X177920435Y-68914946D01*
X177973989Y-68858413D01*
X177976366Y-68855972D01*
X185232933Y-61599405D01*
X185295245Y-61565379D01*
X185322028Y-61562500D01*
X189651972Y-61562500D01*
X189720093Y-61582502D01*
X189741067Y-61599405D01*
X190155444Y-62013782D01*
X190189470Y-62076094D01*
X190184405Y-62146909D01*
X190141858Y-62203745D01*
X190075338Y-62228556D01*
X190033738Y-62224584D01*
X189971402Y-62207881D01*
X189971400Y-62207881D01*
X189966087Y-62206457D01*
X189738000Y-62186502D01*
X189509913Y-62206457D01*
X189504600Y-62207881D01*
X189504598Y-62207881D01*
X189294067Y-62264293D01*
X189294065Y-62264294D01*
X189288757Y-62265716D01*
X189283776Y-62268039D01*
X189283775Y-62268039D01*
X189086238Y-62360151D01*
X189086233Y-62360154D01*
X189081251Y-62362477D01*
X188981854Y-62432076D01*
X188898211Y-62490643D01*
X188898208Y-62490645D01*
X188893700Y-62493802D01*
X188731802Y-62655700D01*
X188728645Y-62660208D01*
X188728643Y-62660211D01*
X188724770Y-62665742D01*
X188600477Y-62843251D01*
X188598154Y-62848233D01*
X188598151Y-62848238D01*
X188506039Y-63045775D01*
X188503716Y-63050757D01*
X188502294Y-63056065D01*
X188502293Y-63056067D01*
X188451777Y-63244594D01*
X188444457Y-63271913D01*
X188424502Y-63500000D01*
X188444457Y-63728087D01*
X188503716Y-63949243D01*
X188506039Y-63954224D01*
X188506039Y-63954225D01*
X188598151Y-64151762D01*
X188598154Y-64151767D01*
X188600477Y-64156749D01*
X188731802Y-64344300D01*
X188893700Y-64506198D01*
X188898208Y-64509355D01*
X188898211Y-64509357D01*
X188956740Y-64550339D01*
X189081251Y-64637523D01*
X189086233Y-64639846D01*
X189086238Y-64639849D01*
X189249107Y-64715795D01*
X189288757Y-64734284D01*
X189294065Y-64735706D01*
X189294067Y-64735707D01*
X189504598Y-64792119D01*
X189504600Y-64792119D01*
X189509913Y-64793543D01*
X189738000Y-64813498D01*
X189966087Y-64793543D01*
X189971400Y-64792119D01*
X189971402Y-64792119D01*
X190181933Y-64735707D01*
X190181935Y-64735706D01*
X190187243Y-64734284D01*
X190226893Y-64715795D01*
X190389762Y-64639849D01*
X190389767Y-64639846D01*
X190394749Y-64637523D01*
X190519260Y-64550339D01*
X190577789Y-64509357D01*
X190577792Y-64509355D01*
X190582300Y-64506198D01*
X190744198Y-64344300D01*
X190875523Y-64156749D01*
X190877846Y-64151767D01*
X190877849Y-64151762D01*
X190969961Y-63954225D01*
X190969961Y-63954224D01*
X190972284Y-63949243D01*
X191031543Y-63728087D01*
X191051498Y-63500000D01*
X191031543Y-63271913D01*
X191024223Y-63244594D01*
X191013416Y-63204262D01*
X191015106Y-63133286D01*
X191054900Y-63074490D01*
X191120164Y-63046542D01*
X191190178Y-63058315D01*
X191224218Y-63082556D01*
X191483874Y-63342212D01*
X191517900Y-63404524D01*
X191520300Y-63442289D01*
X191510206Y-63557666D01*
X191506502Y-63600000D01*
X191526457Y-63828087D01*
X191527881Y-63833400D01*
X191527881Y-63833402D01*
X191580389Y-64029361D01*
X191585716Y-64049243D01*
X191588039Y-64054224D01*
X191588039Y-64054225D01*
X191680151Y-64251762D01*
X191680154Y-64251767D01*
X191682477Y-64256749D01*
X191708128Y-64293382D01*
X191785698Y-64404163D01*
X191813802Y-64444300D01*
X191975700Y-64606198D01*
X191980208Y-64609355D01*
X191980211Y-64609357D01*
X192023758Y-64639849D01*
X192163251Y-64737523D01*
X192168233Y-64739846D01*
X192168238Y-64739849D01*
X192326181Y-64813498D01*
X192370757Y-64834284D01*
X192376065Y-64835706D01*
X192376067Y-64835707D01*
X192586598Y-64892119D01*
X192586600Y-64892119D01*
X192591913Y-64893543D01*
X192820000Y-64913498D01*
X193048087Y-64893543D01*
X193053400Y-64892119D01*
X193053402Y-64892119D01*
X193263933Y-64835707D01*
X193263935Y-64835706D01*
X193269243Y-64834284D01*
X193313819Y-64813498D01*
X193471762Y-64739849D01*
X193471767Y-64739846D01*
X193476749Y-64737523D01*
X193616242Y-64639849D01*
X193659789Y-64609357D01*
X193659792Y-64609355D01*
X193664300Y-64606198D01*
X193826198Y-64444300D01*
X193854303Y-64404163D01*
X193931872Y-64293382D01*
X193957523Y-64256749D01*
X193959846Y-64251767D01*
X193959849Y-64251762D01*
X194051961Y-64054225D01*
X194051961Y-64054224D01*
X194054284Y-64049243D01*
X194059612Y-64029361D01*
X194112119Y-63833402D01*
X194112119Y-63833400D01*
X194113543Y-63828087D01*
X194133498Y-63600000D01*
X201666502Y-63600000D01*
X201686457Y-63828087D01*
X201687881Y-63833400D01*
X201687881Y-63833402D01*
X201740389Y-64029361D01*
X201745716Y-64049243D01*
X201748039Y-64054224D01*
X201748039Y-64054225D01*
X201840151Y-64251762D01*
X201840154Y-64251767D01*
X201842477Y-64256749D01*
X201868128Y-64293382D01*
X201945698Y-64404163D01*
X201973802Y-64444300D01*
X202135700Y-64606198D01*
X202140208Y-64609355D01*
X202140211Y-64609357D01*
X202183758Y-64639849D01*
X202323251Y-64737523D01*
X202328233Y-64739846D01*
X202328238Y-64739849D01*
X202486181Y-64813498D01*
X202530757Y-64834284D01*
X202536065Y-64835706D01*
X202536067Y-64835707D01*
X202746598Y-64892119D01*
X202746600Y-64892119D01*
X202751913Y-64893543D01*
X202980000Y-64913498D01*
X203208087Y-64893543D01*
X203213400Y-64892119D01*
X203213402Y-64892119D01*
X203423933Y-64835707D01*
X203423935Y-64835706D01*
X203429243Y-64834284D01*
X203473819Y-64813498D01*
X203631762Y-64739849D01*
X203631767Y-64739846D01*
X203636749Y-64737523D01*
X203776242Y-64639849D01*
X203819789Y-64609357D01*
X203819792Y-64609355D01*
X203824300Y-64606198D01*
X203986198Y-64444300D01*
X204014303Y-64404163D01*
X204091872Y-64293382D01*
X204117523Y-64256749D01*
X204119846Y-64251767D01*
X204119849Y-64251762D01*
X204211961Y-64054225D01*
X204211961Y-64054224D01*
X204214284Y-64049243D01*
X204219612Y-64029361D01*
X204272119Y-63833402D01*
X204272119Y-63833400D01*
X204273543Y-63828087D01*
X204293498Y-63600000D01*
X204273543Y-63371913D01*
X204265585Y-63342212D01*
X204215707Y-63156067D01*
X204215706Y-63156065D01*
X204214284Y-63150757D01*
X204205974Y-63132936D01*
X204119849Y-62948238D01*
X204119846Y-62948233D01*
X204117523Y-62943251D01*
X204028375Y-62815935D01*
X203989357Y-62760211D01*
X203989355Y-62760208D01*
X203986198Y-62755700D01*
X203824300Y-62593802D01*
X203819792Y-62590645D01*
X203819789Y-62590643D01*
X203687051Y-62497699D01*
X203636749Y-62462477D01*
X203631767Y-62460154D01*
X203631762Y-62460151D01*
X203434225Y-62368039D01*
X203434224Y-62368039D01*
X203429243Y-62365716D01*
X203423935Y-62364294D01*
X203423933Y-62364293D01*
X203213402Y-62307881D01*
X203213400Y-62307881D01*
X203208087Y-62306457D01*
X202980000Y-62286502D01*
X202751913Y-62306457D01*
X202746600Y-62307881D01*
X202746598Y-62307881D01*
X202536067Y-62364293D01*
X202536065Y-62364294D01*
X202530757Y-62365716D01*
X202525776Y-62368039D01*
X202525775Y-62368039D01*
X202328238Y-62460151D01*
X202328233Y-62460154D01*
X202323251Y-62462477D01*
X202272949Y-62497699D01*
X202140211Y-62590643D01*
X202140208Y-62590645D01*
X202135700Y-62593802D01*
X201973802Y-62755700D01*
X201970645Y-62760208D01*
X201970643Y-62760211D01*
X201931625Y-62815935D01*
X201842477Y-62943251D01*
X201840154Y-62948233D01*
X201840151Y-62948238D01*
X201754026Y-63132936D01*
X201745716Y-63150757D01*
X201744294Y-63156065D01*
X201744293Y-63156067D01*
X201694415Y-63342212D01*
X201686457Y-63371913D01*
X201666502Y-63600000D01*
X194133498Y-63600000D01*
X194113543Y-63371913D01*
X194105585Y-63342212D01*
X194055707Y-63156067D01*
X194055706Y-63156065D01*
X194054284Y-63150757D01*
X194045974Y-63132936D01*
X193959849Y-62948238D01*
X193959846Y-62948233D01*
X193957523Y-62943251D01*
X193868375Y-62815935D01*
X193829357Y-62760211D01*
X193829355Y-62760208D01*
X193826198Y-62755700D01*
X193664300Y-62593802D01*
X193659792Y-62590645D01*
X193659789Y-62590643D01*
X193527051Y-62497699D01*
X193476749Y-62462477D01*
X193471767Y-62460154D01*
X193471762Y-62460151D01*
X193274225Y-62368039D01*
X193274224Y-62368039D01*
X193269243Y-62365716D01*
X193263935Y-62364294D01*
X193263933Y-62364293D01*
X193053402Y-62307881D01*
X193053400Y-62307881D01*
X193048087Y-62306457D01*
X192820000Y-62286502D01*
X192814525Y-62286981D01*
X192662289Y-62300300D01*
X192592684Y-62286311D01*
X192562212Y-62263874D01*
X190875933Y-60577595D01*
X190841907Y-60515283D01*
X190846972Y-60444468D01*
X190889519Y-60387632D01*
X190956039Y-60362821D01*
X190965028Y-60362500D01*
X192932624Y-60362500D01*
X192951574Y-60363933D01*
X192965973Y-60366124D01*
X192965979Y-60366124D01*
X192973208Y-60367224D01*
X192980500Y-60366631D01*
X192980503Y-60366631D01*
X193026183Y-60362915D01*
X193036398Y-60362500D01*
X193044525Y-60362500D01*
X193048161Y-60362076D01*
X193048163Y-60362076D01*
X193051615Y-60361673D01*
X193072924Y-60359189D01*
X193077244Y-60358762D01*
X193150426Y-60352809D01*
X193157388Y-60350553D01*
X193163376Y-60349357D01*
X193169333Y-60347949D01*
X193176607Y-60347101D01*
X193183489Y-60344603D01*
X193183493Y-60344602D01*
X193245607Y-60322055D01*
X193249711Y-60320645D01*
X193319575Y-60298013D01*
X193325838Y-60294213D01*
X193331380Y-60291675D01*
X193336856Y-60288933D01*
X193343741Y-60286434D01*
X193405132Y-60246185D01*
X193408800Y-60243870D01*
X193471581Y-60205773D01*
X193475786Y-60202059D01*
X193475789Y-60202057D01*
X193480005Y-60198333D01*
X193480031Y-60198362D01*
X193482962Y-60195762D01*
X193486316Y-60192958D01*
X193492435Y-60188946D01*
X193545989Y-60132413D01*
X193548366Y-60129972D01*
X193978933Y-59699405D01*
X194041245Y-59665379D01*
X194068028Y-59662500D01*
X208233995Y-59662500D01*
X208302116Y-59682502D01*
X208323090Y-59699405D01*
X209357027Y-60733342D01*
X209391053Y-60795654D01*
X209385988Y-60866469D01*
X209340203Y-60925650D01*
X209192473Y-61029092D01*
X209192470Y-61029094D01*
X209187962Y-61032251D01*
X209032251Y-61187962D01*
X209029094Y-61192470D01*
X209029092Y-61192473D01*
X208909101Y-61363838D01*
X208905944Y-61368347D01*
X208903621Y-61373329D01*
X208903618Y-61373334D01*
X208888492Y-61405773D01*
X208812880Y-61567924D01*
X208755885Y-61780629D01*
X208736693Y-62000000D01*
X208755885Y-62219371D01*
X208812880Y-62432076D01*
X208853249Y-62518647D01*
X208903618Y-62626666D01*
X208903621Y-62626671D01*
X208905944Y-62631653D01*
X208909100Y-62636160D01*
X208909101Y-62636162D01*
X209002477Y-62769516D01*
X209032251Y-62812038D01*
X209187962Y-62967749D01*
X209192471Y-62970906D01*
X209192473Y-62970908D01*
X209259696Y-63017978D01*
X209368346Y-63094056D01*
X209567924Y-63187120D01*
X209780629Y-63244115D01*
X210000000Y-63263307D01*
X210219371Y-63244115D01*
X210432076Y-63187120D01*
X210631654Y-63094056D01*
X210740304Y-63017978D01*
X210807527Y-62970908D01*
X210807529Y-62970906D01*
X210812038Y-62967749D01*
X210967749Y-62812038D01*
X210970908Y-62807527D01*
X211074350Y-62659797D01*
X211129807Y-62615469D01*
X211200427Y-62608160D01*
X211266658Y-62642973D01*
X211604758Y-62981073D01*
X211638784Y-63043385D01*
X211641663Y-63070168D01*
X211641663Y-63336718D01*
X211621661Y-63404839D01*
X211596657Y-63433237D01*
X211596631Y-63433259D01*
X211592125Y-63436414D01*
X211436414Y-63592125D01*
X211433257Y-63596633D01*
X211433255Y-63596636D01*
X211313264Y-63768001D01*
X211310107Y-63772510D01*
X211307784Y-63777492D01*
X211307781Y-63777497D01*
X211265767Y-63867598D01*
X211217043Y-63972087D01*
X211160048Y-64184792D01*
X211140856Y-64404163D01*
X211160048Y-64623534D01*
X211217043Y-64836239D01*
X211243100Y-64892119D01*
X211307781Y-65030829D01*
X211307784Y-65030834D01*
X211310107Y-65035816D01*
X211313263Y-65040323D01*
X211313264Y-65040325D01*
X211404078Y-65170020D01*
X211436414Y-65216201D01*
X211592125Y-65371912D01*
X211596631Y-65375067D01*
X211596657Y-65375089D01*
X211635982Y-65434200D01*
X211641663Y-65471608D01*
X211641663Y-68727809D01*
X211621661Y-68795930D01*
X211604758Y-68816904D01*
X207508472Y-72913190D01*
X207494059Y-72925577D01*
X207476436Y-72938546D01*
X207471692Y-72944129D01*
X207471693Y-72944129D01*
X207442021Y-72979055D01*
X207435091Y-72986571D01*
X207429347Y-72992315D01*
X207427073Y-72995189D01*
X207427067Y-72995196D01*
X207411628Y-73014711D01*
X207408837Y-73018115D01*
X207366055Y-73068472D01*
X207366052Y-73068476D01*
X207361316Y-73074051D01*
X207357988Y-73080568D01*
X207354611Y-73085632D01*
X207351384Y-73090856D01*
X207346840Y-73096600D01*
X207343741Y-73103231D01*
X207315768Y-73163082D01*
X207313837Y-73167033D01*
X207300080Y-73193974D01*
X207280457Y-73232404D01*
X207278716Y-73239519D01*
X207276579Y-73245265D01*
X207274655Y-73251048D01*
X207271556Y-73257679D01*
X207270066Y-73264843D01*
X207256608Y-73329547D01*
X207255639Y-73333829D01*
X207238196Y-73405112D01*
X207237500Y-73416330D01*
X207237461Y-73416328D01*
X207237228Y-73420229D01*
X207236839Y-73424588D01*
X207235348Y-73431756D01*
X207235546Y-73439073D01*
X207237454Y-73509577D01*
X207237500Y-73512986D01*
X207237500Y-76117948D01*
X207217498Y-76186069D01*
X207200595Y-76207043D01*
X207055319Y-76352319D01*
X206932024Y-76528404D01*
X206841178Y-76723223D01*
X206785542Y-76930858D01*
X206766807Y-77145000D01*
X206785542Y-77359142D01*
X206841178Y-77566777D01*
X206932024Y-77761596D01*
X207055319Y-77937681D01*
X207207319Y-78089681D01*
X207383403Y-78212976D01*
X207388381Y-78215297D01*
X207388384Y-78215299D01*
X207573241Y-78301499D01*
X207578223Y-78303822D01*
X207583531Y-78305244D01*
X207583533Y-78305245D01*
X207780543Y-78358034D01*
X207780545Y-78358034D01*
X207785858Y-78359458D01*
X208000000Y-78378193D01*
X208214142Y-78359458D01*
X208219455Y-78358034D01*
X208219457Y-78358034D01*
X208416467Y-78305245D01*
X208416469Y-78305244D01*
X208421777Y-78303822D01*
X208426759Y-78301499D01*
X208611616Y-78215299D01*
X208611619Y-78215297D01*
X208616597Y-78212976D01*
X208792681Y-78089681D01*
X208944681Y-77937681D01*
X209067976Y-77761596D01*
X209158822Y-77566777D01*
X209214458Y-77359142D01*
X209233193Y-77145000D01*
X209214458Y-76930858D01*
X209158822Y-76723223D01*
X209067976Y-76528404D01*
X208944681Y-76352319D01*
X208799405Y-76207043D01*
X208765379Y-76144731D01*
X208762500Y-76117948D01*
X208762500Y-73868028D01*
X208782502Y-73799907D01*
X208799405Y-73778933D01*
X212895691Y-69682647D01*
X212910104Y-69670260D01*
X212921828Y-69661632D01*
X212927727Y-69657291D01*
X212962142Y-69616782D01*
X212969072Y-69609266D01*
X212974816Y-69603522D01*
X212977090Y-69600648D01*
X212977096Y-69600641D01*
X212992535Y-69581126D01*
X212995326Y-69577722D01*
X213038108Y-69527365D01*
X213038111Y-69527361D01*
X213042847Y-69521786D01*
X213046175Y-69515269D01*
X213049552Y-69510205D01*
X213052779Y-69504981D01*
X213057323Y-69499237D01*
X213083241Y-69443783D01*
X213088395Y-69432755D01*
X213090326Y-69428804D01*
X213120376Y-69369954D01*
X213123706Y-69363433D01*
X213125447Y-69356318D01*
X213127584Y-69350572D01*
X213129508Y-69344789D01*
X213132607Y-69338158D01*
X213147557Y-69266280D01*
X213148526Y-69261999D01*
X213151405Y-69250236D01*
X213165967Y-69190725D01*
X213166663Y-69179507D01*
X213166702Y-69179509D01*
X213166935Y-69175608D01*
X213167324Y-69171249D01*
X213168815Y-69164081D01*
X213166709Y-69086260D01*
X213166663Y-69082851D01*
X213166663Y-65471608D01*
X213186665Y-65403487D01*
X213211669Y-65375089D01*
X213211695Y-65375067D01*
X213216201Y-65371912D01*
X213371912Y-65216201D01*
X213404249Y-65170020D01*
X213495062Y-65040325D01*
X213495063Y-65040323D01*
X213498219Y-65035816D01*
X213500542Y-65030834D01*
X213500545Y-65030829D01*
X213565226Y-64892119D01*
X213591283Y-64836239D01*
X213648278Y-64623534D01*
X213667470Y-64404163D01*
X213648278Y-64184792D01*
X213591283Y-63972087D01*
X213542559Y-63867598D01*
X213500545Y-63777497D01*
X213500542Y-63777492D01*
X213498219Y-63772510D01*
X213495062Y-63768001D01*
X213375071Y-63596636D01*
X213375069Y-63596633D01*
X213371912Y-63592125D01*
X213216201Y-63436414D01*
X213211695Y-63433259D01*
X213211669Y-63433237D01*
X213172344Y-63374126D01*
X213166663Y-63336718D01*
X213166663Y-62769516D01*
X213168096Y-62750566D01*
X213170287Y-62736167D01*
X213170287Y-62736161D01*
X213171387Y-62728932D01*
X213167078Y-62675957D01*
X213166663Y-62665742D01*
X213166663Y-62657615D01*
X213163352Y-62629216D01*
X213162923Y-62624876D01*
X213161564Y-62608160D01*
X213156972Y-62551714D01*
X213154716Y-62544752D01*
X213153520Y-62538764D01*
X213152112Y-62532807D01*
X213151264Y-62525533D01*
X213148766Y-62518651D01*
X213148765Y-62518647D01*
X213126218Y-62456533D01*
X213124808Y-62452429D01*
X213102176Y-62382565D01*
X213098376Y-62376302D01*
X213095838Y-62370760D01*
X213093096Y-62365284D01*
X213090597Y-62358399D01*
X213069013Y-62325478D01*
X213050348Y-62297008D01*
X213048033Y-62293340D01*
X213009936Y-62230559D01*
X213002496Y-62222135D01*
X213002525Y-62222109D01*
X212999925Y-62219178D01*
X212997121Y-62215824D01*
X212993109Y-62209705D01*
X212936576Y-62156151D01*
X212934135Y-62153774D01*
X209188833Y-58408472D01*
X209176446Y-58394059D01*
X209167818Y-58382335D01*
X209163477Y-58376436D01*
X209122968Y-58342021D01*
X209115452Y-58335091D01*
X209109708Y-58329347D01*
X209106834Y-58327073D01*
X209106827Y-58327067D01*
X209087312Y-58311628D01*
X209083908Y-58308837D01*
X209033551Y-58266055D01*
X209033547Y-58266052D01*
X209027972Y-58261316D01*
X209021455Y-58257988D01*
X209016391Y-58254611D01*
X209011167Y-58251384D01*
X209005423Y-58246840D01*
X208979132Y-58234552D01*
X208938941Y-58215768D01*
X208934990Y-58213837D01*
X208876140Y-58183787D01*
X208869619Y-58180457D01*
X208862504Y-58178716D01*
X208856758Y-58176579D01*
X208850975Y-58174655D01*
X208844344Y-58171556D01*
X208772466Y-58156606D01*
X208768194Y-58155639D01*
X208696911Y-58138196D01*
X208691312Y-58137849D01*
X208691308Y-58137848D01*
X208685693Y-58137500D01*
X208685695Y-58137461D01*
X208681794Y-58137228D01*
X208677435Y-58136839D01*
X208670267Y-58135348D01*
X208662950Y-58135546D01*
X208592446Y-58137454D01*
X208589037Y-58137500D01*
X206975039Y-58137500D01*
X206906918Y-58117498D01*
X206860425Y-58063842D01*
X206850321Y-57993568D01*
X206879815Y-57928988D01*
X206939541Y-57890604D01*
X206971808Y-57885541D01*
X209007152Y-57833335D01*
X209024936Y-57834137D01*
G37*
%TD.AperFunction*%
%TD*%
M02*
