%TF.GenerationSoftware,KiCad,Pcbnew,(6.0.2)*%
%TF.CreationDate,2022-05-16T22:42:21-04:00*%
%TF.ProjectId,Running MicroBug,52756e6e-696e-4672-904d-6963726f4275,0*%
%TF.SameCoordinates,Original*%
%TF.FileFunction,Soldermask,Top*%
%TF.FilePolarity,Negative*%
%FSLAX46Y46*%
G04 Gerber Fmt 4.6, Leading zero omitted, Abs format (unit mm)*
G04 Created by KiCad (PCBNEW (6.0.2)) date 2022-05-16 22:42:21*
%MOMM*%
%LPD*%
G01*
G04 APERTURE LIST*
G04 Aperture macros list*
%AMHorizOval*
0 Thick line with rounded ends*
0 $1 width*
0 $2 $3 position (X,Y) of the first rounded end (center of the circle)*
0 $4 $5 position (X,Y) of the second rounded end (center of the circle)*
0 Add line between two ends*
20,1,$1,$2,$3,$4,$5,0*
0 Add two circle primitives to create the rounded ends*
1,1,$1,$2,$3*
1,1,$1,$4,$5*%
%AMRotRect*
0 Rectangle, with rotation*
0 The origin of the aperture is its center*
0 $1 length*
0 $2 width*
0 $3 Rotation angle, in degrees counterclockwise*
0 Add horizontal line*
21,1,$1,$2,0,0,$3*%
G04 Aperture macros list end*
%ADD10C,2.000000*%
%ADD11R,2.000000X2.000000*%
%ADD12C,4.500000*%
%ADD13C,1.524000*%
%ADD14C,2.540000*%
%ADD15C,3.200000*%
%ADD16R,5.080000X5.080000*%
%ADD17C,1.440000*%
%ADD18C,1.800000*%
%ADD19RotRect,1.800000X1.800000X225.000000*%
%ADD20R,1.050000X1.500000*%
%ADD21O,1.050000X1.500000*%
%ADD22C,1.600000*%
%ADD23HorizOval,1.600000X0.000000X0.000000X0.000000X0.000000X0*%
%ADD24C,1.500000*%
%ADD25R,1.500000X1.050000*%
%ADD26O,1.500000X1.050000*%
%ADD27O,1.600000X1.600000*%
%ADD28R,1.524000X1.524000*%
%ADD29HorizOval,1.600000X0.000000X0.000000X0.000000X0.000000X0*%
%ADD30RotRect,1.800000X1.800000X135.000000*%
G04 APERTURE END LIST*
D10*
%TO.C,BT1*%
X126512500Y-93472000D03*
D11*
X126512500Y-80772000D03*
D12*
X154812500Y-87272000D03*
%TD*%
D13*
%TO.C,SW1*%
X132548000Y-72494000D03*
X129500000Y-72494000D03*
X126452000Y-72494000D03*
D14*
X135469000Y-69700000D03*
X123531000Y-69700000D03*
%TD*%
D15*
%TO.C,REF\u002A\u002A*%
X209000000Y-87122000D03*
%TD*%
%TO.C,REF\u002A\u002A*%
X150200000Y-107000000D03*
%TD*%
%TO.C,REF\u002A\u002A*%
X150200000Y-66000000D03*
%TD*%
D16*
%TO.C,REF\u002A\u002A*%
X121700000Y-96800000D03*
X121700000Y-77800000D03*
%TD*%
D17*
%TO.C,RV2*%
X208000000Y-77145000D03*
X205460000Y-79685000D03*
X208000000Y-82225000D03*
%TD*%
%TO.C,RV1*%
X208265000Y-92710000D03*
X205725000Y-95250000D03*
X208265000Y-97790000D03*
%TD*%
D18*
%TO.C,D1*%
X204959949Y-106952051D03*
D19*
X206756000Y-105156000D03*
%TD*%
D20*
%TO.C,T3*%
X156972000Y-71226000D03*
D21*
X158242000Y-71226000D03*
X159512000Y-71226000D03*
%TD*%
D22*
%TO.C,R5*%
X165000000Y-71900000D03*
D23*
X172184205Y-64715795D03*
%TD*%
D24*
%TO.C,LDR1*%
X211000000Y-110000000D03*
X208595837Y-112404163D03*
%TD*%
D20*
%TO.C,T1*%
X159258000Y-103780000D03*
D21*
X157988000Y-103780000D03*
X156718000Y-103780000D03*
%TD*%
D24*
%TO.C,LDR2*%
X212404163Y-64404163D03*
X210000000Y-62000000D03*
%TD*%
D25*
%TO.C,T2*%
X176170000Y-103886000D03*
D26*
X176170000Y-105156000D03*
X176170000Y-106426000D03*
%TD*%
D22*
%TO.C,R3*%
X192024000Y-111252000D03*
D27*
X202184000Y-111252000D03*
%TD*%
D13*
%TO.C,M2*%
X182770000Y-89822000D03*
D28*
X200770000Y-89822000D03*
%TD*%
D27*
%TO.C,R6*%
X202980000Y-63600000D03*
D22*
X192820000Y-63600000D03*
%TD*%
%TO.C,R2*%
X165407898Y-102407898D03*
D29*
X172592103Y-109592103D03*
%TD*%
D26*
%TO.C,T4*%
X176170000Y-70866000D03*
X176170000Y-69596000D03*
D25*
X176170000Y-68326000D03*
%TD*%
D30*
%TO.C,D2*%
X207010000Y-69596000D03*
D18*
X205213949Y-67799949D03*
%TD*%
D22*
%TO.C,R4*%
X189738000Y-63500000D03*
D27*
X179578000Y-63500000D03*
%TD*%
D28*
%TO.C,M1*%
X182770000Y-85003000D03*
D13*
X200770000Y-85003000D03*
%TD*%
D22*
%TO.C,R1*%
X178816000Y-111252000D03*
D27*
X188976000Y-111252000D03*
%TD*%
M02*
